<?xml version="1.0" encoding="utf-8"?>
<svg width="22px" height="19px" viewBox="0 0 22 19" version="1.1" xmlns:xlink="http://www.w3.org/1999/xlink" xmlns="http://www.w3.org/2000/svg">
  <path d="M16.7418 3.61732L19.0506 3.62933C20.6703 3.62933 22 4.95129 22 6.56165L22 16.0436C22 17.654 20.6703 19 19.0506 19L2.94943 19C1.32968 19 0 17.654 0 16.0436L0 6.56165C0 4.95129 1.32968 3.62933 2.94949 3.62933L5.08905 3.61732L7.37366 0.324478C7.50659 0.132202 7.72418 0 7.96597 0L13.9253 0C14.167 0 14.3967 0.132172 14.5297 0.336487L16.7418 3.61732ZM19.0506 17.5579C19.8725 17.5579 20.5495 16.8609 20.5495 16.0437L20.5374 16.0437L20.5374 6.56169C20.5374 5.74451 19.8605 5.0715 19.0385 5.0715L16.3308 5.04745C16.1012 5.04745 15.8715 4.91524 15.7385 4.72298L13.5385 1.45413L8.35278 1.45413L6.06818 4.74698C5.93524 4.93924 5.71765 5.07146 5.47586 5.07146L2.94949 5.07146C2.12753 5.07146 1.45059 5.74442 1.45059 6.56165L1.45059 16.0436C1.45059 16.8609 2.1275 17.5579 2.94949 17.5579L19.0506 17.5579ZM5.83133 10.4236C5.83133 7.59039 8.14206 5.27777 11 5.27777C13.8458 5.27777 16.1687 7.59035 16.1687 10.4236C16.1687 13.2568 13.8458 15.5694 11 15.5694C8.15421 15.5694 5.83133 13.2569 5.83133 10.4236ZM16.9639 7.38889C16.9639 6.80386 17.4365 6.33333 18.0241 6.33333C18.6117 6.33333 19.0844 6.80386 19.0844 7.38889C19.0844 7.97392 18.6117 8.44444 18.0241 8.44444C17.4365 8.44444 16.9639 7.97392 16.9639 7.38889ZM7.29071 10.4236C7.29071 12.4577 8.95685 14.1165 11 14.1165C13.0432 14.1165 14.7093 12.4577 14.7093 10.4236C14.7093 8.38947 13.0432 6.73068 11 6.73068C8.95685 6.73068 7.29071 8.38947 7.29071 10.4236ZM17.5515 7.38889C17.5515 7.6432 17.7559 7.85942 18.0241 7.85942C18.2924 7.85942 18.4967 7.6432 18.4967 7.38889C18.4967 7.13457 18.2796 6.91837 18.0241 6.91837C17.7686 6.91837 17.5515 7.13457 17.5515 7.38889ZM18.0241 7.65277C18.1705 7.65277 18.2892 7.53464 18.2892 7.38889C18.2892 7.24315 18.1705 7.125 18.0241 7.125C17.8777 7.125 17.759 7.24315 17.759 7.38889C17.759 7.53464 17.8777 7.65277 18.0241 7.65277Z" id="Combined-Shape" fill="#FFFFFF" fill-rule="evenodd" stroke="none" />
</svg>