<?xml version="1.0" encoding="utf-8"?>
<svg width="36px" height="36px" viewBox="0 0 36 36" version="1.1" xmlns:xlink="http://www.w3.org/1999/xlink" xmlns="http://www.w3.org/2000/svg">
  <path d="M18 35.5C27.665 35.5 35.5 27.665 35.5 18C35.5 8.33502 27.665 0.5 18 0.5C8.33501 0.5 0.5 8.33502 0.5 18C0.5 27.665 8.33501 35.5 18 35.5Z" id="Oval-Copy-3" fill="#CC7171" fill-rule="evenodd" stroke="none" />
  <path d="M12.3264 10.5L24.2195 10.5C25.3494 10.5 26.2731 11.424 26.2731 12.5539L26.2731 24.447C26.2731 25.5766 25.3494 26.5 24.2195 26.5L12.3264 26.5C11.1965 26.5 10.2718 25.5765 10.2718 24.447L10.2718 12.5539C10.2718 11.424 11.1965 10.5 12.3264 10.5ZM21.9286 12.277C21.5318 12.277 21.2082 12.6019 21.2082 12.9984L21.2082 14.722C21.2082 15.1187 21.5318 15.4428 21.9286 15.4428L23.7369 15.4428C24.1329 15.4428 24.4572 15.1187 24.4572 14.722L24.4572 12.9984C24.4572 12.6019 24.1329 12.277 23.7369 12.277L21.9286 12.277ZM24.4641 17.2662L23.0562 17.2662C23.1897 17.7022 23.2621 18.162 23.2621 18.6401C23.2621 21.3007 21.0344 23.4586 18.2875 23.4586C15.5413 23.4586 13.3136 21.3007 13.3136 18.6401C13.3136 18.162 13.3867 17.7022 13.5195 17.2662L12.0507 17.2662L12.0507 24.0258C12.0507 24.3759 12.3365 24.6606 12.6862 24.6606L23.8288 24.6606C24.1789 24.6606 24.4641 24.3759 24.4641 24.0258L24.4641 17.2662ZM18.2876 15.3519C16.5136 15.3519 15.0745 16.7455 15.0745 18.4662C15.0745 20.1851 16.5136 21.5798 18.2876 21.5798C20.0625 21.5798 21.5016 20.1851 21.5016 18.4662C21.5016 16.7455 20.0625 15.3519 18.2876 15.3519Z" id="XMLID_505_" fill="#FFFFFF" stroke="none" />
</svg>