<svg width="19" height="18" viewBox="0 0 19 18" fill="none" xmlns="http://www.w3.org/2000/svg">
<path d="M9.49432 0C5.91333 0 3 2.92437 3 6.51889C3 10.9798 8.81178 17.5287 9.05922 17.8053C9.29164 18.0651 9.69742 18.0647 9.92942 17.8053C10.1769 17.5287 15.9886 10.9798 15.9886 6.51889C15.9886 2.92437 13.0753 0 9.49432 0ZM9.49432 9.79873C7.69264 9.79873 6.2269 8.3274 6.2269 6.51889C6.2269 4.71038 7.69267 3.23909 9.49432 3.23909C11.296 3.23909 12.7617 4.71042 12.7617 6.51893C12.7617 8.32744 11.296 9.79873 9.49432 9.79873Z" fill="url(#paint0_linear_26_23)"/>
<defs>
<linearGradient id="paint0_linear_26_23" x1="9.4943" y1="0" x2="9.4943" y2="18" gradientUnits="userSpaceOnUse">
<stop stop-color="#FFBA10"/>
<stop offset="1" stop-color="#FC7712"/>
</linearGradient>
</defs>
</svg>
