<?xml version="1.0" encoding="utf-8"?>
<svg width="20px" height="21px" viewBox="0 0 20 21" version="1.1" xmlns:xlink="http://www.w3.org/1999/xlink" xmlns="http://www.w3.org/2000/svg">
  <path d="M19.4288 9.84534L10.1339 0.549561C9.76773 0.18335 9.28793 0 8.80814 0C8.32834 0 7.84805 0.18335 7.48232 0.549561L2.39209 5.63885C1.65967 6.37128 1.65967 7.5816 2.39209 8.31403L3.23575 9.18079L5.18182 9.18079L3.36536 7.34076C3.23811 7.21301 3.21925 7.05328 3.21925 6.97595C3.21925 6.89868 3.23811 6.74457 3.36536 6.61731L4.03746 5.96594L7.23158 9.18079L10.2956 9.18079L5.56924 4.43085L8.45511 1.53369C8.58237 1.40643 8.73083 1.38239 8.80814 1.38239C8.88542 1.38239 9.03389 1.39838 9.16115 1.52521L18.4565 10.8196C18.5842 10.9473 18.6035 11.0944 18.6035 11.1721C18.6035 11.2494 18.5705 11.3974 18.4428 11.5251L17.9159 12.0393L17.9159 13.9854L19.4165 12.4984C20.1485 11.7645 20.1617 10.5778 19.4288 9.84534ZM15.0675 10.0522L1.92108 10.0522C0.885605 10.0522 0 10.8865 0 11.9219L0 16.8943L16.9193 16.8943L16.9193 11.9219C16.9193 10.8865 16.103 10.0522 15.0675 10.0522ZM4.59439 15.2014C4.22725 15.2014 3.89496 15.0553 3.64987 14.8196C3.4048 15.0553 3.07205 15.2014 2.70583 15.2014C1.95267 15.2014 1.34137 14.591 1.34137 13.8364C1.34137 13.0828 1.95219 12.472 2.70583 12.472C3.07251 12.472 3.40526 12.6176 3.64987 12.8533C3.89496 12.6176 4.22725 12.472 4.59439 12.472C5.34804 12.472 5.95886 13.0828 5.95886 13.8364C5.95886 14.591 5.34804 15.2014 4.59439 15.2014ZM1.92108 21C0.885132 21 0 20.1549 0 19.1194L0 19.0092L16.9198 19.0092L16.9198 19.1194C16.9198 20.1549 16.103 21 15.0675 21L1.92108 21Z" id="Combined-Shape" fill="#FFFFFF" fill-rule="evenodd" stroke="none" />
</svg>