<?xml version="1.0" encoding="utf-8"?>
<svg width="17px" height="19px" viewBox="0 0 17 19" version="1.1" xmlns:xlink="http://www.w3.org/1999/xlink" xmlns="http://www.w3.org/2000/svg">
  <path d="M14.1651 13.4306C13.448 13.4306 12.8061 13.7148 12.317 14.1629L5.58203 10.2061C5.63065 9.98685 5.66824 9.76598 5.66824 9.53797C5.66824 9.30997 5.62985 9.08988 5.58203 8.8698L12.2409 4.95025C12.7488 5.42525 13.4205 5.72211 14.1651 5.72211C15.735 5.72211 17 4.44673 17 2.86104C17 1.27853 15.7342 0 14.1651 0C12.5983 0 11.3326 1.27853 11.3326 2.86028C11.3326 3.09143 11.371 3.30836 11.4188 3.52845L4.75986 7.45115C4.25119 6.97379 3.58029 6.67769 2.8349 6.67769C1.26501 6.67769 0 7.95546 0 9.53797C0 11.1205 1.26501 12.399 2.8349 12.399C3.57947 12.399 4.25119 12.1021 4.75906 11.6272L11.4822 15.5926C11.436 15.7945 11.407 16.0051 11.407 16.2149C11.407 17.7507 12.6461 19 14.1643 19C15.684 19 16.9239 17.7515 16.9239 16.2149C16.9239 14.6783 15.6848 13.4306 14.1651 13.4306Z" id="Path" fill="#FFFFFF" fill-rule="evenodd" stroke="none" />
</svg>