<svg width="101" height="30" viewBox="0 0 101 30" fill="none" xmlns="http://www.w3.org/2000/svg">
<g clip-path="url(#clip0_42_16)">
<path fill-rule="evenodd" clip-rule="evenodd" d="M6.999 0H63.8711C63.8711 0 66.804 5.50459 70.4219 5.50459C74.0399 5.50459 76.9863 0 76.9863 0H93.5566C93.6711 0 93.7856 0.0028102 93.9 0.0084306C94.0144 0.014051 94.1286 0.0224748 94.2426 0.0337021C94.3566 0.0449294 94.4702 0.0589465 94.5835 0.0757536C94.6968 0.0925605 94.8097 0.112137 94.922 0.134484C95.0343 0.15683 95.1461 0.181919 95.2572 0.209751C95.3683 0.237583 95.4786 0.268124 95.5883 0.301375C95.6979 0.334625 95.8066 0.370544 95.9144 0.409133C96.0223 0.447722 96.1291 0.488933 96.2349 0.532767C96.3408 0.576601 96.4455 0.623005 96.549 0.671979C96.6525 0.720953 96.7548 0.772438 96.8559 0.826433C96.9569 0.880428 97.0565 0.93687 97.1547 0.995757C97.253 1.05465 97.3497 1.11591 97.445 1.17954C97.5402 1.24318 97.6338 1.30912 97.7258 1.37735C97.8179 1.44558 97.9082 1.51603 97.9967 1.5887C98.0852 1.66137 98.1719 1.73616 98.2568 1.81308C98.3417 1.89001 98.4246 1.96897 98.5056 2.04996C98.5866 2.13095 98.6656 2.21389 98.7425 2.29876C98.8194 2.38363 98.8942 2.47034 98.9669 2.55888C99.0395 2.64743 99.1099 2.7377 99.1782 2.8297C99.2464 2.9217 99.3123 3.01532 99.376 3.11056C99.4397 3.2058 99.5009 3.30254 99.5598 3.40079C99.6187 3.49904 99.6751 3.59868 99.7291 3.69969C99.7831 3.80071 99.8346 3.90299 99.8836 4.00654C99.9325 4.11009 99.979 4.21477 100.023 4.3206C100.067 4.42642 100.108 4.53326 100.146 4.64111C100.185 4.74896 100.221 4.85769 100.254 4.9673C100.287 5.07691 100.318 5.18727 100.346 5.29838C100.374 5.40949 100.399 5.52122 100.421 5.63356C100.444 5.74591 100.463 5.85873 100.48 5.97203C100.497 6.08534 100.511 6.19899 100.522 6.31298C100.533 6.42697 100.542 6.54117 100.547 6.65558C100.553 6.76998 100.556 6.88445 100.556 6.999V23.001C100.556 23.1155 100.553 23.23 100.547 23.3444C100.542 23.4588 100.533 23.573 100.522 23.687C100.511 23.801 100.497 23.9147 100.48 24.028C100.463 24.1413 100.444 24.2541 100.421 24.3664C100.399 24.4787 100.374 24.5905 100.346 24.7016C100.318 24.8127 100.287 24.9231 100.254 25.0327C100.221 25.1423 100.185 25.251 100.146 25.3589C100.108 25.4668 100.067 25.5736 100.023 25.6794C99.979 25.7852 99.9325 25.8899 99.8836 25.9935C99.8346 26.097 99.7831 26.1993 99.7291 26.3003C99.6751 26.4013 99.6187 26.5009 99.5598 26.5992C99.5009 26.6975 99.4397 26.7942 99.376 26.8894C99.3123 26.9847 99.2464 27.0783 99.1782 27.1703C99.1099 27.2623 99.0395 27.3526 98.9669 27.4411C98.8942 27.5296 98.8194 27.6163 98.7425 27.7012C98.6656 27.7861 98.5866 27.869 98.5056 27.95C98.4246 28.031 98.3417 28.11 98.2568 28.1869C98.1719 28.2638 98.0852 28.3386 97.9967 28.4113C97.9082 28.484 97.8179 28.5544 97.7258 28.6226C97.6338 28.6909 97.5402 28.7568 97.445 28.8205C97.3497 28.8841 97.253 28.9453 97.1548 29.0042C97.0565 29.0631 96.9569 29.1196 96.8559 29.1736C96.7548 29.2276 96.6525 29.2791 96.549 29.328C96.4455 29.377 96.3408 29.4234 96.2349 29.4672C96.1291 29.5111 96.0223 29.5523 95.9144 29.5909C95.8066 29.6294 95.6979 29.6653 95.5883 29.6986C95.4786 29.7319 95.3683 29.7624 95.2572 29.7902C95.1461 29.8181 95.0343 29.8432 94.922 29.8655C94.8097 29.8878 94.6968 29.9074 94.5835 29.9242C94.4702 29.9411 94.3566 29.9551 94.2426 29.9663C94.1286 29.9775 94.0144 29.9859 93.9 29.9916C93.7856 29.9972 93.6711 30 93.5566 30H76.9863C76.9863 30 74.0534 24.4954 70.4355 24.4954C66.8175 24.4954 63.8711 30 63.8711 30H6.999C6.88445 30 6.76998 29.9972 6.65557 29.9916C6.54117 29.9859 6.42697 29.9775 6.31298 29.9663C6.19899 29.9551 6.08534 29.9411 5.97203 29.9242C5.85873 29.9074 5.74591 29.8878 5.63356 29.8655C5.52122 29.8432 5.40949 29.8181 5.29838 29.7902C5.18727 29.7624 5.07691 29.7319 4.9673 29.6986C4.85769 29.6653 4.74896 29.6294 4.64111 29.5909C4.53326 29.5523 4.42642 29.5111 4.3206 29.4672C4.21477 29.4234 4.11009 29.377 4.00654 29.328C3.90299 29.2791 3.80071 29.2276 3.69969 29.1736C3.59868 29.1196 3.49904 29.0631 3.40079 29.0042C3.30254 28.9453 3.2058 28.8841 3.11056 28.8205C3.01532 28.7568 2.9217 28.6909 2.8297 28.6226C2.7377 28.5544 2.64743 28.484 2.55888 28.4113C2.47034 28.3386 2.38363 28.2638 2.29876 28.1869C2.21389 28.11 2.13095 28.031 2.04996 27.95C1.96897 27.869 1.89001 27.7861 1.81308 27.7012C1.73616 27.6163 1.66137 27.5296 1.5887 27.4411C1.51603 27.3526 1.44558 27.2623 1.37735 27.1703C1.30912 27.0783 1.24318 26.9847 1.17954 26.8894C1.11591 26.7942 1.05465 26.6975 0.995757 26.5992C0.93687 26.5009 0.880428 26.4013 0.826433 26.3003C0.772438 26.1993 0.720953 26.097 0.671979 25.9935C0.623005 25.8899 0.576601 25.7852 0.532767 25.6794C0.488933 25.5736 0.447722 25.4668 0.409133 25.3589C0.370544 25.251 0.334625 25.1423 0.301375 25.0327C0.268124 24.9231 0.237583 24.8127 0.209751 24.7016C0.181919 24.5905 0.15683 24.4787 0.134484 24.3664C0.112137 24.2541 0.0925605 24.1413 0.0757536 24.028C0.0589465 23.9147 0.0449294 23.801 0.0337021 23.687C0.0224748 23.573 0.014051 23.4588 0.0084306 23.3444C0.0028102 23.23 0 23.1155 0 23.001V6.999C0 6.88445 0.0028102 6.76998 0.0084306 6.65557C0.014051 6.54117 0.0224748 6.42697 0.0337021 6.31298C0.0449294 6.19899 0.0589465 6.08534 0.0757536 5.97203C0.0925605 5.85873 0.112137 5.74591 0.134484 5.63356C0.15683 5.52122 0.181919 5.40949 0.209751 5.29838C0.237583 5.18727 0.268124 5.07691 0.301375 4.9673C0.334625 4.85769 0.370544 4.74896 0.409133 4.64111C0.447722 4.53326 0.488933 4.42642 0.532767 4.3206C0.576601 4.21477 0.623005 4.11009 0.671979 4.00654C0.720953 3.90299 0.772438 3.80071 0.826433 3.69969C0.880428 3.59868 0.93687 3.49904 0.995757 3.40079C1.05465 3.30254 1.11591 3.2058 1.17954 3.11056C1.24318 3.01532 1.30912 2.9217 1.37735 2.8297C1.44558 2.7377 1.51603 2.64743 1.5887 2.55888C1.66137 2.47034 1.73616 2.38363 1.81308 2.29876C1.89001 2.21389 1.96897 2.13095 2.04996 2.04996C2.13095 1.96897 2.21389 1.89001 2.29876 1.81308C2.38363 1.73616 2.47034 1.66137 2.55888 1.5887C2.64743 1.51603 2.7377 1.44558 2.8297 1.37735C2.9217 1.30912 3.01532 1.24318 3.11056 1.17954C3.2058 1.11591 3.30254 1.05465 3.40079 0.995757C3.49904 0.93687 3.59868 0.880428 3.69969 0.826433C3.80071 0.772438 3.90299 0.720953 4.00654 0.671979C4.11009 0.623005 4.21477 0.576601 4.3206 0.532767C4.42642 0.488933 4.53326 0.447722 4.64111 0.409133C4.74896 0.370544 4.85769 0.334625 4.9673 0.301375C5.07691 0.268124 5.18727 0.237583 5.29838 0.209751C5.40949 0.181919 5.52122 0.15683 5.63356 0.134484C5.74591 0.112137 5.85873 0.0925605 5.97203 0.0757536C6.08534 0.0589465 6.19899 0.0449294 6.31298 0.0337021C6.42697 0.0224748 6.54117 0.014051 6.65558 0.0084306C6.76998 0.0028102 6.88445 0 6.999 0Z" fill="url(#paint0_linear_42_16)"/>
<path fill-rule="evenodd" clip-rule="evenodd" d="M70.999 8H71.001C71.0666 8 71.1316 8.0064 71.1959 8.0192C71.2602 8.03199 71.3227 8.05094 71.3833 8.07604C71.4439 8.10115 71.5015 8.13192 71.556 8.16836C71.6105 8.20481 71.661 8.24622 71.7074 8.2926C71.7538 8.33898 71.7952 8.38944 71.8316 8.44398C71.8681 8.49852 71.8988 8.55609 71.9239 8.6167C71.949 8.6773 71.968 8.73977 71.9808 8.8041C71.9936 8.86844 72 8.93341 72 8.999V10.001C72 10.0666 71.9936 10.1316 71.9808 10.1959C71.968 10.2602 71.949 10.3227 71.9239 10.3833C71.8988 10.4439 71.8681 10.5015 71.8316 10.556C71.7952 10.6105 71.7538 10.661 71.7074 10.7074C71.661 10.7538 71.6105 10.7952 71.556 10.8316C71.5015 10.8681 71.4439 10.8989 71.3833 10.924C71.3227 10.9491 71.2602 10.968 71.1959 10.9808C71.1316 10.9936 71.0666 11 71.001 11H70.999C70.9334 11 70.8684 10.9936 70.8041 10.9808C70.7398 10.968 70.6773 10.9491 70.6167 10.924C70.5561 10.8989 70.4985 10.8681 70.444 10.8316C70.3895 10.7952 70.339 10.7538 70.2926 10.7074C70.2462 10.661 70.2048 10.6105 70.1684 10.556C70.1319 10.5015 70.1011 10.4439 70.076 10.3833C70.0509 10.3227 70.032 10.2602 70.0192 10.1959C70.0064 10.1316 70 10.0666 70 10.001V8.999C70 8.93341 70.0064 8.86844 70.0192 8.8041C70.032 8.73977 70.0509 8.6773 70.076 8.6167C70.1011 8.55609 70.1319 8.49852 70.1684 8.44398C70.2048 8.38944 70.2462 8.33898 70.2926 8.2926C70.339 8.24622 70.3895 8.20481 70.444 8.16836C70.4985 8.13192 70.5561 8.10115 70.6167 8.07604C70.6773 8.05094 70.7398 8.03199 70.8041 8.0192C70.8684 8.0064 70.9334 8 70.999 8Z" fill="white" fill-opacity="0.540667"/>
<path fill-rule="evenodd" clip-rule="evenodd" d="M70.999 13H71.001C71.0666 13 71.1316 13.0064 71.1959 13.0192C71.2602 13.032 71.3227 13.0509 71.3833 13.076C71.4439 13.1011 71.5015 13.1319 71.556 13.1684C71.6105 13.2048 71.661 13.2462 71.7074 13.2926C71.7538 13.339 71.7952 13.3895 71.8316 13.444C71.8681 13.4985 71.8988 13.5561 71.9239 13.6167C71.949 13.6773 71.968 13.7398 71.9808 13.8041C71.9936 13.8684 72 13.9334 72 13.999V15.001C72 15.0666 71.9936 15.1316 71.9808 15.1959C71.968 15.2602 71.949 15.3227 71.9239 15.3833C71.8988 15.4439 71.8681 15.5015 71.8316 15.556C71.7952 15.6105 71.7538 15.661 71.7074 15.7074C71.661 15.7538 71.6105 15.7952 71.556 15.8316C71.5015 15.8681 71.4439 15.8989 71.3833 15.924C71.3227 15.9491 71.2602 15.968 71.1959 15.9808C71.1316 15.9936 71.0666 16 71.001 16H70.999C70.9334 16 70.8684 15.9936 70.8041 15.9808C70.7398 15.968 70.6773 15.9491 70.6167 15.924C70.5561 15.8989 70.4985 15.8681 70.444 15.8316C70.3895 15.7952 70.339 15.7538 70.2926 15.7074C70.2462 15.661 70.2048 15.6105 70.1684 15.556C70.1319 15.5015 70.1011 15.4439 70.076 15.3833C70.0509 15.3227 70.032 15.2602 70.0192 15.1959C70.0064 15.1316 70 15.0666 70 15.001V13.999C70 13.9334 70.0064 13.8684 70.0192 13.8041C70.032 13.7398 70.0509 13.6773 70.076 13.6167C70.1011 13.5561 70.1319 13.4985 70.1684 13.444C70.2048 13.3895 70.2462 13.339 70.2926 13.2926C70.339 13.2462 70.3895 13.2048 70.444 13.1684C70.4985 13.1319 70.5561 13.1011 70.6167 13.076C70.6773 13.0509 70.7398 13.032 70.8041 13.0192C70.8684 13.0064 70.9334 13 70.999 13Z" fill="white" fill-opacity="0.540667"/>
<path fill-rule="evenodd" clip-rule="evenodd" d="M70.999 18H71.001C71.0666 18 71.1316 18.0064 71.1959 18.0192C71.2602 18.032 71.3227 18.0509 71.3833 18.076C71.4439 18.1011 71.5015 18.1319 71.556 18.1684C71.6105 18.2048 71.661 18.2462 71.7074 18.2926C71.7538 18.339 71.7952 18.3895 71.8316 18.444C71.8681 18.4985 71.8988 18.5561 71.9239 18.6167C71.949 18.6773 71.968 18.7398 71.9808 18.8041C71.9936 18.8684 72 18.9334 72 18.999V20.001C72 20.0666 71.9936 20.1316 71.9808 20.1959C71.968 20.2602 71.949 20.3227 71.9239 20.3833C71.8988 20.4439 71.8681 20.5015 71.8316 20.556C71.7952 20.6105 71.7538 20.661 71.7074 20.7074C71.661 20.7538 71.6105 20.7952 71.556 20.8316C71.5015 20.8681 71.4439 20.8989 71.3833 20.924C71.3227 20.9491 71.2602 20.968 71.1959 20.9808C71.1316 20.9936 71.0666 21 71.001 21H70.999C70.9334 21 70.8684 20.9936 70.8041 20.9808C70.7398 20.968 70.6773 20.9491 70.6167 20.924C70.5561 20.8989 70.4985 20.8681 70.444 20.8316C70.3895 20.7952 70.339 20.7538 70.2926 20.7074C70.2462 20.661 70.2048 20.6105 70.1684 20.556C70.1319 20.5015 70.1011 20.4439 70.076 20.3833C70.0509 20.3227 70.032 20.2602 70.0192 20.1959C70.0064 20.1316 70 20.0666 70 20.001V18.999C70 18.9334 70.0064 18.8684 70.0192 18.8041C70.032 18.7398 70.0509 18.6773 70.076 18.6167C70.1011 18.5561 70.1319 18.4985 70.1684 18.444C70.2048 18.3895 70.2462 18.339 70.2926 18.2926C70.339 18.2462 70.3895 18.2048 70.444 18.1684C70.4985 18.1319 70.5561 18.1011 70.6167 18.076C70.6773 18.0509 70.7398 18.032 70.8041 18.0192C70.8684 18.0064 70.9334 18 70.999 18Z" fill="white" fill-opacity="0.540667"/>
<path fill-rule="evenodd" clip-rule="evenodd" d="M95.4776 10.9349C95.4776 10.9392 95.4763 10.943 95.4763 10.9468C95.4763 10.9487 95.4766 10.9507 95.4768 10.9526C95.4773 10.9559 95.4777 10.9591 95.4769 10.9618V13.6908C95.4769 13.9173 95.3489 14.1245 95.1474 14.2268L87.009 18.3245C87.0002 18.3289 86.992 18.3271 86.982 18.3308C86.9048 18.3653 86.8226 18.3886 86.7385 18.3886C86.6544 18.3886 86.5721 18.3653 86.4949 18.3308C86.4855 18.3271 86.4767 18.3289 86.468 18.3245L78.3301 14.2268C78.128 14.1251 78 13.918 78 13.6908V10.9618C78 10.9568 78.0019 10.9518 78.0019 10.9468C78.0019 10.9424 78.0006 10.9386 78.0006 10.9349C78.0013 10.9217 78.0069 10.9104 78.0088 10.8978C78.0126 10.857 78.0195 10.8181 78.032 10.7798C78.0377 10.761 78.0452 10.7434 78.0527 10.7252C78.0672 10.692 78.0847 10.66 78.1048 10.6298C78.1161 10.6129 78.1262 10.5966 78.1393 10.5815C78.1632 10.5526 78.1908 10.5275 78.2203 10.5024C78.2341 10.4911 78.246 10.4786 78.2611 10.4679C78.2649 10.4654 78.2667 10.4616 78.2705 10.4597C78.3151 10.4309 78.3621 10.4083 78.4098 10.392C78.4111 10.392 78.4124 10.3907 78.4136 10.3907L79.923 9.89425C79.9933 9.97144 80.063 10.0455 80.1289 10.1114C80.8181 10.8012 81.9842 11.3761 83.0662 11.8041L81.7789 12.3269V15.2893L83.5614 16.1881V13.0933L85.6037 12.0144C85.079 11.8732 81.8248 10.9593 80.5538 9.68713C80.1829 9.31683 79.694 8.74192 79.7253 8.03458C79.7567 7.32787 80.25 6.91489 80.6473 6.58225C80.7603 6.48685 80.8821 6.38706 80.9969 6.2722C81.1118 6.15735 81.2116 6.03621 81.3063 5.92261C81.6327 5.53348 82.0783 5 82.8233 5C83.503 5 84.0547 5.47323 84.41 5.82972C85.6841 7.10318 86.5979 10.3612 86.7385 10.8815C86.8797 10.3593 87.7929 7.10318 89.0663 5.82972C89.4216 5.47386 89.9733 5.00063 90.6536 5.00063C91.3986 5.00063 91.8436 5.53411 92.17 5.92324C92.2654 6.03747 92.3652 6.1586 92.48 6.27346C92.5961 6.38769 92.7166 6.48811 92.8302 6.58288C93.2269 6.91489 93.7202 7.3285 93.7516 8.03458C93.7836 8.74255 93.2947 9.31683 92.9231 9.68713C91.6528 10.9587 88.4023 11.8725 87.8751 12.0144L89.9162 13.0933V16.1881L91.6986 15.2893V12.3269L90.4126 11.8047C91.4934 11.3773 92.6583 10.8024 93.3486 10.112C93.4146 10.0455 93.4848 9.97207 93.5545 9.89487L95.0646 10.3913C95.0658 10.392 95.0671 10.3932 95.0683 10.3932C95.1173 10.4095 95.1644 10.4315 95.2077 10.4604C95.2114 10.4629 95.2133 10.4666 95.2171 10.4685C95.2315 10.4786 95.2441 10.4917 95.2573 10.503C95.2874 10.5281 95.315 10.5533 95.3389 10.5828C95.352 10.5978 95.3615 10.6141 95.3734 10.6305C95.3935 10.6606 95.411 10.692 95.4255 10.7259C95.433 10.7434 95.4399 10.761 95.4462 10.7798C95.4581 10.8181 95.4656 10.8577 95.47 10.8978C95.4713 10.9104 95.4769 10.9223 95.4776 10.9349ZM81.9981 6.50126C81.8869 6.63405 81.7686 6.77533 81.634 6.90987C81.4994 7.04472 81.358 7.16319 81.2251 7.27456C80.6542 7.75304 80.2398 8.10028 81.1909 9.05134C82.3633 10.2237 85.8799 11.1564 85.8799 11.1564C85.8799 11.1564 84.9472 7.64043 83.7742 6.46739C82.823 5.51623 82.4762 5.93036 81.9981 6.50126ZM91.481 6.50156C91.0026 5.93034 90.6558 5.51625 89.7046 6.46739C88.5316 7.6398 87.5989 11.1564 87.5989 11.1564C87.5989 11.1564 91.1155 10.2231 92.2873 9.05071C93.2386 8.09941 92.8247 7.75265 92.2538 7.27447C92.1211 7.16332 91.9799 7.04508 91.8455 6.9105C91.7107 6.77582 91.5923 6.63444 91.481 6.50156ZM87.174 7.79859L86.9268 7.71763C86.8056 7.67809 86.6738 7.67809 86.5514 7.71763L86.3048 7.79859C86.4654 8.16764 86.6111 8.53731 86.7385 8.88878C86.8671 8.53731 87.014 8.16764 87.174 7.79859ZM93.4359 19.839L87.3404 23.3581V18.8166L87.1458 18.9139C87.0121 18.9641 86.8734 18.9898 86.7397 18.9898C86.6079 18.9898 86.4736 18.9647 86.3387 18.9158L86.306 18.9114L86.2006 18.8624L86.1385 18.831V23.3581L80.0429 19.839V15.7619L78.8417 15.1575V20.1861C78.8417 20.4007 78.9565 20.5991 79.1423 20.7058L86.4391 24.9197C86.5313 24.973 86.6355 25 86.7397 25C86.8439 25 86.9475 24.9736 87.0404 24.9197L94.3365 20.7058C94.5229 20.5991 94.6372 20.4007 94.6372 20.1861V15.1563L93.4359 15.7582V19.839Z" fill="white" fill-opacity="0.698039"/>
</g>
<defs>
<linearGradient id="paint0_linear_42_16" x1="50.278" y1="0" x2="50.278" y2="30" gradientUnits="userSpaceOnUse">
<stop stop-color="#FFBA10"/>
<stop offset="1" stop-color="#FC7712"/>
</linearGradient>
<clipPath id="clip0_42_16">
<rect width="101" height="30" fill="white"/>
</clipPath>
</defs>
</svg>
