<?xml version="1.0" encoding="utf-8"?>
<svg width="36px" height="36px" viewBox="0 0 36 36" version="1.1" xmlns:xlink="http://www.w3.org/1999/xlink" xmlns="http://www.w3.org/2000/svg">
  <path d="M18 35.5C27.665 35.5 35.5 27.665 35.5 18C35.5 8.33502 27.665 0.5 18 0.5C8.33502 0.5 0.5 8.33502 0.5 18C0.5 27.665 8.33502 35.5 18 35.5Z" id="Oval" fill="#85A2D6" fill-rule="evenodd" stroke="none" />
  <path d="M27.5876 23.3373C27.5619 23.2824 27.538 23.2369 27.5157 23.2004C27.1479 22.5432 26.445 21.7365 25.4075 20.7802L25.3856 20.7582L25.3746 20.7475L25.3635 20.7365L25.3524 20.7365C24.8815 20.2911 24.5833 19.9917 24.4584 19.8384C24.2299 19.5463 24.1787 19.2507 24.3036 18.9512C24.3918 18.7249 24.7232 18.247 25.297 17.5168C25.5989 17.1299 25.8379 16.8197 26.0144 16.5861C27.2876 14.9069 27.8395 13.8339 27.6702 13.3666L27.6044 13.2573C27.5602 13.1916 27.4462 13.1315 27.2624 13.0766C27.0782 13.0219 26.8428 13.0128 26.5558 13.0493L23.3769 13.0711C23.3254 13.053 23.2519 13.0547 23.1561 13.0766C23.0604 13.0986 23.0126 13.1096 23.0126 13.1096L22.9572 13.137L22.9133 13.1699C22.8765 13.1917 22.836 13.23 22.7919 13.2848C22.7479 13.3394 22.7111 13.4034 22.6817 13.4764C22.3357 14.3598 21.9422 15.1811 21.5005 15.9403C21.2283 16.393 20.9782 16.7853 20.7498 17.1176C20.5218 17.4496 20.3304 17.6943 20.176 17.8511C20.0214 18.0081 19.8818 18.1339 19.7565 18.2289C19.6313 18.324 19.5358 18.3641 19.4697 18.3494C19.4033 18.3347 19.3409 18.3201 19.2818 18.3056C19.1788 18.2399 19.096 18.1505 19.0336 18.0373C18.9709 17.9241 18.9287 17.7817 18.9066 17.6102C18.8846 17.4385 18.8716 17.2908 18.8679 17.1666C18.8645 17.0427 18.8661 16.8672 18.8735 16.6409C18.8812 16.4146 18.8846 16.2614 18.8846 16.181C18.8846 15.9036 18.8901 15.6024 18.901 15.2776C18.9122 14.9527 18.9212 14.6953 18.9287 14.5057C18.9362 14.3159 18.9397 14.115 18.9397 13.9033C18.9397 13.6916 18.9267 13.5255 18.901 13.405C18.8757 13.2847 18.8367 13.1678 18.7854 13.0546C18.7338 12.9414 18.6583 12.8539 18.5592 12.7917C18.4598 12.7297 18.3363 12.6804 18.1894 12.6439C17.7994 12.5563 17.3027 12.5089 16.6991 12.5016C15.3305 12.487 14.4511 12.5746 14.0611 12.7645C13.9066 12.8447 13.7667 12.9543 13.6417 13.0929C13.5092 13.2535 13.4907 13.3412 13.5864 13.3557C14.028 13.4213 14.3406 13.5782 14.5246 13.8265L14.5909 13.958C14.6424 14.0529 14.6939 14.2209 14.7455 14.4617C14.7969 14.7026 14.8301 14.9691 14.8447 15.261C14.8815 15.794 14.8815 16.2502 14.8447 16.6298C14.8079 17.0095 14.7731 17.3052 14.7399 17.5169C14.7067 17.7286 14.657 17.9001 14.5909 18.0316C14.5246 18.163 14.4804 18.2432 14.4583 18.2724C14.4362 18.3016 14.4178 18.3199 14.4032 18.3271C14.3076 18.3635 14.2081 18.382 14.1052 18.382C14.002 18.382 13.877 18.3309 13.7299 18.2286C13.5828 18.1263 13.4301 17.9859 13.2719 17.807C13.1136 17.6281 12.9352 17.3781 12.7364 17.0568C12.5378 16.7357 12.3317 16.3561 12.1183 15.918L11.9418 15.6003C11.8314 15.396 11.6806 15.0984 11.4893 14.7079C11.2978 14.3173 11.1286 13.9395 10.9815 13.5744C10.9227 13.4211 10.8344 13.3044 10.7167 13.2241L10.6614 13.1911C10.6247 13.162 10.5657 13.131 10.4848 13.098C10.4039 13.0651 10.3193 13.0414 10.231 13.0269L7.20657 13.0487C6.89751 13.0487 6.68781 13.1182 6.5774 13.2569L6.53321 13.3225C6.51114 13.3591 6.5 13.4174 6.5 13.4978C6.5 13.5781 6.52208 13.6767 6.56627 13.7934C7.00777 14.8229 7.4879 15.8157 8.00665 16.772C8.5254 17.7284 8.97618 18.4988 9.35873 19.0825C9.74136 19.6666 10.1314 20.2179 10.5288 20.736C10.9262 21.2544 11.1892 21.5866 11.3179 21.7325C11.4468 21.8788 11.548 21.9881 11.6216 22.0611L11.8975 22.3239C12.0742 22.4991 12.3335 22.709 12.6757 22.9535C13.0179 23.1982 13.3969 23.439 13.8126 23.6765C14.2284 23.9136 14.7122 24.1071 15.2642 24.2567C15.8161 24.4064 16.3532 24.4666 16.8757 24.4376L18.1451 24.4376C18.4025 24.4155 18.5976 24.3351 18.7301 24.1965L18.7741 24.1417C18.8036 24.0981 18.8312 24.0304 18.8568 23.9393C18.8826 23.8481 18.8954 23.7476 18.8954 23.6382C18.8879 23.3243 18.912 23.0414 18.967 22.7896C19.022 22.5378 19.0847 22.348 19.1549 22.2202C19.225 22.0925 19.3041 21.9847 19.3921 21.8973C19.4803 21.8098 19.5432 21.7567 19.5801 21.7384C19.6167 21.72 19.646 21.7076 19.6681 21.7001C19.8447 21.6417 20.0525 21.6983 20.2919 21.87C20.5311 22.0416 20.7554 22.2534 20.9653 22.5051C21.175 22.7571 21.427 23.0399 21.7213 23.3538C22.0158 23.6677 22.2733 23.9011 22.4939 24.0546L22.7146 24.186C22.862 24.2737 23.0533 24.3541 23.2888 24.4271C23.5239 24.5 23.7299 24.5182 23.9068 24.4818L26.7324 24.438C27.0119 24.438 27.2293 24.3922 27.3836 24.301C27.5382 24.2098 27.63 24.1093 27.6596 23.9999C27.6891 23.8904 27.6907 23.7662 27.6652 23.6274C27.639 23.4889 27.6132 23.392 27.5876 23.3373Z" id="Path" fill="#FFFFFF" fill-rule="evenodd" stroke="none" />
</svg>