<svg width="60" height="18" viewBox="0 0 60 18" fill="none" xmlns="http://www.w3.org/2000/svg">
<g filter="url(#filter0_d_94_12)">
<path fill-rule="evenodd" clip-rule="evenodd" d="M7.75601 9.36825L50.988 7.00326C51.0527 6.99926 51.1173 6.99895 51.182 7.00228C51.246 7.00495 51.31 7.01126 51.374 7.02126C51.438 7.0306 51.5013 7.04329 51.564 7.05929C51.6267 7.07529 51.6883 7.09461 51.749 7.11727C51.8097 7.13927 51.8693 7.16429 51.928 7.19229C51.986 7.22095 52.0423 7.25228 52.097 7.28628C52.1523 7.32028 52.2057 7.35693 52.257 7.39626C52.3077 7.4356 52.3567 7.47764 52.404 7.5223C52.4507 7.56697 52.4953 7.61359 52.538 7.66226C52.58 7.71159 52.6193 7.7626 52.656 7.81527C52.6933 7.8686 52.7277 7.92358 52.759 7.98025C52.7903 8.03692 52.819 8.09493 52.845 8.15426C52.8703 8.21359 52.8927 8.27396 52.912 8.33529C52.9313 8.39729 52.9477 8.45995 52.961 8.52328C52.9737 8.58661 52.9833 8.65026 52.99 8.71426C52.9967 8.77892 53 8.84362 53 8.90829V8.9103C53 8.9763 52.9967 9.04193 52.99 9.10726C52.984 9.17326 52.9743 9.23858 52.961 9.30325C52.9483 9.36791 52.9323 9.43193 52.913 9.49526C52.8943 9.5586 52.8723 9.62063 52.847 9.6813C52.8217 9.74263 52.7933 9.80225 52.762 9.86025C52.7307 9.91825 52.6967 9.97496 52.66 10.0303C52.6233 10.085 52.5843 10.1376 52.543 10.1883C52.501 10.2396 52.4567 10.2886 52.41 10.3353C52.3633 10.382 52.3143 10.4263 52.263 10.4683C52.2123 10.5103 52.1593 10.5496 52.104 10.5863C52.0493 10.6223 51.993 10.6559 51.935 10.6873C51.8763 10.7186 51.8167 10.747 51.756 10.7723C51.6947 10.7976 51.6327 10.8196 51.57 10.8383C51.5067 10.8576 51.4427 10.8736 51.378 10.8863C51.3133 10.8996 51.248 10.9092 51.182 10.9152C51.1167 10.9219 51.051 10.9253 50.985 10.9253H7.75699C7.70766 10.9253 7.65834 10.9206 7.60901 10.9113C7.56034 10.9013 7.51301 10.8869 7.46701 10.8682C7.42168 10.8489 7.37834 10.8256 7.33701 10.7983C7.29567 10.7703 7.25732 10.7386 7.22198 10.7033C7.18665 10.6686 7.15532 10.6306 7.12799 10.5893C7.09999 10.5479 7.07668 10.5043 7.05801 10.4583C7.03868 10.4123 7.02435 10.3649 7.01501 10.3162C7.00501 10.2676 7 10.2183 7 10.1683V10.1663C7 10.1156 7.00467 10.0653 7.01401 10.0153C7.02401 9.96595 7.03834 9.9176 7.05701 9.87026C7.07567 9.8236 7.09867 9.77896 7.12601 9.73629C7.15334 9.69296 7.18433 9.65296 7.21899 9.6163C7.25366 9.57963 7.29167 9.54663 7.33301 9.5173C7.37434 9.4873 7.41799 9.4616 7.46399 9.44027C7.50999 9.41894 7.55732 9.40228 7.60599 9.39028C7.65532 9.37828 7.70535 9.37092 7.75601 9.36825Z" fill="url(#paint0_linear_94_12)"/>
</g>
<defs>
<filter id="filter0_d_94_12" x="0" y="0" width="60" height="17.9252" filterUnits="userSpaceOnUse" color-interpolation-filters="sRGB">
<feFlood flood-opacity="0" result="BackgroundImageFix"/>
<feColorMatrix in="SourceAlpha" type="matrix" values="0 0 0 0 0 0 0 0 0 0 0 0 0 0 0 0 0 0 127 0" result="hardAlpha"/>
<feOffset/>
<feGaussianBlur stdDeviation="3.5"/>
<feColorMatrix type="matrix" values="0 0 0 0 0.996078 0 0 0 0 0.690196 0 0 0 0 0.0627451 0 0 0 1 0"/>
<feBlend mode="normal" in2="BackgroundImageFix" result="effect1_dropShadow_94_12"/>
<feBlend mode="normal" in="SourceGraphic" in2="effect1_dropShadow_94_12" result="shape"/>
</filter>
<linearGradient id="paint0_linear_94_12" x1="53" y1="8.96263" x2="7" y2="8.96263" gradientUnits="userSpaceOnUse">
<stop stop-color="#FFBA10"/>
<stop offset="1" stop-color="#FC7712"/>
</linearGradient>
</defs>
</svg>
