<svg width="60" height="18" viewBox="0 0 60 18" fill="none" xmlns="http://www.w3.org/2000/svg">
<g filter="url(#filter0_d_49_17)">
<path fill-rule="evenodd" clip-rule="evenodd" d="M52.2439 9.36825L9.0122 7.00326C8.94767 6.99926 8.8831 6.99895 8.8185 7.00228C8.7539 7.00562 8.68963 7.01193 8.6257 7.02126C8.5617 7.0306 8.49837 7.04329 8.4357 7.05929C8.3731 7.07529 8.31143 7.09461 8.2507 7.11727C8.18997 7.13927 8.13053 7.1646 8.0724 7.19326C8.01427 7.22126 7.95773 7.25228 7.9028 7.28628C7.8478 7.32028 7.7947 7.35724 7.7435 7.39724C7.69223 7.43657 7.64313 7.47824 7.5962 7.52224C7.54927 7.56691 7.5047 7.61396 7.4625 7.66329C7.42023 7.71196 7.3806 7.76291 7.3436 7.81625C7.3066 7.86891 7.27236 7.92358 7.2409 7.98025C7.20943 8.03692 7.18093 8.09493 7.1554 8.15426C7.1298 8.21359 7.1073 8.27396 7.0879 8.33529C7.0685 8.39729 7.05227 8.45995 7.0392 8.52328C7.0262 8.58661 7.0164 8.65026 7.0098 8.71426C7.00327 8.77892 7 8.84362 7 8.90829V8.91024C7 8.97624 7.00323 9.04224 7.0097 9.10824C7.01617 9.17357 7.02583 9.23858 7.0387 9.30325C7.05157 9.36791 7.0676 9.43193 7.0868 9.49526C7.10593 9.5586 7.12813 9.62063 7.1534 9.6813C7.17867 9.74263 7.20687 9.80225 7.238 9.86025C7.26907 9.91825 7.30293 9.97496 7.3396 10.0303C7.37627 10.085 7.41557 10.138 7.4575 10.1893C7.49937 10.24 7.54363 10.2886 7.5903 10.3353C7.63697 10.382 7.6858 10.4263 7.7368 10.4683C7.7878 10.5103 7.84077 10.5496 7.8957 10.5863C7.95057 10.6229 8.0071 10.6566 8.0653 10.6873C8.1235 10.7186 8.1831 10.7469 8.2441 10.7722C8.30503 10.7976 8.3671 10.8199 8.4303 10.8393C8.49343 10.8579 8.55737 10.874 8.6221 10.8873C8.68683 10.9 8.75207 10.9096 8.8178 10.9163C8.88347 10.9223 8.9493 10.9253 9.0153 10.9253H52.2429C52.2926 10.9253 52.3418 10.9206 52.3906 10.9113C52.4393 10.9013 52.4867 10.8869 52.5326 10.8682C52.5785 10.8489 52.6222 10.8256 52.6635 10.7982C52.7048 10.7702 52.7431 10.7389 52.7782 10.7042C52.8134 10.6689 52.8448 10.6306 52.8724 10.5893C52.9 10.5479 52.9233 10.5043 52.9424 10.4583C52.9614 10.4123 52.9757 10.3649 52.9854 10.3162C52.9951 10.2676 53 10.2183 53 10.1683V10.1663C53 10.1156 52.9952 10.0656 52.9857 10.0163C52.9762 9.96626 52.962 9.9176 52.9432 9.87026C52.9245 9.8236 52.9015 9.77896 52.8742 9.73629C52.8469 9.69362 52.8159 9.65363 52.781 9.6163C52.7461 9.57963 52.7081 9.54663 52.667 9.5173C52.6259 9.48796 52.5823 9.46258 52.5363 9.44125C52.4903 9.41991 52.4427 9.40295 52.3936 9.39028C52.3444 9.37828 52.2945 9.37092 52.2439 9.36825Z" fill="url(#paint0_linear_49_17)"/>
</g>
<defs>
<filter id="filter0_d_49_17" x="0" y="0" width="60" height="17.9253" filterUnits="userSpaceOnUse" color-interpolation-filters="sRGB">
<feFlood flood-opacity="0" result="BackgroundImageFix"/>
<feColorMatrix in="SourceAlpha" type="matrix" values="0 0 0 0 0 0 0 0 0 0 0 0 0 0 0 0 0 0 127 0" result="hardAlpha"/>
<feOffset/>
<feGaussianBlur stdDeviation="3.5"/>
<feColorMatrix type="matrix" values="0 0 0 0 0.996078 0 0 0 0 0.690196 0 0 0 0 0.0627451 0 0 0 1 0"/>
<feBlend mode="normal" in2="BackgroundImageFix" result="effect1_dropShadow_49_17"/>
<feBlend mode="normal" in="SourceGraphic" in2="effect1_dropShadow_49_17" result="shape"/>
</filter>
<linearGradient id="paint0_linear_49_17" x1="7" y1="8.96263" x2="53" y2="8.96268" gradientUnits="userSpaceOnUse">
<stop stop-color="#FFBA10"/>
<stop offset="1" stop-color="#FC7712"/>
</linearGradient>
</defs>
</svg>
