<svg width="18" height="19" viewBox="0 0 18 19" fill="none" xmlns="http://www.w3.org/2000/svg">
<g clip-path="url(#clip0_45_41)">
<path fill-rule="evenodd" clip-rule="evenodd" d="M16.653 9.439L8.686 1.471C8.372 1.157 7.961 1 7.55 1C7.138 1 6.72699 1.157 6.41299 1.471L2.05 5.833C1.422 6.461 1.422 7.499 2.05 8.126L2.77299 8.869H4.44099L2.884 7.292C2.775 7.183 2.759 7.046 2.759 6.979C2.759 6.913 2.775 6.781 2.884 6.672L3.461 6.114L6.198 8.869H8.825L4.77299 4.798L7.24699 2.315C7.35599 2.205 7.483 2.185 7.55 2.185C7.616 2.185 7.74301 2.199 7.85201 2.307L15.82 10.274C15.929 10.383 15.946 10.509 15.946 10.576C15.946 10.642 15.917 10.769 15.808 10.879L15.356 11.319V12.987L16.643 11.713C17.27 11.084 17.281 10.067 16.653 9.439ZM12.915 9.616H1.647C0.759003 9.616 0 10.331 0 11.219V15.481H14.502V11.219C14.502 10.331 13.803 9.616 12.915 9.616ZM3.938 14.03C3.623 14.03 3.33901 13.905 3.12801 13.703C2.91801 13.905 2.633 14.03 2.319 14.03C1.674 14.03 1.14999 13.507 1.14999 12.86C1.14999 12.214 1.673 11.69 2.319 11.69C2.634 11.69 2.91901 11.815 3.12801 12.017C3.33901 11.815 3.623 11.69 3.938 11.69C4.584 11.69 5.108 12.214 5.108 12.86C5.108 13.507 4.584 14.03 3.938 14.03ZM1.647 19C0.759003 19 0 18.276 0 17.388V17.294H14.503V17.388C14.503 18.276 13.803 19 12.915 19H1.647Z" fill="url(#paint0_linear_45_41)"/>
</g>
<defs>
<linearGradient id="paint0_linear_45_41" x1="8.55933" y1="1" x2="8.55933" y2="19" gradientUnits="userSpaceOnUse">
<stop stop-color="#FFBA10"/>
<stop offset="1" stop-color="#FC7712"/>
</linearGradient>
<clipPath id="clip0_45_41">
<rect width="17.12" height="19" fill="white"/>
</clipPath>
</defs>
</svg>
