<svg width="20" height="20" viewBox="0 0 20 20" fill="none" xmlns="http://www.w3.org/2000/svg">
<path d="M2.49593 3.12V0.623992C2.49593 0.279054 2.77498 0 3.12 0C3.46486 0 3.74391 0.279054 3.74391 0.623992V3.12C3.74391 3.46486 3.46486 3.74391 3.12 3.74391C2.77498 3.74395 2.49593 3.46486 2.49593 3.12ZM13.1038 3.74395C13.4486 3.74395 13.7278 3.4649 13.7278 3.12004V0.623992C13.7278 0.279054 13.4486 0 13.1038 0C12.7589 0 12.4796 0.279054 12.4796 0.623992V3.12C12.4796 3.46486 12.7589 3.74395 13.1038 3.74395ZM19.9675 14.9756C19.9675 17.7326 17.7325 19.9676 14.9756 19.9676C12.219 19.9676 9.98379 17.7326 9.98379 14.9756C9.98379 12.2189 12.219 9.98379 14.9756 9.98379C17.7325 9.98379 19.9675 12.2189 19.9675 14.9756ZM18.7197 14.9756C18.7197 12.9113 17.0403 11.2317 14.9757 11.2317C12.9112 11.2317 11.2318 12.9113 11.2318 14.9756C11.2318 17.0402 12.9112 18.7196 14.9757 18.7196C17.0403 18.7196 18.7197 17.0402 18.7197 14.9756ZM4.99193 7.48786H2.49593V9.98379H4.99193V7.48786ZM2.49593 13.7277H4.99193V11.2317H2.49593V13.7277ZM6.23984 9.98379H8.73588V7.48786H6.23984V9.98379ZM6.23984 13.7277H8.73588V11.2317H6.23984V13.7277ZM1.24802 14.8515V6.23984H14.9757V8.73584H16.2237V3.86831C16.2237 3.11025 15.6191 2.49593 14.8721 2.49593H14.3517V3.12004C14.3517 3.80733 13.7922 4.36798 13.1039 4.36798C12.4153 4.36798 11.8559 3.80733 11.8559 3.12004V2.49593H4.36786V3.12004C4.36786 3.80733 3.80848 4.36798 3.12004 4.36798C2.43144 4.36798 1.87202 3.80733 1.87202 3.12004V2.49593H1.35218C0.605185 2.49593 0 3.11025 0 3.86831V14.8515C0 15.6071 0.605185 16.2238 1.35218 16.2238H8.73588V14.9756H1.35218C1.29564 14.9756 1.24802 14.9172 1.24802 14.8515ZM12.4796 9.98379V7.48786H9.98383V9.98379H12.4796ZM16.8477 14.9756H14.9756V13.1035C14.9756 12.7588 14.6966 12.4798 14.3516 12.4798C14.0067 12.4798 13.7278 12.7588 13.7278 13.1035V15.5998C13.7278 15.9445 14.0067 16.2237 14.3516 16.2237H16.8477C17.1926 16.2237 17.4716 15.9445 17.4716 15.5998C17.4716 15.2548 17.1926 14.9756 16.8477 14.9756Z" fill="url(#paint0_linear_44_12)"/>
<defs>
<linearGradient id="paint0_linear_44_12" x1="9.98375" y1="0" x2="9.98375" y2="19.9676" gradientUnits="userSpaceOnUse">
<stop stop-color="#FAD961"/>
<stop offset="1" stop-color="#F76B1C"/>
</linearGradient>
</defs>
</svg>
