<svg width="18" height="19" viewBox="0 0 18 19" fill="none" xmlns="http://www.w3.org/2000/svg">
<path d="M5.31 8.29L4.05 9.55L8.1 13.6L17.1 4.6L15.84 3.34L8.1 11.08L5.31 8.29ZM16.2 10C16.2 13.96 12.96 17.2 9 17.2C5.04 17.2 1.8 13.96 1.8 10C1.8 6.04 5.04 2.8 9 2.8C9.72 2.8 10.35 2.89 10.98 3.07L12.42 1.63C11.34 1.27 10.17 1 9 1C4.05 1 0 5.05 0 10C0 14.95 4.05 19 9 19C13.95 19 18 14.95 18 10H16.2Z" fill="url(#paint0_linear_55_5)"/>
<defs>
<linearGradient id="paint0_linear_55_5" x1="9" y1="1" x2="9" y2="19" gradientUnits="userSpaceOnUse">
<stop stop-color="#FFBA10"/>
<stop offset="1" stop-color="#FC7712"/>
</linearGradient>
</defs>
</svg>
