<svg width="25" height="23" viewBox="0 0 25 23" fill="none" xmlns="http://www.w3.org/2000/svg">
<path fill-rule="evenodd" clip-rule="evenodd" d="M23.1693 6.06887H18.3454C18.6915 5.83287 18.9888 5.5979 19.1962 5.3879C20.4265 4.1509 20.4265 2.13888 19.1962 0.901875C18.0009 -0.302125 15.9182 -0.299125 14.7244 0.901875C14.0628 1.56488 12.3094 4.26587 12.5519 6.06887H12.4421C12.683 4.26587 10.9297 1.56488 10.2695 0.901875C9.07419 -0.299125 6.99159 -0.299125 5.79779 0.901875C4.56889 2.13888 4.56889 4.1509 5.79629 5.3879C6.00509 5.5979 6.30239 5.83287 6.64849 6.06887H1.82459C0.984589 6.06887 0.299988 6.75389 0.299988 7.59389V9.88088C0.299988 10.3019 0.641486 10.6429 1.06229 10.6429H10.9723V7.59389H14.0216V10.6429H23.9316C24.3524 10.6429 24.6939 10.3019 24.6939 9.88088V7.59389C24.6939 6.75389 24.0109 6.06887 23.1693 6.06887ZM10.8824 6.01888C10.8824 6.01888 10.8184 6.06887 10.6003 6.06887C9.54679 6.06887 7.53589 4.97389 6.87869 4.31289C6.23989 3.66889 6.23989 2.61989 6.87869 1.97689C7.18819 1.66589 7.59839 1.49489 8.03439 1.49489C8.46889 1.49489 8.87899 1.66589 9.18849 1.97689C10.2161 3.01089 11.2376 5.65088 10.8824 6.01888ZM14.3921 6.06887C14.1756 6.06887 14.1115 6.01988 14.1115 6.01888C13.7563 5.65088 14.7778 3.01089 15.8054 1.97689C16.4198 1.35689 17.4947 1.35289 18.1152 1.97689C18.7555 2.61989 18.7555 3.66889 18.1152 4.31289C17.4581 4.97389 15.4471 6.06887 14.3921 6.06887ZM1.82469 21.3149V12.1679H10.9724V22.8399H3.34929C2.50919 22.8399 1.82469 22.1569 1.82469 21.3149ZM14.0216 22.8399V12.1679H23.1693V21.3149C23.1693 22.1569 22.4863 22.8399 21.6447 22.8399H14.0216Z" fill="url(#paint0_linear_49_20)"/>
<defs>
<linearGradient id="paint0_linear_49_20" x1="24.6939" y1="11.42" x2="0.299988" y2="11.42" gradientUnits="userSpaceOnUse">
<stop stop-color="#FFBA10"/>
<stop offset="1" stop-color="#FC7712"/>
</linearGradient>
</defs>
</svg>
