<svg width="11" height="20" viewBox="0 0 11 20" fill="none" xmlns="http://www.w3.org/2000/svg">
<g clip-path="url(#clip0_45_39)">
<path d="M5.40999 2C2.42691 2 0 4.437 0 7.4324C0 11.1498 4.84142 16.6072 5.04754 16.8377C5.24116 17.0543 5.57918 17.0539 5.77245 16.8377C5.97858 16.6072 10.82 11.1498 10.82 7.4324C10.8199 4.437 8.39305 2 5.40999 2ZM5.40999 10.1656C3.90913 10.1656 2.68812 8.9395 2.68812 7.4324C2.68812 5.9253 3.90916 4.6992 5.40999 4.6992C6.91084 4.6992 8.13184 5.9253 8.13184 7.4324C8.13184 8.9395 6.91084 10.1656 5.40999 10.1656Z" fill="#717171"/>
</g>
<defs>
<clipPath id="clip0_45_39">
<rect width="10.82" height="20" fill="white"/>
</clipPath>
</defs>
</svg>
