<svg width="17" height="13" viewBox="0 0 17 13" fill="none" xmlns="http://www.w3.org/2000/svg">
<path fill-rule="evenodd" clip-rule="evenodd" d="M2.27726 1.1386C2.27726 1.7675 1.76748 2.2773 1.13863 2.2773C0.50978 2.2773 0 1.7675 0 1.1386C0 0.509799 0.50978 0 1.13863 0C1.76748 0 2.27726 0.509799 2.27726 1.1386ZM16.9913 1.073C16.9913 1.5413 16.6121 1.9209 16.1438 1.9209H4.78179C4.3135 1.9209 3.93396 1.5413 3.93396 1.073C3.93396 0.604802 4.3135 0.225201 4.78179 0.225201H16.1435C16.6118 0.225201 16.9913 0.604802 16.9913 1.073ZM2.27726 6.3949C2.27726 7.0237 1.76748 7.5335 1.13863 7.5335C0.50978 7.5335 0 7.0237 0 6.3949C0 5.766 0.50978 5.2562 1.13863 5.2562C1.76748 5.2562 2.27726 5.766 2.27726 6.3949ZM16.1438 7.2426H4.78179C4.3135 7.2426 3.93396 6.8631 3.93396 6.3948C3.93396 5.9265 4.3135 5.547 4.78179 5.547H16.1435C16.6118 5.547 16.9913 5.9265 16.9913 6.3948C16.9916 6.8631 16.6121 7.2426 16.1438 7.2426ZM2.27726 11.6511C2.27726 12.2799 1.76748 12.7897 1.13863 12.7897C0.50978 12.7897 0 12.2799 0 11.6511C0 11.0222 0.50978 10.5125 1.13863 10.5125C1.76748 10.5125 2.27726 11.0222 2.27726 11.6511ZM16.9913 11.7167C16.9913 12.185 16.6121 12.5645 16.1438 12.5645H4.78179C4.3135 12.5645 3.93396 12.185 3.93396 11.7167C3.93396 11.2484 4.3135 10.8689 4.78179 10.8689H16.1435C16.6118 10.8689 16.9913 11.2484 16.9913 11.7167Z" fill="#717171"/>
</svg>
