<svg width="16" height="19" viewBox="0 0 16 19" fill="none" xmlns="http://www.w3.org/2000/svg">
<g clip-path="url(#clip0_45_40)">
<path fill-rule="evenodd" clip-rule="evenodd" d="M14.581 17.023H14.821C15.264 17.023 15.623 17.382 15.623 17.824C15.623 18.267 15.264 18.626 14.822 18.626H0.800995C0.358995 18.626 0 18.267 0 17.824C0 17.382 0.358995 17.023 0.800995 17.023H1.041C1.317 13.906 3.142 11.512 4.561 9.81299C3.141 8.11399 1.317 5.71999 1.041 2.60199H0.800995C0.358995 2.60199 0 2.24299 0 1.80099C0 1.35899 0.358995 1 0.800995 1H14.822C15.264 1 15.623 1.35799 15.623 1.80099C15.623 2.24299 15.264 2.60199 14.822 2.60199H14.582C14.306 5.71999 12.481 8.11299 11.061 9.81299C12.48 11.513 14.306 13.906 14.581 17.023ZM6.147 10.417C4.779 12.038 2.948 14.207 2.647 17.023H12.976C12.675 14.207 10.844 12.038 9.476 10.417L9.40199 10.33C9.14999 10.032 9.14999 9.595 9.40199 9.297L9.47501 9.211C10.843 7.59 12.675 5.421 12.976 2.604H2.647C2.948 5.421 4.77999 7.59 6.14799 9.211L6.22099 9.297C6.47299 9.596 6.47299 10.032 6.22099 10.33L6.147 10.417ZM7.411 9.41101C7.411 9.63301 7.59 9.811 7.811 9.811C8.032 9.811 8.21201 9.63101 8.21201 9.41101C8.21201 8.94201 8.379 8.48699 8.681 8.12799C9.353 7.33099 9.85699 6.46599 10.176 5.55899C10.22 5.43599 10.201 5.301 10.126 5.194C10.05 5.088 9.929 5.02499 9.799 5.02499H5.823C5.693 5.02499 5.571 5.088 5.496 5.194C5.421 5.301 5.40199 5.43599 5.44499 5.55899C5.76499 6.46599 6.26899 7.33099 6.94099 8.12799C7.24399 8.48699 7.41 8.94301 7.411 9.41101ZM8.21201 11.016C8.21201 10.795 8.032 10.616 7.811 10.616C7.59 10.616 7.411 10.796 7.411 11.016C7.41 11.594 7.065 12.166 6.438 12.63C5.098 13.62 4.095 14.695 3.457 15.825C3.387 15.95 3.38799 16.101 3.45999 16.223C3.53099 16.347 3.663 16.422 3.806 16.422H11.817C11.96 16.422 12.091 16.347 12.163 16.223C12.235 16.101 12.236 15.95 12.166 15.825C11.528 14.695 10.525 13.62 9.185 12.63C8.558 12.166 8.21201 11.594 8.21201 11.016Z" fill="url(#paint0_linear_45_40)"/>
</g>
<defs>
<linearGradient id="paint0_linear_45_40" x1="7.8115" y1="1" x2="7.8115" y2="18.626" gradientUnits="userSpaceOnUse">
<stop stop-color="#FFBA10"/>
<stop offset="1" stop-color="#FC7712"/>
</linearGradient>
<clipPath id="clip0_45_40">
<rect width="15.62" height="19" fill="white"/>
</clipPath>
</defs>
</svg>
