<svg width="192" height="58" viewBox="0 0 192 58" fill="none" xmlns="http://www.w3.org/2000/svg">
<path fill-rule="evenodd" clip-rule="evenodd" d="M6.999 0H121.75C121.75 0 127.341 10.6422 134.238 10.6422C141.134 10.6422 146.751 0 146.751 0H184.68C184.795 0 184.909 0.0028102 185.023 0.0084306C185.138 0.014051 185.252 0.0224748 185.366 0.0337021C185.48 0.0449294 185.594 0.0589465 185.707 0.0757536C185.82 0.0925605 185.933 0.112137 186.045 0.134484C186.158 0.15683 186.27 0.181919 186.381 0.209751C186.492 0.237583 186.602 0.268124 186.712 0.301375C186.821 0.334625 186.93 0.370544 187.038 0.409133C187.146 0.447722 187.253 0.488933 187.358 0.532767C187.464 0.576601 187.569 0.623005 187.672 0.671979C187.776 0.720953 187.878 0.772438 187.979 0.826433C188.08 0.880428 188.18 0.93687 188.278 0.995757C188.376 1.05465 188.473 1.11591 188.568 1.17954C188.663 1.24318 188.757 1.30912 188.849 1.37735C188.941 1.44558 189.031 1.51603 189.12 1.5887C189.209 1.66137 189.295 1.73616 189.38 1.81308C189.465 1.89001 189.548 1.96897 189.629 2.04996C189.71 2.13095 189.789 2.21389 189.866 2.29876C189.943 2.38363 190.017 2.47034 190.09 2.55888C190.163 2.64743 190.233 2.7377 190.302 2.8297C190.37 2.9217 190.436 3.01532 190.499 3.11056C190.563 3.2058 190.624 3.30254 190.683 3.40079C190.742 3.49904 190.798 3.59868 190.852 3.69969C190.906 3.80071 190.958 3.90299 191.007 4.00654C191.056 4.11009 191.102 4.21477 191.146 4.3206C191.19 4.42642 191.231 4.53326 191.27 4.64111C191.309 4.74896 191.345 4.85769 191.378 4.9673C191.411 5.07691 191.441 5.18727 191.469 5.29838C191.497 5.40949 191.522 5.52122 191.544 5.63356C191.567 5.74591 191.586 5.85873 191.603 5.97203C191.62 6.08534 191.634 6.19899 191.645 6.31298C191.656 6.42697 191.665 6.54117 191.67 6.65558C191.676 6.76998 191.679 6.88445 191.679 6.999V51.001C191.679 51.1155 191.676 51.23 191.67 51.3444C191.665 51.4588 191.656 51.573 191.645 51.687C191.634 51.801 191.62 51.9147 191.603 52.028C191.586 52.1413 191.567 52.2541 191.544 52.3664C191.522 52.4788 191.497 52.5905 191.469 52.7016C191.441 52.8127 191.411 52.9231 191.378 53.0327C191.345 53.1423 191.309 53.251 191.27 53.3589C191.231 53.4668 191.19 53.5736 191.146 53.6794C191.102 53.7852 191.056 53.8899 191.007 53.9935C190.958 54.097 190.906 54.1993 190.852 54.3003C190.798 54.4013 190.742 54.5009 190.683 54.5992C190.624 54.6975 190.563 54.7942 190.499 54.8894C190.436 54.9847 190.37 55.0783 190.302 55.1703C190.233 55.2623 190.163 55.3526 190.09 55.4411C190.017 55.5296 189.943 55.6163 189.866 55.7012C189.789 55.7861 189.71 55.869 189.629 55.95C189.548 56.031 189.465 56.11 189.38 56.1869C189.295 56.2638 189.209 56.3386 189.12 56.4113C189.031 56.484 188.941 56.5544 188.849 56.6226C188.757 56.6909 188.663 56.7568 188.568 56.8204C188.473 56.8841 188.376 56.9453 188.278 57.0042C188.18 57.0631 188.08 57.1196 187.979 57.1736C187.878 57.2276 187.776 57.2791 187.672 57.328C187.569 57.377 187.464 57.4234 187.358 57.4672C187.253 57.5111 187.146 57.5523 187.038 57.5909C186.93 57.6294 186.821 57.6653 186.712 57.6986C186.602 57.7319 186.492 57.7624 186.381 57.7902C186.27 57.8181 186.158 57.8432 186.045 57.8655C185.933 57.8878 185.82 57.9074 185.707 57.9242C185.594 57.9411 185.48 57.9551 185.366 57.9663C185.252 57.9775 185.138 57.9859 185.023 57.9916C184.909 57.9972 184.795 58 184.68 58H146.751C146.751 58 141.16 47.3578 134.263 47.3578C127.367 47.3578 121.75 58 121.75 58H6.999C6.88445 58 6.76998 57.9972 6.65557 57.9916C6.54117 57.9859 6.42697 57.9775 6.31298 57.9663C6.19899 57.9551 6.08534 57.9411 5.97203 57.9242C5.85873 57.9074 5.74591 57.8878 5.63356 57.8655C5.52122 57.8432 5.40949 57.8181 5.29838 57.7902C5.18727 57.7624 5.07691 57.7319 4.9673 57.6986C4.85769 57.6653 4.74896 57.6294 4.64111 57.5909C4.53326 57.5523 4.42642 57.5111 4.3206 57.4672C4.21477 57.4234 4.11009 57.377 4.00654 57.328C3.90299 57.2791 3.80071 57.2276 3.69969 57.1736C3.59868 57.1196 3.49904 57.0631 3.40079 57.0042C3.30254 56.9453 3.2058 56.8841 3.11056 56.8205C3.01532 56.7568 2.9217 56.6909 2.8297 56.6226C2.7377 56.5544 2.64743 56.484 2.55888 56.4113C2.47034 56.3386 2.38363 56.2638 2.29876 56.1869C2.21389 56.11 2.13095 56.031 2.04996 55.95C1.96897 55.869 1.89001 55.7861 1.81308 55.7012C1.73616 55.6163 1.66137 55.5296 1.5887 55.4411C1.51603 55.3526 1.44558 55.2623 1.37735 55.1703C1.30912 55.0783 1.24318 54.9847 1.17954 54.8894C1.11591 54.7942 1.05465 54.6975 0.995757 54.5992C0.93687 54.5009 0.880428 54.4013 0.826433 54.3003C0.772438 54.1993 0.720953 54.097 0.671979 53.9935C0.623005 53.8899 0.576601 53.7852 0.532767 53.6794C0.488933 53.5736 0.447722 53.4668 0.409133 53.3589C0.370544 53.251 0.334625 53.1423 0.301375 53.0327C0.268124 52.9231 0.237583 52.8127 0.209751 52.7016C0.181919 52.5905 0.15683 52.4788 0.134484 52.3664C0.112137 52.2541 0.0925605 52.1413 0.0757536 52.028C0.0589465 51.9147 0.0449294 51.801 0.0337021 51.687C0.0224748 51.573 0.014051 51.4588 0.0084306 51.3444C0.0028102 51.23 0 51.1155 0 51.001V6.999C0 6.88445 0.0028102 6.76998 0.0084306 6.65557C0.014051 6.54117 0.0224748 6.42697 0.0337021 6.31298C0.0449294 6.19899 0.0589465 6.08534 0.0757536 5.97203C0.0925605 5.85873 0.112137 5.74591 0.134484 5.63356C0.15683 5.52122 0.181919 5.40949 0.209751 5.29838C0.237583 5.18727 0.268124 5.07691 0.301375 4.9673C0.334625 4.85769 0.370544 4.74896 0.409133 4.64111C0.447722 4.53326 0.488933 4.42642 0.532767 4.3206C0.576601 4.21477 0.623005 4.11009 0.671979 4.00654C0.720953 3.90299 0.772438 3.80071 0.826433 3.69969C0.880428 3.59868 0.93687 3.49904 0.995757 3.40079C1.05465 3.30254 1.11591 3.2058 1.17954 3.11056C1.24318 3.01532 1.30912 2.9217 1.37735 2.8297C1.44558 2.7377 1.51603 2.64743 1.5887 2.55888C1.66137 2.47034 1.73616 2.38363 1.81308 2.29876C1.89001 2.21389 1.96897 2.13095 2.04996 2.04996C2.13095 1.96897 2.21389 1.89001 2.29876 1.81308C2.38363 1.73616 2.47034 1.66137 2.55888 1.5887C2.64743 1.51603 2.7377 1.44558 2.8297 1.37735C2.9217 1.30912 3.01532 1.24318 3.11056 1.17954C3.2058 1.11591 3.30254 1.05465 3.40079 0.995757C3.49904 0.93687 3.59868 0.880428 3.69969 0.826433C3.80071 0.772438 3.90299 0.720953 4.00654 0.671979C4.11009 0.623005 4.21477 0.576601 4.3206 0.532767C4.42642 0.488933 4.53326 0.447722 4.64111 0.409133C4.74896 0.370544 4.85769 0.334625 4.9673 0.301375C5.07691 0.268124 5.18727 0.237583 5.29838 0.209751C5.40949 0.181919 5.52122 0.15683 5.63356 0.134484C5.74591 0.112137 5.85873 0.0925605 5.97203 0.0757536C6.08534 0.0589465 6.19899 0.0449294 6.31298 0.0337021C6.42697 0.0224748 6.54117 0.014051 6.65558 0.0084306C6.76998 0.0028102 6.88445 0 6.999 0Z" fill="url(#paint0_linear_44_26)"/>
<path fill-rule="evenodd" clip-rule="evenodd" d="M133.999 13H134.001C134.066 13 134.131 13.0064 134.196 13.0192C134.26 13.032 134.322 13.0509 134.383 13.076C134.444 13.1011 134.501 13.1319 134.556 13.1684C134.611 13.2048 134.661 13.2462 134.707 13.2926C134.754 13.339 134.795 13.3895 134.832 13.444C134.868 13.4985 134.899 13.5561 134.924 13.6167C134.949 13.6773 134.968 13.7398 134.981 13.8041C134.994 13.8684 135 13.9334 135 13.999V17.001C135 17.0666 134.994 17.1316 134.981 17.1959C134.968 17.2602 134.949 17.3227 134.924 17.3833C134.899 17.4439 134.868 17.5015 134.832 17.556C134.795 17.6105 134.754 17.661 134.707 17.7074C134.661 17.7538 134.611 17.7952 134.556 17.8316C134.501 17.8681 134.444 17.8989 134.383 17.924C134.322 17.9491 134.26 17.968 134.196 17.9808C134.131 17.9936 134.066 18 134.001 18H133.999C133.934 18 133.869 17.9936 133.804 17.9808C133.74 17.968 133.678 17.9491 133.617 17.924C133.556 17.8989 133.499 17.8681 133.444 17.8316C133.389 17.7952 133.339 17.7538 133.293 17.7074C133.246 17.661 133.205 17.6105 133.168 17.556C133.132 17.5015 133.101 17.4439 133.076 17.3833C133.051 17.3227 133.032 17.2602 133.019 17.1959C133.006 17.1316 133 17.0666 133 17.001V13.999C133 13.9334 133.006 13.8684 133.019 13.8041C133.032 13.7398 133.051 13.6773 133.076 13.6167C133.101 13.5561 133.132 13.4985 133.168 13.444C133.205 13.3895 133.246 13.339 133.293 13.2926C133.339 13.2462 133.389 13.2048 133.444 13.1684C133.499 13.1319 133.556 13.1011 133.617 13.076C133.678 13.0509 133.74 13.032 133.804 13.0192C133.869 13.0064 133.934 13 133.999 13Z" fill="white" fill-opacity="0.3244"/>
<path fill-rule="evenodd" clip-rule="evenodd" d="M133.999 20H134.001C134.066 20 134.131 20.0064 134.196 20.0192C134.26 20.032 134.322 20.0509 134.383 20.076C134.444 20.1011 134.501 20.1319 134.556 20.1684C134.611 20.2048 134.661 20.2462 134.707 20.2926C134.754 20.339 134.795 20.3895 134.832 20.444C134.868 20.4985 134.899 20.5561 134.924 20.6167C134.949 20.6773 134.968 20.7398 134.981 20.8041C134.994 20.8684 135 20.9334 135 20.999V24.001C135 24.0666 134.994 24.1316 134.981 24.1959C134.968 24.2602 134.949 24.3227 134.924 24.3833C134.899 24.4439 134.868 24.5015 134.832 24.556C134.795 24.6105 134.754 24.661 134.707 24.7074C134.661 24.7538 134.611 24.7952 134.556 24.8316C134.501 24.8681 134.444 24.8989 134.383 24.924C134.322 24.9491 134.26 24.968 134.196 24.9808C134.131 24.9936 134.066 25 134.001 25H133.999C133.934 25 133.869 24.9936 133.804 24.9808C133.74 24.968 133.678 24.9491 133.617 24.924C133.556 24.8989 133.499 24.8681 133.444 24.8316C133.389 24.7952 133.339 24.7538 133.293 24.7074C133.246 24.661 133.205 24.6105 133.168 24.556C133.132 24.5015 133.101 24.4439 133.076 24.3833C133.051 24.3227 133.032 24.2602 133.019 24.1959C133.006 24.1316 133 24.0666 133 24.001V20.999C133 20.9334 133.006 20.8684 133.019 20.8041C133.032 20.7398 133.051 20.6773 133.076 20.6167C133.101 20.5561 133.132 20.4985 133.168 20.444C133.205 20.3895 133.246 20.339 133.293 20.2926C133.339 20.2462 133.389 20.2048 133.444 20.1684C133.499 20.1319 133.556 20.1011 133.617 20.076C133.678 20.0509 133.74 20.032 133.804 20.0192C133.869 20.0064 133.934 20 133.999 20Z" fill="white" fill-opacity="0.3244"/>
<path fill-rule="evenodd" clip-rule="evenodd" d="M133.999 27H134.001C134.066 27 134.131 27.0064 134.196 27.0192C134.26 27.032 134.322 27.0509 134.383 27.076C134.444 27.1011 134.501 27.1319 134.556 27.1684C134.611 27.2048 134.661 27.2462 134.707 27.2926C134.754 27.339 134.795 27.3895 134.832 27.444C134.868 27.4985 134.899 27.5561 134.924 27.6167C134.949 27.6773 134.968 27.7398 134.981 27.8041C134.994 27.8684 135 27.9334 135 27.999V31.001C135 31.0666 134.994 31.1316 134.981 31.1959C134.968 31.2602 134.949 31.3227 134.924 31.3833C134.899 31.4439 134.868 31.5015 134.832 31.556C134.795 31.6105 134.754 31.661 134.707 31.7074C134.661 31.7538 134.611 31.7952 134.556 31.8316C134.501 31.8681 134.444 31.8989 134.383 31.924C134.322 31.9491 134.26 31.968 134.196 31.9808C134.131 31.9936 134.066 32 134.001 32H133.999C133.934 32 133.869 31.9936 133.804 31.9808C133.74 31.968 133.678 31.9491 133.617 31.924C133.556 31.8989 133.499 31.8681 133.444 31.8316C133.389 31.7952 133.339 31.7538 133.293 31.7074C133.246 31.661 133.205 31.6105 133.168 31.556C133.132 31.5015 133.101 31.4439 133.076 31.3833C133.051 31.3227 133.032 31.2602 133.019 31.1959C133.006 31.1316 133 31.0666 133 31.001V27.999C133 27.9334 133.006 27.8684 133.019 27.8041C133.032 27.7398 133.051 27.6773 133.076 27.6167C133.101 27.5561 133.132 27.4985 133.168 27.444C133.205 27.3895 133.246 27.339 133.293 27.2926C133.339 27.2462 133.389 27.2048 133.444 27.1684C133.499 27.1319 133.556 27.1011 133.617 27.076C133.678 27.0509 133.74 27.032 133.804 27.0192C133.869 27.0064 133.934 27 133.999 27Z" fill="white" fill-opacity="0.3244"/>
<path fill-rule="evenodd" clip-rule="evenodd" d="M133.999 34H134.001C134.066 34 134.131 34.0064 134.196 34.0192C134.26 34.032 134.322 34.0509 134.383 34.076C134.444 34.1011 134.501 34.1319 134.556 34.1684C134.611 34.2048 134.661 34.2462 134.707 34.2926C134.754 34.339 134.795 34.3895 134.832 34.444C134.868 34.4985 134.899 34.5561 134.924 34.6167C134.949 34.6773 134.968 34.7398 134.981 34.8041C134.994 34.8684 135 34.9334 135 34.999V38.001C135 38.0666 134.994 38.1316 134.981 38.1959C134.968 38.2602 134.949 38.3227 134.924 38.3833C134.899 38.4439 134.868 38.5015 134.832 38.556C134.795 38.6105 134.754 38.661 134.707 38.7074C134.661 38.7538 134.611 38.7952 134.556 38.8316C134.501 38.8681 134.444 38.8989 134.383 38.924C134.322 38.9491 134.26 38.968 134.196 38.9808C134.131 38.9936 134.066 39 134.001 39H133.999C133.934 39 133.869 38.9936 133.804 38.9808C133.74 38.968 133.678 38.9491 133.617 38.924C133.556 38.8989 133.499 38.8681 133.444 38.8316C133.389 38.7952 133.339 38.7538 133.293 38.7074C133.246 38.661 133.205 38.6105 133.168 38.556C133.132 38.5015 133.101 38.4439 133.076 38.3833C133.051 38.3227 133.032 38.2602 133.019 38.1959C133.006 38.1316 133 38.0666 133 38.001V34.999C133 34.9334 133.006 34.8684 133.019 34.8041C133.032 34.7398 133.051 34.6773 133.076 34.6167C133.101 34.5561 133.132 34.4985 133.168 34.444C133.205 34.3895 133.246 34.339 133.293 34.2926C133.339 34.2462 133.389 34.2048 133.444 34.1684C133.499 34.1319 133.556 34.1011 133.617 34.076C133.678 34.0509 133.74 34.032 133.804 34.0192C133.869 34.0064 133.934 34 133.999 34Z" fill="white" fill-opacity="0.3244"/>
<path fill-rule="evenodd" clip-rule="evenodd" d="M133.999 41H134.001C134.066 41 134.131 41.0064 134.196 41.0192C134.26 41.032 134.322 41.0509 134.383 41.076C134.444 41.1011 134.501 41.1319 134.556 41.1684C134.611 41.2048 134.661 41.2462 134.707 41.2926C134.754 41.339 134.795 41.3895 134.832 41.444C134.868 41.4985 134.899 41.5561 134.924 41.6167C134.949 41.6773 134.968 41.7398 134.981 41.8041C134.994 41.8684 135 41.9334 135 41.999V45.001C135 45.0666 134.994 45.1316 134.981 45.1959C134.968 45.2602 134.949 45.3227 134.924 45.3833C134.899 45.4439 134.868 45.5015 134.832 45.556C134.795 45.6105 134.754 45.661 134.707 45.7074C134.661 45.7538 134.611 45.7952 134.556 45.8316C134.501 45.8681 134.444 45.8989 134.383 45.924C134.322 45.9491 134.26 45.968 134.196 45.9808C134.131 45.9936 134.066 46 134.001 46H133.999C133.934 46 133.869 45.9936 133.804 45.9808C133.74 45.968 133.678 45.9491 133.617 45.924C133.556 45.8989 133.499 45.8681 133.444 45.8316C133.389 45.7952 133.339 45.7538 133.293 45.7074C133.246 45.661 133.205 45.6105 133.168 45.556C133.132 45.5015 133.101 45.4439 133.076 45.3833C133.051 45.3227 133.032 45.2602 133.019 45.1959C133.006 45.1316 133 45.0666 133 45.001V41.999C133 41.9334 133.006 41.8684 133.019 41.8041C133.032 41.7398 133.051 41.6773 133.076 41.6167C133.101 41.5561 133.132 41.4985 133.168 41.444C133.205 41.3895 133.246 41.339 133.293 41.2926C133.339 41.2462 133.389 41.2048 133.444 41.1684C133.499 41.1319 133.556 41.1011 133.617 41.076C133.678 41.0509 133.74 41.032 133.804 41.0192C133.869 41.0064 133.934 41 133.999 41Z" fill="white" fill-opacity="0.3244"/>
<path fill-rule="evenodd" clip-rule="evenodd" d="M180.477 22.6827C180.477 22.6906 180.475 22.6974 180.475 22.7042C180.475 22.7076 180.475 22.7112 180.476 22.7147C180.477 22.7206 180.477 22.7264 180.476 22.7313V27.6434C180.476 28.0512 180.245 28.424 179.883 28.6082L165.234 35.9842C165.218 35.9921 165.203 35.9887 165.185 35.9955C165.046 36.0576 164.898 36.0994 164.747 36.0994C164.595 36.0994 164.447 36.0576 164.308 35.9955C164.291 35.9887 164.276 35.9921 164.26 35.9842L149.612 28.6082C149.248 28.4252 149.017 28.0523 149.017 27.6434V22.7313C149.017 22.7223 149.021 22.7132 149.021 22.7042C149.021 22.6963 149.019 22.6895 149.019 22.6827C149.02 22.659 149.03 22.6387 149.033 22.6161C149.04 22.5426 149.052 22.4726 149.075 22.4037C149.085 22.3698 149.099 22.3382 149.112 22.3054C149.138 22.2455 149.17 22.1879 149.206 22.1337C149.226 22.1032 149.245 22.0738 149.268 22.0467C149.311 21.9947 149.361 21.9495 149.414 21.9044C149.439 21.884 149.46 21.8614 149.487 21.8422C149.494 21.8377 149.498 21.8309 149.504 21.8275C149.585 21.7756 149.669 21.7349 149.755 21.7055C149.757 21.7055 149.76 21.7033 149.762 21.7033L152.479 20.8096C152.605 20.9486 152.731 21.0819 152.85 21.2005C154.09 22.4421 156.189 23.4769 158.137 24.2474L155.82 25.1885V30.5208L159.028 32.1386V26.5679L162.704 24.6259C161.76 24.3717 155.902 22.7268 153.614 20.4368C152.947 19.7703 152.067 18.7355 152.123 17.4622C152.18 16.1902 153.068 15.4468 153.783 14.8481C153.986 14.6763 154.205 14.4967 154.412 14.29C154.619 14.0832 154.798 13.8652 154.969 13.6607C155.556 12.9603 156.358 12 157.699 12C158.923 12 159.916 12.8518 160.555 13.4935C162.849 15.7857 164.494 21.6502 164.747 22.5867C165.001 21.6468 166.645 15.7857 168.937 13.4935C169.576 12.8529 170.569 12.0011 171.794 12.0011C173.135 12.0011 173.936 12.9614 174.523 13.6618C174.695 13.8674 174.875 14.0855 175.081 14.2922C175.29 14.4978 175.507 14.6786 175.712 14.8492C176.426 15.4468 177.314 16.1913 177.37 17.4622C177.428 18.7366 176.548 19.7703 175.879 20.4368C173.592 22.7257 167.742 24.3706 166.793 24.6259L170.467 26.5679V32.1386L173.675 30.5208V25.1885L171.36 24.2485C173.306 23.4792 175.402 22.4444 176.645 21.2017C176.764 21.0819 176.89 20.9497 177.016 20.8108L179.734 21.7044C179.736 21.7055 179.738 21.7078 179.74 21.7078C179.829 21.7371 179.913 21.7767 179.991 21.8287C179.998 21.8332 180.001 21.84 180.008 21.8433C180.034 21.8614 180.057 21.8851 180.081 21.9055C180.135 21.9507 180.184 21.9959 180.227 22.049C180.251 22.0761 180.268 22.1054 180.29 22.1348C180.326 22.189 180.357 22.2455 180.383 22.3065C180.397 22.3382 180.409 22.3698 180.421 22.4037C180.442 22.4726 180.456 22.5438 180.464 22.6161C180.466 22.6387 180.476 22.6601 180.477 22.6827ZM156.214 14.7023C156.014 14.9413 155.801 15.1956 155.559 15.4378C155.316 15.6805 155.062 15.8937 154.823 16.0942C153.795 16.9555 153.049 17.5805 154.761 19.2924C156.871 21.4027 163.201 23.0815 163.201 23.0815C163.201 23.0815 161.522 16.7528 159.411 14.6413C157.699 12.9292 157.075 13.6747 156.214 14.7023ZM173.283 14.7028C172.422 13.6746 171.798 12.9293 170.086 14.6413C167.974 16.7516 166.296 23.0815 166.296 23.0815C166.296 23.0815 172.625 21.4016 174.735 19.2913C176.447 17.5789 175.702 16.9548 174.674 16.094C174.435 15.894 174.181 15.6811 173.939 15.4389C173.697 15.1965 173.484 14.942 173.283 14.7028ZM165.531 17.0375L165.086 16.8917C164.868 16.8206 164.63 16.8206 164.41 16.8917L163.966 17.0375C164.255 17.7018 164.517 18.3672 164.747 18.9998C164.978 18.3672 165.243 17.7018 165.531 17.0375ZM176.802 38.7102L165.83 45.0446V36.8699L165.48 37.045C165.239 37.1354 164.99 37.1817 164.749 37.1817C164.512 37.1817 164.27 37.1365 164.027 37.0484L163.968 37.0405L163.779 36.9524L163.667 36.8959V45.0446L152.695 38.7102V31.3715L150.532 30.2836V39.335C150.532 39.7213 150.739 40.0783 151.074 40.2704L164.208 47.8554C164.374 47.9514 164.561 48 164.749 48C164.936 48 165.123 47.9526 165.29 47.8554L178.423 40.2704C178.759 40.0783 178.964 39.7213 178.964 39.335V30.2813L176.802 31.3647V38.7102Z" fill="#D5D5D5" fill-opacity="0.6"/>
<defs>
<linearGradient id="paint0_linear_44_26" x1="95.8395" y1="0" x2="95.8395" y2="58" gradientUnits="userSpaceOnUse">
<stop stop-color="#535353"/>
<stop offset="1" stop-color="#606060"/>
</linearGradient>
</defs>
</svg>
