<?xml version="1.0" encoding="utf-8"?>
<svg width="36px" height="36px" viewBox="0 0 36 36" version="1.1" xmlns:xlink="http://www.w3.org/1999/xlink" xmlns="http://www.w3.org/2000/svg">
  <path d="M18 35.5C27.665 35.5 35.5 27.665 35.5 18C35.5 8.33502 27.665 0.5 18 0.5C8.33502 0.5 0.5 8.33502 0.5 18C0.5 27.665 8.33502 35.5 18 35.5Z" id="Oval-Copy-4" fill="#58EE7F" fill-rule="evenodd" stroke="none" />
  <path d="M27.275 22.7055C27.3132 22.9979 27.2241 23.2521 27.0081 23.4682L24.472 25.985C24.3576 26.1122 24.2083 26.2203 24.024 26.3092C23.8397 26.3982 23.6585 26.4554 23.4806 26.4808C23.4679 26.4808 23.4297 26.4841 23.3661 26.4904C23.3026 26.4968 23.22 26.5 23.1183 26.5C22.8767 26.5 22.4858 26.4587 21.9456 26.376C21.4053 26.2934 20.7443 26.09 19.9626 25.7659C19.1807 25.4417 18.2941 24.9554 17.3026 24.3072C16.3111 23.6589 15.256 22.7691 14.1373 21.6377C13.2475 20.7606 12.5102 19.9216 11.9255 19.1208C11.3407 18.3199 10.8704 17.5794 10.5145 16.8994C10.1585 16.2192 9.89156 15.6027 9.71359 15.0498C9.53561 14.4968 9.41486 14.0201 9.3513 13.6197C9.28773 13.2193 9.26231 12.9047 9.27502 12.6758C9.28773 12.447 9.2941 12.3199 9.2941 12.2945C9.31952 12.1165 9.37672 11.9354 9.46571 11.751C9.55469 11.5667 9.66273 11.4174 9.78986 11.303L12.3259 8.76697C12.5038 8.58899 12.7072 8.5 12.936 8.5C13.1013 8.5 13.2475 8.54767 13.3746 8.64301C13.5017 8.73834 13.6098 8.85596 13.6987 8.99579L15.739 12.8665C15.8534 13.0699 15.8852 13.2924 15.8343 13.5339C15.7835 13.7754 15.6754 13.9788 15.5102 14.144L14.5759 15.0784C14.5504 15.1038 14.5282 15.1451 14.5091 15.2023C14.4901 15.2595 14.4805 15.3072 14.4805 15.3453C14.5314 15.6123 14.6458 15.9174 14.8237 16.2606C14.9763 16.5657 15.2115 16.9375 15.5293 17.376C15.847 17.8146 16.2983 18.3199 16.8831 18.8919C17.4551 19.4767 17.9636 19.9311 18.4085 20.2553C18.8533 20.5793 19.2253 20.8177 19.524 20.9703C19.8227 21.1229 20.0515 21.215 20.2104 21.2467L20.4487 21.2944C20.4741 21.2944 20.5155 21.2849 20.5726 21.2658C20.6299 21.2467 20.6712 21.2245 20.6966 21.199L21.7834 20.0931C22.0124 19.8898 22.2792 19.788 22.5843 19.788C22.8005 19.788 22.972 19.8262 23.0991 19.9025L23.1182 19.9025L26.7982 22.0762C27.0652 22.2416 27.2241 22.4512 27.275 22.7055Z" id="Path" fill="#FFFFFF" fill-rule="evenodd" stroke="none" />
</svg>