<?xml version="1.0" encoding="utf-8"?>
<svg width="36px" height="36px" viewBox="0 0 36 36" version="1.1" xmlns:xlink="http://www.w3.org/1999/xlink" xmlns="http://www.w3.org/2000/svg">
  <path d="M18 35.5C27.665 35.5 35.5 27.665 35.5 18C35.5 8.33502 27.665 0.5 18 0.5C8.33501 0.5 0.5 8.33502 0.5 18C0.5 27.665 8.33501 35.5 18 35.5Z" id="Oval-Copy-2" fill="#6ED2FA" fill-rule="evenodd" stroke="none" />
  <path d="M8.80431 17.6924L12.774 19.1741L14.3105 24.1155C14.4089 24.432 14.7959 24.549 15.0527 24.339L17.2655 22.535C17.4975 22.3461 17.8279 22.3367 18.0703 22.5126L22.0613 25.4102C22.3361 25.6099 22.7254 25.4594 22.7943 25.1273L25.718 11.0639C25.7932 10.7012 25.4368 10.3986 25.0915 10.5322L8.79965 16.8171C8.3976 16.9721 8.4011 17.5414 8.80431 17.6924ZM14.063 18.3853L21.8213 13.607C21.9607 13.5214 22.1042 13.7099 21.9844 13.8209L15.5816 19.7727C15.3565 19.9822 15.2113 20.2626 15.1702 20.5669L14.9521 22.1832C14.9232 22.399 14.6201 22.4205 14.5605 22.2116L13.7217 19.2642C13.6256 18.928 13.7656 18.5688 14.063 18.3853Z" id="XMLID_497_" fill="#FFFFFF" stroke="none" />
</svg>