<?xml version="1.0" encoding="utf-8"?>
<svg width="36px" height="36px" viewBox="0 0 36 36" version="1.1" xmlns:xlink="http://www.w3.org/1999/xlink" xmlns="http://www.w3.org/2000/svg">
  <path d="M18 35.5C27.665 35.5 35.5 27.665 35.5 18C35.5 8.33502 27.665 0.5 18 0.5C8.33502 0.5 0.5 8.33502 0.5 18C0.5 27.665 8.33502 35.5 18 35.5Z" id="Oval-Copy-5" fill="#23EF57" fill-rule="evenodd" stroke="none" />
  <path d="M9.07056 17.2496C9.07056 11.8737 13.4773 7.5 18.8939 7.5C24.3101 7.5 28.7164 11.8737 28.7164 17.2496C28.7164 22.6249 24.3101 26.998 18.894 26.998C17.2696 26.998 15.6645 26.5975 14.2444 25.8387L9.05478 27.4878C9.02893 27.496 9.00244 27.5 8.97614 27.5C8.9075 27.5 8.8403 27.4727 8.79076 27.4221C8.72212 27.3523 8.69873 27.2497 8.73016 27.1569L10.4174 22.1799C9.53587 20.6903 9.07056 18.9883 9.07056 17.2496ZM14.6124 23.6907C15.885 24.5258 17.3654 24.9672 18.8939 24.9672C23.1839 24.9672 26.6739 21.5051 26.6739 17.2496C26.6739 12.9935 23.1837 9.53088 18.8939 9.53088C14.6035 9.53088 11.113 12.9935 11.113 17.2496C11.113 18.8854 11.6252 20.4499 12.5943 21.774C12.6443 21.8423 12.6579 21.9307 12.6308 22.0109L11.7915 24.4868L14.3912 23.6604C14.417 23.6522 14.4435 23.6482 14.4699 23.6482C14.5199 23.6482 14.5696 23.6626 14.6124 23.6907ZM21.7593 18.1624C22.0183 18.2556 23.4764 18.9736 23.5154 18.9922C23.7063 19.084 23.8572 19.1564 23.9447 19.3002C24.0725 19.5119 24.0219 20.095 23.8298 20.6287C23.586 21.3063 22.514 21.8618 22.0262 21.905L21.9547 21.9118C21.8419 21.9229 21.714 21.9354 21.5543 21.9354L21.5542 21.9354C21.1741 21.9354 20.5054 21.8702 19.0934 21.3062C17.6267 20.7203 16.1799 19.4642 15.0193 17.7693C14.9993 17.7399 14.9854 17.7195 14.9779 17.7094C14.6748 17.31 13.969 16.2598 13.969 15.1475C13.969 13.9117 14.5606 13.209 14.9102 12.9885C15.24 12.7806 15.9857 12.6825 16.1227 12.6767C16.2352 12.6719 16.2083 12.6719 16.2352 12.6719C16.5242 12.6719 16.7322 12.8474 16.8896 13.224C16.955 13.3801 17.5707 14.866 17.6052 14.9349C17.6472 15.0173 17.7772 15.2725 17.625 15.575L17.5923 15.6406C17.53 15.767 17.4762 15.876 17.3554 16.0165C17.3167 16.0613 17.2772 16.1089 17.2378 16.1564C17.1545 16.2565 17.0685 16.3601 16.9891 16.4387C16.9619 16.4659 16.9093 16.5186 16.9036 16.5396C16.9038 16.5396 16.9048 16.5576 16.928 16.5972C17.0908 16.8727 18.278 18.5065 19.8421 19.186C19.9104 19.2156 20.1361 19.3086 20.1491 19.3086C20.1637 19.3086 20.188 19.2843 20.2057 19.264C20.342 19.11 20.7829 18.5946 20.9285 18.3781C21.0574 18.1854 21.2228 18.0873 21.4196 18.0873C21.5402 18.0873 21.6535 18.1243 21.7593 18.1624Z" id="Combined-Shape" fill="#FFFFFF" fill-rule="evenodd" stroke="none" />
</svg>