<svg width="48" height="40" viewBox="0 0 48 40" fill="none" xmlns="http://www.w3.org/2000/svg">
<path fill-rule="evenodd" clip-rule="evenodd" d="M38.4 12.8H45.5997C46.9254 12.8 47.9999 13.875 47.9999 15.2V37.6C47.9999 38.926 46.9254 40 45.5997 40H12C10.6743 40 9.5998 38.926 9.5998 37.6V27.2H2.4001C1.0745 27.2 0 26.125 0 24.8V2.39999C0 1.07399 1.0745 0 2.4001 0H35.9999C37.3256 0 38.4 1.07399 38.4 2.39999V12.8ZM35.9999 1.60001H2.4001C1.9581 1.60001 1.6 1.95799 1.6 2.39999V4.8H36.8001V2.39999C36.8001 1.95799 36.4419 1.60001 35.9999 1.60001ZM36.8001 6.39999H1.6V9.60001H36.8001V6.39999ZM1.6 24.8C1.6 25.242 1.9581 25.6 2.4001 25.6H9.5998V15.2C9.5998 13.875 10.6743 12.8 12 12.8H36.8001V11.2H1.6V24.8ZM45.5997 38.4C46.0417 38.4 46.3999 38.042 46.3999 37.6V15.2C46.3999 14.758 46.0417 14.4 45.5997 14.4H12C11.5579 14.4 11.1998 14.758 11.1998 15.2V37.6C11.1998 38.042 11.5579 38.4 12 38.4H45.5997ZM40 17.6C39.272 17.601 38.5663 17.851 37.9998 18.309C36.6243 17.199 34.6098 17.415 33.5002 18.791C32.3905 20.166 32.6062 22.181 33.9821 23.29C35.1543 24.236 36.8275 24.236 37.9998 23.29C39.3753 24.4 41.3901 24.185 42.4998 22.809C43.6094 21.434 43.394 19.419 42.0189 18.31C41.4473 17.848 40.7343 17.598 40 17.6ZM22.4 23.2C22.4 23.642 22.0418 24 21.5998 24H15.1999C14.7583 24 14.4001 23.642 14.4001 23.2V18.4C14.4001 17.958 14.7583 17.6 15.1999 17.6H21.5998C22.0418 17.6 22.4 17.958 22.4 18.4V23.2ZM35.9999 22.4C35.1162 22.4 34.3999 21.684 34.3999 20.8C34.3999 19.916 35.1162 19.2 35.9999 19.2C36.5335 19.195 37.0333 19.461 37.3278 19.906C37.6896 20.445 37.6896 21.149 37.3278 21.688C37.0337 22.134 36.5346 22.402 35.9999 22.4ZM40 22.4C39.6184 22.402 39.2489 22.266 38.96 22.017C38.9735 21.984 38.9783 21.949 38.9904 21.917C39.0394 21.786 39.0801 21.652 39.1119 21.517C39.124 21.464 39.1376 21.411 39.1471 21.357C39.2207 20.99 39.2207 20.612 39.1471 20.245C39.1376 20.19 39.1229 20.136 39.1105 20.081C39.0797 19.949 39.0405 19.82 38.9937 19.694C38.9801 19.657 38.975 19.619 38.96 19.584C39.2485 19.334 39.6181 19.198 40 19.2C40.8837 19.2 41.6 19.916 41.6 20.8C41.6 21.684 40.8837 22.4 40 22.4ZM16.7999 20V19.2H16.0001V20H16.7999ZM18.3999 20H20.8V19.2H18.3999V20ZM18.3999 21.6H16.0001V22.4H18.3999V21.6ZM19.9998 21.6V22.4H20.8V21.6H19.9998ZM16.0001 32H22.3999C22.842 32 23.1997 32.358 23.1997 32.8C23.1997 33.242 22.8416 33.6 22.3999 33.6H16.0001C15.558 33.6 15.1999 33.242 15.1999 32.8C15.1999 32.358 15.558 32 16.0001 32ZM31.9998 32H25.5999C25.1583 32 24.8001 32.358 24.8001 32.8C24.8001 33.242 25.1583 33.6 25.5999 33.6H31.9998C32.4418 33.6 32.8 33.242 32.8 32.8C32.8 32.358 32.4418 32 31.9998 32ZM35.2001 32H41.5999C42.0416 32 42.3998 32.358 42.3998 32.8C42.3998 33.242 42.0416 33.6 41.5999 33.6H35.2001C34.7581 33.6 34.3999 33.242 34.3999 32.8C34.3999 32.358 34.7581 32 35.2001 32Z" fill="url(#paint0_linear_132_11)"/>
<defs>
<linearGradient id="paint0_linear_132_11" x1="24" y1="40.5527" x2="24" y2="-6.108" gradientUnits="userSpaceOnUse">
<stop stop-color="#E93E3A"/>
<stop offset="0.355" stop-color="#ED683C"/>
<stop offset="0.705" stop-color="#F3903F"/>
<stop offset="1" stop-color="#FDC70C"/>
</linearGradient>
</defs>
</svg>
