<svg width="32" height="50" viewBox="0 0 32 50" fill="none" xmlns="http://www.w3.org/2000/svg">
<path fill-rule="evenodd" clip-rule="evenodd" d="M4.1668 0H27.5002C29.8 0.003 31.6639 1.86701 31.6666 4.16701V45.833C31.6639 48.133 29.8 49.997 27.5002 50H4.1668C1.8665 49.997 0.0027 48.133 0 45.833V4.16701C0.0027 1.86701 1.8665 0.003 4.1668 0ZM27.5002 1.66701H4.1668C2.7859 1.66701 1.6666 2.78601 1.6666 4.16701V6.66701H29.9999V4.16701C29.9999 2.78601 28.8807 1.66701 27.5002 1.66701ZM4.9999 5H6.6666C7.127 5 7.5001 4.62701 7.5001 4.16701C7.5001 3.70601 7.127 3.33299 6.6666 3.33299H4.9999C4.5399 3.33299 4.1668 3.70601 4.1668 4.16701C4.1668 4.62701 4.5399 5 4.9999 5ZM13.3331 5H9.9998C9.5398 5 9.1667 4.62701 9.1667 4.16701C9.1667 3.70601 9.5398 3.33299 9.9998 3.33299H13.3331C13.7936 3.33299 14.1666 3.70601 14.1666 4.16701C14.1666 4.62701 13.7936 5 13.3331 5ZM29.9999 8.33299H1.6666V41.667H29.9999V8.33299ZM10.8334 20.833C11.2934 20.833 11.6665 20.46 11.6665 20V16.667C11.6665 16.206 11.2934 15.833 10.8334 15.833H7.5001C7.0396 15.833 6.6666 16.206 6.6666 16.667V20C6.6666 20.46 7.0396 20.833 7.5001 20.833H10.8334ZM17.4999 17.5H14.1666C13.7066 17.5 13.3335 17.127 13.3335 16.667C13.3335 16.206 13.7066 15.833 14.1666 15.833H17.4999C17.9603 15.833 18.3334 16.206 18.3334 16.667C18.3334 17.127 17.9603 17.5 17.4999 17.5ZM20.8332 15.833H24.1669C24.6269 15.833 25 16.206 25 16.667V20C25 20.46 24.6269 20.833 24.1669 20.833H20.8332C20.3731 20.833 20.0001 20.46 20.0001 20V16.667C20.0001 16.206 20.3731 15.833 20.8332 15.833ZM8.3332 17.5H9.9998V19.167H8.3332V17.5ZM21.6667 19.167H23.3333V17.5H21.6667V19.167ZM15.8333 21.667H14.1666C13.7066 21.667 13.3335 21.294 13.3335 20.833C13.3335 20.373 13.7066 20 14.1666 20H15.0001V19.167C15.0001 18.707 15.3732 18.333 15.8333 18.333C16.2937 18.333 16.6668 18.707 16.6668 19.167H17.4999C17.9603 19.167 18.3334 19.54 18.3334 20C18.3334 20.46 17.9603 20.833 17.4999 20.833H16.6668C16.6668 21.294 16.2937 21.667 15.8333 21.667ZM7.5001 27.5C7.9601 27.5 8.3332 27.127 8.3332 26.667V25H9.9998V25.834C9.9998 26.294 10.3729 26.667 10.8334 26.667C11.2934 26.667 11.6665 26.294 11.6665 25.834V25H14.1666C14.6271 25 15.0002 24.627 15.0002 24.167C15.0002 23.706 14.6271 23.333 14.1666 23.333H12.5V22.5C12.5 22.04 12.1269 21.667 11.6665 21.667C11.2064 21.667 10.8334 22.04 10.8334 22.5V23.333H8.3332C8.3332 22.873 7.9601 22.5 7.5001 22.5C7.0396 22.5 6.6666 22.873 6.6666 23.333V26.667C6.6666 27.127 7.0396 27.5 7.5001 27.5ZM19.1666 25H20.0001V25.834C20.0001 26.294 20.3732 26.667 20.8332 26.667C21.2936 26.667 21.6667 26.294 21.6667 25.834V24.167C21.6667 23.706 21.2936 23.333 20.8332 23.333V22.5C20.8332 22.04 20.4601 21.667 20.0001 21.667C19.5396 21.667 19.1666 22.04 19.1666 22.5V23.333C18.7065 23.333 18.3334 23.706 18.3334 24.167C18.3334 24.627 18.7065 25 19.1666 25ZM23.3334 23.333C23.3334 22.873 23.7065 22.5 24.1669 22.5C24.6269 22.5 25 22.873 25 23.333V28.333C25 28.794 24.6269 29.167 24.1669 29.167C23.7065 29.167 23.3334 28.794 23.3334 28.333V23.333ZM15.8333 25.834V24.167C15.8333 23.706 16.2064 23.333 16.6668 23.333C17.1268 23.333 17.4999 23.706 17.4999 24.167V25.834C17.4999 26.294 17.1268 26.667 16.6668 26.667C16.2064 26.667 15.8333 26.294 15.8333 25.834ZM15.0002 27.5C15.0002 27.04 14.6271 26.667 14.1666 26.667H12.5C12.0399 26.667 11.6669 27.04 11.6669 27.5C11.6669 27.96 12.0399 28.333 12.5 28.333H14.1666C14.6271 28.333 15.0002 27.96 15.0002 27.5ZM18.3335 26.667H20.0001C20.4601 26.667 20.8332 27.04 20.8332 27.5C20.8332 27.96 20.4601 28.333 20.0001 28.333H18.3335C17.873 28.333 17.4999 27.96 17.4999 27.5C17.4999 27.04 17.873 26.667 18.3335 26.667ZM19.1665 32.5H17.4999V30.833H18.3334C18.7935 30.833 19.1665 30.46 19.1665 30C19.1665 29.54 18.7935 29.167 18.3334 29.167H17.4999V28.333C17.4999 27.873 17.1268 27.5 16.6668 27.5C16.2063 27.5 15.8333 27.873 15.8333 28.333H15.0001C14.5397 28.333 14.1666 28.706 14.1666 29.167C14.1666 29.627 14.5397 30 15.0001 30H15.8333V32.5H15.0001V31.667C15.0001 31.206 14.6271 30.833 14.1666 30.833C13.7066 30.833 13.3335 31.206 13.3335 31.667V33.333C13.3335 33.794 13.7066 34.167 14.1666 34.167H19.1665C19.627 34.167 20.0001 33.794 20.0001 33.333C20.0001 32.873 19.627 32.5 19.1665 32.5ZM22.4998 30.833V29.167C22.4998 28.706 22.1268 28.333 21.6667 28.333C21.2063 28.333 20.8332 28.706 20.8332 29.167V30.833C20.8332 31.293 21.2063 31.667 21.6667 31.667C22.1268 31.667 22.4998 31.293 22.4998 30.833ZM7.5001 29.167C7.0396 29.167 6.6666 29.54 6.6666 30V33.333C6.6666 33.794 7.0396 34.167 7.5001 34.167H10.8334C11.2934 34.167 11.6665 33.794 11.6665 33.333V30C11.6669 29.54 11.2934 29.167 10.8334 29.167H7.5001ZM9.9998 32.5H8.3332V30.833H9.9998V32.5ZM23.3334 31.667C23.3334 31.207 23.7064 30.833 24.1669 30.833C24.6269 30.833 25 31.207 25 31.667V33.333C25 33.794 24.6269 34.167 24.1669 34.167H22.4998C22.0398 34.167 21.6667 33.794 21.6667 33.333C21.6667 32.873 22.0398 32.5 22.4998 32.5H23.3334V31.667ZM4.1668 48.333H27.5002C28.8807 48.333 29.9999 47.214 29.9999 45.833V43.333H1.6666V45.833C1.6666 47.214 2.7859 48.333 4.1668 48.333ZM15.0001 45H16.6668C17.1268 45 17.4999 45.373 17.4999 45.833C17.4999 46.294 17.1268 46.667 16.6668 46.667H15.0001C14.5397 46.667 14.1666 46.294 14.1666 45.833C14.1666 45.373 14.5397 45 15.0001 45Z" fill="url(#paint0_linear_132_15)"/>
<defs>
<linearGradient id="paint0_linear_132_15" x1="15.8334" y1="50.8492" x2="15.8334" y2="-6.45252" gradientUnits="userSpaceOnUse">
<stop stop-color="#E93E3A"/>
<stop offset="0.355" stop-color="#ED683C"/>
<stop offset="0.705" stop-color="#F3903F"/>
<stop offset="1" stop-color="#FDC70C"/>
</linearGradient>
</defs>
</svg>
