<?xml version="1.0" encoding="utf-8"?>
<svg width="20px" height="23px" viewBox="0 0 20 23" version="1.1" xmlns:xlink="http://www.w3.org/1999/xlink" xmlns="http://www.w3.org/2000/svg">
  <g id="Профиль">
    <path d="M13.3403 9.4378C12.2655 10.5128 10.9501 11.0576 9.43096 11.0576C7.9122 11.0576 6.59694 10.5126 5.52197 9.43797C4.44699 8.36317 3.90198 7.04792 3.90198 5.52863C3.90198 4.00969 4.44699 2.69444 5.52179 1.61964C6.59659 0.544842 7.91167 -1.50501e-07 9.43096 -1.79402e-07C10.9499 -2.08296e-07 12.2652 0.544842 13.3401 1.61946C14.4151 2.69461 14.9599 4.00987 14.9599 5.52863C14.9599 7.04792 14.4151 8.363 13.3403 9.4378ZM18.9192 16.2009C19.0115 16.7162 19.0742 17.2041 19.1052 17.6514C19.1358 18.0885 19.1514 18.5448 19.1516 19.0073C19.1516 20.2061 18.7707 21.1763 18.0194 21.8912C17.2773 22.5974 16.296 22.9553 15.1023 22.9553L4.04927 22.9553C2.85556 22.9553 1.87393 22.5972 1.13207 21.8912C0.380917 21.1758 3.84367e-07 20.2057 3.61573e-07 19.0075C3.52814e-07 18.547 0.0154121 18.0912 0.0458855 17.6519C0.0768842 17.2036 0.139582 16.7155 0.231878 16.2009C0.325049 15.6818 0.445016 15.1913 0.588451 14.7428C0.736964 14.2788 0.938719 13.8212 1.18793 13.3825C1.44643 12.9273 1.75064 12.531 2.09163 12.2046C2.44872 11.8629 2.88568 11.5884 3.39042 11.3886C3.89358 11.1893 4.45121 11.0883 5.04806 11.0883C5.28239 11.0883 5.50919 11.1844 5.94633 11.4693C6.21971 11.6475 6.53495 11.8506 6.88329 12.0732C7.18365 12.2648 7.59101 12.4443 8.09364 12.6067C8.58507 12.7655 9.08333 12.8461 9.57528 12.8461C10.0672 12.8461 10.5657 12.7655 11.0566 12.6067C11.5597 12.4441 11.9671 12.2646 12.2678 12.073C12.6195 11.8483 12.9345 11.6452 13.2039 11.4695C13.6415 11.1846 13.8682 11.0884 14.1025 11.0884C14.6992 11.0884 15.257 11.1893 15.7603 11.3884C16.2654 11.5886 16.7022 11.863 17.0589 12.2044C17.4001 12.5307 17.7041 12.9272 17.963 13.3825C18.2124 13.8212 18.4141 14.279 18.5625 14.7426C18.7061 15.1911 18.826 15.6818 18.9192 16.2009Z" id="Combined-Shape" fill="#838383" fill-rule="evenodd" stroke="none" />
  </g>
</svg>