<svg width="47" height="42" viewBox="0 0 47 42" fill="none" xmlns="http://www.w3.org/2000/svg">
<path fill-rule="evenodd" clip-rule="evenodd" d="M45.1111 0H1.5555C0.6964 0 0 0.696 0 1.556V10.889C0 11.748 0.6964 12.444 1.5555 12.444V39.667C1.5555 40.955 2.6001 42 3.889 42H42.7776C44.0664 42 45.1111 40.955 45.1111 39.667V12.444C45.9702 12.444 46.6666 11.748 46.6666 10.889V1.556C46.6666 0.696 45.9702 0 45.1111 0ZM45.1111 10.889H33.1567C30.5922 5.46301 24.1152 3.14502 18.6898 5.70901C16.4155 6.78401 14.5851 8.61501 13.5099 10.889H1.5555V1.556H45.1111V10.889ZM32.6665 15.556C32.6736 18.376 31.3979 21.047 29.1994 22.814C27.6766 24.052 25.7985 24.773 23.8382 24.872C23.5053 24.886 23.1489 24.886 22.8323 24.872C17.8806 24.606 14.0015 20.515 14.0001 15.556C14.0001 10.401 18.1786 6.22198 23.3333 6.22198C28.488 6.22198 32.6665 10.401 32.6665 15.556ZM23.3333 7C18.6083 7 14.7777 10.83 14.7777 15.556C14.7777 20.281 18.6083 24.111 23.3333 24.111C28.0583 24.111 31.8889 20.281 31.8889 15.556C31.8832 10.833 28.0561 7.005 23.3333 7ZM23.3333 22.556C19.4674 22.556 16.3332 19.422 16.3332 15.556C16.3332 11.689 19.4674 8.556 23.3333 8.556C27.1992 8.556 30.3334 11.689 30.3334 15.556C30.3291 19.42 27.1974 22.551 23.3333 22.556ZM24.0731 10.282L25.0287 13.222H28.1206C28.3698 13.222 28.6037 13.341 28.7501 13.543C29.0025 13.89 28.9256 14.377 28.5781 14.629L26.0766 16.447L27.0318 19.388C27.1084 19.625 27.0671 19.884 26.9211 20.085C26.6687 20.432 26.1823 20.51 25.8348 20.257L23.3333 18.44L20.8321 20.257C20.631 20.403 20.3721 20.444 20.1357 20.368C19.727 20.236 19.503 19.797 19.6351 19.388L20.59 16.447L18.0889 14.629C17.8873 14.483 17.7681 14.249 17.7684 14C17.7684 13.57 18.1166 13.222 18.546 13.222H21.6378L22.5952 10.282C22.6725 10.047 22.8566 9.86301 23.0912 9.78601C23.4992 9.65201 23.9389 9.87401 24.0731 10.282ZM43.5555 39.667C43.5555 40.096 43.2073 40.444 42.7776 40.444H3.889C3.4593 40.444 3.1111 40.096 3.1111 39.667V12.444H12.9032C11.6912 16.472 12.9231 20.837 16.0619 23.637L13.5729 30.14C13.4191 30.541 13.6199 30.991 14.0208 31.145C14.134 31.189 14.2558 31.205 14.3764 31.193L17.4494 30.889L19.5354 33.168C19.6828 33.329 19.8911 33.421 20.1094 33.421C20.1581 33.421 20.2066 33.416 20.2543 33.407C20.5192 33.357 20.7392 33.173 20.836 32.922L23.318 26.444H23.349L25.838 32.922C25.9345 33.174 26.1545 33.358 26.4198 33.408C26.4675 33.417 26.5159 33.422 26.5643 33.422C26.7826 33.422 26.9909 33.33 27.1383 33.169L29.2243 30.89L32.2973 31.194C32.7249 31.236 33.1058 30.924 33.1485 30.497C33.1607 30.376 33.1443 30.254 33.1008 30.141L30.6082 23.638C33.746 20.837 34.9764 16.472 33.7634 12.444H43.5555V39.667ZM24.8112 17.592L24.4221 16.389C24.3177 16.07 24.4302 15.719 24.7015 15.52L25.7234 14.778H24.4605C24.1233 14.778 23.8246 14.561 23.7207 14.24L23.3319 13.038L22.9427 14.24C22.8388 14.561 22.54 14.778 22.2032 14.778H20.94L21.959 15.52C22.2314 15.719 22.3453 16.069 22.2413 16.389L21.8525 17.592L22.8744 16.849C23.1471 16.651 23.5163 16.651 23.789 16.849L24.8112 17.592ZM17.3444 24.642C18.656 25.513 20.1428 26.084 21.7001 26.316L19.8334 31.189L18.3306 29.555C18.1647 29.375 17.9237 29.283 17.6798 29.307L15.473 29.525L17.3444 24.642ZM24.9664 26.321C26.5236 26.09 28.0107 25.519 29.323 24.65L31.1889 29.521L28.9822 29.303C28.7383 29.279 28.4973 29.371 28.3314 29.551L26.8331 31.189L24.9664 26.321Z" fill="url(#paint0_linear_132_7)"/>
<defs>
<linearGradient id="paint0_linear_132_7" x1="23.3333" y1="42.9722" x2="23.3333" y2="-6.97823" gradientUnits="userSpaceOnUse">
<stop stop-color="#E93E3A"/>
<stop offset="0.355" stop-color="#ED683C"/>
<stop offset="0.705" stop-color="#F3903F"/>
<stop offset="1" stop-color="#FDC70C"/>
</linearGradient>
</defs>
</svg>
