<svg width="20" height="23" viewBox="0 0 20 23" fill="none" xmlns="http://www.w3.org/2000/svg">
<path fill-rule="evenodd" clip-rule="evenodd" d="M13.34 9.43799C12.265 10.513 10.95 11.057 9.431 11.057C7.912 11.057 6.597 10.512 5.522 9.43799C4.447 8.36299 3.90201 7.04802 3.90201 5.52802C3.90201 4.01002 4.447 2.69402 5.522 1.61902C6.596 0.545019 7.912 0 9.431 0C10.95 0 12.265 0.545019 13.34 1.61902C14.415 2.69402 14.96 4.01002 14.96 5.52802C14.96 7.04802 14.415 8.36299 13.34 9.43799ZM18.919 16.201C19.012 16.716 19.074 17.204 19.105 17.651C19.136 18.088 19.151 18.545 19.152 19.007C19.152 20.206 18.771 21.176 18.019 21.891C17.277 22.597 16.296 22.955 15.102 22.955H4.04901C2.85601 22.955 1.87399 22.597 1.13199 21.891C0.380989 21.176 0 20.206 0 19.007C0 18.547 0.01499 18.091 0.04599 17.652C0.07699 17.203 0.139995 16.715 0.231995 16.201C0.324995 15.682 0.445013 15.191 0.588013 14.743C0.737013 14.279 0.938988 13.821 1.18799 13.382C1.44599 12.927 1.75101 12.531 2.09201 12.204C2.44901 11.863 2.88601 11.588 3.39001 11.388C3.89401 11.189 4.451 11.088 5.048 11.088C5.282 11.088 5.50901 11.184 5.94601 11.469C6.22001 11.647 6.535 11.85 6.883 12.073C7.184 12.265 7.59099 12.444 8.09399 12.606C8.58499 12.765 9.08301 12.846 9.57501 12.846C10.067 12.846 10.566 12.765 11.057 12.606C11.56 12.444 11.967 12.264 12.268 12.073C12.619 11.848 12.935 11.645 13.204 11.469C13.642 11.184 13.868 11.088 14.102 11.088C14.699 11.088 15.257 11.189 15.76 11.388C16.265 11.588 16.702 11.863 17.059 12.204C17.4 12.53 17.704 12.927 17.963 13.382C18.212 13.821 18.414 14.279 18.562 14.742C18.706 15.191 18.826 15.682 18.919 16.201Z" fill="url(#paint0_linear_94_5)"/>
<defs>
<linearGradient id="paint0_linear_94_5" x1="19.152" y1="11.4775" x2="0" y2="11.4775" gradientUnits="userSpaceOnUse">
<stop stop-color="#FFBA10"/>
<stop offset="1" stop-color="#FC7712"/>
</linearGradient>
</defs>
</svg>
