<?xml version="1.0" encoding="UTF-8"?>
<svg xmlns="http://www.w3.org/2000/svg" version="1.1" width="201" height="201" viewBox="0 0 201 201"><rect x="0" y="0" width="201" height="201" fill="#ffffff"/><g transform="scale(6.931)"><g transform="translate(0,0)"><path fill-rule="evenodd" d="M9 0L9 1L10 1L10 2L8 2L8 3L9 3L9 4L10 4L10 5L9 5L9 6L8 6L8 8L4 8L4 9L7 9L7 10L5 10L5 11L3 11L3 10L2 10L2 9L3 9L3 8L0 8L0 10L2 10L2 12L1 12L1 13L2 13L2 12L4 12L4 13L3 13L3 14L2 14L2 15L1 15L1 14L0 14L0 15L1 15L1 16L0 16L0 17L1 17L1 18L0 18L0 19L1 19L1 20L0 20L0 21L1 21L1 20L3 20L3 21L4 21L4 20L5 20L5 21L8 21L8 25L9 25L9 26L8 26L8 29L10 29L10 28L12 28L12 29L13 29L13 28L12 28L12 27L11 27L11 26L12 26L12 24L14 24L14 25L15 25L15 23L13 23L13 22L14 22L14 20L16 20L16 19L17 19L17 21L16 21L16 22L17 22L17 25L16 25L16 26L21 26L21 27L20 27L20 29L23 29L23 28L24 28L24 29L26 29L26 27L27 27L27 29L29 29L29 28L28 28L28 27L29 27L29 25L27 25L27 26L26 26L26 22L27 22L27 24L29 24L29 21L26 21L26 22L25 22L25 20L26 20L26 18L27 18L27 20L28 20L28 19L29 19L29 16L28 16L28 15L29 15L29 12L28 12L28 11L29 11L29 9L28 9L28 10L26 10L26 9L27 9L27 8L26 8L26 9L25 9L25 10L24 10L24 9L23 9L23 8L21 8L21 10L20 10L20 11L19 11L19 9L18 9L18 8L20 8L20 7L21 7L21 6L20 6L20 5L21 5L21 4L19 4L19 3L20 3L20 2L21 2L21 1L20 1L20 0L19 0L19 2L18 2L18 1L17 1L17 0L15 0L15 2L14 2L14 3L16 3L16 2L18 2L18 5L17 5L17 4L13 4L13 5L14 5L14 7L13 7L13 6L12 6L12 8L11 8L11 6L10 6L10 5L11 5L11 4L12 4L12 3L13 3L13 0L12 0L12 1L10 1L10 0ZM11 2L11 3L12 3L12 2ZM16 5L16 6L15 6L15 7L16 7L16 6L17 6L17 7L18 7L18 6L19 6L19 7L20 7L20 6L19 6L19 5L18 5L18 6L17 6L17 5ZM9 6L9 7L10 7L10 6ZM9 8L9 9L8 9L8 10L10 10L10 11L9 11L9 13L8 13L8 15L10 15L10 14L11 14L11 13L12 13L12 12L13 12L13 11L14 11L14 14L13 14L13 15L14 15L14 14L15 14L15 16L14 16L14 19L16 19L16 17L15 17L15 16L16 16L16 15L20 15L20 16L18 16L18 18L17 18L17 19L20 19L20 20L21 20L21 19L20 19L20 18L21 18L21 17L22 17L22 16L23 16L23 17L24 17L24 19L23 19L23 18L22 18L22 19L23 19L23 20L25 20L25 18L26 18L26 17L27 17L27 18L28 18L28 17L27 17L27 14L28 14L28 13L27 13L27 11L26 11L26 10L25 10L25 11L24 11L24 10L22 10L22 11L24 11L24 14L23 14L23 15L22 15L22 12L21 12L21 11L20 11L20 12L18 12L18 13L17 13L17 11L18 11L18 9L17 9L17 8L14 8L14 9L15 9L15 11L14 11L14 10L13 10L13 8L12 8L12 10L10 10L10 8ZM16 9L16 11L17 11L17 9ZM6 11L6 12L5 12L5 13L4 13L4 14L3 14L3 15L5 15L5 16L7 16L7 17L6 17L6 18L8 18L8 17L9 17L9 18L11 18L11 19L9 19L9 20L11 20L11 21L12 21L12 20L13 20L13 16L12 16L12 15L11 15L11 16L7 16L7 15L6 15L6 14L7 14L7 13L6 13L6 12L7 12L7 11ZM11 11L11 12L12 12L12 11ZM25 11L25 14L27 14L27 13L26 13L26 11ZM9 13L9 14L10 14L10 13ZM16 13L16 14L17 14L17 13ZM20 14L20 15L21 15L21 16L22 16L22 15L21 15L21 14ZM24 15L24 16L26 16L26 15ZM2 16L2 17L3 17L3 16ZM11 16L11 18L12 18L12 16ZM1 18L1 19L2 19L2 18ZM3 18L3 19L4 19L4 18ZM5 19L5 20L8 20L8 19ZM11 19L11 20L12 20L12 19ZM18 20L18 21L17 21L17 22L18 22L18 25L20 25L20 24L19 24L19 22L20 22L20 21L19 21L19 20ZM21 21L21 24L24 24L24 21ZM22 22L22 23L23 23L23 22ZM11 23L11 24L12 24L12 23ZM10 25L10 26L11 26L11 25ZM22 25L22 28L23 28L23 27L24 27L24 25ZM13 26L13 27L14 27L14 26ZM27 26L27 27L28 27L28 26ZM9 27L9 28L10 28L10 27ZM16 27L16 28L15 28L15 29L19 29L19 28L18 28L18 27ZM0 0L0 7L7 7L7 0ZM1 1L1 6L6 6L6 1ZM2 2L2 5L5 5L5 2ZM22 0L22 7L29 7L29 0ZM23 1L23 6L28 6L28 1ZM24 2L24 5L27 5L27 2ZM0 22L0 29L7 29L7 22ZM1 23L1 28L6 28L6 23ZM2 24L2 27L5 27L5 24Z" fill="#000000"/></g></g></svg>
