<?xml version="1.0" encoding="UTF-8"?>
<svg xmlns="http://www.w3.org/2000/svg" version="1.1" width="201" height="201" viewBox="0 0 201 201"><rect x="0" y="0" width="201" height="201" fill="#ffffff"/><g transform="scale(6.931)"><g transform="translate(0,0)"><path fill-rule="evenodd" d="M8 0L8 4L10 4L10 3L11 3L11 4L12 4L12 2L11 2L11 0ZM12 0L12 1L16 1L16 2L14 2L14 3L13 3L13 5L11 5L11 6L10 6L10 7L9 7L9 5L8 5L8 7L9 7L9 8L10 8L10 7L11 7L11 6L12 6L12 8L11 8L11 9L8 9L8 12L9 12L9 10L11 10L11 11L10 11L10 13L7 13L7 12L5 12L5 11L7 11L7 10L6 10L6 9L7 9L7 8L4 8L4 10L1 10L1 9L2 9L2 8L0 8L0 10L1 10L1 11L2 11L2 12L3 12L3 11L4 11L4 12L5 12L5 13L2 13L2 15L3 15L3 14L5 14L5 13L7 13L7 14L6 14L6 15L9 15L9 16L6 16L6 17L5 17L5 15L4 15L4 17L3 17L3 18L2 18L2 19L3 19L3 21L7 21L7 20L5 20L5 19L4 19L4 17L5 17L5 18L6 18L6 19L7 19L7 18L6 18L6 17L9 17L9 18L10 18L10 17L9 17L9 16L11 16L11 17L12 17L12 18L11 18L11 20L10 20L10 19L8 19L8 22L11 22L11 20L12 20L12 21L13 21L13 22L15 22L15 23L14 23L14 24L13 24L13 23L12 23L12 24L11 24L11 25L10 25L10 23L8 23L8 25L10 25L10 26L9 26L9 27L8 27L8 29L9 29L9 28L10 28L10 29L11 29L11 28L12 28L12 29L14 29L14 27L16 27L16 29L18 29L18 28L20 28L20 29L23 29L23 28L24 28L24 29L25 29L25 28L26 28L26 27L27 27L27 29L28 29L28 28L29 28L29 25L28 25L28 23L29 23L29 17L28 17L28 16L29 16L29 13L28 13L28 12L29 12L29 8L25 8L25 9L24 9L24 8L23 8L23 9L22 9L22 10L20 10L20 11L22 11L22 12L18 12L18 11L19 11L19 10L17 10L17 9L18 9L18 7L19 7L19 6L20 6L20 7L21 7L21 6L20 6L20 5L19 5L19 4L20 4L20 3L21 3L21 2L20 2L20 1L19 1L19 0L18 0L18 1L19 1L19 2L17 2L17 0ZM9 2L9 3L10 3L10 2ZM19 2L19 3L20 3L20 2ZM17 3L17 4L18 4L18 3ZM14 5L14 6L13 6L13 8L12 8L12 9L11 9L11 10L12 10L12 9L13 9L13 10L14 10L14 9L13 9L13 8L14 8L14 6L15 6L15 7L16 7L16 6L17 6L17 7L18 7L18 6L19 6L19 5L18 5L18 6L17 6L17 5ZM15 8L15 9L16 9L16 8ZM4 10L4 11L5 11L5 10ZM16 10L16 11L14 11L14 13L15 13L15 12L16 12L16 14L17 14L17 15L18 15L18 14L17 14L17 10ZM22 10L22 11L23 11L23 12L22 12L22 13L19 13L19 16L18 16L18 17L16 17L16 15L15 15L15 14L13 14L13 13L12 13L12 12L13 12L13 11L12 11L12 12L11 12L11 13L10 13L10 14L11 14L11 16L12 16L12 17L13 17L13 18L15 18L15 17L16 17L16 19L14 19L14 21L15 21L15 20L16 20L16 22L18 22L18 25L19 25L19 24L20 24L20 23L19 23L19 21L20 21L20 20L18 20L18 21L17 21L17 19L20 19L20 18L21 18L21 19L22 19L22 20L23 20L23 19L24 19L24 20L26 20L26 21L25 21L25 22L27 22L27 23L25 23L25 24L26 24L26 25L22 25L22 28L23 28L23 27L24 27L24 28L25 28L25 26L28 26L28 25L27 25L27 23L28 23L28 20L27 20L27 19L28 19L28 18L27 18L27 15L28 15L28 14L27 14L27 15L25 15L25 14L22 14L22 13L23 13L23 12L24 12L24 13L27 13L27 11L28 11L28 10L25 10L25 11L24 11L24 10ZM25 11L25 12L26 12L26 11ZM0 12L0 14L1 14L1 12ZM12 15L12 16L13 16L13 17L15 17L15 15L14 15L14 16L13 16L13 15ZM21 15L21 16L22 16L22 15ZM23 15L23 17L22 17L22 18L26 18L26 19L27 19L27 18L26 18L26 17L24 17L24 16L25 16L25 15ZM0 16L0 18L1 18L1 16ZM19 16L19 17L20 17L20 16ZM12 19L12 20L13 20L13 19ZM0 20L0 21L2 21L2 20ZM9 20L9 21L10 21L10 20ZM21 21L21 24L24 24L24 21ZM22 22L22 23L23 23L23 22ZM16 23L16 24L15 24L15 25L13 25L13 24L12 24L12 25L11 25L11 26L12 26L12 25L13 25L13 26L15 26L15 25L16 25L16 24L17 24L17 23ZM20 25L20 26L19 26L19 27L20 27L20 26L21 26L21 25ZM17 26L17 27L18 27L18 26ZM12 27L12 28L13 28L13 27ZM0 0L0 7L7 7L7 0ZM1 1L1 6L6 6L6 1ZM2 2L2 5L5 5L5 2ZM22 0L22 7L29 7L29 0ZM23 1L23 6L28 6L28 1ZM24 2L24 5L27 5L27 2ZM0 22L0 29L7 29L7 22ZM1 23L1 28L6 28L6 23ZM2 24L2 27L5 27L5 24Z" fill="#000000"/></g></g></svg>
