<?xml version="1.0" encoding="utf-8"?>
<svg width="120px" height="120px" viewBox="0 0 120 120" version="1.1" xmlns:xlink="http://www.w3.org/1999/xlink" xmlns="http://www.w3.org/2000/svg">
  <defs>
    <linearGradient x1="19.576435" y1="0.5" x2="-11.733135" y2="0.5" id="gradient_1">
      <stop offset="0%" stop-color="#FFBA10" />
      <stop offset="100%" stop-color="#FC7712" />
    </linearGradient>
  </defs>
  <path d="M119.526 73.5883L114.264 59.89L119.519 46.1843C120.102 44.6722 119.638 42.9506 118.381 41.9326L106.981 32.6956L104.675 18.1964C104.421 16.6021 103.163 15.3445 101.569 15.09L87.0694 12.7845L77.8325 1.38426C76.8145 0.126724 75.1003 -0.32988 73.5808 0.24649L59.8825 5.50871L46.1768 0.253983C44.6647 -0.32988 42.9506 0.126724 41.9326 1.39175L32.6956 12.792L18.1964 15.0975C16.6021 15.352 15.3445 16.6095 15.09 18.2039L12.7845 32.7031L1.38426 41.9401C0.126724 42.9581 -0.32988 44.6722 0.24649 46.1843L5.50122 59.89L0.24649 73.5957C-0.32988 75.1078 0.126724 76.8219 1.38426 77.8399L12.7845 87.0769L15.09 101.576C15.3445 103.17 16.6021 104.428 18.1964 104.683L32.6956 106.988L41.9326 118.388C42.9581 119.653 44.6722 120.117 46.1843 119.526L59.8825 114.271L73.5882 119.526C74.0224 119.691 74.479 119.773 74.9281 119.773C76.0285 119.773 77.1139 119.286 77.8399 118.388L87.0769 106.988L101.576 104.683C103.17 104.428 104.428 103.17 104.683 101.576L106.988 87.0769L118.388 77.8399C119.646 76.8219 120.102 75.1003 119.526 73.5883ZM106.748 61.2299L111.547 73.7305L101.134 82.159C100.416 82.7429 99.9368 83.5663 99.7946 84.4795L97.6912 97.7061L84.4645 99.8095C83.5513 99.9518 82.7279 100.431 82.144 101.149L73.7305 111.562L61.2299 106.763C60.7957 106.606 60.3391 106.516 59.8825 106.516C59.4259 106.516 58.9693 106.599 58.5426 106.763L46.0421 111.562L37.6135 101.149C37.0296 100.431 36.2063 99.9518 35.293 99.8095L22.0664 97.7061L19.963 84.4795C19.8208 83.5663 19.3417 82.7429 18.6231 82.159L8.21094 73.7379L13.0091 61.2374C13.3384 60.3691 13.3384 59.4109 13.0016 58.5501L8.21094 46.0421L18.6231 37.6135C19.3417 37.0296 19.8208 36.2063 19.963 35.293L22.0664 22.0664L35.293 19.963C36.2063 19.8208 37.0296 19.3417 37.6135 18.6231L46.0346 8.21841L58.5351 13.0166C59.396 13.3459 60.3541 13.3459 61.2149 13.0166L73.7155 8.21841L82.144 18.6306C82.7279 19.3492 83.5513 19.8282 84.4645 19.9705L97.6912 22.0739L99.7946 35.3005C99.9368 36.2137 100.416 37.0371 101.134 37.621L111.547 46.0495L106.748 58.5501C106.419 59.4109 106.419 60.3691 106.748 61.2299ZM37.4264 41.1766C37.4264 34.9861 42.4641 29.9485 48.6545 29.9485C54.8449 29.9485 59.8825 34.9861 59.8825 41.1766C59.8825 47.367 54.8449 52.4046 48.6545 52.4046C42.4641 52.4046 37.4264 47.367 37.4264 41.1766ZM75.557 31.5204C76.7546 29.8437 79.0975 29.4544 80.7743 30.6521C82.451 31.8498 82.8477 34.1852 81.6426 35.8694L44.2157 88.2671C43.4896 89.2851 42.3369 89.8315 41.1691 89.8315C40.4131 89.8315 39.6496 89.607 38.9909 89.1354C37.3141 87.9377 36.9249 85.5948 38.1301 83.9181L75.557 31.5204ZM44.9118 41.1766C44.9118 43.2425 46.5885 44.9193 48.6545 44.9193C50.7204 44.9193 52.3972 43.2425 52.3972 41.1766C52.3972 39.1106 50.7204 37.4339 48.6545 37.4339C46.5885 37.4339 44.9118 39.1106 44.9118 41.1766ZM71.1106 67.3754C64.9202 67.3754 59.8826 72.413 59.8826 78.6035C59.8826 84.7939 64.9202 89.8315 71.1106 89.8315C77.3011 89.8315 82.3387 84.7939 82.3387 78.6035C82.3387 72.413 77.3011 67.3754 71.1106 67.3754ZM71.1106 82.3462C69.0447 82.3462 67.368 80.6694 67.368 78.6035C67.368 76.5375 69.0447 74.8608 71.1106 74.8608C73.1766 74.8608 74.8533 76.5375 74.8533 78.6035C74.8533 80.6694 73.1766 82.3462 71.1106 82.3462Z" id="Combined-Shape-Copy" fill="url(#gradient_1)" fill-rule="evenodd" stroke="none" />
</svg>