<svg width="54" height="54" fill="none" xmlns="http://www.w3.org/2000/svg"><circle cx="27" cy="27" r="26" stroke="url(#paint0_linear)" stroke-width="2"/><path d="M12 28c0-1.648 1.352-3 3-3v-2c-2.752 0-5 2.248-5 5h2zm3 3c-1.648 0-3-1.352-3-3h-2c0 2.753 2.248 5 5 5v-2zm3-3c0 1.648-1.352 3-3 3v2c2.752 0 5-2.247 5-5h-2zm-3-3c1.648 0 3 1.352 3 3h2c0-2.752-2.248-5-5-5v2zm21 3c0-1.648 1.352-3 3-3v-2c-2.752 0-5 2.248-5 5h2zm3 3c-1.648 0-3-1.352-3-3h-2c0 2.753 2.248 5 5 5v-2zm3-3c0 1.648-1.352 3-3 3v2c2.752 0 5-2.247 5-5h-2zm-3-3c1.648 0 3 1.352 3 3h2c0-2.752-2.248-5-5-5v2zm-12-2c-2.752 0-5 2.248-5 5h2c0-1.648 1.352-3 3-3v-2zm5 5c0-2.752-2.248-5-5-5v2c1.648 0 3 1.352 3 3h2zm-5 5c2.752 0 5-2.247 5-5h-2c0 1.648-1.352 3-3 3v2zm-5-5c0 2.753 2.248 5 5 5v-2c-1.648 0-3-1.352-3-3h-2z" fill="url(#paint1_linear)"/><defs><linearGradient id="paint0_linear" x1="0" y1="0" x2="0" y2="54" gradientUnits="userSpaceOnUse"><stop stop-color="#FFBA10"/><stop offset="1" stop-color="#FC7712"/></linearGradient><linearGradient id="paint1_linear" x1="11" y1="24" x2="11" y2="32" gradientUnits="userSpaceOnUse"><stop stop-color="#FFBA10"/><stop offset="1" stop-color="#FC7712"/></linearGradient></defs></svg>