<svg width="54" height="54" viewBox="0 0 54 54" fill="none" xmlns="http://www.w3.org/2000/svg">
<circle cx="27" cy="27.0002" r="26" stroke="url(#paint0_linear)" stroke-width="2"/>
<path fill-rule="evenodd" clip-rule="evenodd" d="M42.6443 21.0201L47.3993 21.6992C47.7439 21.7487 48 22.0441 48 22.3921V28.0623C48.0037 29.1512 47.3403 30.1316 46.3275 30.5326L44.0602 31.4424C43.9773 31.4754 43.889 31.4922 43.7999 31.4922H43.5487C43.128 32.6925 42.184 33.6364 40.9838 34.0571C38.8028 34.8216 36.4151 33.6731 35.6506 31.4922H16.9486C16.5279 32.6925 15.5843 33.6364 14.3837 34.0571C12.2028 34.8216 9.81502 33.6731 9.05054 31.4922H6.70011C6.31331 31.4922 6 31.1789 6 30.7921V26.6355C6.00171 25.4925 6.61409 24.4372 7.60588 23.8684C10.0463 22.4773 12.8012 21.7302 15.6102 21.6986L18.0099 20.3895C21.4962 18.4911 25.4021 17.4951 29.3715 17.4922H30.1975C33.5611 17.4885 36.8862 18.2046 39.9498 19.5923C40.8775 20.0107 41.7773 20.4875 42.6443 21.0201ZM12.4395 32.8349C13.9545 33.1445 15.4336 32.1672 15.7432 30.6522C15.7808 30.4679 15.7999 30.2802 15.7999 30.0923C15.8002 28.7615 14.8642 27.6145 13.5605 27.3482C12.0455 27.0386 10.5664 28.0158 10.2565 29.5309C9.9469 31.0462 10.9242 32.5253 12.4395 32.8349ZM28.3999 30.0923H17.1998C17.1998 27.7726 15.3197 25.8921 13 25.8921C10.6803 25.8921 8.79989 27.7726 8.79989 30.0923H7.39994V26.6355C7.4008 25.9944 7.7443 25.4022 8.30086 25.0838C10.5852 23.7796 13.1698 23.0931 15.7999 23.0923H28.3999V30.0923ZM18.5454 21.6923H28.3999V18.9229C24.9973 19.0702 21.6731 19.9922 18.6804 21.6185L18.5454 21.6923ZM29.7999 18.8921H30.1961C33.017 18.889 35.8124 19.4245 38.4325 20.4701L37.2103 21.6923H29.7999V18.8921ZM39.0392 32.8349C40.5545 33.1445 42.0336 32.1672 42.3432 30.6522C42.3808 30.4679 42.3999 30.2802 42.3999 30.0923C42.4002 28.7615 41.4643 27.6145 40.1606 27.3482C38.6456 27.0386 37.1662 28.0158 36.8566 29.5309C36.5469 31.0462 37.5242 32.5253 39.0392 32.8349ZM46.6 23.7921H44.5V25.1923H46.6V28.0623C46.6017 28.5781 46.2873 29.0424 45.8076 29.2318L43.7999 30.0381C43.7999 29.9948 43.7961 29.9518 43.7924 29.9086C43.7912 29.895 43.79 29.8814 43.789 29.8678C43.7884 29.8604 43.7878 29.853 43.7873 29.8456C43.7857 29.8216 43.7845 29.796 43.7833 29.7698C43.7813 29.7257 43.7791 29.6796 43.7748 29.6357C43.7698 29.586 43.7613 29.5363 43.7528 29.4867L43.7528 29.4866C43.7493 29.4663 43.7458 29.446 43.7426 29.4258C43.739 29.4034 43.7357 29.3811 43.7324 29.359L43.7324 29.3588L43.7324 29.3587C43.7254 29.3115 43.7185 29.2653 43.709 29.2221C43.6979 29.1712 43.6826 29.1159 43.6676 29.0617L43.6563 29.021C43.6496 28.9964 43.6434 28.9717 43.6372 28.947C43.6268 28.9051 43.6163 28.8632 43.6031 28.8222C43.5883 28.7761 43.5713 28.7314 43.5542 28.6865L43.5541 28.6862C43.5471 28.6679 43.5401 28.6495 43.5333 28.6311C43.5225 28.6024 43.5121 28.5733 43.5018 28.5441C43.4892 28.5087 43.4766 28.4732 43.4632 28.4385C43.446 28.3943 43.4246 28.353 43.4032 28.3116L43.4032 28.3116C43.3941 28.294 43.3851 28.2765 43.3763 28.2588C43.3702 28.2463 43.364 28.2335 43.3579 28.2206C43.3541 28.2128 43.3504 28.2049 43.3466 28.197L43.3466 28.1969C43.3271 28.1558 43.3072 28.1137 43.2855 28.0739C43.2678 28.0417 43.2489 28.0121 43.2304 27.9829C43.2143 27.9576 43.1985 27.9327 43.1838 27.9067C43.1525 27.8506 43.114 27.7868 43.0741 27.7296C43.0486 27.6931 43.0244 27.6615 43.0003 27.63C42.9864 27.6119 42.9725 27.5939 42.9585 27.5749L42.935 27.5431C42.9027 27.4992 42.8676 27.4514 42.8317 27.4083C42.7883 27.356 42.7476 27.3148 42.7054 27.272L42.7016 27.2682C42.6803 27.2466 42.6577 27.2212 42.6346 27.1952C42.6107 27.1683 42.5862 27.1407 42.5617 27.1158C42.5278 27.0814 42.4943 27.0521 42.4607 27.0228C42.4463 27.0102 42.432 26.9977 42.4176 26.9848C42.398 26.9672 42.3778 26.9484 42.3572 26.9292L42.3571 26.9291C42.3269 26.9008 42.2957 26.8717 42.2641 26.8446C42.229 26.8146 42.1934 26.7892 42.1581 26.7638L42.158 26.7638C42.1399 26.7508 42.1219 26.7379 42.104 26.7244C42.0892 26.7133 42.0743 26.702 42.0594 26.6906L42.0594 26.6906C42.0208 26.6611 41.9819 26.6314 41.9416 26.6045C41.9135 26.5859 41.8836 26.5684 41.8532 26.5506C41.8231 26.533 41.7924 26.515 41.7625 26.4954C41.7021 26.4561 41.6531 26.4253 41.5964 26.3954C41.5562 26.374 41.5089 26.3518 41.4618 26.3298L41.4617 26.3297L41.4613 26.3296C41.4423 26.3206 41.4232 26.3117 41.4047 26.3029C41.3828 26.2924 41.3625 26.2823 41.3429 26.2726C41.305 26.2538 41.2697 26.2362 41.2304 26.2197C41.1872 26.2013 41.133 26.1823 41.0798 26.1637C41.0597 26.1567 41.0397 26.1497 41.0205 26.1428C40.9945 26.1334 40.9719 26.1248 40.9507 26.1167C40.9147 26.103 40.8828 26.0908 40.8453 26.079C40.7867 26.061 40.727 26.0467 40.6671 26.0323L40.6671 26.0323C40.6455 26.0271 40.6239 26.022 40.6024 26.0166C40.5794 26.0112 40.5569 26.005 40.5344 25.9988L40.5344 25.9988C40.5046 25.9907 40.4749 25.9825 40.4443 25.9762C40.3825 25.9635 40.3195 25.9549 40.2565 25.9463L40.2564 25.9463C40.2318 25.943 40.2071 25.9396 40.1825 25.936C40.1609 25.9332 40.1398 25.9295 40.1187 25.9259C40.089 25.9208 40.0596 25.9158 40.0293 25.9129C39.8891 25.899 39.7493 25.8913 39.6023 25.8913C37.2835 25.8936 35.4045 27.7726 35.4022 30.0914H29.8002V23.092H37.5C37.6857 23.092 37.8637 23.0182 37.9947 22.8869L39.81 21.0717C40.5719 21.4343 41.3127 21.8396 42.0291 22.2856C42.1117 22.3372 42.204 22.3711 42.3005 22.385L46.6 22.9988V23.7921ZM26.2999 23.7921H23.5V25.1923H26.2999V23.7921Z" fill="url(#paint1_linear)"/>
<defs>
<linearGradient id="paint0_linear" x1="0" y1="0.000244141" x2="0" y2="54.0002" gradientUnits="userSpaceOnUse">
<stop stop-color="#FFBA10"/>
<stop offset="1" stop-color="#FC7712"/>
</linearGradient>
<linearGradient id="paint1_linear" x1="6" y1="17.4922" x2="6" y2="34.2938" gradientUnits="userSpaceOnUse">
<stop stop-color="#FFBA10"/>
<stop offset="1" stop-color="#FC7712"/>
</linearGradient>
</defs>
</svg>
