<svg width="54" height="54" fill="none" xmlns="http://www.w3.org/2000/svg"><circle cx="27" cy="27" r="26" stroke="url(#paint0_linear)" stroke-width="2"/><path fill-rule="evenodd" clip-rule="evenodd" d="M21.064 13.906c2.341-2.303 5.389-3.571 8.582-3.571 6.967 0 12.635 6.022 12.635 13.425 0 3.991-1.656 7.75-4.541 10.31a.696.696 0 00-.08.94.604.604 0 00.884.084c3.173-2.815 4.992-6.946 4.992-11.334 0-8.139-6.231-14.76-13.89-14.76-3.51 0-6.861 1.395-9.435 3.927a.697.697 0 00-.034.943c.235.27.632.287.887.036zm-.176 11.246h-.361v-3.109c0-.368-.281-.667-.628-.667h-.054v-6.36a.673.673 0 00-.347-.597l-4.86-2.583a.596.596 0 00-.61.03.677.677 0 00-.298.567v8.943h-.054c-.347 0-.628.299-.628.667v3.11h-.361c-.347 0-.628.298-.628.666v17.514c0 .369.28.667.628.667h8.2c.347 0 .628-.298.628-.667V25.819c0-.368-.28-.667-.627-.667zm-5.902-11.64l3.603 1.916v5.948h-3.603v-7.863zm4.285 9.198h-4.967v2.442h4.967V22.71zm.989 19.956h-6.945v-16.18h6.945v16.18zm2.254-6.597h20.394a.62.62 0 01.532.312.703.703 0 01.034.644l-.577 1.274c-.996 2.2-3.125 3.623-5.424 3.623h-14.96c-.346 0-.627-.3-.627-.667 0-.369.28-.668.628-.668h14.96c1.818 0 3.503-1.125 4.292-2.867l.143-.317H22.514c-.347 0-.628-.298-.628-.667 0-.368.28-.667.628-.667zM39.669 23.76c0-5.872-4.497-10.65-10.023-10.65-3.175 0-6.195 1.624-8.079 4.344a.604.604 0 01-.878.142.695.695 0 01-.133-.933c2.12-3.06 5.518-4.888 9.09-4.888 6.219 0 11.279 5.377 11.279 11.985 0 6.61-5.06 11.986-11.28 11.986-2.796 0-5.478-1.095-7.552-3.084a.697.697 0 01-.046-.942.602.602 0 01.887-.049c1.843 1.767 4.227 2.74 6.711 2.74 5.527 0 10.024-4.778 10.024-10.65zm-3.116-5.256L25.095 30.68a.697.697 0 000 .944c.122.13.283.195.444.195a.61.61 0 00.444-.195L37.44 19.448a.697.697 0 000-.944.602.602 0 00-.888 0zm-7.97 13.202a.697.697 0 010-.944l8.604-9.141a.602.602 0 01.888 0 .697.697 0 010 .943l-8.603 9.142a.608.608 0 01-.444.195.608.608 0 01-.444-.195z" fill="url(#paint1_linear)"/><defs><linearGradient id="paint0_linear" x1="0" y1="0" x2="0" y2="54" gradientUnits="userSpaceOnUse"><stop stop-color="#FFBA10"/><stop offset="1" stop-color="#FC7712"/></linearGradient><linearGradient id="paint1_linear" x1="12.059" y1="9" x2="12.059" y2="44" gradientUnits="userSpaceOnUse"><stop stop-color="#FFBA10"/><stop offset="1" stop-color="#FC7712"/></linearGradient></defs></svg>