<svg width="23" height="23" fill="none" xmlns="http://www.w3.org/2000/svg"><rect x=".5" y=".5" width="22" height="22" rx="3.5" fill="#fff" stroke="#62B53A"/><path fill-rule="evenodd" clip-rule="evenodd" d="M16.828 7.132a.8.8 0 00-1.102.22l-5.223 7.783-3.277-2.446a.804.804 0 00-1.1.236.78.78 0 00.239 1.086l3.937 2.866c.064.04.133.07.203.09l.001.001a.73.73 0 00.101.022l.012.003a.833.833 0 00.285-.012l.018-.003a.8.8 0 00.262-.117l.002-.001a.695.695 0 00.066-.051l.012-.01a.8.8 0 00.047-.048l.024-.024.031-.04.03-.038L17.05 8.22a.778.778 0 00-.223-1.089z" fill="#62B53A"/></svg>