<svg width="54" height="54" fill="none" xmlns="http://www.w3.org/2000/svg"><circle cx="27" cy="27" r="26" stroke="url(#paint0_linear)" stroke-width="2"/><path fill-rule="evenodd" clip-rule="evenodd" d="M13.025 24.54C11.103 26.463 10 29.151 10 31.917v1.03c0 2.157.419 4.262 1.245 6.256a16.267 16.267 0 003.544 5.304c.209.209.492.327.788.327h5.26a8.886 8.886 0 005.895 2.23 8.886 8.886 0 005.895-2.23h5.26c.295 0 .579-.118.788-.327a16.339 16.339 0 004.789-11.56v-1.03c0-2.766-1.103-5.454-3.025-7.377a4.887 4.887 0 01-1.437-3.469c0-1.15.32-2.156.899-2.833 1.149-1.341 1.582-3.115 1.19-4.867-.465-2.069-2.17-3.75-4.247-4.183-3.551-.74-6.766 1.943-6.766 5.454 0 1.196.378 2.337 1.094 3.298.744.999 1.137 2.082 1.137 3.13 0 1.278-.49 2.523-1.437 3.47-1.29 1.291-2.231 2.97-2.697 4.794a8.975 8.975 0 00-2.886 0c-.466-1.824-1.407-3.503-2.697-4.794a4.886 4.886 0 01-1.437-3.469c0-1.15.319-2.156.898-2.833 1.15-1.341 1.583-3.115 1.19-4.867-.464-2.069-2.17-3.75-4.246-4.183-3.552-.741-6.766 1.943-6.766 5.454 0 1.196.378 2.337 1.094 3.298.744.999 1.137 2.082 1.137 3.13a4.886 4.886 0 01-1.437 3.47zm6.031-2.09H16.56a7.21 7.21 0 00.133-1.38c0-.283-.02-.568-.056-.852h2.33a8.249 8.249 0 00-.043.853c0 .468.045.93.132 1.379zm17.759-2.232h-2.33c.036.284.055.569.055.853 0 .468-.045.93-.132 1.379h2.496a7.208 7.208 0 01-.133-1.379c0-.262.012-.55.044-.853zm-.426-8.846c1.215.254 2.253 1.276 2.525 2.487.24 1.075-.01 2.114-.707 2.928a5.519 5.519 0 00-.782 1.201h-3.621a8.586 8.586 0 00-.843-1.38 3.268 3.268 0 01-.652-1.966 3.35 3.35 0 014.08-3.27zm-2.826 13.309c-.305.518-.677 1-1.113 1.437-1.03 1.029-1.774 2.38-2.134 3.851 3.141 1.383 5.34 4.526 5.34 8.172a8.869 8.869 0 01-1.198 4.462h2.956a14.019 14.019 0 003.819-9.657v-1.029c0-2.178-.864-4.292-2.371-5.8a7.168 7.168 0 01-1.114-1.436h-4.185zm-.138 13.46a6.7 6.7 0 01-6.693 6.693 6.7 6.7 0 01-6.693-6.693 6.7 6.7 0 016.693-6.693 6.7 6.7 0 016.693 6.693zm-15.617 0c0-3.646 2.199-6.789 5.34-8.172-.36-1.47-1.105-2.822-2.134-3.851a7.18 7.18 0 01-1.113-1.437h-4.185c-.305.518-.677 1-1.114 1.437-1.507 1.507-2.371 3.62-2.371 5.8v1.028c0 3.62 1.352 7.03 3.818 9.657h2.957a8.866 8.866 0 01-1.198-4.462zm.734-26.769c1.215.254 2.253 1.276 2.524 2.487.241 1.075-.01 2.114-.707 2.928a5.52 5.52 0 00-.781 1.201h-3.622a8.63 8.63 0 00-.842-1.38 3.268 3.268 0 01-.652-1.966 3.35 3.35 0 014.08-3.27zM28.96 35.91a1.116 1.116 0 100-2.231 1.116 1.116 0 000 2.23zm-2.231 4.462a1.115 1.115 0 100-2.231 1.115 1.115 0 000 2.23zm5.577-1.116a1.116 1.116 0 11-2.231 0 1.116 1.116 0 012.231 0z" fill="url(#paint1_linear)"/><defs><linearGradient id="paint0_linear" x1="0" y1="0" x2="0" y2="54" gradientUnits="userSpaceOnUse"><stop stop-color="#FFBA10"/><stop offset="1" stop-color="#FC7712"/></linearGradient><linearGradient id="paint1_linear" x1="10" y1="9.064" x2="10" y2="47.065" gradientUnits="userSpaceOnUse"><stop stop-color="#FFBA10"/><stop offset="1" stop-color="#FC7712"/></linearGradient></defs></svg>