<svg width="20" height="20" fill="none" xmlns="http://www.w3.org/2000/svg"><circle cx="10" cy="10.001" r="9" stroke="#FF2E2E" stroke-width="2"/><path d="M7.132 14l2.172-4.02-2.04-3.804h1.968l.684 1.476c.088.184.176.38.264.588.088.2.188.424.3.672h.048c.088-.248.172-.472.252-.672.088-.208.172-.404.252-.588l.624-1.476h1.884l-2.028 3.889L13.672 14h-1.968l-.78-1.596a44.766 44.766 0 00-.288-.612 20.321 20.321 0 00-.3-.672h-.048c-.088.24-.176.463-.264.671-.088.2-.176.405-.264.613L9.028 14H7.132z" fill="#FF2E2E"/></svg>