<svg width="44" height="52" fill="none" xmlns="http://www.w3.org/2000/svg"><path fill-rule="evenodd" clip-rule="evenodd" d="M15.357 5.422a.75.75 0 00.332-.017 22.833 22.833 0 0110.253-.51c1.798.317 3.551.844 5.211 1.567a.745.745 0 00.595-1.366A24.62 24.62 0 0026.2 3.427a24.31 24.31 0 00-10.916.544.745.745 0 00.073 1.45zm10.291 1.136a21.442 21.442 0 00-4.96-.292.745.745 0 10.087 1.488 19.96 19.96 0 014.615.272c5.38.949 10.025 3.978 13.078 8.53a.743.743 0 001.034.204.745.745 0 00.204-1.034 21.38 21.38 0 00-5.966-5.941 21.216 21.216 0 00-8.092-3.227zm-.81 4.599a16.657 16.657 0 00-12.212 2.579A16.657 16.657 0 005.593 23.99a.745.745 0 01-1.455-.325 18.142 18.142 0 017.66-11.168A18.14 18.14 0 0125.095 9.69c.862.152 1.718.367 2.545.639a.745.745 0 11-.466 1.415 16.876 16.876 0 00-2.338-.586zm5.888.516a.745.745 0 00-.72 1.304 16.69 16.69 0 014.095 3.18.742.742 0 001.053.033.745.745 0 00.032-1.054 18.182 18.182 0 00-4.46-3.463zm-6.182 1.147c-.274-.048-.553-.09-.83-.123a.745.745 0 00-.177 1.48c.249.03.5.067.748.11 7.364 1.299 12.3 8.347 11 15.711l-.566 3.216a.745.745 0 101.468.258l.567-3.215c1.44-8.174-4.036-15.996-12.21-17.437zm3.697 6.483a.74.74 0 01-.303-.127 10.292 10.292 0 00-2.762-1.396.745.745 0 11.465-1.416c1.13.371 2.193.909 3.162 1.599a.745.745 0 01-.563 1.34zm-17.398 7.142a.745.745 0 01-.605-.864 11.857 11.857 0 014.245-7.177 11.876 11.876 0 017.818-2.628.746.746 0 01-.047 1.489 10.386 10.386 0 00-6.837 2.3 10.368 10.368 0 00-3.711 6.275.745.745 0 01-.863.605zm19.649 2.708c.832-4.721-2.331-9.239-7.052-10.071-4.72-.832-9.238 2.33-10.07 7.052l-.513 2.903a7.985 7.985 0 01-2.95 4.912L7.435 35.88a.745.745 0 00.918 1.174l2.47-1.93a9.473 9.473 0 003.5-5.829l.513-2.903c.69-3.911 4.433-6.532 8.344-5.842 3.912.69 6.533 4.433 5.843 8.344l-.567 3.215a23.845 23.845 0 01-8.91 14.75l-.878.679a.745.745 0 00.912 1.178l.877-.678a25.333 25.333 0 009.467-15.67l.566-3.215zm-7.604-6.94A5.52 5.52 0 0127.36 28.6l-.567 3.215a22.16 22.16 0 01-8.281 13.707l-3.169 2.452a.743.743 0 01-1.045-.134.745.745 0 01.133-1.045l3.17-2.452a20.672 20.672 0 007.724-12.787l.567-3.215a4.028 4.028 0 00-3.264-4.662 4.028 4.028 0 00-4.661 3.265l-.512 2.903a12.648 12.648 0 01-4.674 7.78l-2.743 2.145a.745.745 0 01-.918-1.174l2.743-2.145a11.16 11.16 0 004.124-6.865l.512-2.903a5.52 5.52 0 016.388-4.473zm1.342 5.836l-.567 3.215a18.987 18.987 0 01-7.096 11.745l-3.755 2.905a.743.743 0 01-1.045-.133.745.745 0 01.133-1.046l3.756-2.905a17.5 17.5 0 006.54-10.825l.566-3.215a.846.846 0 00-1.663-.293l-.512 2.903a15.822 15.822 0 01-5.847 9.733l-3.86 3.017a.745.745 0 11-.917-1.175l3.86-3.016a14.334 14.334 0 005.296-8.818l.512-2.903a2.338 2.338 0 012.705-1.894 2.337 2.337 0 011.894 2.705zm-13.036.695a.745.745 0 10-1.468-.26 4.81 4.81 0 01-1.777 2.96L5.75 33.162a.745.745 0 00.918 1.174l2.197-1.718a6.299 6.299 0 002.328-3.875zM29.527 39.27a.746.746 0 011.354.622 28.571 28.571 0 01-1.626 3.04.745.745 0 01-1.27-.78 27.041 27.041 0 001.542-2.882zm1.746-18.946a.745.745 0 10-1.174.918 10.4 10.4 0 012.056 8.203l-.567 3.215a27.298 27.298 0 01-.895 3.612.745.745 0 101.419.456 28.83 28.83 0 00.944-3.809l.567-3.215a11.893 11.893 0 00-2.35-9.38zM16.26 15.33a.742.742 0 01-.989-.364.745.745 0 01.364-.989 14.973 14.973 0 014.794-1.311.746.746 0 01.149 1.483c-1.495.15-2.947.547-4.318 1.181zM8.063 28.191l.512-2.903a13.503 13.503 0 015.254-8.513.745.745 0 10-.89-1.195 14.988 14.988 0 00-5.832 9.45l-.512 2.903c-.07.4-.285.757-.604 1.006l-1.082.846a.745.745 0 00.917 1.174l1.082-.845a3.125 3.125 0 001.155-1.923zm29.228-10.353a18.128 18.128 0 012.669 7.093.745.745 0 11-1.473.223 16.65 16.65 0 00-2.452-6.514.745.745 0 011.256-.802zM7.978 13.026a.745.745 0 01-.368-1.288 21.543 21.543 0 019.703-5.002.745.745 0 11.323 1.455 20.05 20.05 0 00-9.03 4.656.744.744 0 01-.628.18zM36.093 9.4a23.095 23.095 0 00-2.044-1.422.745.745 0 01.783-1.268c.75.463 1.481.973 2.177 1.514a.745.745 0 01-.916 1.176z" fill="url(#paint0_linear)"/><defs><linearGradient id="paint0_linear" x1="8.264" y1=".264" x2=".276" y2="45.566" gradientUnits="userSpaceOnUse"><stop stop-color="#FFBA10"/><stop offset="1" stop-color="#FC7712"/></linearGradient></defs></svg>