<svg width="54" height="54" viewBox="0 0 54 54" fill="none" xmlns="http://www.w3.org/2000/svg">
<circle cx="27" cy="27.0002" r="26" stroke="url(#paint0_linear)" stroke-width="2"/>
<path fill-rule="evenodd" clip-rule="evenodd" d="M42.6023 15.8557L39.9655 20.4227C38.9691 22.1484 36.9657 22.8782 35.1824 22.3791L34.3801 23.7686C34.7014 23.7914 34.9964 23.9595 35.1788 24.2281C35.3749 24.5176 35.4153 24.8851 35.2862 25.21L32.0883 33.2581L33.8344 32.3852C34.3554 32.1245 34.989 32.3358 35.2494 32.8568C35.5098 33.3778 35.2988 34.0112 34.7778 34.2718L32.4457 35.4377L34.7778 36.6039C35.2988 36.8643 35.51 37.498 35.2494 38.019C34.9893 38.5392 34.3562 38.7515 33.8346 38.4906L31.1422 37.1442V43.9456C31.1422 44.5281 30.67 45.0002 30.0875 45.0002H23.7593C23.1768 45.0002 22.7047 44.5281 22.7047 43.9456V35.6396L18.5603 25.21C18.4315 24.8851 18.4716 24.5176 18.668 24.2281C18.8317 23.9867 19.0866 23.8266 19.3698 23.7802L18.5609 22.3791C16.797 22.8727 14.7835 22.1649 13.7777 20.4227L11.141 15.8557C11.0009 15.6135 10.963 15.3256 11.0355 15.0554C11.108 14.7851 11.2846 14.5549 11.5269 14.4151C12.6143 13.7873 13.8596 13.6942 14.981 14.0696C15.2164 12.9128 15.9178 11.8798 17.0071 11.2511C17.5117 10.9597 18.1566 11.1324 18.448 11.637L21.0847 16.204C22.0658 17.9033 21.7263 20.0085 20.3871 21.3239L21.7969 23.7659H25.8684V19.4136C24.051 18.9442 22.7044 17.2905 22.7044 15.3284V10.0549C22.7044 9.47238 23.1768 9.00024 23.7591 9.00024C25.0178 9.00024 26.1497 9.5545 26.9231 10.4315C27.6968 9.5545 28.8287 9.00024 30.0872 9.00024C30.6697 9.00024 31.1419 9.47238 31.1419 10.0549V15.3284C31.1419 17.2905 29.7955 18.9442 27.9778 19.4136V23.7659H31.9461L33.3556 21.3244C32.0466 20.0437 31.6527 17.9459 32.6585 16.204L35.2953 11.637C35.5864 11.1324 36.2313 10.9597 36.7358 11.2511C37.8254 11.8798 38.5283 12.9248 38.7601 14.0704C39.9178 13.6823 41.1598 13.8051 42.2161 14.4151C42.7206 14.7063 42.8934 15.3514 42.6023 15.8557ZM24.8138 11.3928V15.3284C24.8138 16.4915 25.7602 17.4377 26.9231 17.4377C28.0863 17.4377 29.0325 16.4915 29.0325 15.3284V11.3928C28.4024 11.7581 27.9778 12.4398 27.9778 13.219C27.9778 13.8015 27.5057 14.2737 26.9231 14.2737C26.3409 14.2737 25.8684 13.8015 25.8684 13.219C25.8684 12.4398 25.4438 11.7581 24.8138 11.3928ZM34.4853 17.2587L36.4529 13.8502C36.816 14.4816 36.843 15.2844 36.4532 15.9593C36.1637 16.4605 36.3318 17.1071 36.8394 17.3998C37.3439 17.691 37.9888 17.5182 38.28 17.0139C38.6705 16.3375 39.3772 15.9593 40.1073 15.9584L38.1388 19.368C37.5557 20.3777 36.267 20.7229 35.2574 20.1401C34.2477 19.5573 33.9022 18.2683 34.4853 17.2587ZM13.6357 15.9582L15.6042 19.368C16.1873 20.378 17.4763 20.7229 18.4856 20.1401C19.4931 19.5584 19.8394 18.2658 19.2577 17.2587L17.2892 13.8488C16.9258 14.4805 16.8984 15.2814 17.2898 15.9593C17.3856 16.1252 17.4312 16.3064 17.4312 16.4852C17.4312 16.85 17.242 17.2046 16.9036 17.3998C16.399 17.6913 15.7542 17.5182 15.463 17.0139C15.0727 16.338 14.3669 15.9593 13.6357 15.9582ZM24.8138 42.8909V36.4924H29.0325V42.8909H24.8138ZM27.9987 34.3831H29.3714L32.7522 25.8752H21.0943L24.4751 34.3831H25.8476L24.8344 29.3164C24.7201 28.7451 25.0906 28.1895 25.6619 28.0753C26.2329 27.961 26.7885 28.3315 26.9028 28.9028L27.9987 34.3831Z" fill="url(#paint1_linear)"/>
<defs>
<linearGradient id="paint0_linear" x1="0" y1="0.000244141" x2="0" y2="54.0002" gradientUnits="userSpaceOnUse">
<stop stop-color="#FFBA10"/>
<stop offset="1" stop-color="#FC7712"/>
</linearGradient>
<linearGradient id="paint1_linear" x1="10.9995" y1="9.00024" x2="10.9995" y2="45.0002" gradientUnits="userSpaceOnUse">
<stop stop-color="#FFBA10"/>
<stop offset="1" stop-color="#FC7712"/>
</linearGradient>
</defs>
</svg>
