<svg width="25" height="23" fill="none" xmlns="http://www.w3.org/2000/svg"><path fill-rule="evenodd" clip-rule="evenodd" d="M22.87 6.084h-4.825a5.92 5.92 0 00.851-.681 3.187 3.187 0 000-4.486c-1.195-1.204-3.278-1.201-4.472 0-.661.663-2.415 3.363-2.172 5.167h-.11C12.383 4.28 10.63 1.58 9.97.917 8.774-.284 6.691-.284 5.497.917a3.191 3.191 0 00-.002 4.486c.21.21.506.445.853.681H1.525C.685 6.084 0 6.769 0 7.609v2.287c0 .42.342.762.762.762h9.91v-3.05h3.05v3.05h9.91c.42 0 .762-.342.762-.762V7.609c0-.84-.683-1.525-1.525-1.525zm-12.288-.05s-.064.05-.282.05c-1.053 0-3.064-1.095-3.721-1.756a1.663 1.663 0 010-2.336 1.62 1.62 0 011.155-.482c.435 0 .845.17 1.155.482 1.027 1.034 2.049 3.674 1.693 4.042zm3.23 0c0 .001.064.05.28.05 1.055 0 3.066-1.095 3.723-1.756a1.66 1.66 0 000-2.336c-.62-.624-1.695-.62-2.31 0-1.027 1.034-2.049 3.674-1.694 4.042zM1.524 12.182v9.148c0 .842.684 1.525 1.524 1.525h7.623V12.182H1.525zm12.197 10.673V12.182h9.147v9.148c0 .842-.683 1.525-1.524 1.525h-7.623z" fill="#838383"/></svg>