<svg width="17" height="13" viewBox="0 0 17 13" fill="none" xmlns="http://www.w3.org/2000/svg">
<path fill-rule="evenodd" clip-rule="evenodd" d="M1.13863 2.39982C1.76748 2.39982 2.27726 1.89004 2.27726 1.26119C2.27726 0.632341 1.76748 0.122559 1.13863 0.122559C0.509782 0.122559 0 0.632341 0 1.26119C0 1.89004 0.509782 2.39982 1.13863 2.39982ZM16.1437 2.04345H4.78174C4.31346 2.04345 3.93391 1.66391 3.93391 1.19562C3.93391 0.727341 4.31346 0.347798 4.78174 0.347798H16.1435C16.6117 0.347798 16.9913 0.727341 16.9913 1.19562C16.9913 1.66391 16.612 2.04345 16.1437 2.04345ZM4.78174 7.36525H16.1437C16.612 7.36525 16.9916 6.98571 16.9913 6.51743C16.9913 6.04915 16.6117 5.6696 16.1435 5.6696H4.78174C4.31346 5.6696 3.93391 6.04915 3.93391 6.51743C3.93391 6.98571 4.31346 7.36525 4.78174 7.36525ZM4.78174 12.6871H16.1437C16.612 12.6871 16.9913 12.3075 16.9913 11.8392C16.9913 11.3709 16.6117 10.9914 16.1435 10.9914H4.78174C4.31346 10.9914 3.93391 11.3709 3.93391 11.8392C3.93391 12.3075 4.31346 12.6871 4.78174 12.6871ZM2.27726 6.51743C2.27726 7.14628 1.76748 7.65606 1.13863 7.65606C0.509782 7.65606 0 7.14628 0 6.51743C0 5.88858 0.509782 5.3788 1.13863 5.3788C1.76748 5.3788 2.27726 5.88858 2.27726 6.51743ZM1.13863 12.9123C1.76748 12.9123 2.27726 12.4025 2.27726 11.7737C2.27726 11.1448 1.76748 10.635 1.13863 10.635C0.509782 10.635 0 11.1448 0 11.7737C0 12.4025 0.509782 12.9123 1.13863 12.9123Z" fill="url(#paint0_linear)"/>
<defs>
<linearGradient id="paint0_linear" x1="0" y1="0.122559" x2="0" y2="12.9123" gradientUnits="userSpaceOnUse">
<stop stop-color="#FFBA10"/>
<stop offset="1" stop-color="#FC7712"/>
</linearGradient>
</defs>
</svg>
