<svg width="54" height="54" fill="none" xmlns="http://www.w3.org/2000/svg"><circle cx="27" cy="27" r="26" stroke="url(#paint0_linear)" stroke-width="2"/><path fill-rule="evenodd" clip-rule="evenodd" d="M42.786 15.143c-1.743-2.019-4.16-3.13-6.805-3.13-2.894 0-5.534 1.156-7.635 3.343-.73.76-1.277 1.52-1.656 2.124a13.292 13.292 0 00-1.655-2.124c-2.102-2.188-4.742-3.344-7.635-3.344-5.538 0-9.4 4.777-9.4 10.457 0 7.154 6.857 13.254 16.156 21.527.673.6 1.36 1.21 2.056 1.832a.716.716 0 00.956 0l2.027-1.806.003-.002.001-.002c9.332-8.303 16.181-14.397 16.181-21.55 0-2.784-.921-5.386-2.594-7.325zM26.69 44.263l-1.611-1.435C16.127 34.863 9.46 28.932 9.46 22.468c0-5.102 3.413-8.95 7.94-8.95 2.513 0 4.72.962 6.561 2.86 1.402 1.446 2.057 2.922 2.063 2.937a.73.73 0 00.665.444h.002a.73.73 0 00.666-.444c.006-.015.66-1.49 2.062-2.937 1.84-1.898 4.048-2.86 6.562-2.86 4.526 0 7.94 3.848 7.94 8.95 0 6.498-6.868 12.594-15.258 20.042h-.002c-.648.577-1.306 1.16-1.97 1.754zm11.572-27.608c0-.416.327-.753.73-.753.403 0 .73.337.73.753a.742.742 0 01-.73.752.742.742 0 01-.73-.752zm3.284 1.928a.72.72 0 00-.986-.316.764.764 0 00-.307 1.016c.482.947.747 2.079.747 3.186 0 2.175-1.004 4.484-3.16 7.265a.769.769 0 00.115 1.058.715.715 0 001.026-.118c2.373-3.063 3.48-5.67 3.48-8.205 0-1.366-.317-2.71-.915-3.886zm-7.847 7.858h-4.088v-4.216a.742.742 0 00-.73-.753H24.5a.742.742 0 00-.73.753v4.215h-4.09a.742.742 0 00-.73.753v4.517c0 .416.327.753.73.753h4.089v4.215c0 .416.327.753.73.753h4.38c.404 0 .73-.337.73-.753v-4.215h4.09c.402 0 .73-.337.73-.753v-4.517a.742.742 0 00-.73-.753zm-.73 4.516h-4.088a.742.742 0 00-.73.753v4.215h-2.92V31.71a.742.742 0 00-.731-.753h-4.088v-3.011H24.5c.403 0 .73-.337.73-.753v-4.215h2.92v4.215c0 .416.327.753.73.753h4.089v3.011z" fill="url(#paint1_linear)"/><defs><linearGradient id="paint0_linear" x1="0" y1="0" x2="0" y2="54" gradientUnits="userSpaceOnUse"><stop stop-color="#FFBA10"/><stop offset="1" stop-color="#FC7712"/></linearGradient><linearGradient id="paint1_linear" x1="8" y1="12.012" x2="8" y2="46.012" gradientUnits="userSpaceOnUse"><stop stop-color="#FFBA10"/><stop offset="1" stop-color="#FC7712"/></linearGradient></defs></svg>