<svg width="54" height="54" viewBox="0 0 54 54" fill="none" xmlns="http://www.w3.org/2000/svg">
<circle cx="27" cy="27.0002" r="26" stroke="url(#paint0_linear)" stroke-width="2"/>
<path fill-rule="evenodd" clip-rule="evenodd" d="M42.2646 13.0813H12.1187C10.9504 13.0813 10 14.0317 10 15.1999V35.6561C10 36.8244 10.9504 37.7747 12.1187 37.7747H22.3145L21.9021 41.074H20.1934C19.9152 41.074 19.6898 41.2995 19.6898 41.5776C19.6898 41.8558 19.9152 42.0813 20.1934 42.0813H34.1898C34.4681 42.0813 34.6935 41.8558 34.6935 41.5776C34.6935 41.2995 34.4681 41.074 34.1898 41.074H32.4812L32.0688 37.7747H42.2646C43.4328 37.7747 44.3833 36.8244 44.3833 35.6561V15.1999C44.3833 14.0317 43.4329 13.0813 42.2646 13.0813ZM22.9173 41.074L23.3298 37.7747H25.1834L25.3653 38.502C25.5752 39.3417 26.3263 39.928 27.1917 39.928C28.0571 39.928 28.8082 39.3417 29.0181 38.502L29.2 37.7747H31.0536L31.466 41.074H22.9173ZM28.1615 37.7747H26.2217L26.3424 38.2577C26.44 38.648 26.7891 38.9207 27.1916 38.9207C27.594 38.9207 27.9432 38.6481 28.0407 38.2577L28.1615 37.7747ZM43.3759 35.6561C43.3759 36.2689 42.8774 36.7674 42.2646 36.7674H12.1187C11.5059 36.7674 11.0073 36.2689 11.0073 35.6561V15.1999C11.0073 14.5871 11.5059 14.0886 12.1187 14.0886H42.2646C42.8774 14.0886 43.3759 14.5871 43.3759 15.1999V35.6561ZM12.6569 15.2346H38.4963C38.7746 15.2346 39 15.4601 39 15.7383C39 16.0164 38.7746 16.2419 38.4963 16.2419H13.1606V34.6142H13.7337C14.0118 34.6142 14.2373 34.8397 14.2373 35.1178C14.2373 35.396 14.0118 35.6215 13.7336 35.6215H12.6569C12.3787 35.6215 12.1533 35.396 12.1533 35.1178V15.7383C12.1533 15.4601 12.3787 15.2346 12.6569 15.2346ZM41.7264 15.2346H40.6497C40.3714 15.2346 40.146 15.4601 40.146 15.7383C40.146 16.0164 40.3714 16.2419 40.6497 16.2419H41.2227V34.6142H15.8869C15.6087 34.6142 15.3833 34.8397 15.3833 35.1178C15.3833 35.396 15.6087 35.6215 15.8869 35.6215H41.7263C42.0045 35.6215 42.2299 35.396 42.2299 35.1178V15.7383C42.23 15.4601 42.0045 15.2346 41.7264 15.2346ZM33.6744 20.6183C33.8211 20.6249 33.9576 20.6953 34.0481 20.811C34.1387 20.9267 34.1742 21.0761 34.1454 21.2202L33.2988 25.4532C33.1183 26.3558 32.3829 27.0343 31.4689 27.1419L24.3917 27.9745C24.3284 27.9819 24.2656 27.9856 24.2033 27.9856C24.0682 27.9856 23.9362 27.968 23.8094 27.9354L23.1868 29.1807L23.1867 29.1808C23.1835 29.1873 23.1782 29.1981 23.1883 29.2144C23.1984 29.2308 23.2106 29.2308 23.2177 29.2308H32.575C32.8532 29.2308 33.0786 29.4563 33.0786 29.7345C33.0786 29.8826 33.0144 30.0153 32.9127 30.1074C33.0187 30.3195 33.0786 30.5583 33.0786 30.8111C33.0786 31.6824 32.3697 32.3914 31.4983 32.3914C30.627 32.3914 29.9181 31.6825 29.9181 30.8111C29.9181 30.609 29.9566 30.4159 30.026 30.2381H25.4342C25.5036 30.4159 25.5422 30.609 25.5422 30.8111C25.5422 31.6824 24.8332 32.3914 23.9619 32.3914C23.0906 32.3914 22.3816 31.6825 22.3816 30.8111C22.3816 30.5264 22.4577 30.2592 22.59 30.0283C22.4889 29.9517 22.4009 29.8562 22.3316 29.744C22.1403 29.4345 22.1233 29.0555 22.286 28.7302L22.9619 27.3784C22.8401 27.2219 22.7453 27.0407 22.6877 26.8391L20.8403 20.3734C20.838 20.3654 20.833 20.3585 20.8262 20.354L19.3759 19.3872C19.1445 19.2329 19.082 18.9203 19.2362 18.6888C19.3905 18.4573 19.7032 18.3948 19.9346 18.549L21.385 19.5159C21.5855 19.6497 21.7336 19.8493 21.8037 20.0794C21.8131 20.0793 21.8221 20.0795 21.8314 20.0799L33.6744 20.6183ZM32.0712 30.8112C32.0712 30.4953 31.8142 30.2383 31.4982 30.2383C31.1822 30.2383 30.9252 30.4953 30.9252 30.8112C30.9252 31.1272 31.1822 31.3842 31.4982 31.3842C31.8142 31.3842 32.0712 31.1272 32.0712 30.8112ZM23.9618 30.2383C24.2777 30.2383 24.5347 30.4953 24.5347 30.8112C24.5347 31.1272 24.2777 31.3842 23.9618 31.3842C23.6458 31.3842 23.3888 31.1272 23.3888 30.8112C23.3888 30.4953 23.6458 30.2383 23.9618 30.2383ZM22.0955 21.1003L22.7266 23.3094H24.4582L24.1091 21.1919L22.0955 21.1003ZM24.274 26.9741C23.9932 27.0071 23.7336 26.8339 23.6561 26.5624L23.0145 24.3167H24.6243L25.0474 26.8831L24.274 26.9741ZM26.049 26.7653L27.2264 26.6268V24.3168H25.6453L26.049 26.7653ZM27.2264 23.3094H25.4792L25.1378 21.2387L27.2264 21.3336V23.3094ZM28.2337 26.5082L29.777 26.3266L29.9589 24.3167H28.2337V26.5082ZM30.0501 23.3094H28.2337V21.3794L30.2167 21.4695L30.0501 23.3094ZM31.3511 26.1415C31.8306 26.0851 32.2163 25.7291 32.311 25.2558L32.4987 24.3168H30.9704L30.7993 26.2064L31.3511 26.1415ZM32.7003 23.3094H31.0616L31.224 21.5153L33.0426 21.5979L32.7003 23.3094Z" fill="url(#paint1_linear)"/>
<defs>
<linearGradient id="paint0_linear" x1="0" y1="0.000244141" x2="0" y2="54.0002" gradientUnits="userSpaceOnUse">
<stop stop-color="#FFBA10"/>
<stop offset="1" stop-color="#FC7712"/>
</linearGradient>
<linearGradient id="paint1_linear" x1="10" y1="13.0813" x2="10" y2="42.0813" gradientUnits="userSpaceOnUse">
<stop stop-color="#FFBA10"/>
<stop offset="1" stop-color="#FC7712"/>
</linearGradient>
</defs>
</svg>
