<svg width="17" height="16" viewBox="0 0 17 16" fill="none" xmlns="http://www.w3.org/2000/svg">
<path fill-rule="evenodd" clip-rule="evenodd" d="M16.4373 9.81177L15.7357 7.98533L16.4363 6.1579C16.5141 5.9563 16.4523 5.72674 16.2846 5.59101L14.7646 4.35942L14.4572 2.42619C14.4232 2.21361 14.2556 2.04593 14.043 2.012L12.1097 1.7046L10.8781 0.184569C10.7424 0.0168967 10.5139 -0.0439843 10.3113 0.0328656L8.48482 0.734495L6.65739 0.0338636C6.45579 -0.0439843 6.22723 0.0168968 6.0915 0.185567L4.8599 1.7056L2.92668 2.013C2.71409 2.04693 2.54642 2.2146 2.51249 2.42719L2.20509 4.36041L0.685058 5.59201C0.517385 5.72774 0.456504 5.9563 0.533354 6.1579L1.23399 7.98533L0.533354 9.81276C0.456504 10.0144 0.517385 10.2429 0.685058 10.3787L2.20509 11.6103L2.51249 13.5435C2.54642 13.7561 2.71409 13.9237 2.92668 13.9577L4.8599 14.2651L6.0915 15.7851C6.22823 15.9538 6.45678 16.0156 6.65839 15.9368L8.48482 15.2362L10.3123 15.9368C10.3701 15.9588 10.431 15.9697 10.4909 15.9697C10.6376 15.9697 10.7823 15.9049 10.8791 15.7851L12.1107 14.2651L14.044 13.9577C14.2566 13.9237 14.4242 13.7561 14.4582 13.5435L14.7656 11.6103L16.2856 10.3787C16.4533 10.2429 16.5141 10.0134 16.4373 9.81177ZM14.7336 8.16398L15.3734 9.83073L13.9851 10.9545C13.8893 11.0324 13.8254 11.1422 13.8064 11.2639L13.526 13.0275L11.7624 13.3079C11.6407 13.3269 11.5309 13.3908 11.453 13.4866L10.3312 14.8749L8.66447 14.2351C8.60659 14.2142 8.5457 14.2022 8.48482 14.2022C8.42394 14.2022 8.36306 14.2132 8.30617 14.2351L6.63943 14.8749L5.51562 13.4866C5.43778 13.3908 5.32799 13.3269 5.20623 13.3079L3.44267 13.0275L3.16222 11.2639C3.14326 11.1422 3.07938 11.0324 2.98357 10.9545L1.59528 9.83173L2.23503 8.16498C2.27894 8.04921 2.27894 7.92146 2.23403 7.80668L1.59528 6.13894L2.98357 5.01513C3.07938 4.93729 3.14326 4.8275 3.16222 4.70574L3.44267 2.94218L5.20623 2.66173C5.32799 2.64277 5.43778 2.57889 5.51562 2.48308L6.63843 1.09579L8.30517 1.73554C8.41995 1.77945 8.5477 1.77945 8.66248 1.73554L10.3292 1.09579L11.453 2.48408C11.5309 2.57989 11.6407 2.64377 11.7624 2.66273L13.526 2.94318L13.8064 4.70674C13.8254 4.8285 13.8893 4.93828 13.9851 5.01613L15.3734 6.13994L14.7336 7.80668C14.6897 7.92146 14.6897 8.04921 14.7336 8.16398ZM6.98775 3.99313C6.16236 3.99313 5.49067 4.66482 5.49067 5.49021C5.49067 6.31559 6.16236 6.98728 6.98775 6.98728C7.81314 6.98728 8.48482 6.31559 8.48482 5.49021C8.48482 4.66482 7.81314 3.99313 6.98775 3.99313ZM6.98775 5.98923C6.71229 5.98923 6.48872 5.76567 6.48872 5.49021C6.48872 5.21474 6.71229 4.99118 6.98775 4.99118C7.26321 4.99118 7.48677 5.21474 7.48677 5.49021C7.48677 5.76567 7.26321 5.98923 6.98775 5.98923ZM8.48482 10.4805C8.48482 9.65507 9.15651 8.98338 9.9819 8.98338C10.8073 8.98338 11.479 9.65507 11.479 10.4805C11.479 11.3058 10.8073 11.9775 9.9819 11.9775C9.15651 11.9775 8.48482 11.3058 8.48482 10.4805ZM9.48287 10.4805C9.48287 10.7559 9.70644 10.9795 9.9819 10.9795C10.2574 10.9795 10.4809 10.7559 10.4809 10.4805C10.4809 10.205 10.2574 9.98143 9.9819 9.98143C9.70644 9.98143 9.48287 10.205 9.48287 10.4805ZM10.5747 4.20272C10.7344 3.97916 11.0468 3.92726 11.2704 4.08695C11.4939 4.24664 11.5468 4.55803 11.3862 4.78259L6.3959 11.7689C6.29909 11.9047 6.14539 11.9775 5.9897 11.9775C5.88889 11.9775 5.78709 11.9476 5.69926 11.8847C5.4757 11.725 5.4238 11.4126 5.58449 11.1891L10.5747 4.20272Z" fill="url(#paint0_linear)"/>
<defs>
<linearGradient id="paint0_linear" x1="0.500488" y1="0" x2="0.500488" y2="15.9707" gradientUnits="userSpaceOnUse">
<stop stop-color="#FFBA10"/>
<stop offset="1" stop-color="#FC7712"/>
</linearGradient>
</defs>
</svg>
