<svg width="54" height="54" viewBox="0 0 54 54" fill="none" xmlns="http://www.w3.org/2000/svg">
<circle cx="27" cy="27.0002" r="26" stroke="url(#paint0_linear)" stroke-width="2"/>
<path fill-rule="evenodd" clip-rule="evenodd" d="M34.955 13.2792C36.7998 13.4871 38.5814 14.3302 39.9393 15.7955C41.3969 17.3683 42.1547 19.4146 42.0732 21.5574C41.9918 23.7001 41.0806 25.6829 39.5079 27.1405L39.4615 27.1837L39.3865 27.2538C39.278 27.3554 39.1679 27.4584 39.0504 27.5612L39.0578 29.9538L37.4134 31.4778L39.4295 33.6534L37.2776 35.6477L39.2884 37.8175L33.6959 43.0002L29.7628 38.4307L29.7703 28.0454C29.5012 27.8758 29.2433 27.6897 28.9963 27.4891C27.556 28.6885 25.749 29.3448 23.863 29.3448C23.6319 29.3448 23.4004 29.3348 23.1703 29.3151L21.4328 31.2147H19.5105V34.1809H16.6089V37.1392H9V30.9882L16.1049 23.3865C15.9256 22.7142 15.8351 22.021 15.8351 21.3169C15.8351 16.8903 19.4364 13.2889 23.863 13.2889C24.2646 13.2889 24.6629 13.319 25.0554 13.3776C25.0694 13.3316 25.0855 13.286 25.105 13.2409C25.9554 11.2722 27.8851 10.0002 30.021 10.0002C32.2374 10.0002 34.1434 11.3546 34.955 13.2792ZM22.8979 26.6805C23.2139 26.7369 23.5386 26.7655 23.8631 26.7655C25.1129 26.7655 26.3107 26.34 27.2764 25.5624C26.4037 24.197 25.9662 22.601 26.0291 20.9473C26.0295 20.9367 26.0301 20.9262 26.0306 20.9156L26.0318 20.8932C25.802 21.0687 25.5121 21.1684 25.2005 21.1565C24.4888 21.1294 23.9338 20.5305 23.9608 19.8188C23.9879 19.107 24.5868 18.5521 25.2985 18.5791C25.7185 18.595 26.0826 18.8109 26.3061 19.1307C26.5082 18.3876 26.8157 17.6802 27.221 17.0274C27.0982 16.9312 26.9725 16.8389 26.8423 16.7537C25.957 16.1744 24.9269 15.8681 23.8631 15.8681C20.8587 15.8681 18.4144 18.3123 18.4144 21.3168C18.4144 21.9842 18.5338 22.6363 18.7694 23.2549L19.0556 24.0066L11.5793 32.0059V34.5599H14.0296V31.6016H16.9313V28.6355H20.2965L22.1988 26.5557L22.8979 26.6805ZM27.5167 14.1672C27.9786 13.1992 28.9503 12.5796 30.021 12.5796C30.827 12.5796 31.5536 12.9256 32.0606 13.4764C30.936 13.7622 29.8597 14.2958 28.9179 15.08C28.705 14.9073 28.4835 14.7454 28.2546 14.5957C28.0155 14.4391 27.769 14.2964 27.5167 14.1672ZM37.7547 25.2489C38.8221 24.2595 39.4405 22.9138 39.4958 21.4594C39.5512 20.005 39.0368 18.6162 38.0475 17.5487C37.3172 16.7606 36.3922 16.2182 35.373 15.9656V19.6081C35.373 19.6226 35.372 19.6369 35.371 19.6512C35.3705 19.6584 35.3701 19.6655 35.3697 19.6727C35.3716 19.7107 35.3726 19.7491 35.3711 19.7879C35.344 20.4997 34.7451 21.0547 34.0334 21.0276C33.3217 21.0005 32.7666 20.4016 32.7937 19.6899C32.7939 19.6845 32.7945 19.6792 32.7951 19.674C32.7956 19.6695 32.7961 19.665 32.7964 19.6605C32.7961 19.6537 32.7956 19.6469 32.7952 19.6402C32.7944 19.6295 32.7937 19.6189 32.7937 19.6081V15.9501C31.8883 16.1634 31.0483 16.6065 30.3475 17.2559C29.28 18.2452 28.6616 19.591 28.6063 21.0453C28.551 22.4997 29.0654 23.8885 30.0547 24.956C30.5083 25.4456 31.0392 25.8427 31.6324 26.1362L32.3506 26.4917L32.3427 37.4743L33.9052 39.2896L35.6434 37.6788L33.6325 35.509L35.7845 33.5147L33.7683 31.3392L36.475 28.8308L36.467 26.2246L37.0621 25.8425C37.2462 25.7242 37.4048 25.576 37.624 25.3708C37.6667 25.3308 37.7101 25.2902 37.7547 25.2489Z" fill="url(#paint1_linear)"/>
<defs>
<linearGradient id="paint0_linear" x1="0" y1="0.000244141" x2="0" y2="54.0002" gradientUnits="userSpaceOnUse">
<stop stop-color="#FFBA10"/>
<stop offset="1" stop-color="#FC7712"/>
</linearGradient>
<linearGradient id="paint1_linear" x1="9" y1="10.0002" x2="9" y2="43.0002" gradientUnits="userSpaceOnUse">
<stop stop-color="#FFBA10"/>
<stop offset="1" stop-color="#FC7712"/>
</linearGradient>
</defs>
</svg>
