<svg width="54" height="54" fill="none" xmlns="http://www.w3.org/2000/svg"><circle cx="27" cy="27" r="26" stroke="url(#paint0_linear)" stroke-width="2"/><path fill-rule="evenodd" clip-rule="evenodd" d="M44.25 38.5h-1.143a16.072 16.072 0 00-2.417-7.774 16.183 16.183 0 00-5.71-5.489 9.32 9.32 0 00.273-.851h1.546a2.554 2.554 0 002.551-2.552v-2.363a2.554 2.554 0 00-2.55-2.551h-.266c.065-1.019.03-2-.206-2.789-.65-2.177-1.885-3.994-3.57-5.254C31.117 7.649 29.125 7 27 7s-4.116.65-5.757 1.877c-1.685 1.26-2.92 3.077-3.57 5.254-.235.789-.27 1.77-.206 2.789h-.266a2.554 2.554 0 00-2.55 2.551v2.363a2.554 2.554 0 002.55 2.552h1.546c.087.316.177.598.274.851a16.183 16.183 0 00-5.71 5.489 16.072 16.072 0 00-2.418 7.774H9.75a.75.75 0 000 1.5h6.792l.74 2.466A.75.75 0 0018 43h18a.75.75 0 00.718-.534l.74-2.466h6.792a.75.75 0 000-1.5zm-8.313-17.533l.003-.015c.142-.74.31-1.62.437-2.532h.422c.58 0 1.051.471 1.051 1.05v2.364c0 .58-.471 1.052-1.05 1.052h-1.208c.06-.317.12-.658.18-1.027.04-.236.098-.54.165-.892zm-19.787.867c0 .58.472 1.052 1.051 1.052h1.208c-.06-.317-.12-.658-.182-1.027a37.83 37.83 0 00-.164-.893l-.003-.015a50.01 50.01 0 01-.437-2.531h-.422c-.58 0-1.05.471-1.05 1.05v2.364zm2.815-5.007c-.057-.861-.033-1.667.146-2.266C20.227 10.822 23.25 8.5 27 8.5s6.773 2.322 7.89 6.06c.224.751.204 1.827.088 2.93a.743.743 0 00-.022.179v.016c-.123 1.076-.331 2.162-.489 2.983v.001c-.07.369-.132.687-.174.945a34.625 34.625 0 01-.302 1.63c-1.106 1.005-2.989 1.693-4.9 1.856a.75.75 0 00-.74-.638H27a.75.75 0 00-.75.75v.614l.001.01.002.045.002.014.003.017a.836.836 0 00.006.042l.008.033.01.038.011.035v.002l.012.031.006.014.008.017.002.005.004.007.002.006.005.01.003.007a.771.771 0 00.02.034l.004.007a.58.58 0 00.013.021l.022.031.012.017.009.01a.674.674 0 00.048.055l.024.024.029.026.025.02.006.004.013.01a.439.439 0 00.013.01l.024.016.003.002a.635.635 0 00.099.053l.035.014.005.002a.557.557 0 00.028.01l.036.01.005.001.009.003.009.002.008.002.004.001a.656.656 0 00.038.007h.006l.01.003.014.002.014.002c.433.053.869.08 1.307.08 1.693 0 3.427-.383 4.857-1.049-.358.446-.822.742-1.49 1.167l-.003.002c-.279.177-.594.377-.944.614-1.211.695-2.438 1.047-3.647 1.047-1.21 0-2.436-.352-3.647-1.047a38.54 38.54 0 00-.945-.615h-.001c-1.332-.848-1.855-1.18-2.33-3.213a.742.742 0 00-.035-.151 32.25 32.25 0 01-.335-1.779 35.487 35.487 0 00-.174-.946v-.006a46.993 46.993 0 01-.407-2.343c1.377-.192 4.329-.69 6.318-1.645l.493 1.182c.05.12.091.227.127.319l.001.001c.166.422.322.82.791.979.112.037.22.054.33.054.263 0 .54-.094.923-.225.106-.036.225-.077.359-.121.52-.172 1.564-.69 2.552-1.347a.75.75 0 10-.83-1.249c-.923.614-1.837 1.054-2.192 1.171l-.353.12-.02.006-.167.057-.002-.007c-.039-.098-.082-.209-.135-.334l-.815-1.955a.75.75 0 00-1.102-.34c-1.622 1.058-4.95 1.63-6.44 1.841zM35.442 41.5l.742-2.474 1.058-3.526H19.964l.312 1.165a.75.75 0 11-1.448.389L18.41 35.5h-1.653l1.057 3.522.002.008.001.003.74 2.467h13.63l.416-1.554a.75.75 0 111.45.388L33.74 41.5h1.701zm3.527-6.535A.75.75 0 0038.25 34h-22.5a.75.75 0 00-.718.965l1.06 3.535h-3.698a14.565 14.565 0 017.356-11.952c.325.398.714.716 1.203 1.05-.73.38-1.428.83-2.073 1.338a.75.75 0 10.928 1.178 11.693 11.693 0 011.898-1.217l.694-.356.042.027.047.032.045.03.046.03c1.45.836 2.936 1.26 4.42 1.26 1.483 0 2.97-.424 4.42-1.261l.046-.03c.342-.231.656-.43.932-.607.81-.514 1.395-.914 1.852-1.474A14.565 14.565 0 0141.606 38.5h-3.698l1.06-3.535zm-7.096-18.98a.747.747 0 001.058-.07 4.77 4.77 0 00.28-.352.75.75 0 00-1.217-.877 3.32 3.32 0 01-.193.241.75.75 0 00.072 1.058zM18.035 30.683a.75.75 0 00-1.057.089 15.45 15.45 0 00-.304.373.75.75 0 101.18.926c.087-.111.178-.222.27-.33a.75.75 0 00-.089-1.058zm1.934 7.733a.75.75 0 00-.53.919l.087.327a.75.75 0 101.45-.389l-.088-.327a.75.75 0 00-.919-.53zm13.971.193a.75.75 0 01-.725-.945l.088-.326a.75.75 0 111.449.389l-.088.326a.75.75 0 01-.724.556z" fill="url(#paint1_linear)"/><defs><linearGradient id="paint0_linear" x1="0" y1="0" x2="0" y2="54" gradientUnits="userSpaceOnUse"><stop stop-color="#FFBA10"/><stop offset="1" stop-color="#FC7712"/></linearGradient><linearGradient id="paint1_linear" x1="9" y1="7" x2="9" y2="43" gradientUnits="userSpaceOnUse"><stop stop-color="#FFBA10"/><stop offset="1" stop-color="#FC7712"/></linearGradient></defs></svg>