<svg width="40" height="45" fill="none" xmlns="http://www.w3.org/2000/svg"><path fill-rule="evenodd" clip-rule="evenodd" d="M19.285.074a.757.757 0 01.652 0l18.857 9a.749.749 0 01.429.676c0 16.94-7.037 29.764-19.305 35.186a.75.75 0 01-.613 0C7.037 39.514 0 26.689 0 9.75a.75.75 0 01.428-.676l18.857-9zm.326 41.177a.767.767 0 00.34-.08c13.442-6.766 15.953-21.163 16.253-29.142a.75.75 0 00-.43-.706l-15.84-7.5a.759.759 0 00-.647 0l-15.84 7.5a.75.75 0 00-.43.706c.3 7.979 2.812 22.376 16.253 29.141.107.053.224.08.34.08zM20.98 17.94a1.521 1.521 0 00-3.04 0v1.52h3.04v-1.52zm-3.801 3.04h-.76v4.561H22.5v-4.56h-5.321zm3.04 3.04a.76.76 0 11-1.52 0V22.5a.76.76 0 111.52 0v1.52zm-.76 6.082c-4.526 0-8.209-3.683-8.209-8.21 0-4.526 3.683-8.21 8.21-8.21 4.526 0 8.209 3.684 8.209 8.21 0 4.527-3.683 8.21-8.21 8.21zm3.008-10.449v-1.492a2.988 2.988 0 00-2.985-2.986 2.988 2.988 0 00-2.985 2.986v1.492h-.747a.746.746 0 00-.746.747v5.97c0 .413.334.747.746.747h7.464a.746.746 0 00.746-.747V20.4a.746.746 0 00-.746-.747h-.747zm-17.906-7.04c.369 7.673 2.874 20.86 15.05 27.219 12.177-6.358 14.682-19.546 15.051-27.219l-15.05-7.14-15.051 7.14zm24.824 9.296c0 5.38-4.395 9.759-9.796 9.759s-9.796-4.378-9.796-9.76c0-5.38 4.395-9.759 9.796-9.759s9.796 4.378 9.796 9.76z" fill="url(#paint0_linear)"/><defs><linearGradient id="paint0_linear" x1="0" y1="0" x2="0" y2="45.001" gradientUnits="userSpaceOnUse"><stop stop-color="#FFBA10"/><stop offset="1" stop-color="#FC7712"/></linearGradient></defs></svg>