<svg width="20" height="18" viewBox="0 0 20 18" fill="none" xmlns="http://www.w3.org/2000/svg">
<path d="M1.7113 4.172C1.6607 4.165 1.6096 4.16101 1.5592 4.16101C0.9751 4.16101 0.5 4.638 0.5 5.224V15.253C0.5 15.778 0.892498 16.23 1.413 16.304L6.0152 16.957V4.78201L1.7113 4.172ZM5.1814 15.294C5.1509 15.514 4.9627 15.673 4.747 15.673C4.7268 15.673 4.7066 15.672 4.6861 15.669L1.6934 15.254C1.4531 15.22 1.2853 14.999 1.3186 14.758C1.3519 14.518 1.5738 14.35 1.814 14.384L4.8067 14.799C5.047 14.832 5.2148 15.054 5.1814 15.294ZM1.3186 12.604C1.3516 12.363 1.5728 12.195 1.8135 12.228L4.1714 12.552C4.4117 12.586 4.5797 12.807 4.5467 13.047C4.5164 13.267 4.3282 13.427 4.1122 13.427C4.0922 13.427 4.0721 13.425 4.0517 13.423L1.6938 13.099C1.4536 13.065 1.2855 12.844 1.3186 12.604ZM5.1814 10.893C5.1509 11.112 4.9627 11.271 4.747 11.271C4.7268 11.271 4.7066 11.27 4.6861 11.267L1.6934 10.852C1.4531 10.819 1.2853 10.597 1.3186 10.357C1.3519 10.117 1.5738 9.94899 1.814 9.98199L4.8067 10.397C5.047 10.431 5.2148 10.652 5.1814 10.893ZM5.1814 8.69199C5.1509 8.91199 4.9627 9.07101 4.747 9.07101C4.7268 9.07101 4.7066 9.06901 4.6861 9.06601L1.6934 8.651C1.4531 8.618 1.2853 8.39601 1.3186 8.15601C1.3519 7.91601 1.5738 7.74701 1.814 7.78101L4.8067 8.19601C5.047 8.23001 5.2148 8.45099 5.1814 8.69199ZM5.1814 6.491C5.1509 6.711 4.9627 6.87 4.747 6.87C4.7268 6.87 4.7066 6.869 4.6861 6.866L1.6934 6.45099C1.4531 6.41699 1.2853 6.19599 1.3186 5.95499C1.3519 5.71499 1.5738 5.54599 1.814 5.58099L4.8067 5.996C5.047 6.029 5.2148 6.251 5.1814 6.491ZM17.8893 4.65302L13.2872 4V16.175L17.5911 16.785C17.6417 16.792 17.6929 16.796 17.7432 16.796C18.3272 16.796 18.8023 16.319 18.8023 15.734V5.70401C18.8023 5.17901 18.4098 4.72702 17.8893 4.65302ZM17.9761 15.041C17.9456 15.261 17.7574 15.42 17.5417 15.42C17.5216 15.42 17.5013 15.419 17.4808 15.416L14.4881 15.001C14.2478 14.968 14.08 14.746 14.1134 14.506C14.1467 14.266 14.3682 14.098 14.6087 14.131L17.6014 14.546C17.8417 14.579 18.0095 14.801 17.9761 15.041ZM14.1134 12.373C14.1467 12.132 14.3682 11.965 14.6087 11.998L16.4488 12.253C16.689 12.286 16.8568 12.508 16.8235 12.748C16.793 12.968 16.6048 13.127 16.3891 13.127C16.369 13.127 16.3487 13.126 16.3282 13.123L14.4881 12.868C14.2478 12.835 14.0801 12.613 14.1134 12.373ZM17.9761 10.775C17.9456 10.995 17.7574 11.154 17.5417 11.154C17.5216 11.154 17.5013 11.153 17.4808 11.15L14.4881 10.735C14.2478 10.702 14.08 10.48 14.1134 10.239C14.1467 9.99901 14.3689 9.83099 14.6087 9.86499L17.6014 10.28C17.8417 10.313 18.0095 10.535 17.9761 10.775ZM14.1134 8.10699C14.1467 7.86599 14.3689 7.69799 14.6087 7.73199L15.5287 7.85901C15.7689 7.89301 15.9368 8.11401 15.9034 8.35501C15.8729 8.57401 15.6847 8.73401 15.469 8.73401C15.4489 8.73401 15.4286 8.732 15.4081 8.729L14.4881 8.60199C14.2478 8.56899 14.0801 8.34699 14.1134 8.10699ZM17.9761 6.509C17.9456 6.729 17.7574 6.888 17.5417 6.888C17.5216 6.888 17.5013 6.886 17.4808 6.884L14.4881 6.46899C14.2478 6.43499 14.08 6.21399 14.1134 5.97299C14.1467 5.73299 14.3689 5.564 14.6087 5.599L17.6014 6.013C17.8417 6.047 18.0095 6.269 17.9761 6.509ZM6.8935 4.78201V16.957L12.4088 16.175V4L6.8935 4.78201ZM7.8801 6.172C7.8801 5.953 8.0419 5.767 8.2592 5.737L11.0648 5.35001C11.1908 5.33301 11.3177 5.37001 11.4134 5.45401C11.5092 5.53701 11.5641 5.658 11.5641 5.785V10.266C11.5641 10.485 11.4023 10.671 11.185 10.701L8.3794 11.088C8.3594 11.091 8.3393 11.093 8.3193 11.093C8.2139 11.093 8.1112 11.055 8.0308 10.984C7.935 10.901 7.8801 10.78 7.8801 10.653V6.172ZM11.3723 15.001L8.3796 15.416C8.3591 15.419 8.3388 15.42 8.3187 15.42C8.1029 15.42 7.9147 15.261 7.8843 15.041C7.851 14.801 8.0187 14.579 8.259 14.546L11.2517 14.131C11.4924 14.098 11.7138 14.266 11.747 14.506C11.7804 14.746 11.6126 14.968 11.3723 15.001ZM11.3723 13.003L8.3796 13.418C8.3591 13.421 8.3388 13.422 8.3187 13.422C8.1029 13.422 7.9147 13.263 7.8843 13.043C7.851 12.803 8.0187 12.581 8.259 12.548L11.2517 12.133C11.4919 12.099 11.7137 12.267 11.747 12.508C11.7804 12.748 11.6126 12.97 11.3723 13.003Z" fill="white"/>
</svg>
