<svg width="15" height="18" viewBox="0 0 15 18" fill="none" xmlns="http://www.w3.org/2000/svg">
<g clip-path="url(#clip0_62_13)">
<path fill-rule="evenodd" clip-rule="evenodd" d="M14.3683 9.30301L10.2191 5.15399C10.1164 5.05099 9.9949 5 9.8544 5C9.7139 5 9.5923 5.05099 9.4897 5.15399C9.3871 5.25699 9.3357 5.37801 9.3357 5.51901V7.59299H7.5204C3.6682 7.59299 1.3047 8.68201 0.429401 10.859C0.143101 11.583 0 12.483 0 13.558C0 14.455 0.343102 15.673 1.0292 17.213C1.0454 17.251 1.0736 17.315 1.1142 17.407C1.1548 17.499 1.1912 17.58 1.2236 17.65C1.2561 17.72 1.2913 17.78 1.3291 17.828C1.3938 17.92 1.4695 17.966 1.556 17.966C1.637 17.966 1.7005 17.939 1.7465 17.885C1.7923 17.831 1.8153 17.764 1.8153 17.683C1.8153 17.634 1.8085 17.563 1.795 17.468C1.7815 17.373 1.7747 17.31 1.7747 17.278C1.7476 16.91 1.7341 16.578 1.7341 16.281C1.7341 15.735 1.7815 15.246 1.8759 14.814C1.9705 14.382 2.1015 14.008 2.269 13.692C2.4365 13.376 2.6526 13.103 2.9174 12.873C3.182 12.644 3.467 12.456 3.7722 12.31C4.0775 12.164 4.4368 12.049 4.8501 11.966C5.2634 11.882 5.6794 11.824 6.0981 11.791C6.5169 11.759 6.9909 11.743 7.5204 11.743H9.3357V13.818C9.3357 13.958 9.387 14.08 9.4895 14.182C9.5923 14.285 9.7138 14.336 9.8542 14.336C9.9946 14.336 10.1162 14.285 10.2191 14.182L14.3682 10.033C14.4709 9.92999 14.5222 9.809 14.5222 9.668C14.5221 9.528 14.4709 9.40601 14.3683 9.30301Z" fill="white"/>
</g>
<defs>
<clipPath id="clip0_62_13">
<rect width="14.52" height="18" fill="white"/>
</clipPath>
</defs>
</svg>
