<svg width="281" height="102" viewBox="0 0 281 102" fill="none" xmlns="http://www.w3.org/2000/svg">
<g filter="url(#filter0_d_51_18)">
<path fill-rule="evenodd" clip-rule="evenodd" d="M18.999 12H175C175 12 182.38 26 191.483 26C200.586 26 208 12 208 12H262.001C262.116 12 262.23 12.0027 262.344 12.008C262.459 12.014 262.573 12.0227 262.687 12.034C262.801 12.0453 262.915 12.0593 263.028 12.076C263.141 12.0927 263.254 12.1123 263.366 12.135C263.479 12.157 263.591 12.182 263.702 12.21C263.813 12.2373 263.923 12.2677 264.033 12.301C264.142 12.3343 264.251 12.3703 264.359 12.409C264.467 12.4477 264.574 12.489 264.679 12.533C264.785 12.577 264.89 12.6233 264.993 12.672C265.097 12.7207 265.199 12.772 265.3 12.826C265.401 12.88 265.501 12.9367 265.599 12.996C265.698 13.0547 265.794 13.116 265.889 13.18C265.984 13.2433 266.078 13.309 266.17 13.377C266.262 13.4457 266.352 13.5163 266.441 13.589C266.53 13.6617 266.616 13.7363 266.701 13.813C266.786 13.8897 266.869 13.9687 266.95 14.05C267.031 14.1307 267.11 14.2137 267.187 14.299C267.264 14.3837 267.338 14.4703 267.411 14.559C267.484 14.6477 267.554 14.738 267.623 14.83C267.691 14.922 267.757 15.0157 267.82 15.111C267.884 15.2057 267.945 15.3023 268.004 15.401C268.063 15.499 268.12 15.5987 268.174 15.7C268.228 15.8007 268.279 15.903 268.328 16.007C268.377 16.1103 268.423 16.215 268.467 16.321C268.511 16.4263 268.552 16.533 268.591 16.641C268.63 16.749 268.666 16.8577 268.699 16.967C268.732 17.077 268.762 17.1873 268.79 17.298C268.818 17.4093 268.843 17.5213 268.865 17.634C268.888 17.746 268.907 17.8587 268.924 17.972C268.941 18.0853 268.955 18.199 268.966 18.313C268.977 18.427 268.986 18.5413 268.992 18.656C268.997 18.77 269 18.8843 269 18.999V83.001C269 83.1157 268.997 83.23 268.992 83.344C268.986 83.4587 268.977 83.573 268.966 83.687C268.955 83.801 268.941 83.9147 268.924 84.028C268.907 84.1413 268.888 84.254 268.865 84.366C268.843 84.4787 268.818 84.5907 268.79 84.702C268.762 84.8127 268.732 84.923 268.699 85.033C268.666 85.1423 268.63 85.251 268.591 85.359C268.552 85.467 268.511 85.5737 268.467 85.679C268.423 85.785 268.377 85.8897 268.328 85.993C268.279 86.097 268.228 86.1993 268.174 86.3C268.12 86.4013 268.063 86.501 268.004 86.599C267.945 86.6977 267.884 86.7943 267.82 86.889C267.757 86.9843 267.691 87.078 267.623 87.17C267.554 87.262 267.484 87.3523 267.411 87.441C267.338 87.5297 267.264 87.6163 267.187 87.701C267.11 87.7863 267.031 87.8693 266.95 87.95C266.869 88.0313 266.786 88.1103 266.701 88.187C266.616 88.2637 266.53 88.3383 266.441 88.411C266.352 88.4837 266.262 88.5543 266.17 88.623C266.078 88.691 265.984 88.7567 265.889 88.82C265.794 88.884 265.698 88.9453 265.599 89.004C265.501 89.0633 265.401 89.12 265.3 89.174C265.199 89.228 265.097 89.2793 264.993 89.328C264.89 89.3773 264.785 89.4237 264.679 89.467C264.574 89.511 264.467 89.5523 264.359 89.591C264.251 89.6297 264.142 89.6657 264.033 89.699C263.923 89.7323 263.813 89.7627 263.702 89.79C263.591 89.818 263.479 89.8433 263.366 89.866C263.254 89.888 263.141 89.9073 263.028 89.924C262.915 89.9407 262.801 89.9547 262.687 89.966C262.573 89.9773 262.459 89.986 262.344 89.992C262.23 89.9973 262.116 90 262.001 90H208C208 90 200.62 76 191.517 76C182.414 76 175 90 175 90H18.999C18.8845 90 18.77 89.9973 18.6556 89.992C18.5412 89.986 18.427 89.9773 18.313 89.966C18.199 89.9547 18.0853 89.9407 17.972 89.924C17.8587 89.9073 17.7459 89.888 17.6336 89.866C17.5213 89.8433 17.4095 89.818 17.2984 89.79C17.1873 89.7627 17.0769 89.7323 16.9673 89.699C16.8577 89.6657 16.749 89.6297 16.6411 89.591C16.5332 89.5523 16.4264 89.511 16.3206 89.467C16.2148 89.4237 16.1101 89.3773 16.0065 89.328C15.903 89.2793 15.8007 89.228 15.6997 89.174C15.5987 89.12 15.4991 89.0633 15.4008 89.004C15.3025 88.9453 15.2058 88.884 15.1106 88.82C15.0153 88.7567 14.9217 88.691 14.8297 88.623C14.7377 88.5543 14.6474 88.4837 14.5589 88.411C14.4704 88.3383 14.3837 88.2637 14.2988 88.187C14.2139 88.1103 14.131 88.0313 14.05 87.95C13.969 87.8693 13.89 87.7863 13.8131 87.701C13.7362 87.6163 13.6614 87.5297 13.5887 87.441C13.516 87.3523 13.4456 87.262 13.3774 87.17C13.3091 87.078 13.2432 86.9843 13.1796 86.889C13.1159 86.7943 13.0547 86.6977 12.9958 86.599C12.9369 86.501 12.8804 86.4013 12.8264 86.3C12.7724 86.1993 12.7209 86.097 12.672 85.993C12.623 85.8897 12.5766 85.785 12.5328 85.679C12.4889 85.5737 12.4477 85.467 12.4091 85.359C12.3706 85.251 12.3347 85.1423 12.3014 85.033C12.2681 84.923 12.2376 84.8127 12.2098 84.702C12.1819 84.5907 12.1568 84.4787 12.1345 84.366C12.1122 84.254 12.0926 84.1413 12.0758 84.028C12.0589 83.9147 12.0449 83.801 12.0337 83.687C12.0225 83.573 12.0141 83.4587 12.0084 83.344C12.0028 83.23 12 83.1157 12 83.001V18.999C12 18.8843 12.0028 18.77 12.0084 18.656C12.0141 18.5413 12.0225 18.427 12.0337 18.313C12.0449 18.199 12.0589 18.0853 12.0758 17.972C12.0926 17.8587 12.1122 17.746 12.1345 17.634C12.1568 17.5213 12.1819 17.4093 12.2098 17.298C12.2376 17.1873 12.2681 17.077 12.3014 16.967C12.3347 16.8577 12.3706 16.749 12.4091 16.641C12.4477 16.533 12.4889 16.4263 12.5328 16.321C12.5766 16.215 12.623 16.1103 12.672 16.007C12.7209 15.903 12.7724 15.8007 12.8264 15.7C12.8804 15.5987 12.9369 15.499 12.9958 15.401C13.0547 15.3023 13.1159 15.2057 13.1795 15.111C13.2432 15.0157 13.3091 14.922 13.3774 14.83C13.4456 14.738 13.516 14.6477 13.5887 14.559C13.6614 14.4703 13.7362 14.3837 13.8131 14.299C13.89 14.2137 13.969 14.1307 14.05 14.05C14.131 13.9687 14.2139 13.8897 14.2988 13.813C14.3837 13.7363 14.4704 13.6617 14.5589 13.589C14.6474 13.5163 14.7377 13.4457 14.8297 13.377C14.9217 13.309 15.0153 13.2433 15.1106 13.18C15.2058 13.116 15.3025 13.0547 15.4008 12.996C15.4991 12.9367 15.5987 12.88 15.6997 12.826C15.8007 12.772 15.903 12.7207 16.0065 12.672C16.1101 12.6233 16.2148 12.577 16.3206 12.533C16.4264 12.489 16.5332 12.4477 16.6411 12.409C16.749 12.3703 16.8577 12.3343 16.9673 12.301C17.0769 12.2683 17.1873 12.238 17.2984 12.21C17.4095 12.182 17.5212 12.157 17.6336 12.135C17.7459 12.1123 17.8587 12.0927 17.972 12.076C18.0853 12.0593 18.199 12.0453 18.313 12.034C18.427 12.0227 18.5412 12.014 18.6556 12.008C18.77 12.0027 18.8845 12 18.999 12Z" fill="url(#paint0_linear_51_18)"/>
</g>
<path fill-rule="evenodd" clip-rule="evenodd" d="M190.999 30H191.001C191.066 30 191.131 30.0063 191.196 30.019C191.26 30.0317 191.322 30.0507 191.383 30.076C191.444 30.1013 191.501 30.132 191.556 30.168C191.611 30.2047 191.661 30.2463 191.707 30.293C191.754 30.339 191.795 30.3893 191.832 30.444C191.868 30.4987 191.899 30.5563 191.924 30.617C191.949 30.6777 191.968 30.74 191.981 30.804C191.994 30.8687 192 30.9337 192 30.999V35.001C192 35.0663 191.994 35.1313 191.981 35.196C191.968 35.26 191.949 35.3223 191.924 35.383C191.899 35.4437 191.868 35.5013 191.832 35.556C191.795 35.6107 191.754 35.661 191.707 35.707C191.661 35.7537 191.611 35.7953 191.556 35.832C191.501 35.868 191.444 35.8987 191.383 35.924C191.322 35.9493 191.26 35.9683 191.196 35.981C191.131 35.9937 191.066 36 191.001 36H190.999C190.934 36 190.869 35.9937 190.804 35.981C190.74 35.9683 190.678 35.9493 190.617 35.924C190.556 35.8987 190.499 35.868 190.444 35.832C190.389 35.7953 190.339 35.7537 190.293 35.707C190.246 35.661 190.205 35.6107 190.168 35.556C190.132 35.5013 190.101 35.4437 190.076 35.383C190.051 35.3223 190.032 35.26 190.019 35.196C190.006 35.1313 190 35.0663 190 35.001V30.999C190 30.9337 190.006 30.8687 190.019 30.804C190.032 30.74 190.051 30.6777 190.076 30.617C190.101 30.5563 190.132 30.4987 190.168 30.444C190.205 30.3893 190.246 30.339 190.293 30.293C190.339 30.2463 190.389 30.2047 190.444 30.168C190.499 30.132 190.556 30.1013 190.617 30.076C190.678 30.0507 190.74 30.0317 190.804 30.019C190.869 30.0063 190.934 30 190.999 30Z" fill="white" fill-opacity="0.3244"/>
<path fill-rule="evenodd" clip-rule="evenodd" d="M190.999 39H191.001C191.066 39 191.131 39.0063 191.196 39.019C191.26 39.0317 191.322 39.0507 191.383 39.076C191.444 39.1013 191.501 39.132 191.556 39.168C191.611 39.2047 191.661 39.2463 191.707 39.293C191.754 39.339 191.795 39.3893 191.832 39.444C191.868 39.4987 191.899 39.5563 191.924 39.617C191.949 39.6777 191.968 39.74 191.981 39.804C191.994 39.8687 192 39.9337 192 39.999V44.001C192 44.0663 191.994 44.1313 191.981 44.196C191.968 44.26 191.949 44.3223 191.924 44.383C191.899 44.4437 191.868 44.5013 191.832 44.556C191.795 44.6107 191.754 44.661 191.707 44.707C191.661 44.7537 191.611 44.7953 191.556 44.832C191.501 44.868 191.444 44.8987 191.383 44.924C191.322 44.9493 191.26 44.9683 191.196 44.981C191.131 44.9937 191.066 45 191.001 45H190.999C190.934 45 190.869 44.9937 190.804 44.981C190.74 44.9683 190.678 44.9493 190.617 44.924C190.556 44.8987 190.499 44.868 190.444 44.832C190.389 44.7953 190.339 44.7537 190.293 44.707C190.246 44.661 190.205 44.6107 190.168 44.556C190.132 44.5013 190.101 44.4437 190.076 44.383C190.051 44.3223 190.032 44.26 190.019 44.196C190.006 44.1313 190 44.0663 190 44.001V39.999C190 39.9337 190.006 39.8687 190.019 39.804C190.032 39.74 190.051 39.6777 190.076 39.617C190.101 39.5563 190.132 39.4987 190.168 39.444C190.205 39.3893 190.246 39.339 190.293 39.293C190.339 39.2463 190.389 39.2047 190.444 39.168C190.499 39.132 190.556 39.1013 190.617 39.076C190.678 39.0507 190.74 39.0317 190.804 39.019C190.869 39.0063 190.934 39 190.999 39Z" fill="white" fill-opacity="0.3244"/>
<path fill-rule="evenodd" clip-rule="evenodd" d="M190.999 48H191.001C191.066 48 191.131 48.0063 191.196 48.019C191.26 48.0317 191.322 48.0507 191.383 48.076C191.444 48.1013 191.501 48.132 191.556 48.168C191.611 48.2047 191.661 48.2463 191.707 48.293C191.754 48.339 191.795 48.3893 191.832 48.444C191.868 48.4987 191.899 48.5563 191.924 48.617C191.949 48.6777 191.968 48.74 191.981 48.804C191.994 48.8687 192 48.9337 192 48.999V53.001C192 53.0663 191.994 53.1313 191.981 53.196C191.968 53.26 191.949 53.3223 191.924 53.383C191.899 53.4437 191.868 53.5013 191.832 53.556C191.795 53.6107 191.754 53.661 191.707 53.707C191.661 53.7537 191.611 53.7953 191.556 53.832C191.501 53.868 191.444 53.8987 191.383 53.924C191.322 53.9493 191.26 53.9683 191.196 53.981C191.131 53.9937 191.066 54 191.001 54H190.999C190.934 54 190.869 53.9937 190.804 53.981C190.74 53.9683 190.678 53.9493 190.617 53.924C190.556 53.8987 190.499 53.868 190.444 53.832C190.389 53.7953 190.339 53.7537 190.293 53.707C190.246 53.661 190.205 53.6107 190.168 53.556C190.132 53.5013 190.101 53.4437 190.076 53.383C190.051 53.3223 190.032 53.26 190.019 53.196C190.006 53.1313 190 53.0663 190 53.001V48.999C190 48.9337 190.006 48.8687 190.019 48.804C190.032 48.74 190.051 48.6777 190.076 48.617C190.101 48.5563 190.132 48.4987 190.168 48.444C190.205 48.3893 190.246 48.339 190.293 48.293C190.339 48.2463 190.389 48.2047 190.444 48.168C190.499 48.132 190.556 48.1013 190.617 48.076C190.678 48.0507 190.74 48.0317 190.804 48.019C190.869 48.0063 190.934 48 190.999 48Z" fill="white" fill-opacity="0.3244"/>
<path fill-rule="evenodd" clip-rule="evenodd" d="M190.999 57H191.001C191.066 57 191.131 57.0063 191.196 57.019C191.26 57.0317 191.322 57.0507 191.383 57.076C191.444 57.1013 191.501 57.132 191.556 57.168C191.611 57.2047 191.661 57.2463 191.707 57.293C191.754 57.339 191.795 57.3893 191.832 57.444C191.868 57.4987 191.899 57.5563 191.924 57.617C191.949 57.6777 191.968 57.74 191.981 57.804C191.994 57.8687 192 57.9337 192 57.999V62.001C192 62.0663 191.994 62.1313 191.981 62.196C191.968 62.26 191.949 62.3223 191.924 62.383C191.899 62.4437 191.868 62.5013 191.832 62.556C191.795 62.6107 191.754 62.661 191.707 62.707C191.661 62.7537 191.611 62.7953 191.556 62.832C191.501 62.868 191.444 62.8987 191.383 62.924C191.322 62.9493 191.26 62.9683 191.196 62.981C191.131 62.9937 191.066 63 191.001 63H190.999C190.934 63 190.869 62.9937 190.804 62.981C190.74 62.9683 190.678 62.9493 190.617 62.924C190.556 62.8987 190.499 62.868 190.444 62.832C190.389 62.7953 190.339 62.7537 190.293 62.707C190.246 62.661 190.205 62.6107 190.168 62.556C190.132 62.5013 190.101 62.4437 190.076 62.383C190.051 62.3223 190.032 62.26 190.019 62.196C190.006 62.1313 190 62.0663 190 62.001V57.999C190 57.9337 190.006 57.8687 190.019 57.804C190.032 57.74 190.051 57.6777 190.076 57.617C190.101 57.5563 190.132 57.4987 190.168 57.444C190.205 57.3893 190.246 57.339 190.293 57.293C190.339 57.2463 190.389 57.2047 190.444 57.168C190.499 57.132 190.556 57.1013 190.617 57.076C190.678 57.0507 190.74 57.0317 190.804 57.019C190.869 57.0063 190.934 57 190.999 57Z" fill="white" fill-opacity="0.3244"/>
<path fill-rule="evenodd" clip-rule="evenodd" d="M190.999 66H191.001C191.066 66 191.131 66.0063 191.196 66.019C191.26 66.0317 191.322 66.0507 191.383 66.076C191.444 66.1013 191.501 66.132 191.556 66.168C191.611 66.2047 191.661 66.2463 191.707 66.293C191.754 66.339 191.795 66.3893 191.832 66.444C191.868 66.4987 191.899 66.5563 191.924 66.617C191.949 66.6777 191.968 66.74 191.981 66.804C191.994 66.8687 192 66.9337 192 66.999V71.001C192 71.0663 191.994 71.1313 191.981 71.196C191.968 71.26 191.949 71.3223 191.924 71.383C191.899 71.4437 191.868 71.5013 191.832 71.556C191.795 71.6107 191.754 71.661 191.707 71.707C191.661 71.7537 191.611 71.7953 191.556 71.832C191.501 71.868 191.444 71.8987 191.383 71.924C191.322 71.9493 191.26 71.9683 191.196 71.981C191.131 71.9937 191.066 72 191.001 72H190.999C190.934 72 190.869 71.9937 190.804 71.981C190.74 71.9683 190.678 71.9493 190.617 71.924C190.556 71.8987 190.499 71.868 190.444 71.832C190.389 71.7953 190.339 71.7537 190.293 71.707C190.246 71.661 190.205 71.6107 190.168 71.556C190.132 71.5013 190.101 71.4437 190.076 71.383C190.051 71.3223 190.032 71.26 190.019 71.196C190.006 71.1313 190 71.0663 190 71.001V66.999C190 66.9337 190.006 66.8687 190.019 66.804C190.032 66.74 190.051 66.6777 190.076 66.617C190.101 66.5563 190.132 66.4987 190.168 66.444C190.205 66.3893 190.246 66.339 190.293 66.293C190.339 66.2463 190.389 66.2047 190.444 66.168C190.499 66.132 190.556 66.1013 190.617 66.076C190.678 66.0507 190.74 66.0317 190.804 66.019C190.869 66.0063 190.934 66 190.999 66Z" fill="white" fill-opacity="0.3244"/>
<path fill-rule="evenodd" clip-rule="evenodd" d="M258 42.628C258 42.639 257.997 42.648 257.997 42.658C257.997 42.662 257.998 42.667 257.998 42.672C257.999 42.68 258 42.688 257.998 42.695V49.421C257.998 49.979 257.683 50.49 257.188 50.742L237.165 60.842C237.143 60.853 237.123 60.848 237.098 60.858C236.908 60.943 236.706 61 236.499 61C236.292 61 236.09 60.943 235.9 60.858C235.877 60.848 235.855 60.853 235.834 60.842L215.812 50.742C215.315 50.491 215 49.981 215 49.421V42.695C215 42.682 215.005 42.67 215.005 42.658C215.005 42.647 215.002 42.637 215.002 42.628C215.003 42.596 215.017 42.568 215.022 42.537C215.031 42.436 215.048 42.34 215.079 42.246C215.093 42.2 215.111 42.156 215.13 42.111C215.165 42.029 215.208 41.951 215.258 41.876C215.286 41.835 215.31 41.794 215.343 41.757C215.401 41.686 215.469 41.624 215.542 41.562C215.576 41.534 215.605 41.504 215.642 41.477C215.652 41.471 215.656 41.462 215.666 41.457C215.775 41.386 215.891 41.33 216.008 41.29C216.011 41.29 216.015 41.287 216.018 41.287L219.731 40.063C219.904 40.254 220.076 40.436 220.238 40.599C221.933 42.299 224.802 43.716 227.464 44.771L224.297 46.059V53.361L228.683 55.576V47.948L233.707 45.289C232.416 44.941 224.41 42.688 221.283 39.553C220.371 38.64 219.168 37.223 219.245 35.48C219.322 33.738 220.536 32.72 221.513 31.9C221.791 31.665 222.091 31.419 222.373 31.136C222.656 30.853 222.901 30.554 223.135 30.274C223.938 29.315 225.034 28 226.867 28C228.539 28 229.896 29.166 230.77 30.045C233.905 33.184 236.153 41.214 236.499 42.497C236.847 41.21 239.093 33.184 242.226 30.045C243.1 29.168 244.458 28.002 246.132 28.002C247.965 28.002 249.059 29.316 249.862 30.276C250.097 30.557 250.343 30.856 250.625 31.139C250.911 31.42 251.207 31.668 251.487 31.901C252.463 32.72 253.676 33.739 253.754 35.48C253.832 37.225 252.629 38.64 251.715 39.553C248.59 42.687 240.593 44.939 239.296 45.289L244.317 47.948V55.576L248.703 53.361V46.059L245.539 44.772C248.198 43.719 251.064 42.302 252.762 40.6C252.924 40.436 253.097 40.255 253.269 40.065L256.984 41.288C256.987 41.29 256.99 41.293 256.993 41.293C257.114 41.333 257.229 41.387 257.336 41.459C257.345 41.465 257.35 41.474 257.359 41.479C257.395 41.504 257.426 41.536 257.458 41.564C257.532 41.626 257.6 41.688 257.659 41.76C257.691 41.797 257.714 41.838 257.744 41.878C257.793 41.952 257.836 42.029 257.872 42.113C257.89 42.156 257.907 42.2 257.923 42.246C257.952 42.34 257.971 42.438 257.981 42.537C257.985 42.568 257.998 42.597 258 42.628ZM224.837 31.7C224.563 32.028 224.272 32.376 223.941 32.707C223.609 33.04 223.262 33.332 222.935 33.606C221.53 34.786 220.511 35.642 222.85 37.986C225.735 40.875 234.387 43.174 234.387 43.174C234.387 43.174 232.092 34.508 229.206 31.617C226.866 29.272 226.013 30.293 224.837 31.7ZM248.167 31.701C246.99 30.293 246.137 29.272 243.797 31.617C240.911 34.507 238.616 43.174 238.616 43.174C238.616 43.174 247.268 40.874 250.151 37.984C252.492 35.639 251.473 34.785 250.069 33.606C249.742 33.332 249.395 33.041 249.064 32.709C248.732 32.377 248.441 32.029 248.167 31.701ZM238 35.276L237.431 35.074C237.152 34.975 236.849 34.975 236.568 35.074L236 35.276C236.37 36.198 236.705 37.122 236.998 38C237.294 37.122 237.632 36.198 238 35.276ZM253.034 64.893L237.984 73.83V62.296L237.503 62.543C237.173 62.671 236.831 62.736 236.501 62.736C236.175 62.736 235.844 62.672 235.511 62.548L235.43 62.537L235.17 62.412L235.016 62.333V73.83L219.966 64.893V54.538L217 53.003V65.774C217 66.319 217.284 66.823 217.742 67.094L235.758 77.796C235.986 77.931 236.244 78 236.501 78C236.758 78 237.014 77.933 237.243 77.796L255.258 67.094C255.718 66.823 256 66.319 256 65.774V53L253.034 54.529V64.893Z" fill="#3A3A3A"/>
<defs>
<filter id="filter0_d_51_18" x="0" y="0" width="281" height="102" filterUnits="userSpaceOnUse" color-interpolation-filters="sRGB">
<feFlood flood-opacity="0" result="BackgroundImageFix"/>
<feColorMatrix in="SourceAlpha" type="matrix" values="0 0 0 0 0 0 0 0 0 0 0 0 0 0 0 0 0 0 127 0" result="hardAlpha"/>
<feOffset/>
<feGaussianBlur stdDeviation="6"/>
<feColorMatrix type="matrix" values="0 0 0 0 0.996078 0 0 0 0 0.607843 0 0 0 0 0.0666667 0 0 0 1 0"/>
<feBlend mode="normal" in2="BackgroundImageFix" result="effect1_dropShadow_51_18"/>
<feBlend mode="normal" in="SourceGraphic" in2="effect1_dropShadow_51_18" result="shape"/>
</filter>
<linearGradient id="paint0_linear_51_18" x1="140.5" y1="12" x2="140.5" y2="90" gradientUnits="userSpaceOnUse">
<stop stop-color="#FFBA10"/>
<stop offset="1" stop-color="#FC7712"/>
</linearGradient>
</defs>
</svg>
