<svg width="23" height="21" viewBox="0 0 23 21" fill="none" xmlns="http://www.w3.org/2000/svg">
<path fill-rule="evenodd" clip-rule="evenodd" d="M0 11.136V20.977H9.14101V16.449H11.25V20.885H13.811V18.944H15.82V20.885H18.382V18.667H20.24V20.885H22.801V18.528H20.391V16.311H17.829V18.528H16.147V13.954H13.811V12.013H16.222V14.231H18.784V12.753H20.24V16.08H22.801V12.614H21.194V10.535H22.801V0H13.661V0.0159912H11.25V2.58698H9.14101V0H0V9.79602H1.60699V11.136H0ZM1.60699 1.479H7.533V6.93103H1.60699V1.479ZM15.268 1.479H21.194V6.93103H15.268V1.479ZM6.328 2.58698H2.812V5.82202H6.328V2.58698ZM19.989 2.58698H16.473V5.82202H19.989V2.58698ZM13.661 7.43903H11.401V2.83398H13.661V7.43903ZM11.25 9.65698H9.147V7.578H11.25V9.65698ZM6.586 8.409V9.79602H8.839V12.013H11.25V14.093H9.14101V12.568H2.561V12.013H6.57899V9.65698H2.561V8.409H6.586ZM20.24 10.396H18.859V9.65698H13.811V8.409H20.24V10.396ZM11.401 9.79602H13.435V11.875H11.401V9.79602ZM7.533 19.499H1.60699V14.047H7.533V19.499ZM11.401 14.231H13.586V16.311H11.401V14.231ZM6.328 15.155H2.812V18.39H6.328V15.155Z" fill="#838383"/>
</svg>
