<svg width="27" height="27" viewBox="0 0 27 27" fill="none" xmlns="http://www.w3.org/2000/svg">
<path fill-rule="evenodd" clip-rule="evenodd" d="M13.5 26.5C20.6797 26.5 26.5 20.6797 26.5 13.5C26.5 6.3203 20.6797 0.5 13.5 0.5C6.3203 0.5 0.5 6.3203 0.5 13.5C0.5 20.6797 6.3203 26.5 13.5 26.5Z" fill="#E8E8E8"/>
<path fill-rule="evenodd" clip-rule="evenodd" d="M12.9868 19.5C12.6186 19.5 12.2502 19.3641 11.9623 19.0909C11.3673 18.525 11.3435 17.5837 11.9091 16.9884L15.2358 13.4896L11.9125 10.015C11.3448 9.42181 11.3657 8.48048 11.9592 7.91256C12.5529 7.34464 13.494 7.36576 14.0616 7.95924L18.3654 12.458C18.914 13.0317 18.9151 13.9352 18.3688 14.5107L14.0653 19.0377C13.7725 19.3446 13.3806 19.5 12.9868 19.5Z" fill="#929292"/>
</svg>
