<svg width="27" height="27" viewBox="0 0 27 27" fill="none" xmlns="http://www.w3.org/2000/svg">
<path fill-rule="evenodd" clip-rule="evenodd" d="M13.5 0.500001C6.3203 0.500002 0.499998 6.3203 0.499999 13.5C0.499999 20.6797 6.3203 26.5 13.5 26.5C20.6797 26.5 26.5 20.6797 26.5 13.5C26.5 6.3203 20.6797 0.500001 13.5 0.500001Z" fill="#E8E8E8"/>
<path fill-rule="evenodd" clip-rule="evenodd" d="M14.0132 7.5C14.3814 7.5 14.7498 7.6359 15.0377 7.9091C15.6327 8.475 15.6565 9.4163 15.0909 10.0116L11.7642 13.5104L15.0875 16.985C15.6552 17.5782 15.6343 18.5195 15.0408 19.0874C14.4471 19.6554 13.506 19.6342 12.9384 19.0408L8.6346 14.542C8.086 13.9683 8.0849 13.0648 8.6312 12.4893L12.9347 7.9623C13.2275 7.6554 13.6194 7.5 14.0132 7.5Z" fill="#929292"/>
</svg>
