<svg width="54" height="54" viewBox="0 0 54 54" fill="none" xmlns="http://www.w3.org/2000/svg">
<circle cx="27" cy="27.0002" r="26" stroke="url(#paint0_linear)" stroke-width="2"/>
<path fill-rule="evenodd" clip-rule="evenodd" d="M40.979 22.5321H16.9903L40.0317 15.8574C40.2107 15.8055 40.3618 15.6844 40.4519 15.5212C40.542 15.3578 40.5634 15.1655 40.5115 14.9865L39.3057 10.824C38.824 9.1615 37.276 8.00024 35.5413 8.00024C35.1757 8.00024 34.8115 8.05215 34.4583 8.15433L12.8248 14.4212C11.8243 14.711 10.9951 15.3762 10.4894 16.2938C9.98406 17.2115 9.86541 18.2681 10.1552 19.2684L11.3332 23.335V40.0872C11.3332 42.2449 13.0885 44.0002 15.246 44.0002H23.695C24.0834 44.0002 24.3981 43.6855 24.3981 43.2971C24.3981 42.9088 24.0834 42.594 23.695 42.594H15.2462C13.8639 42.594 12.7394 41.4695 12.7394 40.0872V30.5186H16.3416H16.3432H16.3446H21.8509H21.8526H21.8542H27.3606H27.3622H27.3639H32.8702H32.8719H32.8732H40.2758V40.0872C40.2758 41.4695 39.1514 42.594 37.769 42.594H29.32C28.9319 42.594 28.6169 42.9088 28.6169 43.2971C28.6169 43.6855 28.9319 44.0002 29.32 44.0002H37.769C39.9267 44.0002 41.6821 42.2449 41.6821 40.0872V23.2353C41.6821 22.8469 41.3673 22.5321 40.979 22.5321ZM28.5806 29.1124L31.5681 23.9384H35.4537L32.4665 29.1124H28.5806ZM26.0584 23.9384L23.071 29.1124H26.9568L29.944 23.9384H26.0584ZM17.5616 29.1124L20.5488 23.9384H24.4346L21.4472 29.1124H17.5616ZM15.1732 15.2051L20.1758 20.0099C20.2107 20.0435 20.2417 20.08 20.2681 20.1184L24.0163 19.0327L19.0137 14.2278C18.9786 14.1941 18.9478 14.1578 18.9214 14.1194L15.1732 15.2051ZM29.5977 11.1618L34.6003 15.9667L30.852 17.0524C30.8257 17.014 30.7949 16.9774 30.7598 16.9439L25.7571 12.1391L29.5054 11.0533C29.5318 11.0918 29.5625 11.1281 29.5977 11.1618ZM29.3082 17.4996L24.3056 12.695C24.2707 12.6612 24.2399 12.6247 24.2133 12.5865L20.465 13.6722L25.4676 18.4771C25.5028 18.5106 25.5336 18.5471 25.5599 18.5856L29.3082 17.4996ZM34.8497 9.5051C35.0755 9.43973 35.3081 9.40649 35.5413 9.40649C36.6539 9.40649 37.6463 10.1503 37.955 11.2154L38.9652 14.7022L36.1442 15.5193C36.1175 15.4808 36.0868 15.4446 36.0516 15.4108L31.0492 10.6062L34.8497 9.5051ZM13.2162 15.772C12.5763 15.9574 12.0454 16.3836 11.7213 16.9722C11.3972 17.5611 11.3205 18.2376 11.5059 18.8773L12.5161 22.364L18.7242 20.5656L13.7216 15.7607C13.6867 15.7272 13.656 15.6907 13.6293 15.6522L13.2162 15.772ZM12.7394 23.9384H18.925L15.9378 29.1124H12.7394V23.9384ZM37.0774 23.9384L34.0903 29.1124H40.2758V23.9384H37.0774ZM31.0179 35.8759C31.2355 36.0014 31.3695 36.2335 31.3695 36.4848C31.3695 36.7361 31.2355 36.9682 31.0179 37.0937L24.8406 40.6599C24.7318 40.7227 24.6104 40.7543 24.489 40.7543C24.3676 40.7543 24.2462 40.7227 24.1375 40.6599C23.9199 40.5343 23.7859 40.3022 23.7859 40.0512V32.9183C23.7859 32.667 23.9199 32.4349 24.1375 32.3094C24.355 32.1839 24.6231 32.1839 24.8406 32.3094L31.0179 35.8759ZM25.1922 34.1362V38.8334L29.2601 36.4848L25.1922 34.1362ZM25.8044 43.2971C25.8044 42.9099 26.1202 42.594 26.5075 42.594C26.895 42.594 27.2106 42.9099 27.2106 43.2971C27.2106 43.6844 26.895 44.0002 26.5075 44.0002C26.1202 44.0002 25.8044 43.6844 25.8044 43.2971Z" fill="url(#paint1_linear)"/>
<defs>
<linearGradient id="paint0_linear" x1="0" y1="0.000244141" x2="0" y2="54.0002" gradientUnits="userSpaceOnUse">
<stop stop-color="#FFBA10"/>
<stop offset="1" stop-color="#FC7712"/>
</linearGradient>
<linearGradient id="paint1_linear" x1="10" y1="8.00024" x2="10" y2="44.0002" gradientUnits="userSpaceOnUse">
<stop stop-color="#FFBA10"/>
<stop offset="1" stop-color="#FC7712"/>
</linearGradient>
</defs>
</svg>
