<svg width="54" height="54" viewBox="0 0 54 54" fill="none" xmlns="http://www.w3.org/2000/svg">
<circle cx="27" cy="27.0002" r="26" stroke="url(#paint0_linear)" stroke-width="2"/>
<path fill-rule="evenodd" clip-rule="evenodd" d="M25.2339 11.2413L25.5794 11.6751C26.6296 12.9936 26.6312 14.8365 25.5833 16.1568L25.2292 16.6029C25.098 16.7681 24.9042 16.8542 24.7086 16.8542C24.5639 16.8542 24.4183 16.8071 24.2962 16.7102C24.0089 16.4822 23.9608 16.0645 24.1889 15.7773L24.5429 15.3311C25.2044 14.4978 25.2034 13.3347 24.5406 12.5026L24.195 12.0688C23.3005 10.9457 23.2992 9.37596 24.1918 8.2513C24.4198 7.96403 24.8375 7.91589 25.1248 8.14399C25.4121 8.37196 25.4602 8.78966 25.2321 9.07693C24.726 9.71456 24.7267 10.6046 25.2339 11.2413ZM38.8906 21.7129H44.3359C44.7027 21.7129 45 22.0102 45 22.377V27.125C45 30.6524 42.1302 33.5221 38.6029 33.5221H36.7284C35.899 34.8293 34.8576 35.9892 33.6537 36.9531H39.8203C40.187 36.9531 40.4844 37.2504 40.4844 37.6172C40.4844 40.0339 38.5183 42 36.1015 42H15.3828C12.9661 42 11 40.0339 11 37.6172C11 37.2504 11.2974 36.9531 11.6641 36.9531H16.2369C14.9289 35.9058 13.812 34.6276 12.9511 33.1801C11.6747 31.0339 11 28.5727 11 26.0625V20.3074C11 19.9406 11.2974 19.6433 11.6641 19.6433H16.7773C17.144 19.6433 17.4414 19.9406 17.4414 20.3074C17.4414 20.6741 17.144 20.9714 16.7773 20.9714H12.3281V26.0625C12.3281 30.5348 14.7159 34.6915 18.5715 36.9531H31.3191C35.1747 34.6914 37.5625 30.5348 37.5625 26.0624V20.9713H23.8828C23.5161 20.9713 23.2187 20.674 23.2187 20.3073C23.2187 19.9405 23.5161 19.6432 23.8828 19.6432H38.2265C38.5932 19.6432 38.8906 19.9405 38.8906 20.3073V21.7129ZM36.1015 40.6719C37.5579 40.6719 38.7795 39.6474 39.0835 38.2813H31.497H18.3936H12.4008C12.7049 39.6474 13.9265 40.6719 15.3828 40.6719H36.1015ZM38.8906 26.0625V25.6973H41.0156V27.125C41.0156 28.4554 39.9333 29.5377 38.6029 29.5377H38.4521C38.7419 28.4084 38.8906 27.2409 38.8906 26.0625ZM38.6029 32.194C41.3979 32.194 43.6719 29.92 43.6719 27.125V23.041H38.8906V24.3692H41.6797C42.0464 24.3692 42.3437 24.6665 42.3437 25.0332V27.125C42.3437 29.1877 40.6656 30.8659 38.6029 30.8659H38.0395C37.8741 31.3176 37.6847 31.761 37.4726 32.194H38.6029ZM30.5158 34.511C30.3356 34.1916 29.9306 34.0787 29.6111 34.2589L29.596 34.2675C29.2765 34.4477 29.1637 34.8527 29.3439 35.1721C29.4659 35.3885 29.691 35.5101 29.9228 35.5101C30.0333 35.5101 30.1454 35.4824 30.2485 35.4243L30.2636 35.4157C30.5831 35.2355 30.6959 34.8305 30.5158 34.511ZM29.2602 13.1682L28.9147 12.7345C28.4075 12.0977 28.4068 11.2076 28.9129 10.57C29.141 10.2827 29.0929 9.86504 28.8056 9.63707C28.5183 9.40896 28.1007 9.45711 27.8726 9.74438C26.98 10.869 26.9813 12.4388 27.8759 13.5619L28.2214 13.9958C28.8841 14.8279 28.8851 15.9911 28.2237 16.8243L27.8697 17.2704C27.6417 17.5577 27.6897 17.9754 27.977 18.2033C28.0991 18.3002 28.2448 18.3472 28.3894 18.3472C28.585 18.3472 28.7789 18.2611 28.91 18.096L29.264 17.6499C30.3119 16.3297 30.3104 14.4868 29.2602 13.1682ZM21.5531 12.7345L21.8986 13.1683C22.9487 14.4868 22.9503 16.3298 21.9024 17.65L21.5482 18.0961C21.4171 18.2612 21.2233 18.3473 21.0277 18.3473C20.883 18.3473 20.7374 18.3002 20.6153 18.2033C20.328 17.9753 20.28 17.5576 20.508 17.2703L20.8621 16.8243C21.5235 15.9911 21.5225 14.8279 20.8597 13.9958L20.5142 13.5619C19.6197 12.4389 19.6183 10.869 20.5109 9.74438C20.7389 9.45724 21.1566 9.40903 21.4439 9.63707C21.7312 9.86511 21.7793 10.2828 21.5512 10.5701C21.0451 11.2077 21.0459 12.0978 21.5531 12.7345ZM20.9795 19.8376C20.856 19.7141 20.6847 19.643 20.51 19.643C20.3354 19.643 20.1641 19.7141 20.0405 19.8376C19.9171 19.9618 19.846 20.1324 19.846 20.3071C19.846 20.4817 19.917 20.6531 20.0405 20.7772C20.1641 20.9008 20.3354 20.9711 20.51 20.9711C20.6847 20.9711 20.856 20.9008 20.9795 20.7772C21.1036 20.6531 21.1741 20.4824 21.1741 20.3071C21.1741 20.1324 21.1036 19.9611 20.9795 19.8376ZM34.375 26.0625C34.375 25.6957 34.6723 25.3984 35.039 25.3984C35.4057 25.3984 35.7031 25.6957 35.7031 26.0625C35.7031 28.8749 34.563 31.638 32.5752 33.6435C32.4454 33.7745 32.2745 33.8401 32.1036 33.8402C31.9346 33.8402 31.7656 33.7761 31.6361 33.6478C31.3756 33.3896 31.3737 32.9691 31.6319 32.7086C33.3752 30.9499 34.375 28.5274 34.375 26.0625Z" fill="url(#paint1_linear)"/>
<defs>
<linearGradient id="paint0_linear" x1="0" y1="0.000244141" x2="0" y2="54.0002" gradientUnits="userSpaceOnUse">
<stop stop-color="#FFBA10"/>
<stop offset="1" stop-color="#FC7712"/>
</linearGradient>
<linearGradient id="paint1_linear" x1="11" y1="8" x2="11" y2="42" gradientUnits="userSpaceOnUse">
<stop stop-color="#FFBA10"/>
<stop offset="1" stop-color="#FC7712"/>
</linearGradient>
</defs>
</svg>
