<svg width="54" height="54" fill="none" xmlns="http://www.w3.org/2000/svg"><circle cx="27" cy="27" r="26" stroke="url(#paint0_linear)" stroke-width="2"/><path fill-rule="evenodd" clip-rule="evenodd" d="M45.316 33.143A2.138 2.138 0 0043.188 31h-.71v-2.302l.014-.012.018-.015a.666.666 0 00.056-.05c.46-.422 1.422-.692 2.05-.7a.712.712 0 00.7-.723.712.712 0 00-.71-.706h-.008a5.382 5.382 0 00-2.12.505v-1.872a2.142 2.142 0 001.315-2.246C42.956 16.107 37.208 11 30.421 11h-6.526c-6.787 0-12.536 5.107-13.372 11.879a2.142 2.142 0 001.314 2.246v1.84c-.704-.32-1.515-.482-2.137-.473a.712.712 0 00-.7.724.712.712 0 00.71.705h.009c.634-.01 1.618.257 2.099.698a.333.333 0 00.01.01l.01.007V31h-.71A2.135 2.135 0 009 33.143c0 1.062.771 1.945 1.779 2.114-.166.44-.178.922-.024 1.38A6.386 6.386 0 0016.802 41h20.712a6.386 6.386 0 006.047-4.364 2.044 2.044 0 00-.024-1.38 2.138 2.138 0 001.779-2.113zM11.93 23.055c.749-6.058 5.893-10.626 11.965-10.626h6.526c6.072 0 11.216 4.568 11.965 10.627a.72.72 0 01-.664.799h-.014a.401.401 0 01-.037.002H12.644a.721.721 0 01-.714-.802zm21.17 4.511c1.559-1.431 3.653-1.431 5.212 0 .837.77 1.844.91 2.749.402v-2.682H13.256v2.641c.924.558 1.957.432 2.82-.36 1.559-1.433 3.653-1.432 5.212-.001 1.017.934 2.282.934 3.3 0 1.558-1.431 3.652-1.431 5.211 0 1.018.934 2.282.934 3.3 0zm7.961 1.952V31H13.256v-1.504c.383.134.777.2 1.17.2.915 0 1.828-.36 2.606-1.075 1.018-.934 2.282-.934 3.3 0 1.558 1.432 3.653 1.432 5.212 0 1.017-.934 2.282-.934 3.3 0 1.558 1.432 3.652 1.432 5.211 0 1.018-.934 2.282-.934 3.3 0 1.085.997 2.447 1.303 3.705.897zm-3.546 10.054c2.13 0 4.02-1.364 4.704-3.395.146-.435-.227-.891-.694-.891H12.792c-.465 0-.84.454-.694.892a4.967 4.967 0 004.704 3.394h20.712zm5.674-5.715h-32.06a.713.713 0 01-.71-.714c0-.394.318-.714.71-.714h32.06c.391 0 .71.32.71.714a.712.712 0 01-.71.714zM32.453 15.18a.79.79 0 00-1.117 0l-1.578 1.579a.79.79 0 001.116 1.116l1.579-1.579a.79.79 0 000-1.116zm-14.538 3.158a.79.79 0 011.117 1.116l-1.579 1.58a.79.79 0 01-1.116-1.117l1.578-1.58zm17.369 0a.79.79 0 011.116 1.116l-1.579 1.58a.79.79 0 01-1.116-1.117l1.579-1.58zM23.442 15.18a.79.79 0 011.116 1.116l-1.579 1.58a.79.79 0 01-1.116-1.117l1.579-1.58zm4.274 3.158a.79.79 0 00-1.116 0l-1.58 1.579a.79.79 0 001.117 1.116l1.58-1.579a.79.79 0 000-1.116z" fill="url(#paint1_linear)"/><defs><linearGradient id="paint0_linear" x1="0" y1="0" x2="0" y2="54" gradientUnits="userSpaceOnUse"><stop stop-color="#FFBA10"/><stop offset="1" stop-color="#FC7712"/></linearGradient><linearGradient id="paint1_linear" x1="9" y1="11" x2="9" y2="41" gradientUnits="userSpaceOnUse"><stop stop-color="#FFBA10"/><stop offset="1" stop-color="#FC7712"/></linearGradient></defs></svg>