<svg width="20" height="23" fill="none" xmlns="http://www.w3.org/2000/svg"><path fill-rule="evenodd" clip-rule="evenodd" d="M13.34 9.438c-1.075 1.075-2.39 1.62-3.909 1.62-1.519 0-2.834-.545-3.909-1.62-1.075-1.075-1.62-2.39-1.62-3.91 0-1.518.545-2.833 1.62-3.908C6.597.545 7.912 0 9.43 0c1.519 0 2.834.545 3.91 1.62 1.074 1.075 1.619 2.39 1.619 3.909 0 1.52-.545 2.834-1.62 3.909zm5.58 6.763c.091.515.154 1.003.185 1.45.03.438.046.894.047 1.357 0 1.198-.381 2.169-1.133 2.884-.742.706-1.723 1.064-2.917 1.064H4.05c-1.193 0-2.175-.359-2.917-1.064C.381 21.175 0 20.206 0 19.008c0-.46.015-.917.046-1.356.03-.448.094-.936.186-1.45.093-.52.213-1.01.356-1.459.149-.464.35-.921.6-1.36.258-.455.563-.852.904-1.178a3.982 3.982 0 011.298-.816c.504-.2 1.061-.3 1.658-.3.234 0 .461.096.898.38.274.179.589.382.937.604.3.192.708.372 1.21.534.492.159.99.24 1.482.24s.99-.081 1.482-.24c.503-.163.91-.342 1.21-.534.353-.224.668-.428.937-.603.438-.285.664-.381.898-.381.597 0 1.155.1 1.658.3.505.2.942.474 1.299.816.341.326.645.722.904 1.178.25.439.451.896.6 1.36.143.448.263.94.356 1.458z" fill="#838383"/></svg>