<svg width="79" height="76" fill="none" xmlns="http://www.w3.org/2000/svg"><g filter="url(#filter0_d)"><circle cx="39.5" cy="39.5" r="27.5" stroke="#FFEECA" stroke-width="4"/></g><circle cx="39.5" cy="39.5" r="23.5" stroke="#FFD172" stroke-width="4"/><circle cx="39.5" cy="39.5" r="19.5" stroke="#FEB010" stroke-width="4"/><path fill-rule="evenodd" clip-rule="evenodd" d="M28 41.568v-1.432h1.607v-1.34H28V29h9.14v2.588h2.11v-2.572h2.41V29h9.142v10.535h-1.608v2.08h1.607v3.465h-2.56v-3.327h-1.457v1.479h-2.562v-2.218h-2.41v1.94h2.335v4.575h1.682V45.31h2.562v2.218h2.41v2.356h-2.56v-2.218h-1.86v2.218h-2.56v-1.94h-2.01v1.94h-2.56V45.45h-2.11v4.529H28v-8.41zm1.607 6.931h5.926v-5.452h-5.926v5.452zm9.794-5.267h2.185v2.079H39.4v-2.08zm2.034-4.436H39.4v2.08h2.034v-2.08zm6.805.6h-1.381v-.739H41.81V37.41h6.429v1.987zm.954-8.917h-5.926v5.452h5.926V30.48zm-7.533 5.96H39.4v-4.605h2.26v4.605zm-4.514 2.218h2.103v-2.079h-2.103v2.08zm-7.54-8.178h5.926v5.452h-5.926V30.48zm4.979 8.317V37.41H30.56v1.247h4.018v2.357H30.56v.554h6.58v1.525h2.11v-2.08h-2.412v-2.217h-2.253zm-.258-7.208h-3.516v3.234h3.516v-3.234zm0 12.568h-3.516v3.234h3.516v-3.234zM47.99 31.588h-3.516v3.234h3.516v-3.234z" fill="url(#paint0_linear)"/><defs><linearGradient id="paint0_linear" x1="28" y1="29" x2="28" y2="49.978" gradientUnits="userSpaceOnUse"><stop stop-color="#FFBA10"/><stop offset="1" stop-color="#FC7712"/></linearGradient><filter id="filter0_d" x="0" y="0" width="79" height="79" filterUnits="userSpaceOnUse" color-interpolation-filters="sRGB"><feFlood flood-opacity="0" result="BackgroundImageFix"/><feColorMatrix in="SourceAlpha" values="0 0 0 0 0 0 0 0 0 0 0 0 0 0 0 0 0 0 127 0"/><feOffset/><feGaussianBlur stdDeviation="5"/><feColorMatrix values="0 0 0 0 0.996078 0 0 0 0 0.690196 0 0 0 0 0.0627451 0 0 0 1 0"/><feBlend in2="BackgroundImageFix" result="effect1_dropShadow"/><feBlend in="SourceGraphic" in2="effect1_dropShadow" result="shape"/></filter></defs></svg>