<svg width="11" height="15" viewBox="0 0 11 15" fill="none" xmlns="http://www.w3.org/2000/svg">
<path fill-rule="evenodd" clip-rule="evenodd" d="M0 5.43241C0 2.43698 2.42778 0 5.41193 0C8.39606 0 10.8238 2.43698 10.8239 5.43241C10.8239 9.14984 5.98071 14.6072 5.77451 14.8377C5.58118 15.0539 5.24303 15.0543 5.04935 14.8377C4.84315 14.6072 0 9.14984 0 5.43241ZM2.68908 5.43241C2.68908 6.9395 3.91053 8.16561 5.41193 8.16561C6.91331 8.16561 8.13475 6.93953 8.13475 5.43244C8.13475 3.92535 6.91331 2.69924 5.41193 2.69924C3.91056 2.69924 2.68908 3.92532 2.68908 5.43241Z" fill="#717171"/>
</svg>
