<svg width="54" height="54" viewBox="0 0 54 54" fill="none" xmlns="http://www.w3.org/2000/svg">
<circle cx="27" cy="27.0002" r="26" stroke="url(#paint0_linear)" stroke-width="2"/>
<path fill-rule="evenodd" clip-rule="evenodd" d="M30.3354 18.3212C30.3392 14.8318 33.1669 12.0041 36.6564 12.0002C40.1474 12.0002 42.9774 14.8302 42.9774 18.3212C42.9774 21.8122 40.1474 24.6422 36.6564 24.6422C36.592 24.6422 36.5285 24.638 36.465 24.6337L36.465 24.6337C36.4308 24.6315 36.3967 24.6292 36.3624 24.6276L34.3951 26.5949C34.3915 26.599 34.3861 26.6 34.3819 26.6039C34.3797 26.6057 34.3782 26.6082 34.3767 26.6107L34.3767 26.6107L34.3746 26.614L34.3734 26.6155L34.3719 26.617L15.9357 42.9462C15.7271 43.1309 15.4108 43.1211 15.214 42.9241L14.0062 41.7163L11.7449 43.9776L11 43.2328L13.2613 40.9714L12.054 39.7636C11.857 39.5666 11.8472 39.2505 12.0319 39.0419L28.3611 20.6057C28.362 20.6047 28.363 20.6039 28.3642 20.6031L28.3668 20.6015C28.3693 20.6 28.3718 20.5985 28.3737 20.5962C28.3748 20.5951 28.3756 20.5939 28.3763 20.5926L28.378 20.5896C28.3793 20.5872 28.3806 20.5847 28.3827 20.5825L30.3501 18.6152C30.3484 18.5809 30.3462 18.5468 30.3439 18.5126L30.3439 18.5125V18.5125V18.5125V18.5124V18.5124V18.5124V18.5124V18.5124V18.5123V18.5123C30.3396 18.4489 30.3354 18.3855 30.3354 18.3212ZM13.1492 39.3691L15.6085 41.8284L33.2557 26.2003L28.7783 21.723L13.1492 39.3691ZM34.0226 25.4776L29.5 20.955L30.8621 19.5928L35.3848 24.1155L34.0226 25.4776ZM36.3372 23.5777C36.4424 23.5846 36.5509 23.5887 36.6564 23.5887C37.8714 23.5895 39.0489 23.1685 39.9874 22.3971L32.5805 14.99C31.8092 15.9287 31.3881 17.1062 31.3889 18.3212C31.3889 18.4293 31.393 18.5345 31.3999 18.6399L36.3372 23.5777ZM40.7323 21.6525L33.3251 14.2454C35.4182 12.5329 38.4681 12.6852 40.3801 14.5975C42.2924 16.5095 42.4444 19.5594 40.7323 21.6525ZM28.3827 24.2698L25.2222 27.4303C25.0165 27.636 25.0165 27.9694 25.2222 28.1751L26.8025 29.7554C27.0082 29.9609 27.3416 29.9609 27.5473 29.7554L30.7078 26.5949C30.9133 26.3891 30.9133 26.0558 30.7078 25.85L29.1276 24.2698C28.9218 24.0643 28.5885 24.0643 28.3827 24.2698ZM27.1749 28.6381L26.3395 27.8027L28.7551 25.3871L29.5905 26.2225L27.1749 28.6381ZM32.4424 17.2677H33.4959V18.3212H32.4424V17.2677ZM35.6029 19.3747H34.5494V20.4282H35.6029V19.3747ZM36.6564 21.4817H37.7099V22.5352H36.6564V21.4817ZM36.6564 14.1072H35.6029V15.1607H36.6564V14.1072ZM37.7099 16.2142H38.7634V17.2677H37.7099V16.2142ZM40.8704 18.3212H39.8169V19.3747H40.8704V18.3212Z" fill="url(#paint1_linear)"/>
<defs>
<linearGradient id="paint0_linear" x1="0" y1="0.000244141" x2="0" y2="54.0002" gradientUnits="userSpaceOnUse">
<stop stop-color="#FFBA10"/>
<stop offset="1" stop-color="#FC7712"/>
</linearGradient>
<linearGradient id="paint1_linear" x1="11" y1="12.0002" x2="11" y2="43.9776" gradientUnits="userSpaceOnUse">
<stop stop-color="#FFBA10"/>
<stop offset="1" stop-color="#FC7712"/>
</linearGradient>
</defs>
</svg>
