<svg width="21" height="24" fill="none" xmlns="http://www.w3.org/2000/svg"><path fill-rule="evenodd" clip-rule="evenodd" d="M20.032 15.823c0 .496-.4.899-.894.899a.896.896 0 01-.894-.899V12.5c0-.99-.803-1.797-1.789-1.797H3.577c-.986 0-1.788.806-1.788 1.797v7.367c0 .991.802 1.797 1.788 1.797h12.878c.986 0 1.789-.806 1.789-1.797 0-.496.4-.898.894-.898s.894.402.894.898c0 1.982-1.605 3.594-3.577 3.594H3.577C1.605 23.46 0 21.848 0 19.866V12.5c0-1.982 1.605-3.594 3.577-3.594H4.65V5.737C4.65 2.827 7.057.46 10.015.46c2.96 0 5.366 2.367 5.366 5.277v3.168h1.075c1.973 0 3.577 1.612 3.577 3.594v3.324zM6.437 5.737v3.168h7.155V5.737c0-1.92-1.605-3.48-3.578-3.48-1.972 0-3.577 1.56-3.577 3.48zm9.144 10.304a.742.742 0 11-1.484 0 .742.742 0 011.484 0zm-7.42.741a.742.742 0 100-1.483.742.742 0 000 1.483zm-2.226-.741a.742.742 0 11-1.483 0 .742.742 0 011.483 0zm5.936.741a.742.742 0 100-1.483.742.742 0 000 1.483z" fill="#FF2E2E"/></svg>