<svg width="54" height="54" viewBox="0 0 54 54" fill="none" xmlns="http://www.w3.org/2000/svg">
<circle cx="27" cy="27.0002" r="26" stroke="url(#paint0_linear)" stroke-width="2"/>
<path fill-rule="evenodd" clip-rule="evenodd" d="M12.1041 37.1998C11.7613 37.1998 11.4833 37.4777 11.4833 37.8206V39.0622H9.62082C9.27798 39.0622 9 39.3402 9 39.6831C9.00273 42.0821 10.9467 44.0261 13.3458 44.0288H27.0038C28.1394 44.0291 29.2295 43.5832 30.0391 42.7872H36.8451C38.1268 42.789 39.3442 42.2252 40.1718 41.2463C40.9996 40.2675 41.3534 38.9734 41.1388 37.7096L40.4137 33.4748H41.7105C43.0388 33.4827 44.3059 32.9171 45.1871 31.9228C46.0559 30.9488 46.423 29.6265 46.1805 28.344L44.5184 19.6524C44.0743 17.5481 42.1997 16.0545 40.0493 16.0918H37.5484L37.6006 13.677L38.2117 10.6721C38.2487 10.4902 38.2023 10.3007 38.085 10.1564C37.968 10.0121 37.7921 9.92816 37.6063 9.92725L27.6247 9.8836C26.6158 9.83843 25.6349 9.53954 24.7719 9.01451C23.5748 8.19725 22.11 7.87047 20.6789 8.10086L18.8122 8.47311C18.6073 8.51403 18.4369 8.65499 18.3581 8.84839C18.2796 9.04179 18.3035 9.26156 18.4215 9.43374L21.3743 13.7261L21.4164 16.6638L19.5446 27.4206L11.7725 32.329C11.7504 32.3463 11.7297 32.3651 11.7106 32.3854C11.6885 32.4017 11.6679 32.4196 11.6485 32.4387C11.6124 32.4793 11.5818 32.5245 11.5579 32.573C11.5543 32.5801 11.5501 32.5866 11.5459 32.5932L11.5458 32.5932C11.5398 32.6027 11.5337 32.6122 11.5294 32.6233C11.5006 32.6927 11.4848 32.767 11.4833 32.8425V32.854V35.3373C11.4833 35.6804 11.7613 35.9581 12.1041 35.9581C12.447 35.9581 12.7249 36.2361 12.7249 36.5789C12.7249 36.9221 12.447 37.1998 12.1041 37.1998ZM27.0038 42.7872H13.3458C11.8713 42.7856 10.6006 41.7483 10.3038 40.3039H30.0458C29.749 41.7483 28.4783 42.7856 27.0038 42.7872ZM43.2928 19.8877C42.9624 18.3696 41.6026 17.2986 40.0493 17.3335H37.6503L37.8634 18.5751H40.0493C40.9638 18.5639 41.7584 19.2029 41.9433 20.0987L43.6054 28.7902C43.7112 29.3431 43.5538 29.9136 43.1801 30.3343C42.8096 30.7575 42.2728 30.9979 41.7105 30.9915H39.9884L40.2012 32.2332H41.7105C42.6802 32.2411 43.6063 31.8303 44.2517 31.1064C44.8655 30.4189 45.1253 29.4853 44.9549 28.5792L43.2928 19.8877ZM39.7762 29.7499L38.0756 19.8167H40.0493C40.3682 19.8055 40.6507 20.0211 40.7241 20.3315L42.3853 29.023C42.4201 29.1997 42.3686 29.3822 42.247 29.5147C42.1118 29.669 41.9154 29.7554 41.7105 29.7499H39.7762ZM36.3465 14.2294H22.6232L22.6581 16.7042C22.6602 16.7423 22.6584 16.7805 22.6532 16.8184L21.6468 22.605L22.7642 22.2324C25.1132 21.4452 27.6486 21.4064 30.0203 22.1221C31.7282 22.6323 33.5355 22.7132 35.2819 22.3573L37.1853 21.9675L36.3025 16.8178C36.2959 16.7787 36.2925 16.7393 36.2931 16.6996L36.3465 14.2294ZM19.9787 9.51135L20.9069 9.32492C22.0324 9.14971 23.1825 9.41677 24.1159 10.07C25.1762 10.7157 26.3842 11.0789 27.6247 11.1252L36.847 11.1659L36.4738 12.9877H22.3719L19.9787 9.51135ZM23.1552 23.4119L21.401 23.997L20.9608 26.5261L23.5681 24.8791C23.7633 24.756 24.0104 24.7512 24.2101 24.8667C27.0827 26.5012 28.8593 29.5492 28.8663 32.854V39.0622H30.7288C31.0716 39.0622 31.3496 39.3402 31.3496 39.6831C31.3487 40.3281 31.2035 40.9644 30.9243 41.5455H36.8451C37.7618 41.5492 38.633 41.1475 39.2257 40.4479C39.818 39.7485 40.0711 38.8231 39.9168 37.9194L37.3914 23.1943L35.5289 23.5759C33.5816 23.9727 31.5663 23.8827 29.6623 23.314C27.5355 22.6714 25.2617 22.7056 23.1552 23.4119ZM23.9091 26.1356C26.032 27.4724 27.4 29.7323 27.5998 32.2332H14.2521L23.9091 26.1356ZM13.9675 36.5789C13.9675 37.3686 13.4697 38.0725 12.7249 38.3353V39.0622H27.6247V33.4748H12.7249V34.8229C13.4697 35.0857 13.9675 35.7893 13.9675 36.5789ZM22.6581 36.5789H23.8997V37.8206H22.6581V36.5789ZM18.3123 34.7165H17.0707V35.9581H18.3123V34.7165Z" fill="url(#paint1_linear)"/>
<defs>
<linearGradient id="paint0_linear" x1="0" y1="0.000244141" x2="0" y2="54.0002" gradientUnits="userSpaceOnUse">
<stop stop-color="#FFBA10"/>
<stop offset="1" stop-color="#FC7712"/>
</linearGradient>
<linearGradient id="paint1_linear" x1="9" y1="8.02881" x2="9" y2="44.0288" gradientUnits="userSpaceOnUse">
<stop stop-color="#FFBA10"/>
<stop offset="1" stop-color="#FC7712"/>
</linearGradient>
</defs>
</svg>
