<svg width="23" height="23" fill="none" xmlns="http://www.w3.org/2000/svg"><path fill-rule="evenodd" clip-rule="evenodd" d="M16.74 15.256l5.473 5.694A1.213 1.213 0 0121.34 23c-.332 0-.642-.132-.873-.371l-5.515-5.737a9.187 9.187 0 01-5.32 1.68c-5.12 0-9.287-4.165-9.287-9.286C.345 4.166 4.511 0 9.631 0c5.12 0 9.287 4.166 9.287 9.286a9.257 9.257 0 01-2.179 5.97zm-.245-5.97a6.871 6.871 0 00-6.864-6.863 6.871 6.871 0 00-6.863 6.863A6.871 6.871 0 009.63 16.15a6.871 6.871 0 006.864-6.864z" fill="url(#paint0_linear)"/><defs><linearGradient id="paint0_linear" x1=".345" y1="0" x2=".345" y2="23" gradientUnits="userSpaceOnUse"><stop stop-color="#FFBA10"/><stop offset="1" stop-color="#FC7712"/></linearGradient></defs></svg>