<svg width="54" height="54" fill="none" xmlns="http://www.w3.org/2000/svg"><circle cx="27" cy="27" r="26" stroke="url(#paint0_linear)" stroke-width="2"/><path fill-rule="evenodd" clip-rule="evenodd" d="M43.209 27.76l-.975-15.835a.565.565 0 00-.566-.53h-2.737a5.65 5.65 0 00-10.359 0h-2.737a.565.565 0 00-.566.525l-.44 6.22a.566.566 0 00.524.605h.002a.572.572 0 00.604-.524l.403-5.696h1.848a5.653 5.653 0 00-.113 1.131c.003.033.01.066.02.098a1.697 1.697 0 101.09 0 .516.516 0 00.02-.098c.002-.382.052-.762.15-1.13h8.75c.097.368.147.748.148 1.13a.55.55 0 00.02.098 1.697 1.697 0 101.092 0 .516.516 0 00.02-.098c0-.38-.038-.758-.114-1.13h1.844l.941 15.302a.565.565 0 00.566.53h.035a.565.565 0 00.53-.598zM29.228 15.353a.566.566 0 11-1.131 0 .566.566 0 011.13 0zm4.523-6.22a4.524 4.524 0 00-3.912 2.261h7.825a4.524 4.524 0 00-3.913-2.262zm5.655 6.22a.566.566 0 11-1.13 0 .566.566 0 011.13 0zM28.473 27.765l-.377-7.352a.565.565 0 00-.565-.536h-2.737a5.65 5.65 0 00-10.359 0h-2.738c-.3 0-.549.234-.565.535L10 41.334a.565.565 0 00.566.596h14.702a.565.565 0 000-1.131H11.164l.091-1.697h11.187a.566.566 0 000-1.13H11.316l.917-16.965h1.84a5.644 5.644 0 00-.114 1.13.51.51 0 00.02.098 1.697 1.697 0 101.092 0 .518.518 0 00.02-.098c0-.381.05-.761.148-1.13h8.75c.098.369.148.749.15 1.13a.51.51 0 00.019.098 1.697 1.697 0 101.091 0 .518.518 0 00.02-.098c0-.38-.037-.758-.113-1.13h1.838l.35 6.814a.565.565 0 101.13-.057zm-13.383-3.93a.566.566 0 11-1.13 0 .566.566 0 011.13 0zm4.524-6.22a4.524 4.524 0 00-3.912 2.262h7.824a4.524 4.524 0 00-3.912-2.262zm5.655 6.22a.566.566 0 11-1.13 0 .566.566 0 011.13 0zm13.37 5.655h4.726c.312 0 .565.253.565.566v3.392a.566.566 0 01-.565.566h-.566v7.351a.566.566 0 01-.565.566H27.53a.566.566 0 01-.565-.566v-7.351H26.4a.566.566 0 01-.565-.566v-3.393c0-.312.253-.565.565-.565h4.727a4.17 4.17 0 01-1.334-3.054v-.904c0-.313.253-.566.566-.566h.904c1.494.002 2.873.8 3.62 2.092a4.184 4.184 0 013.619-2.092h.904c.313 0 .566.253.566.566v.904c0 .308-.034.616-.1.916a.566.566 0 01-1.105-.245c.049-.22.074-.445.074-.67v-.34h-.34a3.059 3.059 0 00-3.053 3.054v.339h.34a3.031 3.031 0 002.216-.955l.005-.005.009-.009a.565.565 0 01.806.793c-.05.053-.103.101-.155.149l-.03.027zm-7.715-3.393v.34a3.059 3.059 0 003.054 3.053h.339v-.34a3.059 3.059 0 00-3.054-3.053h-.339zm-3.958 6.786V30.62h5.089v2.262h-5.09zm6.22 6.22V40.8h3.393v-6.786h-3.393v2.827a.566.566 0 01-1.131 0v-2.827h-3.958V40.8h3.958v-1.697a.566.566 0 011.131 0zm0-6.22V30.62h3.393v2.262h-3.393zm7.917 0h1.696V30.62h-5.09v2.262h1.132a.566.566 0 010 1.13H37.71V40.8h3.958v-6.786h-.565a.566.566 0 010-1.131zm-16.4 5.09h.566a.566.566 0 010 1.13h-.565a.566.566 0 010-1.13z" fill="url(#paint1_linear)"/><defs><linearGradient id="paint0_linear" x1="0" y1="0" x2="0" y2="54" gradientUnits="userSpaceOnUse"><stop stop-color="#FFBA10"/><stop offset="1" stop-color="#FC7712"/></linearGradient><linearGradient id="paint1_linear" x1="10" y1="8" x2="10" y2="41.931" gradientUnits="userSpaceOnUse"><stop stop-color="#FFBA10"/><stop offset="1" stop-color="#FC7712"/></linearGradient></defs></svg>