<svg width="54" height="54" fill="none" xmlns="http://www.w3.org/2000/svg"><circle cx="27" cy="27" r="26" stroke="url(#paint0_linear)" stroke-width="2"/><path fill-rule="evenodd" clip-rule="evenodd" d="M45.378 15.974a.68.68 0 00-.93.251l-3.091 5.381a3.287 3.287 0 00-.841.001h-.004c-.191.026-.38.067-.564.128l-.358.117-.82.22a2.151 2.151 0 01-1.258-.288l-3.633-2.105a.966.966 0 01-.351-1.316l.672-1.167 2.984-5.17a.685.685 0 00-.248-.934.68.68 0 00-.931.25L33.36 15.92l-.31-.18c-1.33-.77-12.327-2.823-14.518-3.227l-.014-.002c-1.308-.213-2.546.332-3.154 1.388l-1.121 1.948c-.779 1.352-.245 3.14 1.184 4.067l-.268.465a1.728 1.728 0 00-.173 1.317c.12.448.406.822.806 1.054l.142.082a1.716 1.716 0 001.313.173 1.72 1.72 0 001.05-.808l.266-.462 1.605.93a12.013 12.013 0 00-5.556 3.886 11.842 11.842 0 00-.984 1.44A12.06 12.06 0 0012 34.029c0 3.108 1.187 5.943 3.13 8.074a.685.685 0 00.116.124 11.97 11.97 0 004.685 3.08 11.85 11.85 0 004.006.694 11.841 11.841 0 004.537-.899 11.99 11.99 0 004.367-3.108.69.69 0 00.11-.124 11.943 11.943 0 002.846-9.194l-.006-.063a4.472 4.472 0 00-.016-.13l-.078-.5.183-.318a3.36 3.36 0 001.125.197c1.027 0 1.99-.486 2.502-1.375l1.122-1.949 2.636-4.58c.372-.647.114-1.498-.575-1.898l-.016-.008 2.954-5.143a.684.684 0 00-.25-.934zm-16.28.057l.572 2.139-.976-.17-.584-2.188c.343.075.674.148.989.22zm-4.356 1.247l-.613-2.295-.983-.196.62 2.32.976.17zm-7.624 4.235a.365.365 0 01-.502.135l-.142-.082a.367.367 0 01-.134-.503l.266-.462.778.451-.266.461zm1.662 5.236l1.551-2.696a10.515 10.515 0 00-4.605 3.272l3.054-.575zm3.847-.31a1.73 1.73 0 001.501-.866l.265-.462 1.576.912a2.525 2.525 0 001.758.306c.263-.053.56.002.816.15l1.885 1.091c.628.364 1.113.94 1.329 1.58.053.157.161.29.305.373l.65.376-.278.483a1.74 1.74 0 00.633 2.37l.142.083c.21.122.436.193.663.22l-2.518 2.548-3.36-.757-.357-1.103-.765-2.362 1.164-1.774a.685.685 0 00-.195-.947.68.68 0 00-.944.196l-1.142 1.74h-3.634l-2.108-3.254 1.022-1.777c.147.229.346.42.588.56l.142.082c.271.158.568.233.862.233zm-.192-2.462l-.265.462a.367.367 0 00.134.503l.142.082c.175.101.4.041.502-.135l.265-.461-.303-.176-.475-.275zm4.23 11.19l-1.358.99-1.359.99-2.717-1.98 1.038-3.204h3.359l1.037 3.204zm-7.774-7.048l-4.232.798a10.601 10.601 0 00-1.183 3.546l3.048 3.14.597-.135 2.758-.622 1.124-3.467-2.112-3.26zm-3.697 11.868a10.564 10.564 0 01-1.827-5.678l2.22 2.287-.393 3.39zm1.729-3.074l-.527 4.542a10.606 10.606 0 003.62 2.422l3.228-2.32V38.34l-2.988-2.178-.155.035-3.178.716zm7.014 7.72c-.784 0-1.549-.086-2.284-.25l2.313-1.663 2.583 1.586a10.56 10.56 0 01-2.612.327zm.693-3.108l3.585 2.2a10.625 10.625 0 003.45-2.466l-.693-4.341-3.14-.707-.214-.048-.788.574-2.2 1.603v3.185zm8.18-1.736l-.51-3.202 2.206-2.232a10.563 10.563 0 01-1.696 5.434zm1.08-8.138c.175.102.4.041.502-.135l.265-.461-.778-.45-.265.46a.37.37 0 00.134.504l.142.082zm2.084-1.44l-3.02-1.75a4.324 4.324 0 00-1.845-2.075l-1.884-1.09a2.532 2.532 0 00-1.765-.308 1.181 1.181 0 01-.81-.148l-2.165-1.254-.673-.39-5.156-2.986-1.959-1.134-.432-.25c-.844-.489-1.226-1.432-.906-2.166a3.46 3.46 0 001.346 1.4l10.386 6.015a2.524 2.524 0 001.758.306c.263-.053.56.001.816.15l1.884 1.09c.63.365 1.114.94 1.33 1.58a.68.68 0 00.304.373l3.231 1.871a3.427 3.427 0 001.842.467c-.46.64-1.452.779-2.282.298zm2.512-1.698c.425-.085.767-.319.962-.659l2.62-4.552a.154.154 0 00-.06-.059 2.137 2.137 0 00-1.266-.286l-.764.206-.398.13c-.182.06-.368.101-.557.127l-3.256.875a.68.68 0 01-.835-.484.684.684 0 01.482-.837l.976-.262-3.193-1.85a2.337 2.337 0 01-.85-3.182l.332-.577-.31-.18c-.21-.12-.848-.308-1.765-.536l.658 2.463a.685.685 0 01-.774.85l-2.456-.427a.682.682 0 01-.541-.497l-.878-3.284-.992-.206.713 2.671a.685.685 0 01-.774.85l-2.456-.427a.682.682 0 01-.541-.496l-.905-3.389a390.796 390.796 0 00-3.364-.636c-.741-.118-1.427.165-1.748.723-.43.748-.054 1.777.84 2.295l10.386 6.014c.254.147.549.202.81.15a2.533 2.533 0 011.764.306l1.885 1.091a4.326 4.326 0 011.844 2.075l3.02 1.749a2 2 0 001.39.251zm-4.478-4.947a.644.644 0 00-.906 0 .644.644 0 000 .905c.12.12.285.188.453.188a.644.644 0 00.64-.64.641.641 0 00-.187-.453zm12.352-9.578a.645.645 0 01.64.64.645.645 0 01-.188.453.645.645 0 01-.452.188.644.644 0 01-.453-1.093.645.645 0 01.453-.188z" fill="url(#paint1_linear)"/><defs><linearGradient id="paint0_linear" x1="0" y1="0" x2="0" y2="54" gradientUnits="userSpaceOnUse"><stop stop-color="#FFBA10"/><stop offset="1" stop-color="#FC7712"/></linearGradient><linearGradient id="paint1_linear" x1="12" y1="11" x2="12" y2="46" gradientUnits="userSpaceOnUse"><stop stop-color="#FFBA10"/><stop offset="1" stop-color="#FC7712"/></linearGradient></defs></svg>