<?xml version="1.0" encoding="utf-8"?>
<svg width="113px" height="113px" viewBox="0 0 113 113" version="1.1" xmlns:xlink="http://www.w3.org/1999/xlink" xmlns="http://www.w3.org/2000/svg">
  <defs>
    <linearGradient x1="1" y1="0.5" x2="0" y2="0.5" id="gradient_1">
      <stop offset="0%" stop-color="#FFBA10" />
      <stop offset="100%" stop-color="#FC7712" />
    </linearGradient>
  </defs>
  <path d="M0 59.9846L0 113L45.2997 113L45.2997 88.6078L55.7534 88.6078L55.7534 112.502L68.4472 112.502L68.4472 102.048L78.403 102.048L78.403 112.502L91.0968 112.502L91.0968 100.555L100.306 100.555L100.306 112.502L113 112.502L113 99.8083L101.053 99.8083L101.053 87.8613L88.3592 87.8613L88.3592 99.8083L80.02 99.8083L80.02 75.1675L68.4472 75.1675L68.4472 64.7138L80.3942 64.7138L80.3942 76.6608L93.088 76.6608L93.088 68.6961L100.306 68.6961L100.306 86.617L113 86.617L113 67.9496L105.035 67.9496L105.035 56.7491L113 56.7491L113 0L67.7003 0L67.7003 0.0834656L55.7534 0.0834656L55.7534 13.9382L45.2997 13.9382L45.2997 0L0 0L0 52.7664L7.96466 52.7664L7.96466 59.9846L0 59.9846ZM7.96466 7.96466L37.3346 7.96466L37.3346 37.3346L7.96466 37.3346L7.96466 7.96466ZM75.665 7.96466L105.035 7.96466L105.035 37.3346L75.665 37.3346L75.665 7.96466ZM31.2412 13.9588L13.9588 13.9588L13.9588 31.2412L31.2412 31.2412L31.2412 13.9588ZM99.0412 13.9588L81.7588 13.9588L81.7588 31.2412L99.0412 31.2412L99.0412 13.9588ZM67.7003 40.0726L56.4998 40.0726L56.4998 15.2663L67.7003 15.2663L67.7003 40.0726ZM55.7534 52.02L45.3315 52.02L45.3315 40.8194L55.7534 40.8194L55.7534 52.02ZM32.6377 45.2993L32.6377 52.7664L43.8064 52.7664L43.8064 64.7134L55.7534 64.7134L55.7534 75.914L45.2997 75.914L45.2997 67.7003L12.6938 67.7003L12.6938 64.7134L32.6058 64.7134L32.6058 52.0196L12.6938 52.0196L12.6938 45.2993L32.6377 45.2993ZM100.306 56.0023L93.4603 56.0023L93.4603 52.02L68.4468 52.02L68.4468 45.2997L100.306 45.2997L100.306 56.0023ZM56.4998 52.7664L66.5794 52.7664L66.5794 63.9669L56.4998 63.9669L56.4998 52.7664ZM37.3346 105.035L7.96466 105.035L7.96466 75.6654L37.3346 75.6654L37.3346 105.035ZM56.4998 76.6608L67.328 76.6608L67.328 87.8613L56.4998 87.8613L56.4998 76.6608ZM31.2412 81.7588L13.9588 81.7588L13.9588 99.0412L31.2412 99.0412L31.2412 81.7588Z" id="Combined-Shape" fill="url(#gradient_1)" fill-rule="evenodd" stroke="none" />
</svg>