<svg width="27" height="29" viewBox="0 0 27 29" fill="none" xmlns="http://www.w3.org/2000/svg">
<path fill-rule="evenodd" clip-rule="evenodd" d="M18.817 11.553C13.491 11.553 9.159 15.886 9.159 21.212C9.159 24.405 10.717 27.241 13.112 29H1.01501C0.455015 29 0 28.545 0 27.985V1.015C0 0.454999 0.455015 0 1.01501 0H18.328C18.889 0 19.343 0.454999 19.343 1.015V11.568C19.169 11.558 18.994 11.553 18.817 11.553ZM12.934 5.394H5.742C5.181 5.394 4.72699 5.849 4.72699 6.409C4.72699 6.97 5.181 7.425 5.742 7.425H12.934C13.495 7.425 13.949 6.97 13.949 6.409C13.949 5.849 13.495 5.394 12.934 5.394ZM12.934 10.788H5.742C5.181 10.788 4.72699 11.242 4.72699 11.803C4.72699 12.364 5.181 12.819 5.742 12.819H12.934C13.495 12.819 13.949 12.364 13.949 11.803C13.949 11.242 13.495 10.788 12.934 10.788ZM18.817 28.84C14.605 28.84 11.19 25.424 11.19 21.212C11.19 16.999 14.605 13.584 18.817 13.584C23.03 13.584 26.445 16.999 26.445 21.212C26.445 25.425 23.03 28.84 18.817 28.84ZM5.742 18.212H7.54001C8.10101 18.212 8.556 17.758 8.556 17.197C8.556 16.636 8.10101 16.182 7.54001 16.182H5.742C5.181 16.182 4.72699 16.636 4.72699 17.197C4.72699 17.758 5.181 18.212 5.742 18.212ZM16.556 17.935C16.289 17.935 16.027 18.044 15.838 18.233C15.649 18.422 15.54 18.684 15.54 18.951C15.54 19.218 15.649 19.48 15.838 19.669C16.027 19.858 16.289 19.966 16.556 19.966C16.824 19.966 17.085 19.858 17.275 19.669C17.464 19.48 17.571 19.218 17.571 18.951C17.571 18.684 17.464 18.422 17.275 18.233C17.085 18.044 16.823 17.935 16.556 17.935ZM21.783 19.682C22.179 19.286 22.179 18.643 21.783 18.246C21.386 17.85 20.743 17.85 20.347 18.246L15.852 22.741C15.455 23.138 15.455 23.781 15.852 24.177C16.05 24.376 16.31 24.475 16.57 24.475C16.83 24.475 17.09 24.375 17.288 24.177L21.783 19.682ZM21.078 24.488C21.345 24.488 21.607 24.379 21.796 24.19C21.985 24.002 22.094 23.741 22.094 23.473C22.094 23.205 21.985 22.944 21.796 22.755C21.607 22.566 21.345 22.457 21.078 22.457C20.811 22.457 20.549 22.566 20.361 22.755C20.171 22.944 20.063 23.205 20.063 23.473C20.063 23.741 20.171 24.002 20.361 24.19C20.549 24.379 20.811 24.488 21.078 24.488Z" fill="url(#paint0_linear_165_7)"/>
<defs>
<linearGradient id="paint0_linear_165_7" x1="13.2225" y1="0" x2="13.2225" y2="29" gradientUnits="userSpaceOnUse">
<stop stop-color="#FFBA10"/>
<stop offset="1" stop-color="#FC7712"/>
</linearGradient>
</defs>
</svg>
