<svg width="15" height="15" viewBox="0 0 15 15" fill="none" xmlns="http://www.w3.org/2000/svg">
<path d="M14.253 13.6545L10.685 9.9437C11.603 8.8532 12.105 7.4811 12.105 6.0526C12.105 2.7153 9.39001 0 6.05301 0C2.71501 0 0 2.7153 0 6.0526C0 9.39 2.71501 12.1053 6.05301 12.1053C7.30601 12.1053 8.49899 11.7274 9.51999 11.01L13.115 14.7489C13.266 14.905 13.468 14.9911 13.684 14.9911C13.889 14.9911 14.084 14.9129 14.231 14.7708C14.545 14.4689 14.555 13.9684 14.253 13.6545ZM6.05301 1.5789C8.51901 1.5789 10.526 3.5858 10.526 6.0526C10.526 8.5195 8.51901 10.5263 6.05301 10.5263C3.58601 10.5263 1.57901 8.5195 1.57901 6.0526C1.57901 3.5858 3.58601 1.5789 6.05301 1.5789Z" fill="white"/>
</svg>
