<svg width="13" height="18" viewBox="0 0 13 18" fill="none" xmlns="http://www.w3.org/2000/svg">
<path fill-rule="evenodd" clip-rule="evenodd" d="M0.828628 16.302H9.71179C10.1692 16.302 10.5404 15.9308 10.5404 15.4734V3.82863C10.5404 3.37125 10.1692 3 9.71179 3H3.7923V3.27412C3.79541 3.30232 3.797 3.33208 3.797 3.36185V5.63158C3.797 6.27538 3.27382 6.79857 2.63002 6.79857H0.360275C0.336776 6.79857 0.311721 6.797 0.288223 6.79543H0V15.4734C0 15.9308 0.371246 16.302 0.828628 16.302ZM2.63002 6.32864H0.360275C0.0485534 6.32864 -0.106522 5.9527 0.112777 5.7334L2.73029 3.11592C2.80234 3.04385 2.88849 3.01253 2.97464 3.01253C3.1532 3.01253 3.3255 3.15195 3.3255 3.36185V5.63942C3.32237 6.01849 3.01535 6.3255 2.63628 6.32864H2.63002ZM11.4505 4.698H11.0119V15.4734C11.0119 16.1892 10.4292 16.7719 9.71338 16.7719H1.7356V17.1714C1.7356 17.6288 2.10683 18 2.56423 18H11.4489C11.9063 18 12.2776 17.6288 12.2776 17.1714V5.52663C12.2776 5.06924 11.9079 4.698 11.4505 4.698ZM2.54073 8.58115H8.33492C8.55107 8.58115 8.72652 8.75659 8.72652 8.97275C8.72652 9.18892 8.55107 9.36435 8.33492 9.36435H2.54073C2.32457 9.36435 2.14913 9.18892 2.14913 8.97275C2.14913 8.75659 2.32457 8.58115 2.54073 8.58115ZM8.33492 11.4869H2.54073C2.32457 11.4869 2.14913 11.3114 2.14913 11.0953C2.14913 10.8791 2.32457 10.7037 2.54073 10.7037H8.33492C8.55107 10.7037 8.72652 10.8791 8.72652 11.0953C8.72652 11.3114 8.55107 11.4869 8.33492 11.4869ZM5.43704 13.4856H2.54073C2.32457 13.4856 2.14913 13.3102 2.14913 13.094C2.14913 12.8778 2.32457 12.7024 2.54073 12.7024H5.4386C5.65477 12.7024 5.8302 12.8778 5.8302 13.094C5.8302 13.3102 5.6532 13.4856 5.43704 13.4856Z" fill="white"/>
</svg>
