<?xml version="1.0" encoding="utf-8"?>
<svg width="17px" height="20px" viewBox="0 0 17 20" version="1.1" xmlns:xlink="http://www.w3.org/1999/xlink" xmlns="http://www.w3.org/2000/svg">
  <path d="M16.6475 1.20856C16.4547 1.08966 16.2148 -0.0322266 16.0127 0.0687866L13.6957 1.22729L11.3787 0.0687866C11.1953 -0.0229492 10.9787 -0.0229492 10.7953 0.0687866L8.47829 1.22723L6.16129 0.0687866C5.97784 -0.0229492 5.76132 -0.0229492 5.57788 0.0687866L3.26088 1.22723L0.943878 0.0687866C0.741806 -0.0320435 0.501877 -0.0214844 0.309097 0.0974121C0.117233 0.216248 0 0.425964 0 0.6521L0 18.0435C0 18.2906 0.139694 18.5162 0.360474 18.6268L2.96915 19.9312C3.15259 20.0229 3.36911 20.0229 3.55255 19.9312L5.86955 18.7726L8.18655 19.9312C8.37 20.0229 8.58652 20.0229 8.76996 19.9312L11.087 18.7726L13.404 19.9312C13.4957 19.9771 13.5959 20 13.6956 20C13.7954 20 13.8956 19.9771 13.9873 19.9312L16.596 18.6268C16.8168 18.5162 16.9565 18.2906 16.9565 18.0435L16.9565 0.652161C16.9566 0.426025 16.8394 1.32739 16.6475 1.20856ZM3.26088 3.91302L6.73914 3.91302C7.09917 3.91302 7.39133 4.20496 7.39133 4.56525C7.39133 4.92548 7.09917 5.21741 6.73914 5.21741L3.26088 5.21741C2.90083 5.21741 2.60869 4.92548 2.60869 4.56525C2.60869 4.20496 2.90083 3.91302 3.26088 3.91302ZM3.26088 6.52173L6.73914 6.52173C7.09917 6.52173 7.39133 6.81366 7.39133 7.17395C7.39133 7.53424 7.09917 7.82611 6.73914 7.82611L3.26088 7.82611C2.90083 7.82611 2.60869 7.53424 2.60869 7.17395C2.60869 6.81366 2.90083 6.52173 3.26088 6.52173ZM3.26088 9.13043L6.73914 9.13043C7.09917 9.13043 7.39133 9.42236 7.39133 9.78265C7.39133 10.1429 7.09917 10.4348 6.73914 10.4348L3.26088 10.4348C2.90083 10.4348 2.60869 10.1429 2.60869 9.78265C2.60869 9.42236 2.90083 9.13043 3.26088 9.13043ZM3.26088 11.7391L6.73914 11.7391C7.09917 11.7391 7.39133 12.0311 7.39133 12.3914C7.39133 12.7516 7.09917 13.0435 6.73914 13.0435L3.26088 13.0435C2.90083 13.0435 2.60869 12.7516 2.60869 12.3914C2.60869 12.0311 2.90083 11.7391 3.26088 11.7391ZM3.26088 16.087L1.95653 16.087C1.5965 16.087 1.30434 15.7951 1.30434 15.4348C1.30434 15.0745 1.5965 14.7826 1.95653 14.7826L3.26088 14.7826C3.62091 14.7826 3.91307 15.0745 3.91307 15.4348C3.91307 15.7951 3.62096 16.087 3.26088 16.087ZM7.1739 16.087L5.86955 16.087C5.50952 16.087 5.21736 15.7951 5.21736 15.4348C5.21736 15.0745 5.50952 14.7826 5.86955 14.7826L7.1739 14.7826C7.53394 14.7826 7.8261 15.0745 7.8261 15.4348C7.8261 15.7951 7.53401 16.087 7.1739 16.087ZM11.087 16.087L9.78262 16.087C9.42258 16.087 9.13043 15.7951 9.13043 15.4348C9.13043 15.0745 9.42258 14.7826 9.78262 14.7826L11.087 14.7826C11.447 14.7826 11.7392 15.0745 11.7392 15.4348C11.7392 15.7951 11.4471 16.087 11.087 16.087ZM12.6087 12.3913C12.6087 12.7516 12.3166 13.0435 11.9565 13.0435C11.5965 13.0435 11.3044 12.7516 11.3044 12.3913L11.3044 12.0812C10.3023 11.7963 9.5652 10.8749 9.5652 9.78265C9.5652 9.42236 9.85735 9.13043 10.2174 9.13043C10.5774 9.13043 10.8696 9.42236 10.8696 9.78265C10.8696 10.382 11.357 10.8696 11.9565 10.8696C12.5561 10.8696 13.0435 10.382 13.0435 9.78265C13.0435 9.35596 12.3361 8.98187 11.6517 8.6203C10.7223 8.12885 9.5652 7.51721 9.5652 6.30438C9.5652 5.21216 10.3022 4.29065 11.3044 4.0058L11.3044 3.69568C11.3044 3.33539 11.5965 3.04352 11.9565 3.04352C12.3166 3.04352 12.6087 3.33539 12.6087 3.69568L12.6087 4.0058C13.6108 4.29071 14.3479 5.21216 14.3479 6.30438C14.3479 6.66467 14.0557 6.95654 13.6957 6.95654C13.3356 6.95654 13.0435 6.66467 13.0435 6.30438C13.0435 5.70508 12.5561 5.21741 11.9565 5.21741C11.357 5.21741 10.8696 5.70508 10.8696 6.30438C10.8696 6.73126 11.577 7.10541 12.2614 7.4671C13.1909 7.95837 14.3479 8.56995 14.3479 9.78265C14.3479 10.8749 13.6108 11.7963 12.6087 12.0812L12.6087 12.3913ZM15 16.087L13.6957 16.087C13.3356 16.087 13.0435 15.7951 13.0435 15.4348C13.0435 15.0745 13.3356 14.7826 13.6957 14.7826L15 14.7826C15.3601 14.7826 15.6522 15.0745 15.6522 15.4348C15.6522 15.7951 15.3601 16.087 15 16.087Z" id="Shape" fill="#A2A2A2" stroke="none" />
</svg>