<?xml version="1.0" encoding="utf-8"?>
<svg width="21px" height="20px" viewBox="0 0 21 20" version="1.1" xmlns:xlink="http://www.w3.org/1999/xlink" xmlns="http://www.w3.org/2000/svg">
  <path d="M0 3.45172L0 4.98444L20.0208 4.98444L20.0208 3.45172L10.0104 0L0 3.45172ZM11.0829 1.76678L10.3679 1.76678C10.3679 1.56934 10.2078 1.4093 10.0104 1.4093C9.81296 1.4093 9.65288 1.56934 9.65288 1.76678C9.65288 1.96423 9.81296 2.12433 10.0104 2.12433C10.5322 2.12341 10.9785 2.49878 11.067 3.01306C11.1554 3.52728 10.86 4.03021 10.3679 4.20355L10.3679 4.62689L9.65288 4.62689L9.65288 4.20355C9.22588 4.05273 8.93976 3.64984 8.93785 3.19684L9.65288 3.19684C9.65288 3.39429 9.81296 3.55438 10.0104 3.55438C10.2078 3.55438 10.3679 3.39429 10.3679 3.19684C10.3679 2.99939 10.2078 2.83936 10.0104 2.83936C9.4886 2.84039 9.04224 2.4649 8.95374 1.95062C8.8654 1.43652 9.16077 0.933411 9.65288 0.760071L9.65288 0.336731L10.3679 0.336731L10.3679 0.760071C10.7949 0.911072 11.081 1.31396 11.0829 1.76678ZM18.2332 5.69946L18.2332 6.41449L1.78757 6.41449L1.78757 5.69946L18.2332 5.69946ZM1.78757 7.12952L3.21762 7.12952L3.21762 17.8549L1.78757 17.8549L1.78757 7.12952ZM16.0881 9.2746L16.0881 7.12952L3.93265 7.12952L3.93265 9.2746L16.0881 9.2746ZM16.8031 7.12952L18.2332 7.12952L18.2332 17.8549L16.8031 17.8549L16.8031 7.12952ZM16.0881 17.8549L11.798 17.8549L11.798 13.9222C11.798 13.7249 11.6379 13.5648 11.4404 13.5648L8.58034 13.5648C8.3829 13.5648 8.22282 13.7249 8.22282 13.9222L8.22282 17.8549L3.93265 17.8549L3.93265 9.98962L16.0881 9.98962L16.0881 17.8549ZM11.0829 14.2798L11.0829 17.8549L8.93785 17.8549L8.93785 14.2798L11.0829 14.2798ZM7.91994 20L8.1584 18.5699L0 18.5699L0 20L7.91994 20ZM8.88321 18.5699L8.8235 18.9274L11.1973 18.9274L11.1376 18.5699L8.88321 18.5699ZM12.1008 20L20.0208 20L20.0208 18.5699L11.8624 18.5699L12.1008 20ZM8.6451 20L8.70445 19.6425L11.3163 19.6425L11.3757 20L8.6451 20Z" id="Combined-Shape" fill="#A2A2A2" fill-rule="evenodd" stroke="none" />
</svg>