<?xml version="1.0" encoding="utf-8"?>
<svg width="19px" height="13px" viewBox="0 0 19 13" version="1.1" xmlns:xlink="http://www.w3.org/1999/xlink" xmlns="http://www.w3.org/2000/svg">
  <g id="booklet-text">
    <path d="M1.21128 0.209405C1.16069 0.202291 1.10957 0.198601 1.05924 0.198601C0.475115 0.198601 0 0.675209 0 1.261L0 11.2901C0 11.8158 0.392459 12.2679 0.912987 12.3417L5.51525 12.9946L5.51525 0.819878L1.21128 0.209405ZM4.68141 11.3315C4.65093 11.5513 4.46269 11.7105 4.24696 11.7105C4.22684 11.7105 4.20655 11.709 4.18609 11.7062L1.19336 11.2914C0.953128 11.258 0.78527 11.0363 0.818649 10.796C0.851939 10.5558 1.07382 10.3879 1.31397 10.4212L4.30669 10.836C4.54701 10.8695 4.71478 11.0913 4.68141 11.3315ZM0.818561 8.64114C0.851588 8.40081 1.07276 8.23216 1.31353 8.26589L3.67145 8.59001C3.91168 8.62304 4.07972 8.84457 4.04669 9.08489C4.01639 9.30492 3.82815 9.46435 3.61216 9.46435C3.59222 9.46435 3.5721 9.46295 3.55172 9.46014L1.1938 9.13601C0.953568 9.10299 0.785534 8.88137 0.818561 8.64114ZM4.68141 6.93005C4.65093 7.14982 4.46269 7.30899 4.24696 7.30899C4.22684 7.30899 4.20655 7.30758 4.18609 7.30477L1.19336 6.88991C0.953128 6.85653 0.78527 6.63483 0.818649 6.39451C0.851939 6.15436 1.07382 5.98641 1.31397 6.0197L4.30669 6.43456C4.54701 6.46803 4.71478 6.68973 4.68141 6.93005ZM4.68141 4.72928C4.65093 4.94905 4.46269 5.10821 4.24696 5.10821C4.22684 5.10821 4.20655 5.1068 4.18609 5.10391L1.19336 4.68896C0.953128 4.65567 0.78527 4.43397 0.818649 4.19364C0.851939 3.95341 1.07382 3.78441 1.31397 3.81893L4.30669 4.23387C4.54701 4.26725 4.71478 4.48895 4.68141 4.72928ZM4.68141 2.5285C4.65093 2.74827 4.46269 2.90743 4.24696 2.90743C4.22684 2.90743 4.20655 2.90603 4.18609 2.90313L1.19336 2.48818C0.953128 2.45489 0.78527 2.23319 0.818649 1.99286C0.851939 1.75263 1.07382 1.58389 1.31397 1.61815L4.30669 2.03309C4.54701 2.06647 4.71478 2.28826 4.68141 2.5285ZM17.3893 0.690318L12.7872 0.0375068L12.7872 12.2122L17.0911 12.8227C17.1417 12.8298 17.1929 12.8335 17.2432 12.8335C17.8272 12.8335 18.3023 12.3569 18.3023 11.7711L18.3023 1.742C18.3023 1.21638 17.9098 0.764189 17.3893 0.690318ZM17.4761 11.0787C17.4456 11.2985 17.2574 11.4577 17.0417 11.4577C17.0216 11.4577 17.0013 11.4563 16.9808 11.4534L13.9881 11.0386C13.7479 11.0052 13.58 10.7835 13.6134 10.5432C13.6467 10.303 13.8682 10.1353 14.1087 10.1684L17.1014 10.5832C17.3417 10.6167 17.5095 10.8385 17.4761 11.0787ZM13.6134 8.41021C13.6467 8.16997 13.8682 8.0022 14.1087 8.03541L15.9488 8.2904C16.189 8.32378 16.3568 8.54548 16.3235 8.7858C16.293 9.00557 16.1048 9.16474 15.8891 9.16474C15.869 9.16474 15.8487 9.16333 15.8282 9.16052L13.9881 8.90553C13.7479 8.87224 13.5801 8.65045 13.6134 8.41021ZM17.4761 6.81261C17.4456 7.03238 17.2574 7.19155 17.0417 7.19155C17.0216 7.19155 17.0013 7.19014 16.9808 7.18724L13.9881 6.7723C13.7479 6.73901 13.58 6.5173 13.6134 6.27698C13.6467 6.03674 13.8689 5.86827 14.1087 5.90226L17.1014 6.31721C17.3417 6.35059 17.5095 6.57229 17.4761 6.81261ZM13.6134 4.14401C13.6467 3.90378 13.8689 3.73522 14.1087 3.7693L15.0287 3.89684C15.2689 3.93013 15.4368 4.15183 15.4034 4.39216C15.3729 4.61193 15.1847 4.77109 14.969 4.77109C14.9489 4.77109 14.9286 4.76968 14.9081 4.76678L13.9881 4.63924C13.7479 4.60604 13.5801 4.38425 13.6134 4.14401ZM17.4761 2.54642C17.4456 2.76619 17.2574 2.92535 17.0417 2.92535C17.0216 2.92535 17.0013 2.92395 16.9808 2.92105L13.9881 2.5061C13.7479 2.47281 13.58 2.25111 13.6134 2.01078C13.6467 1.77055 13.8689 1.60199 14.1087 1.63607L17.1014 2.05101C17.3417 2.08439 17.5095 2.30618 17.4761 2.54642ZM6.39354 0.819878L6.39354 12.9946L11.9088 12.2123L11.9088 0.0375946L6.39354 0.819878ZM7.38014 2.20991C7.38014 1.99058 7.54193 1.80489 7.75924 1.77485L10.5648 1.3874C10.6908 1.37009 10.8177 1.40786 10.9134 1.4914C11.0092 1.57476 11.0641 1.69553 11.0641 1.82255L11.0641 6.30342C11.0641 6.52275 10.9023 6.70844 10.6849 6.73848L7.87941 7.12593C7.85938 7.12866 7.83926 7.13006 7.81932 7.13006C7.71392 7.13006 7.61124 7.09211 7.53078 7.02202C7.43503 6.93866 7.38014 6.81788 7.38014 6.69087L7.38014 2.20991ZM10.8723 11.0387L7.87958 11.4535C7.85912 11.4563 7.83882 11.4577 7.81871 11.4577C7.60289 11.4577 7.41466 11.2986 7.38426 11.0788C7.35097 10.8386 7.51874 10.6168 7.75898 10.5834L10.7517 10.1685C10.9924 10.1357 11.2138 10.303 11.247 10.5434C11.2804 10.7836 11.1126 11.0053 10.8723 11.0387ZM10.8723 9.04062L7.87958 9.45557C7.85912 9.45847 7.83882 9.45987 7.81871 9.45987C7.60289 9.45987 7.41474 9.30071 7.38426 9.08094C7.35097 8.8407 7.51874 8.61891 7.75898 8.58562L10.7517 8.17068C10.9919 8.13616 11.2137 8.30498 11.247 8.54539C11.2804 8.78563 11.1126 9.00733 10.8723 9.04062Z" id="Shape" fill="#FFFFFF" stroke="none" />
  </g>
</svg>