<svg width="19" height="19" viewBox="0 0 19 19" fill="none" xmlns="http://www.w3.org/2000/svg">
<path fill-rule="evenodd" clip-rule="evenodd" d="M9.44025 0C11.9618 0 14.3325 0.981968 16.1155 2.76498C17.8985 4.54799 18.8805 6.91871 18.8805 9.44025C18.8805 11.9618 17.8985 14.3325 16.1155 16.1155C14.3325 17.8985 11.9618 18.8805 9.44025 18.8805C6.91871 18.8805 4.54799 17.8985 2.76498 16.1155C0.981967 14.3325 0 11.9618 0 9.44025C0 6.91871 0.981967 4.54799 2.76498 2.76498C4.54799 0.981968 6.91871 0 9.44025 0ZM2.21256 9.44025C2.21256 13.4256 5.45491 16.6679 9.44025 16.6679C13.4256 16.6679 16.6679 13.4256 16.6679 9.44025C16.6679 5.45491 13.4256 2.21256 9.44025 2.21256C5.45491 2.21256 2.21256 5.45491 2.21256 9.44025ZM9.44025 3.34591C6.07987 3.34591 3.34591 6.07988 3.34591 9.44025C3.34591 12.8006 6.07987 15.5346 9.44025 15.5346C12.8006 15.5346 15.5346 12.8006 15.5346 9.44025C15.5346 6.07988 12.8006 3.34591 9.44025 3.34591ZM13.3297 9.99093H10.9952C10.7681 10.6307 10.1569 11.09 9.44025 11.09C8.53046 11.09 7.79047 10.3499 7.79047 9.44025C7.79047 8.72363 8.24981 8.11257 8.88956 7.88526V4.44859H9.99094V7.88526C10.4583 8.05119 10.8293 8.42219 10.9952 8.88956H13.3297V9.99093ZM9.5 8.84277C9.20343 8.84277 8.96226 9.08393 8.96226 9.38051C8.96226 9.67708 9.20343 9.91824 9.5 9.91824C9.79657 9.91824 10.0377 9.67708 10.0377 9.38051C10.0377 9.08393 9.79657 8.84277 9.5 8.84277Z" fill="url(#paint0_linear_26_21)"/>
<defs>
<linearGradient id="paint0_linear_26_21" x1="9.44025" y1="0" x2="9.44025" y2="18.8805" gradientUnits="userSpaceOnUse">
<stop stop-color="#FFBA10"/>
<stop offset="1" stop-color="#FC7712"/>
</linearGradient>
</defs>
</svg>
