<?xml version="1.0" encoding="utf-8"?>
<svg width="13px" height="13px" viewBox="0 0 13 13" version="1.1" xmlns:xlink="http://www.w3.org/1999/xlink" xmlns="http://www.w3.org/2000/svg">
  <g id="download">
    <path d="M8.9375 5.6875C9.09675 5.6875 9.24137 5.78013 9.30719 5.92556C9.373 6.071 9.34863 6.24162 9.243 6.36106L6.39925 9.61106C6.32206 9.69881 6.21075 9.75 6.09375 9.75C5.97675 9.75 5.86544 9.69963 5.78825 9.61106L2.9445 6.36106C2.83969 6.24081 2.81369 6.071 2.88031 5.92556C2.94613 5.78094 3.09075 5.6875 3.25 5.6875L4.875 5.6875L4.875 0.40625C4.875 0.182 5.057 0 5.28125 0L6.90625 0C7.1305 0 7.3125 0.182 7.3125 0.40625L7.3125 5.6875L8.9375 5.6875ZM10.5625 11.375L10.5625 8.9375L12.1875 8.9375L12.1875 12.1875C12.1875 12.6368 11.8243 13 11.375 13L0.8125 13C0.364 13 0 12.6368 0 12.1875L0 8.9375L1.625 8.9375L1.625 11.375L10.5625 11.375Z" id="Combined-Shape" fill="#FFFFFF" fill-rule="evenodd" stroke="none" />
  </g>
</svg>