<svg width="19" height="19" viewBox="0 0 19 19" fill="none" xmlns="http://www.w3.org/2000/svg">
<path fill-rule="evenodd" clip-rule="evenodd" d="M4.33839 8.2179C3.20795 7.43439 2.53036 6.96318 2.30557 6.80453C1.89576 6.52685 1.50891 6.14496 1.1454 5.65896C0.781858 5.17299 0.599998 4.72158 0.599998 4.30502C0.599998 3.78932 0.737157 3.35952 1.01147 3.01567C1.28582 2.67189 1.67754 2.5 2.18654 2.5H16.7833C17.2129 2.5 17.5849 2.65532 17.8989 2.96613C18.2129 3.27688 18.37 3.6505 18.37 4.08696C18.37 4.60927 18.2081 5.10851 17.884 5.58441C17.5602 6.06051 17.1569 6.46724 16.6743 6.80432C14.1887 8.53017 12.6417 9.6047 12.0336 10.0278C11.9675 10.0742 11.8269 10.1748 11.6122 10.3304C11.3972 10.4859 11.2188 10.6115 11.0767 10.7074C10.9345 10.8031 10.7626 10.9105 10.5611 11.0296C10.3596 11.1484 10.1693 11.2379 9.99088 11.2971C9.81235 11.3568 9.64703 11.3864 9.49501 11.3864H9.47503C9.32301 11.3864 9.15776 11.3568 8.97923 11.2971C8.80074 11.2379 8.61065 11.1485 8.409 11.0296C8.20727 10.9107 8.03541 10.8032 7.89325 10.7074C7.7512 10.6115 7.57267 10.4859 7.35782 10.3304C7.14299 10.175 7.00257 10.0742 6.93648 10.0278C6.33488 9.6047 5.46886 9.00142 4.33839 8.2179ZM12.4401 11.2876C13.5638 10.4742 15.2101 9.33346 17.3783 7.86568C17.7553 7.60788 18.0858 7.32006 18.37 7.00282V14.8777C18.37 15.3144 18.2148 15.6877 17.904 15.9986C17.5933 16.3095 17.2197 16.4649 16.7835 16.4649H2.18665C1.75031 16.4649 1.37672 16.3095 1.06604 15.9986C0.755287 15.6878 0.599998 15.3144 0.599998 14.8777V7.00282C0.890883 7.32677 1.22473 7.61458 1.60165 7.86568C3.99474 9.49221 5.63752 10.633 6.53004 11.2876C6.90681 11.5652 7.2126 11.7819 7.44722 11.9371C7.6819 12.0925 7.99432 12.2512 8.3843 12.4131C8.77427 12.5753 9.13792 12.6561 9.47507 12.6561H9.49515C9.83236 12.6561 10.1958 12.5753 10.5858 12.4131C10.9759 12.2512 11.2881 12.0925 11.5229 11.9371C11.7576 11.7819 12.0633 11.5652 12.4401 11.2876Z" fill="url(#paint0_linear_26_22)"/>
<defs>
<linearGradient id="paint0_linear_26_22" x1="9.485" y1="2.5" x2="9.485" y2="16.4649" gradientUnits="userSpaceOnUse">
<stop stop-color="#FFBA10"/>
<stop offset="1" stop-color="#FC7712"/>
</linearGradient>
</defs>
</svg>
