<?xml version="1.0" encoding="utf-8"?>
<svg width="32px" height="34px" viewBox="0 0 32 34" version="1.1" xmlns:xlink="http://www.w3.org/1999/xlink" xmlns="http://www.w3.org/2000/svg">
  <defs>
    <linearGradient x1="0.5" y1="0" x2="0.5" y2="1" id="gradient_1">
      <stop offset="0%" stop-color="#FFBA10" />
      <stop offset="100%" stop-color="#FC7712" />
    </linearGradient>
  </defs>
  <path d="M22.0615 13.5453C15.8176 13.5453 10.7377 18.6252 10.7377 24.8691C10.7377 28.6128 12.5642 31.9373 15.3725 34L1.19046 34C0.533012 34 0 33.467 0 32.8095L0 1.19046C0 0.533005 0.533012 0 1.19046 0L21.4878 0C22.1453 0 22.6783 0.533005 22.6783 1.19046L22.6783 13.5623C22.4741 13.5513 22.2685 13.5453 22.0615 13.5453ZM15.1641 6.32391L6.73225 6.32391C6.0748 6.32391 5.54179 6.85692 5.54179 7.51437C5.54179 8.17181 6.0748 8.70483 6.73225 8.70483L15.1641 8.70483C15.8215 8.70483 16.3545 8.17181 16.3545 7.51437C16.3545 6.85692 15.8215 6.32391 15.1641 6.32391ZM15.1641 12.6477L6.73225 12.6477C6.0748 12.6477 5.54168 13.1807 5.54179 13.8382C5.54179 14.4956 6.0748 15.0286 6.73225 15.0286L15.1641 15.0286C15.8215 15.0286 16.3545 14.4956 16.3545 13.8382C16.3545 13.1807 15.8215 12.6477 15.1641 12.6477ZM22.0616 33.8119C17.1227 33.8119 13.1188 29.808 13.1188 24.8691C13.1188 19.9301 17.1226 15.9264 22.0616 15.9264C27.0006 15.9264 31.0043 19.93 31.0043 24.8691C31.0043 29.8081 27.0006 33.8119 22.0616 33.8119ZM6.73225 21.3524L8.84015 21.3524C9.49759 21.3524 10.0306 20.8194 10.0306 20.162C10.0306 19.5045 9.49759 18.9715 8.84015 18.9715L6.73225 18.9715C6.0748 18.9715 5.54179 19.5045 5.54179 20.162C5.54179 20.8194 6.0748 21.3524 6.73225 21.3524ZM19.4102 21.0278C19.0971 21.0278 18.7899 21.1552 18.5685 21.3766C18.347 21.5981 18.2196 21.9052 18.2196 22.2183C18.2196 22.5314 18.347 22.8386 18.5685 23.0601C18.7899 23.2815 19.0971 23.4089 19.4102 23.4089C19.7245 23.4089 20.0304 23.2815 20.2531 23.0601C20.4746 22.8386 20.6007 22.5314 20.6007 22.2183C20.6007 21.9052 20.4746 21.5981 20.2531 21.3766C20.0304 21.1552 19.7233 21.0278 19.4102 21.0278ZM25.5383 23.0759C26.0032 22.611 26.0032 21.8571 25.5383 21.3923C25.0733 20.9275 24.3197 20.9275 23.8546 21.3923L18.5848 26.662C18.1199 27.1269 18.1199 27.8808 18.5848 28.3457C18.8173 28.5782 19.1219 28.6944 19.4267 28.6944C19.7314 28.6944 20.036 28.5781 20.2685 28.3457L25.5383 23.0759ZM24.7126 28.7102C25.0257 28.7102 25.3328 28.5828 25.5543 28.3613C25.7759 28.14 25.9032 27.834 25.9032 27.5196C25.9032 27.2064 25.7759 26.8994 25.5543 26.6778C25.3328 26.4563 25.0257 26.329 24.7126 26.329C24.3995 26.329 24.0923 26.4563 23.8709 26.6778C23.6483 26.8994 23.522 27.2064 23.522 27.5196C23.522 27.8338 23.6483 28.1398 23.8709 28.3613C24.0923 28.5828 24.3995 28.7102 24.7126 28.7102Z" id="Combined-Shape" fill="url(#gradient_1)" fill-rule="evenodd" stroke="none" />
</svg>