<svg width="19" height="18" viewBox="0 0 19 18" fill="none" xmlns="http://www.w3.org/2000/svg">
<path d="M14.25 0.533997C13.8946 0.177997 13.4731 0 12.9864 0H5.7974C5.3105 0 4.8894 0.177997 4.5336 0.533997C4.1779 0.888997 4 1.31 4 1.797V16.176C4 16.662 4.1779 17.084 4.5336 17.439C4.8894 17.795 5.3105 17.973 5.7974 17.973H12.9864C13.4731 17.973 13.8946 17.795 14.25 17.439C14.6058 17.084 14.7837 16.662 14.7837 16.176V1.797C14.7837 1.31 14.606 0.888997 14.25 0.533997ZM8.2686 1.797H10.5154C10.6652 1.797 10.7399 1.872 10.7399 2.022C10.7399 2.172 10.6652 2.24701 10.5154 2.24701H8.2686C8.1189 2.24701 8.044 2.172 8.044 2.022C8.0439 1.872 8.1188 1.797 8.2686 1.797ZM10.1855 16.969C9.9654 17.189 9.701 17.299 9.392 17.299C9.0831 17.299 8.8187 17.189 8.5987 16.969C8.3787 16.749 8.2686 16.484 8.2686 16.176C8.2686 15.867 8.3788 15.602 8.5987 15.382C8.8186 15.162 9.0832 15.052 9.392 15.052C9.701 15.052 9.9654 15.162 10.1855 15.382C10.4055 15.602 10.5154 15.867 10.5154 16.176C10.5154 16.485 10.4053 16.749 10.1855 16.969ZM13.436 13.929C13.436 14.051 13.3916 14.156 13.3025 14.245C13.2133 14.334 13.1083 14.378 12.9868 14.378H5.7974C5.6758 14.378 5.5705 14.334 5.4815 14.245C5.3926 14.156 5.3482 14.051 5.3482 13.929V4.04401C5.3482 3.92201 5.3926 3.817 5.4815 3.728C5.5705 3.639 5.6758 3.595 5.7974 3.595H12.9864C13.1083 3.595 13.2134 3.639 13.3025 3.728C13.3916 3.817 13.4358 3.92201 13.4358 4.04401V13.929H13.436Z" fill="url(#paint0_linear_26_4)"/>
<defs>
<linearGradient id="paint0_linear_26_4" x1="9.39185" y1="0" x2="9.39185" y2="17.973" gradientUnits="userSpaceOnUse">
<stop stop-color="#FFBA10"/>
<stop offset="1" stop-color="#FC7712"/>
</linearGradient>
</defs>
</svg>
