<svg width="19" height="17" viewBox="0 0 19 17" fill="none" xmlns="http://www.w3.org/2000/svg">
<g clip-path="url(#clip0_26_24)">
<path fill-rule="evenodd" clip-rule="evenodd" d="M18.5877 7.70411C18.9617 7.36373 19.0937 6.86417 18.9324 6.39978C18.7707 5.9354 18.3495 5.6039 17.8321 5.53355L13.2317 4.90927C13.0357 4.88262 12.8664 4.76786 12.7789 4.60193L10.7222 0.709192C10.4913 0.27181 10.0226 0 9.50019 0C8.97821 0 8.50949 0.27181 8.27856 0.709192L6.22145 4.60229C6.13395 4.76821 5.96427 4.88298 5.76834 4.90963L1.16791 5.5339C0.650875 5.6039 0.229334 5.93575 0.0676415 6.40014C-0.0936702 6.86452 0.0383467 7.36408 0.412331 7.70447L3.74091 10.7345C3.88281 10.8639 3.94787 11.05 3.91439 11.232L3.12914 15.5106C3.05952 15.8872 3.16528 16.2535 3.42627 16.5424C3.83183 16.9925 4.53986 17.1297 5.10597 16.8518L9.22018 14.8316C9.39214 14.7474 9.60862 14.7481 9.7802 14.8316L13.8948 16.8518C14.0949 16.9503 14.3083 17 14.5286 17C14.9308 17 15.312 16.833 15.5741 16.5424C15.8355 16.2535 15.9409 15.8865 15.8712 15.5106L15.0856 11.232C15.0521 11.0497 15.1172 10.8639 15.2591 10.7345L18.5877 7.70411Z" fill="url(#paint0_linear_26_24)"/>
</g>
<defs>
<linearGradient id="paint0_linear_26_24" x1="9.50002" y1="0" x2="9.50002" y2="17" gradientUnits="userSpaceOnUse">
<stop stop-color="#FFBA10"/>
<stop offset="1" stop-color="#FC7712"/>
</linearGradient>
<clipPath id="clip0_26_24">
<rect width="19" height="17" fill="white"/>
</clipPath>
</defs>
</svg>
