<?xml version="1.0" encoding="utf-8"?>
<svg width="14px" height="15px" viewBox="0 0 14 15" version="1.1" xmlns:xlink="http://www.w3.org/1999/xlink" xmlns="http://www.w3.org/2000/svg">
  <path d="M11.183 10.6031C10.6168 10.6031 10.11 10.8275 9.72394 11.1812L4.40688 8.05748C4.44525 7.88435 4.47495 7.70998 4.47495 7.52998C4.47495 7.34998 4.44463 7.17622 4.40688 7.00247L9.66389 3.9081C10.0648 4.2831 10.5951 4.51746 11.183 4.51746C12.4223 4.51746 13.4211 3.51057 13.4211 2.25871C13.4211 1.00937 12.4217 0 11.183 0C9.94606 0 8.94676 1.00937 8.94676 2.25812C8.94676 2.4406 8.97708 2.61186 9.01483 2.78561L3.75778 5.88249C3.3562 5.50563 2.82655 5.27187 2.23808 5.27187C0.998703 5.27187 0 6.28062 0 7.52998C0 8.77933 0.998703 9.78873 2.23808 9.78873C2.8259 9.78873 3.3562 9.55434 3.75716 9.17935L9.06491 12.31C9.02841 12.4694 9.00549 12.6356 9.00549 12.8012C9.00549 14.0137 9.98375 15 11.1823 15C12.3821 15 13.361 14.0144 13.361 12.8012C13.361 11.5881 12.3828 10.6031 11.183 10.6031Z" id="Path" fill="#FFFFFF" fill-rule="evenodd" stroke="none" />
</svg>