<svg width="14" height="18" viewBox="0 0 14 18" fill="none" xmlns="http://www.w3.org/2000/svg">
<path fill-rule="evenodd" clip-rule="evenodd" d="M10.999 3H13.001C13.0666 3 13.1316 3.0064 13.1959 3.0192C13.2602 3.03199 13.3227 3.05094 13.3833 3.07604C13.4439 3.10115 13.5015 3.13192 13.556 3.16836C13.6105 3.2048 13.661 3.24622 13.7074 3.2926C13.7538 3.33898 13.7952 3.38944 13.8316 3.44398C13.8681 3.49853 13.8989 3.5561 13.924 3.6167C13.9491 3.6773 13.968 3.73977 13.9808 3.8041C13.9936 3.86844 14 3.9334 14 3.999V16.001C14 16.0666 13.9936 16.1316 13.9808 16.1959C13.968 16.2602 13.9491 16.3227 13.924 16.3833C13.8989 16.4439 13.8681 16.5015 13.8316 16.556C13.7952 16.6105 13.7538 16.661 13.7074 16.7074C13.661 16.7538 13.6105 16.7952 13.556 16.8316C13.5015 16.8681 13.4439 16.8989 13.3833 16.924C13.3227 16.9491 13.2602 16.968 13.1959 16.9808C13.1316 16.9936 13.0666 17 13.001 17H10.999C10.9334 17 10.8684 16.9936 10.8041 16.9808C10.7398 16.968 10.6773 16.9491 10.6167 16.924C10.5561 16.8989 10.4985 16.8681 10.444 16.8316C10.3895 16.7952 10.339 16.7538 10.2926 16.7074C10.2462 16.661 10.2048 16.6105 10.1684 16.556C10.1319 16.5015 10.1011 16.4439 10.076 16.3833C10.0509 16.3227 10.032 16.2602 10.0192 16.1959C10.0064 16.1316 10 16.0666 10 16.001V3.999C10 3.9334 10.0064 3.86844 10.0192 3.8041C10.032 3.73977 10.0509 3.6773 10.076 3.6167C10.1011 3.5561 10.1319 3.49853 10.1684 3.44398C10.2048 3.38944 10.2462 3.33898 10.2926 3.2926C10.339 3.24622 10.3895 3.2048 10.444 3.16836C10.4985 3.13192 10.5561 3.10115 10.6167 3.07604C10.6773 3.05094 10.7398 3.03199 10.8041 3.0192C10.8684 3.0064 10.9334 3 10.999 3Z" fill="white"/>
<path fill-rule="evenodd" clip-rule="evenodd" d="M5.999 7H8.001C8.06659 7 8.13156 7.0064 8.19589 7.0192C8.26023 7.03199 8.3227 7.05094 8.3833 7.07604C8.4439 7.10115 8.50147 7.13192 8.55601 7.16836C8.61056 7.20481 8.66102 7.24622 8.7074 7.2926C8.75378 7.33898 8.79519 7.38944 8.83164 7.44398C8.86808 7.49853 8.89885 7.5561 8.92395 7.6167C8.94906 7.6773 8.96801 7.73977 8.9808 7.8041C8.9936 7.86844 9 7.93341 9 7.999V16.001C9 16.0666 8.9936 16.1316 8.9808 16.1959C8.96801 16.2602 8.94906 16.3227 8.92395 16.3833C8.89885 16.4439 8.86808 16.5015 8.83164 16.556C8.79519 16.6105 8.75378 16.661 8.7074 16.7074C8.66102 16.7538 8.61056 16.7952 8.55601 16.8316C8.50147 16.8681 8.4439 16.8989 8.3833 16.924C8.3227 16.9491 8.26023 16.968 8.19589 16.9808C8.13156 16.9936 8.06659 17 8.001 17H5.999C5.93341 17 5.86844 16.9936 5.8041 16.9808C5.73977 16.968 5.6773 16.9491 5.6167 16.924C5.5561 16.8989 5.49853 16.8681 5.44399 16.8316C5.38944 16.7952 5.33898 16.7538 5.2926 16.7074C5.24622 16.661 5.20481 16.6105 5.16836 16.556C5.13192 16.5015 5.10115 16.4439 5.07604 16.3833C5.05094 16.3227 5.03199 16.2602 5.0192 16.1959C5.0064 16.1316 5 16.0666 5 16.001V7.999C5 7.93341 5.0064 7.86844 5.0192 7.8041C5.03199 7.73977 5.05094 7.6773 5.07604 7.6167C5.10115 7.5561 5.13192 7.49853 5.16836 7.44398C5.20481 7.38944 5.24622 7.33898 5.2926 7.2926C5.33898 7.24622 5.38944 7.20481 5.44399 7.16836C5.49853 7.13192 5.5561 7.10115 5.6167 7.07604C5.6773 7.05094 5.73977 7.03199 5.8041 7.0192C5.86844 7.0064 5.93341 7 5.999 7Z" fill="white"/>
<path fill-rule="evenodd" clip-rule="evenodd" d="M0.999 11H3.001C3.06659 11 3.13156 11.0064 3.19589 11.0192C3.26023 11.032 3.3227 11.0509 3.3833 11.076C3.4439 11.1011 3.50147 11.1319 3.55601 11.1684C3.61056 11.2048 3.66102 11.2462 3.7074 11.2926C3.75378 11.339 3.79519 11.3894 3.83164 11.444C3.86808 11.4985 3.89885 11.5561 3.92396 11.6167C3.94906 11.6773 3.96801 11.7398 3.9808 11.8041C3.9936 11.8684 4 11.9334 4 11.999V16.001C4 16.0666 3.9936 16.1316 3.9808 16.1959C3.96801 16.2602 3.94906 16.3227 3.92396 16.3833C3.89885 16.4439 3.86808 16.5015 3.83164 16.556C3.79519 16.6105 3.75378 16.661 3.7074 16.7074C3.66102 16.7538 3.61056 16.7952 3.55601 16.8316C3.50147 16.8681 3.4439 16.8989 3.3833 16.924C3.3227 16.9491 3.26023 16.968 3.19589 16.9808C3.13156 16.9936 3.06659 17 3.001 17H0.999C0.933405 17 0.86844 16.9936 0.804105 16.9808C0.73977 16.968 0.677301 16.9491 0.616699 16.924C0.556097 16.8989 0.498526 16.8681 0.443985 16.8316C0.389445 16.7952 0.338983 16.7538 0.2926 16.7074C0.246217 16.661 0.204805 16.6105 0.168362 16.556C0.131919 16.5015 0.101147 16.4439 0.0760443 16.3833C0.0509421 16.3227 0.0319925 16.2602 0.0191955 16.1959C0.0063985 16.1316 0 16.0666 0 16.001V11.999C0 11.9334 0.0063985 11.8684 0.0191955 11.8041C0.0319925 11.7398 0.0509421 11.6773 0.0760443 11.6167C0.101147 11.5561 0.131919 11.4985 0.168362 11.444C0.204805 11.3894 0.246217 11.339 0.2926 11.2926C0.338983 11.2462 0.389445 11.2048 0.443985 11.1684C0.498526 11.1319 0.556097 11.1011 0.616699 11.076C0.677301 11.0509 0.73977 11.032 0.804105 11.0192C0.86844 11.0064 0.933405 11 0.999 11Z" fill="white"/>
</svg>
