<?xml version="1.0" encoding="utf-8"?>
<svg width="28px" height="24px" viewBox="0 0 28 24" version="1.1" xmlns:xlink="http://www.w3.org/1999/xlink" xmlns="http://www.w3.org/2000/svg">
  <defs>
    <linearGradient x1="0.5" y1="0" x2="0.5" y2="1" id="gradient_1">
      <stop offset="0%" stop-color="#FFBA10" />
      <stop offset="100%" stop-color="#FC7712" />
    </linearGradient>
  </defs>
  <g id="wallet-copy">
    <path d="M2.38938 0C1.06975 0 0 1.15126 0 2.57143C0 3.9916 1.06975 5.14286 2.38938 5.14286L24 5.14286L24 0L2.38938 0ZM27.4286 11.4921L21.8036 11.4921C19.5882 11.4921 17.7857 13.2457 17.7857 15.4009C17.7857 17.556 19.5882 19.3096 21.8036 19.3096L27.4286 19.3096L27.4286 24L4.01786 24C1.79882 24 0 22.2499 0 20.0913L0 6C0.673607 6.49604 1.50279 6.8017 2.41071 6.8017L27.4286 6.8017L27.4286 11.4921ZM22.0286 12.8571C20.7524 12.8571 19.7143 14.0106 19.7143 15.4286C19.7143 16.8465 20.7524 18 22.0286 18L27.4286 18L27.4286 12.8571L22.0286 12.8571ZM22.8 16.2857L21.2571 16.2857L21.2571 14.5714L22.8 14.5714L22.8 16.2857Z" id="Combined-Shape" fill="url(#gradient_1)" fill-rule="evenodd" stroke="none" />
  </g>
</svg>