<svg width="19" height="19" viewBox="0 0 19 19" fill="none" xmlns="http://www.w3.org/2000/svg">
<path fill-rule="evenodd" clip-rule="evenodd" d="M9.49726 4.57764e-05C4.25206 4.57764e-05 0 4.25207 0 9.49727C0 14.7425 4.25206 18.9945 9.49726 18.9945C11.6034 18.9945 13.549 18.3085 15.124 17.1483C15.0402 17.1427 14.9584 17.1059 14.8979 17.0384L13.3424 15.3L12.5047 16.5857L11.813 13.0911L15.3703 14.1977L13.8391 14.8556L15.3946 16.594C15.4668 16.6745 15.4913 16.7803 15.4723 16.8789C17.6208 15.1377 18.9945 12.4781 18.9945 9.49723C18.9945 4.25207 14.7425 4.57764e-05 9.49726 4.57764e-05Z" fill="url(#paint0_linear_26_25)"/>
<path fill-rule="evenodd" clip-rule="evenodd" d="M3.54701 10.1699L3.6341 10.6537L3.64375 10.657L3.75022 10.1699L4.45345 7.93752H4.93734L5.64061 10.1699L5.75352 10.6989H5.76318L5.87285 10.1699L6.43741 7.93752H7.031L6.01806 11.428H5.53414L4.8438 9.27629L4.69219 8.65365H4.68253L4.53737 9.27629L3.85993 11.428H3.37281L2.35986 7.93752H2.95666L3.54701 10.1699ZM8.54726 10.1699L8.63434 10.6537L8.644 10.657L8.75047 10.1699L9.4537 7.93752H9.93762L10.6409 10.1699L10.7537 10.6989H10.7635L10.8731 10.1699L11.4377 7.93752H12.0312L11.0183 11.428H10.5344L9.84401 9.27629L9.69239 8.65365H9.68274L9.53754 9.27629L8.8601 11.428H8.37298L7.36003 7.93752H7.95683L8.54726 10.1699ZM13.5475 10.1699L13.6346 10.6537L13.6443 10.657L13.7507 10.1699L14.454 7.93752H14.9379L15.6412 10.1699L15.7541 10.6989H15.7637L15.8734 10.1699L16.438 7.93752H17.0315L16.0186 11.428H15.5347L14.8444 9.27629L14.6928 8.65365H14.6831L14.5379 9.27629L13.8604 11.428H13.3733L12.3604 7.93752H12.9572L13.5475 10.1699Z" fill="white"/>
<defs>
<linearGradient id="paint0_linear_26_25" x1="9.49725" y1="4.57764e-05" x2="9.49725" y2="18.9945" gradientUnits="userSpaceOnUse">
<stop stop-color="#FFBA10"/>
<stop offset="1" stop-color="#FC7712"/>
</linearGradient>
</defs>
</svg>
