<svg width="14" height="14" viewBox="0 0 14 14" fill="none" xmlns="http://www.w3.org/2000/svg">
<path fill-rule="evenodd" clip-rule="evenodd" d="M1.75 2.18799V0.437012C1.75 0.196012 1.946 0 2.188 0C2.429 0 2.625 0.196012 2.625 0.437012V2.18799C2.625 2.42899 2.429 2.625 2.188 2.625C1.946 2.625 1.75 2.42899 1.75 2.18799Z" fill="#C5C5C5"/>
<path fill-rule="evenodd" clip-rule="evenodd" d="M9.18751 2.625C9.42931 2.625 9.62501 2.42899 9.62501 2.18799V0.437012C9.62501 0.196012 9.42931 0 9.18751 0C8.94571 0 8.74991 0.196012 8.74991 0.437012V2.18799C8.74991 2.42899 8.94571 2.625 9.18751 2.625Z" fill="#C5C5C5"/>
<path fill-rule="evenodd" clip-rule="evenodd" d="M14 10.5C14 12.433 12.4329 14 10.5 14C8.5672 14 7 12.433 7 10.5C7 8.567 8.5672 7 10.5 7C12.4329 7 14 8.567 14 10.5Z" fill="#C5C5C5"/>
<path fill-rule="evenodd" clip-rule="evenodd" d="M13.125 10.5C13.125 9.053 11.9475 7.875 10.5 7.875C9.0525 7.875 7.875 9.053 7.875 10.5C7.875 11.948 9.0525 13.125 10.5 13.125C11.9475 13.125 13.125 11.948 13.125 10.5Z" fill="white"/>
<path fill-rule="evenodd" clip-rule="evenodd" d="M3.5 5.25H1.75V7H3.5V5.25Z" fill="#C5C5C5"/>
<path fill-rule="evenodd" clip-rule="evenodd" d="M1.75 9.625H3.5V7.875H1.75V9.625Z" fill="#C5C5C5"/>
<path fill-rule="evenodd" clip-rule="evenodd" d="M4.375 7H6.125V5.25H4.375V7Z" fill="#C5C5C5"/>
<path fill-rule="evenodd" clip-rule="evenodd" d="M4.375 9.625H6.125V7.875H4.375V9.625Z" fill="#C5C5C5"/>
<path fill-rule="evenodd" clip-rule="evenodd" d="M0.875 10.413V4.375H10.5V6.125H11.375V2.71201C11.375 2.18101 10.9511 1.75 10.4274 1.75H10.0625V2.18799C10.0625 2.66899 9.6702 3.06299 9.1876 3.06299C8.7048 3.06299 8.3126 2.66899 8.3126 2.18799V1.75H3.062V2.18799C3.062 2.66899 2.67 3.06299 2.188 3.06299C1.705 3.06299 1.313 2.66899 1.313 2.18799V1.75H0.947998C0.423998 1.75 0 2.18101 0 2.71201V10.413C0 10.943 0.423998 11.375 0.947998 11.375H6.125V10.5H0.947998C0.907998 10.5 0.875 10.459 0.875 10.413Z" fill="#C5C5C5"/>
<path fill-rule="evenodd" clip-rule="evenodd" d="M8.7499 7V5.25H7V7H8.7499Z" fill="#C5C5C5"/>
<path fill-rule="evenodd" clip-rule="evenodd" d="M11.8124 10.5H10.4999V9.18701C10.4999 8.94601 10.3042 8.75 10.0624 8.75C9.8205 8.75 9.625 8.94601 9.625 9.18701V10.938C9.625 11.179 9.8205 11.375 10.0624 11.375H11.8124C12.0543 11.375 12.2499 11.179 12.2499 10.938C12.2499 10.696 12.0543 10.5 11.8124 10.5Z" fill="#C5C5C5"/>
</svg>
