<svg width="184" height="185" viewBox="0 0 184 185" fill="none" xmlns="http://www.w3.org/2000/svg">
<path fill-rule="evenodd" clip-rule="evenodd" d="M39.8297 0H143.17C143.839 0 144.506 0.0163937 145.174 0.0491811C145.841 0.0819685 146.507 0.13111 147.172 0.196606C147.837 0.262102 148.5 0.343873 149.161 0.441919C149.822 0.539966 150.48 0.65417 151.136 0.78453C151.791 0.914892 152.443 1.06125 153.091 1.22362C153.739 1.38598 154.383 1.56414 155.023 1.75811C155.662 1.95208 156.296 2.16163 156.925 2.38674C157.555 2.61185 158.178 2.85226 158.795 3.10797C159.413 3.36369 160.023 3.63439 160.627 3.92009C161.231 4.20578 161.828 4.50612 162.417 4.82113C163.007 5.13611 163.588 5.46536 164.161 5.80889C164.734 6.15242 165.298 6.50981 165.854 6.88106C166.41 7.25229 166.956 7.63692 167.492 8.03496C168.029 8.43303 168.556 8.84401 169.072 9.26792C169.589 9.69183 170.095 10.1282 170.59 10.5769C171.085 11.0256 171.569 11.4862 172.041 11.9587C172.514 12.4312 172.974 12.915 173.423 13.4102C173.872 13.9053 174.308 14.4111 174.732 14.9276C175.156 15.4442 175.567 15.9708 175.965 16.5075C176.363 17.0442 176.748 17.5903 177.119 18.1459C177.49 18.7015 177.847 19.2659 178.191 19.839C178.535 20.4122 178.864 20.9934 179.179 21.5827C179.494 22.172 179.794 22.7687 180.08 23.3728C180.366 23.9768 180.636 24.5875 180.892 25.2048C181.148 25.8222 181.388 26.4455 181.613 27.0746C181.838 27.7038 182.048 28.338 182.242 28.9775C182.436 29.6169 182.614 30.2607 182.777 30.9089C182.939 31.5571 183.085 32.2089 183.216 32.8642C183.346 33.5196 183.46 34.1778 183.558 34.8388C183.656 35.4997 183.738 36.1627 183.803 36.8276C183.869 37.4927 183.918 38.1589 183.951 38.8262C183.984 39.4936 184 40.1615 184 40.8297V144.17C184 144.839 183.984 145.506 183.951 146.174C183.918 146.841 183.869 147.507 183.803 148.172C183.738 148.837 183.656 149.5 183.558 150.161C183.46 150.822 183.346 151.48 183.216 152.136C183.085 152.791 182.939 153.443 182.777 154.091C182.614 154.739 182.436 155.383 182.242 156.023C182.048 156.662 181.838 157.296 181.613 157.925C181.388 158.555 181.148 159.178 180.892 159.795C180.636 160.413 180.366 161.023 180.08 161.627C179.794 162.231 179.494 162.828 179.179 163.417C178.864 164.007 178.535 164.588 178.191 165.161C177.847 165.734 177.49 166.298 177.119 166.854C176.748 167.41 176.363 167.956 175.965 168.492C175.567 169.029 175.156 169.556 174.732 170.072C174.308 170.589 173.872 171.095 173.423 171.59C172.974 172.085 172.514 172.569 172.041 173.041C171.569 173.514 171.085 173.974 170.59 174.423C170.095 174.872 169.589 175.308 169.072 175.732C168.556 176.156 168.029 176.567 167.492 176.965C166.956 177.363 166.41 177.748 165.854 178.119C165.298 178.49 164.734 178.847 164.161 179.191C163.588 179.535 163.007 179.864 162.417 180.179C161.828 180.494 161.231 180.794 160.627 181.08C160.023 181.366 159.413 181.636 158.795 181.892C158.178 182.148 157.555 182.388 156.925 182.613C156.296 182.838 155.662 183.048 155.023 183.242C154.383 183.436 153.739 183.614 153.091 183.777C152.443 183.939 151.791 184.085 151.136 184.216C150.48 184.346 149.822 184.46 149.161 184.558C148.5 184.656 147.837 184.738 147.172 184.803C146.507 184.869 145.841 184.918 145.174 184.951C144.506 184.984 143.839 185 143.17 185H39.8297C39.1615 185 38.4936 184.984 37.8262 184.951C37.1589 184.918 36.4927 184.869 35.8276 184.803C35.1627 184.738 34.4997 184.656 33.8388 184.558C33.1778 184.46 32.5196 184.346 31.8642 184.216C31.2089 184.085 30.5571 183.939 29.9089 183.776C29.2607 183.614 28.6169 183.436 27.9775 183.242C27.338 183.048 26.7038 182.838 26.0746 182.613C25.4455 182.388 24.8222 182.148 24.2048 181.892C23.5875 181.636 22.9768 181.366 22.3728 181.08C21.7687 180.794 21.172 180.494 20.5827 180.179C19.9934 179.864 19.4122 179.535 18.839 179.191C18.2659 178.847 17.7015 178.49 17.1459 178.119C16.5903 177.748 16.0442 177.363 15.5075 176.965C14.9708 176.567 14.4442 176.156 13.9276 175.732C13.4111 175.308 12.9053 174.872 12.4102 174.423C11.915 173.974 11.4312 173.514 10.9587 173.041C10.4862 172.569 10.0256 172.085 9.57691 171.59C9.12816 171.095 8.69183 170.589 8.26792 170.072C7.84401 169.556 7.43304 169.029 7.035 168.492C6.63693 167.956 6.25229 167.41 5.88106 166.854C5.50981 166.298 5.15242 165.734 4.80889 165.161C4.46536 164.588 4.13611 164.007 3.82113 163.417C3.50612 162.828 3.20578 162.231 2.92009 161.627C2.63439 161.023 2.36369 160.413 2.10798 159.795C1.85226 159.178 1.61185 158.555 1.38674 157.925C1.16163 157.296 0.952085 156.662 0.758114 156.023C0.564144 155.383 0.385978 154.739 0.223616 154.091C0.0612544 153.443 -0.0851076 152.791 -0.21547 152.136C-0.34583 151.48 -0.460034 150.822 -0.55808 150.161C-0.656127 149.5 -0.737898 148.837 -0.803394 148.172C-0.86889 147.507 -0.918032 146.841 -0.950819 146.174C-0.983606 145.506 -1 144.839 -1 144.17V40.8297C-1 40.1615 -0.983606 39.4936 -0.950819 38.8262C-0.918032 38.1589 -0.86889 37.4927 -0.803394 36.8276C-0.737898 36.1627 -0.656127 35.4997 -0.55808 34.8388C-0.460034 34.1778 -0.34583 33.5196 -0.21547 32.8642C-0.0851076 32.2089 0.0612544 31.5571 0.223616 30.9089C0.385978 30.2607 0.564144 29.6169 0.758114 28.9775C0.952085 28.338 1.16163 27.7038 1.38674 27.0746C1.61185 26.4455 1.85226 25.8222 2.10798 25.2048C2.36369 24.5875 2.63439 23.9768 2.92009 23.3728C3.20578 22.7687 3.50612 22.172 3.82113 21.5827C4.13611 20.9934 4.46536 20.4122 4.80889 19.839C5.15242 19.2659 5.50981 18.7015 5.88106 18.1459C6.25229 17.5903 6.63693 17.0442 7.035 16.5075C7.43304 15.9708 7.84401 15.4442 8.26792 14.9276C8.69183 14.4111 9.12816 13.9053 9.57691 13.4102C10.0256 12.915 10.4862 12.4312 10.9587 11.9587C11.4312 11.4862 11.915 11.0256 12.4102 10.5769C12.9053 10.1282 13.4111 9.69183 13.9276 9.26792C14.4442 8.84401 14.9708 8.43303 15.5075 8.03496C16.0442 7.63692 16.5903 7.25229 17.1459 6.88106C17.7015 6.50981 18.2659 6.15242 18.839 5.80889C19.4122 5.46536 19.9934 5.13611 20.5827 4.82113C21.172 4.50612 21.7687 4.20578 22.3728 3.92009C22.9768 3.63439 23.5875 3.36369 24.2048 3.10797C24.8222 2.85226 25.4455 2.61185 26.0746 2.38674C26.7038 2.16163 27.338 1.95208 27.9775 1.75811C28.6169 1.56414 29.2607 1.38598 29.9089 1.22362C30.5571 1.06125 31.2089 0.914892 31.8642 0.78453C32.5196 0.65417 33.1778 0.539966 33.8388 0.441919C34.4997 0.343873 35.1627 0.262102 35.8276 0.196606C36.4927 0.13111 37.1589 0.0819685 37.8262 0.0491811C38.4936 0.0163937 39.1615 0 39.8297 0Z" fill="url(#paint0_linear_99_6)"/>
<path d="M106.709 106.617V123.63H128.998V43.3037H105.74C105.237 43.3037 104.34 43.4114 103.048 43.6267C101.756 43.8421 100.213 44.4523 98.418 45.4572C96.6234 46.4622 94.6673 47.9876 92.5497 50.0334C90.432 52.0793 88.2606 54.9327 86.0353 58.5937L47.0566 123.63H72.3604L82.0513 106.617H106.709ZM90.2346 92.0808L107.14 61.8239V92.0808H90.2346Z" fill="white"/>
<defs>
<linearGradient id="paint0_linear_99_6" x1="91.5" y1="0" x2="91.5" y2="185" gradientUnits="userSpaceOnUse">
<stop stop-color="#FFBA10"/>
<stop offset="1" stop-color="#FE6000"/>
</linearGradient>
</defs>
</svg>
