<svg width="15" height="18" viewBox="0 0 15 18" fill="none" xmlns="http://www.w3.org/2000/svg">
<g clip-path="url(#clip0_62_13)">
<path fill-rule="evenodd" clip-rule="evenodd" d="M14.3683 8.30301L10.2191 4.15399C10.1164 4.05099 9.9949 4 9.8544 4C9.7139 4 9.5923 4.05099 9.4897 4.15399C9.3871 4.25699 9.3357 4.37801 9.3357 4.51901V6.59299H7.5204C3.6682 6.59299 1.3047 7.68201 0.429401 9.85901C0.143101 10.583 0 11.483 0 12.558C0 13.455 0.343102 14.673 1.0292 16.213C1.0454 16.251 1.0736 16.315 1.1142 16.407C1.1548 16.499 1.1912 16.58 1.2236 16.65C1.2561 16.72 1.2913 16.78 1.3291 16.828C1.3938 16.92 1.4695 16.966 1.556 16.966C1.637 16.966 1.7005 16.939 1.7465 16.885C1.7923 16.831 1.8153 16.764 1.8153 16.683C1.8153 16.634 1.8085 16.563 1.795 16.468C1.7815 16.373 1.7747 16.31 1.7747 16.278C1.7476 15.91 1.7341 15.578 1.7341 15.281C1.7341 14.735 1.7815 14.246 1.8759 13.814C1.9705 13.382 2.1015 13.008 2.269 12.692C2.4365 12.376 2.6526 12.103 2.9174 11.873C3.182 11.644 3.467 11.456 3.7722 11.31C4.0775 11.164 4.4368 11.049 4.8501 10.966C5.2634 10.882 5.6794 10.824 6.0981 10.791C6.5169 10.759 6.9909 10.743 7.5204 10.743H9.3357V12.818C9.3357 12.958 9.387 13.08 9.4895 13.182C9.5923 13.285 9.7138 13.336 9.8542 13.336C9.9946 13.336 10.1162 13.285 10.2191 13.182L14.3682 9.03299C14.4709 8.92999 14.5222 8.809 14.5222 8.668C14.5221 8.528 14.4709 8.40601 14.3683 8.30301Z" fill="white"/>
</g>
<defs>
<clipPath id="clip0_62_13">
<rect width="14.52" height="18" fill="white"/>
</clipPath>
</defs>
</svg>
