<?xml version="1.0" encoding="utf-8"?>
<svg width="25px" height="23px" viewBox="0 0 25 23" version="1.1" xmlns:xlink="http://www.w3.org/1999/xlink" xmlns="http://www.w3.org/2000/svg">
  <g id="Призы">
    <path d="M22.8693 6.08381L18.0454 6.08381C18.3915 5.84749 18.6888 5.6127 18.8962 5.4023C20.1265 4.16584 20.1265 2.15334 18.8962 0.916869C17.7009 -0.287582 15.6182 -0.284532 14.4244 0.916869C13.7628 1.58008 12.0094 4.28018 12.2519 6.08381L12.1421 6.08381C12.383 4.28018 10.6297 1.58008 9.9695 0.916869C8.7742 -0.284532 6.69156 -0.284532 5.49778 0.916869C4.26894 2.15334 4.26894 4.16584 5.49626 5.4023C5.70513 5.6127 6.00243 5.84749 6.34852 6.08381L1.52462 6.08381C0.684555 6.08381 -1.77636e-13 6.76836 -1.77636e-13 7.60843L-1.77636e-13 9.89536C-1.77636e-13 10.3162 0.341515 10.6577 0.762311 10.6577L10.6723 10.6577L10.6723 7.60843L13.7216 7.60843L13.7216 10.6577L23.6316 10.6577C24.0524 10.6577 24.3939 10.3162 24.3939 9.89536L24.3939 7.60843C24.3939 6.76836 23.7109 6.08381 22.8693 6.08381ZM10.5824 6.0335C10.5824 6.0335 10.5184 6.08381 10.3003 6.08381C9.24683 6.08381 7.23585 4.98913 6.57874 4.32745C5.93992 3.68406 5.93992 2.63512 6.57874 1.99173C6.88824 1.6807 7.29836 1.50995 7.7344 1.50995C8.16892 1.50995 8.57904 1.6807 8.88854 1.99173C9.91614 3.02542 10.9376 5.66606 10.5824 6.0335ZM14.0921 6.08381C13.8756 6.08381 13.8115 6.03502 13.8115 6.0335C13.4563 5.66606 14.4778 3.02542 15.5054 1.99173C16.1198 1.37121 17.1947 1.36816 17.8152 1.99173C18.4555 2.63512 18.4555 3.68406 17.8152 4.32745C17.1581 4.98913 15.1471 6.08381 14.0921 6.08381ZM1.52462 21.33L1.52462 12.1823L10.6723 12.1823L10.6723 22.8546L3.04924 22.8546C2.20918 22.8546 1.52462 22.1716 1.52462 21.33ZM13.7216 22.8546L13.7216 12.1823L22.8693 12.1823L22.8693 21.33C22.8693 22.1716 22.1863 22.8546 21.3447 22.8546L13.7216 22.8546Z" id="Combined-Shape" fill="#838383" fill-rule="evenodd" stroke="none" />
  </g>
</svg>