<svg width="23" height="21" viewBox="0 0 23 21" fill="none" xmlns="http://www.w3.org/2000/svg">
<path fill-rule="evenodd" clip-rule="evenodd" d="M0 11.1356V20.9774H9.1407V16.4492H11.2501V20.8849H13.8115V18.9443H15.8204V20.8849H18.3818V18.6671H20.2401V20.8849H22.8015V18.5285H20.3908V16.3106H17.8294V18.5285H16.1467V13.9541H13.8115V12.0135H16.2222V14.2313H18.7836V12.7528H20.2401V16.0796H22.8015V12.6142H21.1944V10.5349H22.8015V0H13.6608V0.0154991H11.2501V2.5875H9.1407V0H0V9.7956H1.6071V11.1356H0ZM1.6071 1.4786H7.5335V6.9308H1.6071V1.4786ZM15.2679 1.4786H21.1943V6.9308H15.2679V1.4786ZM6.3281 2.5875H2.8125V5.8219H6.3281V2.5875ZM19.989 2.5875H16.4733V5.8219H19.989V2.5875ZM13.6608 7.4391H11.4007V2.834H13.6608V7.4391ZM11.2501 9.657H9.1471V7.5777H11.2501V9.657ZM6.5857 8.4094V9.7956H8.8394V12.0134H11.2501V14.0927H9.1407V12.5679H2.5614V12.0134H6.5793V9.6569H2.5614V8.4094H6.5857ZM20.24 10.3963H18.8587V9.657H13.8114V8.4094H20.24V10.3963ZM11.4007 9.7956H13.4346V11.8749H11.4007V9.7956ZM7.5335 19.4988H1.6071V14.0466H7.5335V19.4988ZM11.4007 14.2313H13.5857V16.3106H11.4007V14.2313ZM6.3281 15.1555H2.8125V18.3899H6.3281V15.1555Z" fill="url(#paint0_linear_7_7)"/>
<defs>
<linearGradient id="paint0_linear_7_7" x1="11.4007" y1="0" x2="11.4007" y2="20.9774" gradientUnits="userSpaceOnUse">
<stop stop-color="#FFBA10"/>
<stop offset="1" stop-color="#FC7712"/>
</linearGradient>
</defs>
</svg>
