<svg width="36" height="21" fill="none" xmlns="http://www.w3.org/2000/svg"><rect x=".5" y=".5" width="35" height="20" rx="3.5" stroke="#D6D6D6"/><path fill-rule="evenodd" clip-rule="evenodd" d="M25.579 8a4.97 4.97 0 01-4.974 4.974A4.987 4.987 0 0115.632 8c0-2.737 2.21-4.974 4.947-4.974 2.79 0 5 2.237 5 4.974z" fill="#FFB600"/><path fill-rule="evenodd" clip-rule="evenodd" d="M20.605 3.026A4.987 4.987 0 0125.58 8a4.97 4.97 0 01-4.974 4.974A4.987 4.987 0 0115.632 8" fill="#F7981D"/><path fill-rule="evenodd" clip-rule="evenodd" d="M20.605 3.026A4.987 4.987 0 0125.58 8a4.97 4.97 0 01-4.974 4.974" fill="#FF8500"/><path fill-rule="evenodd" clip-rule="evenodd" d="M13.921 3.026A4.976 4.976 0 009 8a4.97 4.97 0 004.974 4.974c1.29 0 2.447-.5 3.342-1.29.184-.158.342-.342.5-.526H16.79a6.034 6.034 0 01-.369-.5h1.763c.105-.158.21-.342.29-.526h-2.342a3.128 3.128 0 01-.21-.527h2.736a5.22 5.22 0 00.263-1.579c0-.368-.053-.71-.105-1.052h-3.053c.027-.184.08-.342.132-.527h2.737a3.147 3.147 0 00-.21-.526h-2.317c.08-.184.184-.342.29-.526h1.763a2.504 2.504 0 00-.395-.527h-.974a4.54 4.54 0 01.5-.5c-.868-.815-2.052-1.289-3.342-1.289 0-.053 0-.053-.026-.053z" fill="#FF5050"/><path fill-rule="evenodd" clip-rule="evenodd" d="M9 8a4.97 4.97 0 004.974 4.974c1.29 0 2.447-.5 3.342-1.29.184-.157.342-.342.5-.526H16.79a6.034 6.034 0 01-.369-.5h1.763c.105-.158.21-.342.29-.526h-2.342a3.128 3.128 0 01-.21-.527h2.736a5.22 5.22 0 00.263-1.579c0-.368-.053-.71-.105-1.052h-3.053c.027-.184.08-.342.132-.526h2.737a3.146 3.146 0 00-.21-.527h-2.317c.08-.184.184-.342.29-.526h1.763a2.503 2.503 0 00-.395-.526h-.974c.158-.185.316-.343.5-.5-.868-.816-2.052-1.29-3.342-1.29h-.026" fill="#E52836"/><path fill-rule="evenodd" clip-rule="evenodd" d="M13.974 12.974c1.29 0 2.447-.5 3.342-1.29.184-.157.342-.342.5-.526H16.79a6.059 6.059 0 01-.369-.5h1.763a3.41 3.41 0 00.29-.526h-2.342a3.136 3.136 0 01-.21-.527h2.736a5.22 5.22 0 00.263-1.579c0-.368-.052-.71-.105-1.052h-3.053c.027-.184.08-.342.132-.526h2.737a3.138 3.138 0 00-.21-.527h-2.317c.08-.184.185-.342.29-.526h1.763a2.504 2.504 0 00-.395-.526h-.973c.158-.185.315-.343.5-.5-.869-.816-2.053-1.29-3.342-1.29h-.027" fill="#CB2026"/><path d="M3.348 18v-3h.84l.072.366h.024c.12-.116.248-.218.384-.306a.951.951 0 01.516-.132c.204 0 .372.042.504.126.136.08.244.198.324.354.124-.128.258-.24.402-.336a.92.92 0 01.522-.144c.328 0 .568.112.72.336.152.22.228.516.228.888V18H6.852v-1.716c0-.192-.024-.32-.072-.384-.048-.064-.124-.096-.228-.096-.128 0-.268.076-.42.228V18H5.1v-1.716c0-.192-.024-.32-.072-.384-.048-.064-.124-.096-.228-.096-.128 0-.268.076-.42.228V18H3.348zm5.989.072A.95.95 0 018.959 18a.939.939 0 01-.288-.204.868.868 0 01-.174-.294c-.04-.112-.06-.23-.06-.354a.84.84 0 01.384-.732c.256-.18.672-.3 1.248-.36-.024-.208-.164-.312-.42-.312a.994.994 0 00-.342.066 2.69 2.69 0 00-.414.186l-.36-.672c.212-.128.426-.226.642-.294.216-.068.442-.102.678-.102.388 0 .692.112.912.336.224.22.336.576.336 1.068V18h-.84l-.072-.288h-.024a1.73 1.73 0 01-.384.264c-.132.064-.28.096-.444.096zm.36-.792a.351.351 0 00.204-.054c.056-.04.112-.09.168-.15v-.408c-.248.036-.418.09-.51.162-.092.072-.138.15-.138.234 0 .144.092.216.276.216zm3 .792c-.191 0-.395-.038-.611-.114a1.84 1.84 0 01-.552-.306l.456-.636c.272.2.516.3.732.3a.45.45 0 00.228-.042.156.156 0 00.072-.138.13.13 0 00-.048-.102.417.417 0 00-.132-.084 1.277 1.277 0 00-.18-.078 3.926 3.926 0 01-.486-.21 1.205 1.205 0 01-.24-.186 1 1 0 01-.18-.246.784.784 0 01-.066-.33.94.94 0 01.084-.402.915.915 0 01.246-.306c.104-.084.228-.148.372-.192.148-.048.31-.072.486-.072.248 0 .46.042.636.126.18.08.336.17.468.27l-.456.612a1.56 1.56 0 00-.318-.186.756.756 0 00-.294-.066c-.176 0-.264.056-.264.168 0 .04.014.074.042.102a.525.525 0 00.126.078c.052.024.112.048.18.072.068.02.14.044.216.072.088.032.178.072.27.12a1 1 0 01.246.18.724.724 0 01.18.252.771.771 0 01.072.348c0 .14-.028.272-.084.396a.935.935 0 01-.246.318 1.232 1.232 0 01-.402.21c-.16.048-.344.072-.552.072zm2.909 0c-.197 0-.364-.028-.505-.084a.941.941 0 01-.342-.252 1.093 1.093 0 01-.197-.384c-.04-.152-.06-.32-.06-.504v-1.044h-.397v-.768l.457-.036.12-.78h.851V15h.685v.804h-.684v1.026c0 .168.035.284.107.348.072.06.156.09.252.09a.77.77 0 00.139-.012 1.73 1.73 0 00.125-.036l.157.744c-.08.024-.177.048-.288.072a2.05 2.05 0 01-.42.036zm2.44 0a1.78 1.78 0 01-.611-.102 1.48 1.48 0 01-.492-.306 1.491 1.491 0 01-.324-.498 1.75 1.75 0 01-.12-.666c0-.244.04-.462.12-.654.084-.196.192-.362.324-.498.136-.136.29-.24.462-.312a1.37 1.37 0 01.534-.108c.22 0 .412.038.576.114.164.076.3.18.408.312.108.132.188.286.24.462a1.85 1.85 0 01.066.822c-.008.08-.016.138-.024.174h-1.71c.048.18.134.306.258.378.124.068.27.102.438.102.104 0 .204-.014.3-.042.1-.032.204-.078.312-.138l.336.612a1.867 1.867 0 01-.546.264 1.996 1.996 0 01-.546.084zm-.563-1.932h.888a.503.503 0 00-.09-.3c-.056-.088-.162-.132-.318-.132a.486.486 0 00-.306.102c-.084.068-.142.178-.174.33zm2.33 1.86v-3h.84l.072.516h.024c.112-.204.244-.352.396-.444a.87.87 0 01.456-.144 1.1 1.1 0 01.222.018.549.549 0 01.15.042l-.168.888a2.823 2.823 0 00-.162-.03.644.644 0 00-.516.096c-.116.072-.21.202-.282.39V18h-1.032zm3.805.072a1.7 1.7 0 01-.594-.102 1.428 1.428 0 01-.48-.306 1.491 1.491 0 01-.324-.498 1.831 1.831 0 01-.114-.666c0-.248.044-.47.132-.666a1.472 1.472 0 01.864-.798c.196-.072.4-.108.612-.108a1.332 1.332 0 01.876.312l-.48.66a.687.687 0 00-.18-.114.543.543 0 00-.606.174c-.108.132-.162.312-.162.54 0 .228.054.41.162.546.112.132.25.198.414.198a.594.594 0 00.246-.054 1.06 1.06 0 00.234-.138l.396.672a1.309 1.309 0 01-.498.276 1.896 1.896 0 01-.498.072zm2.196 0a.95.95 0 01-.378-.072.939.939 0 01-.288-.204.868.868 0 01-.174-.294c-.04-.112-.06-.23-.06-.354a.84.84 0 01.383-.732c.256-.18.672-.3 1.248-.36-.024-.208-.164-.312-.42-.312a.994.994 0 00-.341.066 2.69 2.69 0 00-.415.186l-.36-.672c.212-.128.427-.226.642-.294.216-.068.442-.102.678-.102.389 0 .692.112.912.336.224.22.337.576.337 1.068V18h-.84l-.072-.288h-.024a1.73 1.73 0 01-.384.264c-.133.064-.28.096-.444.096zm.36-.792a.351.351 0 00.204-.054c.055-.04.111-.09.168-.15v-.408c-.248.036-.418.09-.51.162-.093.072-.139.15-.139.234 0 .144.093.216.277.216zm2.076.72v-3h.84l.072.516h.024c.112-.204.244-.352.396-.444a.87.87 0 01.456-.144 1.1 1.1 0 01.222.018.549.549 0 01.15.042l-.168.888a2.823 2.823 0 00-.162-.03.644.644 0 00-.516.096c-.116.072-.21.202-.282.39V18H28.25zm3.542.072c-.188 0-.358-.036-.51-.108a1.103 1.103 0 01-.384-.312 1.576 1.576 0 01-.246-.492 2.401 2.401 0 01-.084-.66c0-.244.034-.464.102-.66.072-.196.164-.36.276-.492.116-.136.248-.24.396-.312a1.02 1.02 0 01.45-.108c.164 0 .298.028.402.084.104.052.202.124.294.216l-.036-.432v-.972h1.032V18h-.84l-.072-.276h-.024a1.269 1.269 0 01-.36.252.9.9 0 01-.396.096zm.276-.84c.08 0 .15-.014.21-.042a.512.512 0 00.174-.174v-1.104a.475.475 0 00-.198-.114.783.783 0 00-.21-.03c-.108 0-.206.054-.294.162-.084.108-.126.294-.126.558 0 .272.038.464.114.576.08.112.19.168.33.168z" fill="#A9A9A9"/></svg>