<svg width="15" height="14" viewBox="0 0 15 14" fill="none" xmlns="http://www.w3.org/2000/svg">
<path d="M7.0009 0C3.1338 0 0 3.1347 0 6.9995C0 10.8667 3.1338 14 7.0009 14C10.8681 14 14.0019 10.8671 14.0019 6.9995C14.0019 3.1347 10.8676 0 7.0009 0ZM5.9497 11.172C5.7924 11.3274 5.5393 11.3274 5.3839 11.172L5.2585 11.0466L5.122 10.911L4.5362 10.3252L4.527 10.3118L1.8401 7.6046C1.6837 7.4492 1.6837 7.1942 1.8401 7.0402L2.6869 6.1935C2.8442 6.0366 3.0954 6.0366 3.2518 6.1935L5.6693 8.6281L10.7496 3.5469C10.9051 3.3909 11.1582 3.3909 11.3137 3.5469L12.1604 4.3945C12.3168 4.55 12.3168 4.804 12.1604 4.9595L5.9497 11.172Z" fill="url(#paint0_linear_178_34)"/>
<defs>
<linearGradient id="paint0_linear_178_34" x1="7.00095" y1="0" x2="7.00095" y2="14" gradientUnits="userSpaceOnUse">
<stop stop-color="#FFBA10"/>
<stop offset="1" stop-color="#FC7712"/>
</linearGradient>
</defs>
</svg>
