<svg width="12" height="14" viewBox="0 0 12 14" fill="none" xmlns="http://www.w3.org/2000/svg">
<path fill-rule="evenodd" clip-rule="evenodd" d="M8.136 5.7559C7.4805 6.4115 6.6782 6.7438 5.7518 6.7438C4.8255 6.7438 4.0233 6.4114 3.3677 5.756C2.7121 5.1005 2.3797 4.2984 2.3797 3.3718C2.3797 2.4454 2.7121 1.6433 3.3676 0.987801C4.0231 0.332301 4.8252 0 5.7518 0C6.6781 0 7.4803 0.332301 8.1359 0.987701C8.7915 1.6434 9.1238 2.4455 9.1238 3.3718C9.1238 4.2984 8.7915 5.1004 8.136 5.7559ZM11.5384 9.8806C11.5947 10.1949 11.633 10.4924 11.6519 10.7652C11.6706 11.0318 11.6801 11.3101 11.6802 11.5922C11.6802 12.3233 11.4479 12.915 10.9896 13.351C10.5371 13.7817 9.9386 14 9.2106 14H2.4696C1.7415 14 1.1429 13.7816 0.690399 13.351C0.232299 12.9147 0 12.3231 0 11.5923C0 11.3115 0.00939988 11.0334 0.0279999 10.7656C0.0468999 10.4921 0.0850994 10.1944 0.141399 9.8806C0.198199 9.564 0.271398 9.2649 0.358898 8.9913C0.449498 8.7084 0.572499 8.4293 0.724499 8.1617C0.882099 7.8841 1.0677 7.6424 1.2756 7.4433C1.4934 7.2349 1.7599 7.0676 2.0677 6.9457C2.3746 6.8241 2.7147 6.7625 3.0787 6.7625C3.2216 6.7625 3.3599 6.8211 3.6265 6.9949C3.7933 7.1036 3.9855 7.2275 4.198 7.3632C4.3812 7.4801 4.6296 7.5895 4.9361 7.6886C5.2359 7.7854 5.5397 7.8346 5.8398 7.8346C6.1398 7.8346 6.4438 7.7854 6.7432 7.6886C7.05 7.5894 7.2985 7.4799 7.4819 7.3631C7.6964 7.2261 7.8885 7.1022 8.0528 6.995C8.3197 6.8213 8.4579 6.7626 8.6008 6.7626C8.9647 6.7626 9.3049 6.8241 9.6119 6.9456C9.9199 7.0677 10.1863 7.235 10.4039 7.4432C10.612 7.6422 10.7974 7.884 10.9553 8.1617C11.1074 8.4293 11.2304 8.7085 11.3209 8.9912C11.4085 9.2648 11.4816 9.564 11.5384 9.8806Z" fill="url(#paint0_linear_178_36)"/>
<defs>
<linearGradient id="paint0_linear_178_36" x1="5.8401" y1="0" x2="5.8401" y2="14" gradientUnits="userSpaceOnUse">
<stop stop-color="#FFBA10"/>
<stop offset="1" stop-color="#FC7712"/>
</linearGradient>
</defs>
</svg>
