<svg width="30" height="30" viewBox="0 0 30 30" fill="none" xmlns="http://www.w3.org/2000/svg">
<path fill-rule="evenodd" clip-rule="evenodd" d="M28.1746 0.390987C27.2237 -0.326013 25.9396 -0.0280213 25.3071 1.04498L11.7167 24.193L3.18979 16.919C2.22569 16.223 0.947892 16.54 0.328192 17.62C-0.288408 18.709 -0.0111091 20.153 0.949791 20.85L11.1935 29.374C11.3615 29.495 11.5405 29.584 11.7231 29.645C11.724 29.645 11.7249 29.646 11.7254 29.646C11.8119 29.675 11.8998 29.695 11.9877 29.711C11.9977 29.712 12.0077 29.716 12.0177 29.719C12.1152 29.734 12.2131 29.742 12.3105 29.742C12.3952 29.742 12.4786 29.736 12.5624 29.725C12.6289 29.715 12.6953 29.7 12.7609 29.684C12.7769 29.679 12.7928 29.678 12.8083 29.674C13.0505 29.607 13.2819 29.49 13.49 29.327C13.4913 29.326 13.4927 29.325 13.4936 29.324C13.5533 29.278 13.6097 29.226 13.6653 29.171C13.6753 29.161 13.6867 29.153 13.6967 29.143C13.7404 29.098 13.7805 29.049 13.8201 29C13.8406 28.975 13.8625 28.953 13.8816 28.927C13.9103 28.89 13.9358 28.848 13.9631 28.808C13.9882 28.771 14.0146 28.735 14.0382 28.696L28.7552 3.62902C29.3886 2.55202 29.1281 1.10399 28.1746 0.390987Z" fill="white"/>
</svg>
