<svg width="15" height="15" viewBox="0 0 15 15" fill="none" xmlns="http://www.w3.org/2000/svg">
<path d="M14.2532 13.6545L10.6853 9.94368C11.6027 8.85316 12.1053 7.48105 12.1053 6.05263C12.1053 2.71526 9.39 0 6.05263 0C2.71526 0 0 2.71526 0 6.05263C0 9.39 2.71526 12.1053 6.05263 12.1053C7.30552 12.1053 8.49947 11.7274 9.52026 11.01L13.1153 14.7489C13.2656 14.905 13.4677 14.9911 13.6843 14.9911C13.8893 14.9911 14.0837 14.9129 14.2314 14.7708C14.545 14.4689 14.555 13.9684 14.2532 13.6545ZM6.05263 1.57895C8.51947 1.57895 10.5264 3.58579 10.5264 6.05263C10.5264 8.51947 8.51947 10.5263 6.05263 10.5263C3.58579 10.5263 1.57894 8.51947 1.57894 6.05263C1.57894 3.58579 3.58579 1.57895 6.05263 1.57895Z" fill="white"/>
</svg>
