<svg width="17" height="16" viewBox="0 0 17 16" fill="none" xmlns="http://www.w3.org/2000/svg">
<path fill-rule="evenodd" clip-rule="evenodd" d="M5.35745 1.56338C5.64319 1.2597 5.62862 0.781933 5.32494 0.496215L4.80762 0.00947666L4.29026 0.496215C4.27976 0.506201 4.26781 0.518013 4.25774 0.528725C3.972 0.832403 3.98658 1.31017 4.29026 1.59589C4.59393 1.88158 5.07176 1.86703 5.35745 1.56338Z" fill="#D3D3D3"/>
<path fill-rule="evenodd" clip-rule="evenodd" d="M8.7646 1.56338C9.05029 1.2597 9.03577 0.781933 8.73209 0.496215L8.21477 0.00947666L7.69746 0.496215C7.68696 0.506201 7.67496 0.518013 7.66495 0.528725C7.37926 0.832403 7.39378 1.31017 7.69746 1.59589C8.00108 1.88158 8.47886 1.86703 8.7646 1.56338Z" fill="#D3D3D3"/>
<path fill-rule="evenodd" clip-rule="evenodd" d="M12.1718 1.56338C12.4575 1.2597 12.443 0.781933 12.1393 0.496215L11.622 0.00947666L11.1046 0.496215C11.0941 0.506201 11.0821 0.518013 11.0721 0.528725C10.7864 0.832403 10.801 1.31017 11.1046 1.59589C11.4083 1.88158 11.8861 1.86703 12.1718 1.56338Z" fill="#B2B2B2"/>
<path fill-rule="evenodd" clip-rule="evenodd" d="M4.80762 2.15144C4.4044 2.15144 4.07748 2.47834 4.07748 2.88158V4.45251H5.53769V2.88158C5.53777 2.47834 5.21085 2.15144 4.80762 2.15144Z" fill="#D3D3D3"/>
<path fill-rule="evenodd" clip-rule="evenodd" d="M8.21476 2.15144C7.81154 2.15144 7.48462 2.47834 7.48462 2.88158V4.45251H8.94483V2.88158C8.94486 2.47834 8.61796 2.15144 8.21476 2.15144Z" fill="#D3D3D3"/>
<path fill-rule="evenodd" clip-rule="evenodd" d="M11.6219 2.15144C11.2187 2.15144 10.8918 2.47834 10.8918 2.88158V4.45251H12.352V2.88158C12.3521 2.47834 12.0252 2.15144 11.6219 2.15144Z" fill="#B2B2B2"/>
<path fill-rule="evenodd" clip-rule="evenodd" d="M14.8719 6.45195C14.8719 5.61783 14.1933 4.93925 13.3592 4.93925H3.07037C2.23625 4.93925 1.55762 5.61783 1.55762 6.45195V8.89807H14.8719V6.45195Z" fill="#D3D3D3"/>
<path fill-rule="evenodd" clip-rule="evenodd" d="M15.4035 9.87154H14.8719H1.55761H1.02601C0.460295 9.87154 0 10.3317 0 10.8975V14.9645C0 15.5303 0.460295 15.9905 1.02601 15.9905H15.4035C15.9692 15.9905 16.4295 15.5303 16.4295 14.9645V10.8975C16.4295 10.3317 15.9692 9.87154 15.4035 9.87154Z" fill="#D3D3D3"/>
</svg>
