<svg width="10" height="17" viewBox="0 0 10 17" fill="none" xmlns="http://www.w3.org/2000/svg">
<g clip-path="url(#clip0_180_5)">
<path fill-rule="evenodd" clip-rule="evenodd" d="M9.22856 5.32808C8.91712 5.09334 8.49647 5.19084 8.28932 5.54222L3.83781 13.1245L1.04481 10.7419C0.729043 10.5137 0.310495 10.6176 0.107492 10.9715C-0.0944733 11.328 -0.00362244 11.8011 0.311105 12.0294L3.66642 14.8214C3.72148 14.8609 3.7801 14.8903 3.83991 14.9102C3.84019 14.9102 3.84049 14.9106 3.84065 14.9106C3.869 14.9199 3.89778 14.9266 3.92655 14.9319C3.92985 14.9322 3.93312 14.9336 3.93641 14.9342C3.96833 14.9392 4.00041 14.9419 4.03233 14.9419C4.06007 14.9419 4.08735 14.9399 4.11479 14.9363C4.13658 14.9332 4.15837 14.9281 4.17982 14.9228C4.18507 14.9215 4.19029 14.921 4.19535 14.9196C4.2747 14.8976 4.35047 14.8592 4.41865 14.806C4.41908 14.8057 4.41954 14.8054 4.41984 14.805C4.43937 14.79 4.45787 14.773 4.47605 14.7551C4.47935 14.7515 4.48307 14.7491 4.48637 14.7457C4.50068 14.7308 4.5138 14.7148 4.52677 14.6988C4.53349 14.6908 4.54066 14.6835 4.54692 14.6751C4.55631 14.6628 4.56468 14.6492 4.57362 14.6361C4.58183 14.6238 4.59046 14.6122 4.59822 14.5993L9.41874 6.38854C9.6262 6.03581 9.5409 5.56151 9.22856 5.32808Z" fill="white"/>
</g>
<defs>
<clipPath id="clip0_180_5">
<rect width="9.53" height="16.94" fill="white"/>
</clipPath>
</defs>
</svg>
