<svg width="17" height="18" viewBox="0 0 17 18" fill="none" xmlns="http://www.w3.org/2000/svg">
<path d="M11.6627 11.3528C9.89413 11.3528 8.46047 9.95023 8.46047 8.22034C8.46047 6.49045 9.89413 5.08814 11.6627 5.08814C13.4313 5.08814 14.8652 6.49045 14.8652 8.22034C14.8652 9.95023 13.4313 11.3528 11.6627 11.3528ZM11.6627 3C8.71501 3 6.3254 5.33735 6.3254 8.22034C6.3254 8.66401 6.38262 9.09429 6.48887 9.50559L4.08956 10.6998L3.47176 9.46982C3.35108 9.22961 3.05275 9.13226 2.80892 9.25395L1.82038 9.74605C1.57654 9.86749 1.47577 10.1637 1.59645 10.4039L2.21375 11.6334L0.275496 12.5981C0.0314099 12.7198 -0.0696061 13.0158 0.0508197 13.256L0.549191 14.2501C0.669617 14.4906 0.967695 14.5879 1.21178 14.4665L3.15153 13.5008L3.76983 14.7315C3.89051 14.972 4.18859 15.0691 4.43267 14.9476L5.42121 14.4553C5.66505 14.3339 5.76582 14.0379 5.64514 13.7975L5.02734 12.5672L7.41421 11.3791C8.38906 12.6317 9.92897 13.4409 11.6627 13.4409C14.6104 13.4409 17 11.1036 17 8.22034C17 5.33735 14.6104 3 11.6627 3" fill="#D3D3D3"/>
</svg>
