<svg width="16" height="12" viewBox="0 0 16 12" fill="none" xmlns="http://www.w3.org/2000/svg">
<path fill-rule="evenodd" clip-rule="evenodd" d="M1.46221 3.71402C1.65493 3.85 2.23584 4.2539 3.20498 4.92548C4.17415 5.59706 4.9166 6.11416 5.43237 6.47681C5.48903 6.51657 5.60942 6.60298 5.79359 6.73617C5.97779 6.86945 6.13084 6.97715 6.25262 7.05931C6.3745 7.14143 6.52184 7.23356 6.69478 7.33554C6.86766 7.43744 7.03063 7.51408 7.18365 7.56482C7.3367 7.61598 7.47838 7.64132 7.60871 7.64132H7.61726H7.62584C7.75617 7.64132 7.89791 7.61595 8.05096 7.56482C8.20392 7.51408 8.36704 7.43735 8.53977 7.33554C8.71259 7.23344 8.85993 7.1414 8.98181 7.05931C9.10368 6.97715 9.25662 6.86945 9.44087 6.73617C9.62501 6.60286 9.74555 6.51657 9.80221 6.47681C10.3235 6.11416 11.6499 5.19314 13.7808 3.71384C14.1945 3.42491 14.5402 3.07629 14.8179 2.6682C15.0957 2.26029 15.2345 1.83237 15.2345 1.38467C15.2345 1.01056 15.0998 0.690313 14.8306 0.42396C14.5614 0.157548 14.2425 0.0244169 13.8743 0.0244169H1.36017C0.923792 0.0244169 0.58797 0.171752 0.352764 0.466422C0.117588 0.761151 0 1.12955 0 1.57158C0 1.92864 0.155911 2.31555 0.467583 2.7321C0.779226 3.14867 1.11088 3.47601 1.46221 3.71402Z" fill="#D3D3D3"/>
<path fill-rule="evenodd" clip-rule="evenodd" d="M14.3843 4.62357C12.5255 5.88167 11.1141 6.85941 10.1507 7.55661C9.82767 7.79455 9.56561 7.9803 9.36435 8.1134C9.16309 8.24659 8.89542 8.38261 8.56097 8.5214C8.22664 8.6604 7.91506 8.72969 7.62596 8.72969H7.61729H7.60874C7.3197 8.72969 7.00794 8.6604 6.67361 8.5214C6.33928 8.38261 6.07143 8.24659 5.87023 8.1134C5.66909 7.9803 5.40694 7.79455 5.08392 7.55661C4.31875 6.99555 2.91037 6.01775 0.85873 4.62357C0.535593 4.40835 0.24938 4.16165 0 3.88398V10.6339C0 11.0082 0.133132 11.3283 0.399543 11.5947C0.665896 11.8611 0.986174 11.9943 1.36026 11.9943H13.8744C14.2484 11.9943 14.5686 11.8611 14.835 11.5947C15.1015 11.3282 15.2346 11.0082 15.2346 10.6339V3.88398C14.9908 4.1559 14.7075 4.4026 14.3843 4.62357Z" fill="#D3D3D3"/>
</svg>
