<svg width="17" height="18" viewBox="0 0 17 18" fill="none" xmlns="http://www.w3.org/2000/svg">
<path d="M5.33095 12.9233C3.56449 12.9233 2.13245 11.5284 2.13245 9.80795C2.13245 8.08728 3.56449 6.69263 5.33095 6.69263C7.09751 6.69263 8.52956 8.08728 8.52956 9.80795C8.52956 11.5284 7.09751 12.9233 5.33095 12.9233ZM16.6652 3.83653L13.3093 3.01576C13.0441 2.9509 12.9286 3.09225 13.0526 3.32945L13.6875 4.5462L9.56602 6.6556C8.59178 5.41586 7.0577 4.61566 5.33095 4.61566C2.38677 4.61566 0 6.94024 0 9.80795C0 12.6754 2.38677 15 5.33095 15C8.27513 15 10.6619 12.6754 10.6619 9.80795C10.6619 9.36235 10.6041 8.93031 10.4959 8.51763L14.6505 6.39128L15.2936 7.62376C15.4174 7.86097 15.5996 7.85201 15.6982 7.60367L16.9679 4.40606C17.0665 4.15772 16.9303 3.9014 16.6652 3.83653Z" fill="#D3D3D3"/>
</svg>
