<svg width="38" height="24" viewBox="0 0 38 24" fill="none" xmlns="http://www.w3.org/2000/svg">
<path d="M4.999 1.5H33.001C33.132 1.5 33.2627 1.50633 33.393 1.519C33.5233 1.53233 33.6527 1.55166 33.7812 1.577C33.9096 1.60233 34.0365 1.634 34.1618 1.672C34.2871 1.71 34.4103 1.754 34.5313 1.804C34.6524 1.85467 34.7706 1.91067 34.8861 1.972C35.0016 2.034 35.1138 2.10133 35.2227 2.174C35.3316 2.24666 35.4367 2.32467 35.5379 2.408C35.6392 2.49067 35.7361 2.57834 35.8287 2.67101C35.9213 2.76367 36.0092 2.86067 36.0923 2.96201C36.1754 3.06334 36.2533 3.16833 36.326 3.27699C36.3988 3.38633 36.4661 3.49867 36.5278 3.614C36.5895 3.72933 36.6455 3.84766 36.6956 3.96899C36.7457 4.08966 36.7898 4.21266 36.8278 4.338C36.8658 4.46333 36.8976 4.59033 36.9232 4.71899C36.9487 4.84766 36.9679 4.97699 36.9807 5.10699C36.9936 5.23766 37 5.36833 37 5.49899V18.501C37 18.6317 36.9936 18.7623 36.9807 18.893C36.9679 19.023 36.9487 19.1523 36.9232 19.281C36.8976 19.4097 36.8658 19.5367 36.8278 19.662C36.7898 19.7873 36.7457 19.9103 36.6956 20.031C36.6455 20.1523 36.5895 20.2707 36.5278 20.386C36.4661 20.5013 36.3988 20.6137 36.326 20.723C36.2533 20.8317 36.1754 20.9367 36.0923 21.038C36.0092 21.1393 35.9213 21.2363 35.8287 21.329C35.7361 21.4217 35.6392 21.5093 35.5379 21.592C35.4367 21.6753 35.3316 21.7533 35.2227 21.826C35.1138 21.8987 35.0016 21.966 34.8861 22.028C34.7706 22.0893 34.6524 22.1453 34.5313 22.196C34.4103 22.246 34.2871 22.29 34.1618 22.328C34.0365 22.366 33.9096 22.3977 33.7812 22.423C33.6527 22.4483 33.5233 22.4677 33.393 22.481C33.2627 22.4937 33.132 22.5 33.001 22.5H4.999C4.868 22.5 4.73733 22.4937 4.607 22.481C4.47667 22.4677 4.34727 22.4483 4.2188 22.423C4.0904 22.3977 3.96353 22.366 3.8382 22.328C3.71287 22.29 3.5897 22.246 3.4687 22.196C3.34763 22.1453 3.22937 22.0893 3.1139 22.028C2.99837 21.966 2.88617 21.8987 2.7773 21.826C2.66837 21.7533 2.5633 21.6753 2.4621 21.592C2.36083 21.5093 2.2639 21.4217 2.1713 21.329C2.0787 21.2363 1.99083 21.1393 1.9077 21.038C1.82463 20.9367 1.74673 20.8317 1.674 20.723C1.6012 20.6137 1.53393 20.5013 1.4722 20.386C1.41047 20.2707 1.35453 20.1523 1.3044 20.031C1.25427 19.9103 1.2102 19.7873 1.1722 19.662C1.1342 19.5367 1.1024 19.4097 1.0768 19.281C1.05127 19.1523 1.0321 19.023 1.0193 18.893C1.00643 18.7623 1 18.6317 1 18.501V5.49899C1 5.36833 1.00643 5.23766 1.0193 5.10699C1.0321 4.97699 1.05127 4.84766 1.0768 4.71899C1.1024 4.59033 1.1342 4.46333 1.1722 4.338C1.2102 4.21266 1.25427 4.08966 1.3044 3.96899C1.35453 3.84766 1.41047 3.72933 1.4722 3.614C1.53393 3.49867 1.6012 3.38633 1.674 3.27699C1.74673 3.16833 1.82463 3.06334 1.9077 2.96201C1.99083 2.86067 2.0787 2.76367 2.1713 2.67101C2.2639 2.57834 2.36083 2.49067 2.4621 2.408C2.5633 2.32467 2.66837 2.24666 2.7773 2.174C2.88617 2.10133 2.99837 2.034 3.1139 1.972C3.22937 1.91067 3.34763 1.85467 3.4687 1.804C3.5897 1.754 3.71287 1.71 3.8382 1.672C3.96353 1.634 4.0904 1.60233 4.2188 1.577C4.34727 1.55166 4.47667 1.53233 4.607 1.519C4.73733 1.50633 4.868 1.5 4.999 1.5Z" stroke="#D6D6D6" stroke-width="2"/>
<path fill-rule="evenodd" clip-rule="evenodd" d="M27.9474 9.474C27.9474 12.211 25.7368 14.447 22.9737 14.447C20.2368 14.447 18 12.211 18 9.474C18 6.737 20.2105 4.5 22.9474 4.5C25.7368 4.5 27.9474 6.737 27.9474 9.474Z" fill="#FFB600"/>
<path fill-rule="evenodd" clip-rule="evenodd" d="M22.9737 4.5C25.7105 4.5 27.9474 6.737 27.9474 9.474C27.9474 12.211 25.7368 14.447 22.9737 14.447C20.2368 14.447 18 12.211 18 9.474" fill="#F7981D"/>
<path fill-rule="evenodd" clip-rule="evenodd" d="M22.9736 4.474C25.725 4.474 27.9736 6.722 27.9736 9.474C27.9736 12.225 25.7514 14.474 22.9736 14.474" fill="#FF8500"/>
<path fill-rule="evenodd" clip-rule="evenodd" d="M15.9211 4.5C13.2105 4.526 11 6.737 11 9.474C11 12.211 13.2105 14.447 15.9737 14.447C17.2632 14.447 18.4211 13.947 19.3158 13.158C19.5 13 19.6579 12.816 19.8158 12.632H18.7895C18.6579 12.474 18.5263 12.289 18.4211 12.132H20.1842C20.2895 11.974 20.3947 11.789 20.4737 11.605H18.1316C18.0526 11.447 17.9737 11.263 17.9211 11.079H20.6579C20.8158 10.579 20.9211 10.053 20.9211 9.5C20.9211 9.132 20.8684 8.78901 20.8158 8.44701H17.7632C17.7895 8.26301 17.8421 8.10501 17.8947 7.92101H20.6316C20.5789 7.73701 20.5 7.553 20.4211 7.395H18.1053C18.1842 7.211 18.2895 7.053 18.3947 6.868H20.1579C20.0526 6.684 19.9211 6.5 19.7632 6.342H18.7895C18.9474 6.158 19.1053 6 19.2895 5.842C18.4211 5.026 17.2368 4.55299 15.9474 4.55299C15.9474 4.49999 15.9474 4.5 15.9211 4.5Z" fill="#FF5050"/>
<path fill-rule="evenodd" clip-rule="evenodd" d="M11 9.42101C11 12.158 13.2105 14.395 15.9737 14.395C17.2632 14.395 18.4211 13.895 19.3158 13.105C19.5 12.947 19.6579 12.763 19.8158 12.579H18.7895C18.6579 12.421 18.5263 12.237 18.4211 12.079H20.1842C20.2895 11.921 20.3947 11.737 20.4737 11.553H18.1316C18.0526 11.395 17.9737 11.211 17.9211 11.026H20.6579C20.8158 10.526 20.9211 10 20.9211 9.44701C20.9211 9.07901 20.8684 8.737 20.8158 8.395H17.7632C17.7895 8.211 17.8421 8.053 17.8947 7.868H20.6316C20.5789 7.684 20.5 7.5 20.4211 7.342H18.1053C18.1842 7.158 18.2895 6.99999 18.3947 6.81599H20.1579C20.0526 6.63199 19.9211 6.447 19.7632 6.289H18.7895C18.9474 6.105 19.1053 5.947 19.2895 5.789C18.4211 4.974 17.2368 4.5 15.9474 4.5H15.9211" fill="#E52836"/>
<path fill-rule="evenodd" clip-rule="evenodd" d="M16.0526 14.395C17.3421 14.395 18.5 13.895 19.3947 13.105C19.579 12.947 19.7368 12.763 19.8947 12.579H18.8684C18.7368 12.421 18.6053 12.237 18.5 12.079H20.2632C20.3684 11.921 20.4737 11.737 20.5526 11.553H18.2105C18.1316 11.395 18.0526 11.211 18 11.026H20.7368C20.8947 10.526 21 10 21 9.44701C21 9.07901 20.9474 8.737 20.8947 8.395H17.8421C17.8684 8.211 17.9211 8.053 17.9737 7.868H20.7105C20.6579 7.684 20.5789 7.5 20.5 7.342H18.1842C18.2632 7.158 18.3684 6.99999 18.4737 6.81599H20.2368C20.1316 6.63199 20 6.447 19.8421 6.289H18.8684C19.0263 6.105 19.1842 5.947 19.3684 5.789C18.5 4.974 17.3158 4.5 16.0263 4.5H16" fill="#CB2026"/>
<path d="M32.341 19.14C32.491 19.212 32.66 19.248 32.848 19.248C32.98 19.248 33.113 19.216 33.247 19.152C33.381 19.088 33.5 19.004 33.604 18.9H33.628L33.7 19.176H34.54V15H33.508V15.972L33.544 16.404C33.452 16.312 33.354 16.239 33.25 16.185C33.146 16.131 33.012 16.104 32.848 16.104C32.696 16.104 32.546 16.14 32.398 16.212C32.25 16.284 32.119 16.387 32.005 16.521C31.891 16.655 31.799 16.82 31.729 17.016C31.659 17.212 31.624 17.432 31.624 17.676C31.624 17.92 31.653 18.139 31.711 18.333C31.769 18.527 31.851 18.692 31.957 18.828C32.063 18.964 32.191 19.068 32.341 19.14ZM15.871 19.161C16.009 19.219 16.176 19.248 16.372 19.248C16.54 19.248 16.68 19.236 16.792 19.212C16.904 19.188 17 19.164 17.08 19.14L16.924 18.396C16.888 18.408 16.847 18.419 16.801 18.429C16.755 18.439 16.708 18.444 16.66 18.444C16.564 18.444 16.48 18.413 16.408 18.351C16.336 18.289 16.3 18.174 16.3 18.006V16.98H16.984V16.176H16.3V15.396H15.448L15.328 16.176L14.872 16.212V16.98H15.268V18.024C15.268 18.208 15.289 18.375 15.331 18.525C15.373 18.675 15.439 18.804 15.529 18.912C15.619 19.02 15.733 19.103 15.871 19.161ZM4 16.176V19.176H5.032V17.208C5.184 17.056 5.324 16.98 5.452 16.98C5.556 16.98 5.632 17.012 5.68 17.076C5.728 17.14 5.752 17.268 5.752 17.46V19.176H6.784V17.208C6.936 17.056 7.076 16.98 7.204 16.98C7.308 16.98 7.384 17.012 7.432 17.076C7.48 17.14 7.504 17.268 7.504 17.46V19.176H8.536V17.328C8.536 16.956 8.46 16.659 8.308 16.437C8.156 16.215 7.916 16.104 7.588 16.104C7.384 16.104 7.21 16.152 7.066 16.248C6.922 16.344 6.788 16.456 6.664 16.584C6.584 16.428 6.477 16.309 6.343 16.227C6.209 16.145 6.04 16.104 5.836 16.104C5.632 16.104 5.461 16.148 5.323 16.236C5.185 16.324 5.056 16.426 4.936 16.542H4.912L4.84 16.176H4ZM9.61 19.173C9.722 19.223 9.848 19.248 9.988 19.248C10.152 19.248 10.301 19.215 10.435 19.149C10.569 19.083 10.696 18.996 10.816 18.888H10.84L10.912 19.176H11.752V17.508C11.752 17.016 11.641 16.659 11.419 16.437C11.197 16.215 10.892 16.104 10.504 16.104C10.268 16.104 10.042 16.138 9.826 16.206C9.61 16.274 9.396 16.372 9.184 16.5L9.544 17.172C9.7 17.088 9.838 17.025 9.958 16.983C10.078 16.941 10.192 16.92 10.3 16.92C10.556 16.92 10.696 17.024 10.72 17.232C10.144 17.292 9.728 17.411 9.472 17.589C9.216 17.767 9.088 18.012 9.088 18.324C9.088 18.448 9.108 18.566 9.148 18.678C9.188 18.79 9.247 18.888 9.325 18.972C9.403 19.056 9.498 19.123 9.61 19.173ZM13.348 19.248C13.156 19.248 12.953 19.21 12.739 19.134C12.525 19.058 12.34 18.956 12.184 18.828L12.64 18.192C12.912 18.392 13.156 18.492 13.372 18.492C13.48 18.492 13.557 18.477 13.603 18.447C13.649 18.417 13.672 18.372 13.672 18.312C13.672 18.272 13.656 18.237 13.624 18.207C13.592 18.177 13.549 18.149 13.495 18.123C13.441 18.097 13.38 18.072 13.312 18.048C13.244 18.024 13.172 17.996 13.096 17.964C13.008 17.928 12.919 17.885 12.829 17.835C12.739 17.785 12.658 17.724 12.586 17.652C12.514 17.58 12.455 17.497 12.409 17.403C12.363 17.309 12.34 17.2 12.34 17.076C12.34 16.928 12.369 16.794 12.427 16.674C12.485 16.554 12.566 16.452 12.67 16.368C12.774 16.284 12.899 16.219 13.045 16.173C13.191 16.127 13.352 16.104 13.528 16.104C13.776 16.104 13.989 16.145 14.167 16.227C14.345 16.309 14.5 16.4 14.632 16.5L14.176 17.112C14.068 17.032 13.962 16.97 13.858 16.926C13.754 16.882 13.656 16.86 13.564 16.86C13.388 16.86 13.3 16.916 13.3 17.028C13.3 17.068 13.315 17.102 13.345 17.13C13.375 17.158 13.416 17.184 13.468 17.208C13.52 17.232 13.58 17.255 13.648 17.277C13.716 17.299 13.788 17.324 13.864 17.352C13.952 17.384 14.042 17.424 14.134 17.472C14.226 17.52 14.309 17.579 14.383 17.649C14.457 17.719 14.517 17.803 14.563 17.901C14.609 17.999 14.632 18.116 14.632 18.252C14.632 18.392 14.604 18.523 14.548 18.645C14.492 18.767 14.41 18.873 14.302 18.963C14.194 19.053 14.06 19.123 13.9 19.173C13.74 19.223 13.556 19.248 13.348 19.248ZM18.928 19.248C18.708 19.248 18.504 19.213 18.316 19.143C18.128 19.073 17.965 18.971 17.827 18.837C17.689 18.703 17.58 18.538 17.5 18.342C17.42 18.146 17.38 17.924 17.38 17.676C17.38 17.432 17.421 17.213 17.503 17.019C17.585 16.825 17.693 16.66 17.827 16.524C17.961 16.388 18.114 16.284 18.286 16.212C18.458 16.14 18.636 16.104 18.82 16.104C19.04 16.104 19.232 16.142 19.396 16.218C19.56 16.294 19.696 16.398 19.804 16.53C19.912 16.662 19.993 16.816 20.047 16.992C20.101 17.168 20.128 17.356 20.128 17.556C20.128 17.648 20.123 17.734 20.113 17.814C20.103 17.894 20.094 17.952 20.086 17.988H18.376C18.424 18.168 18.51 18.293 18.634 18.363C18.758 18.433 18.904 18.468 19.072 18.468C19.176 18.468 19.277 18.453 19.375 18.423C19.473 18.393 19.576 18.348 19.684 18.288L20.02 18.9C19.856 19.016 19.675 19.103 19.477 19.161C19.279 19.219 19.096 19.248 18.928 19.248ZM21.532 16.176H20.692V19.176H21.724V17.508C21.796 17.32 21.891 17.189 22.009 17.115C22.127 17.041 22.24 17.004 22.348 17.004C22.416 17.004 22.475 17.009 22.525 17.019C22.575 17.029 22.628 17.04 22.684 17.052L22.852 16.164C22.808 16.144 22.758 16.129 22.702 16.119C22.646 16.109 22.572 16.104 22.48 16.104C22.332 16.104 22.181 16.151 22.027 16.245C21.873 16.339 21.74 16.488 21.628 16.692H21.604L21.532 16.176ZM24.556 19.248C24.344 19.248 24.146 19.213 23.962 19.143C23.778 19.073 23.618 18.971 23.482 18.837C23.346 18.703 23.239 18.538 23.161 18.342C23.083 18.146 23.044 17.924 23.044 17.676C23.044 17.428 23.088 17.206 23.176 17.01C23.264 16.814 23.382 16.649 23.53 16.515C23.678 16.381 23.849 16.279 24.043 16.209C24.237 16.139 24.44 16.104 24.652 16.104C24.832 16.104 24.994 16.132 25.138 16.188C25.282 16.244 25.412 16.32 25.528 16.416L25.048 17.076C24.98 17.02 24.921 16.982 24.871 16.962C24.821 16.942 24.768 16.932 24.712 16.932C24.52 16.932 24.37 16.999 24.262 17.133C24.154 17.267 24.1 17.448 24.1 17.676C24.1 17.904 24.155 18.085 24.265 18.219C24.375 18.353 24.512 18.42 24.676 18.42C24.76 18.42 24.843 18.402 24.925 18.366C25.007 18.33 25.084 18.284 25.156 18.228L25.552 18.9C25.4 19.032 25.235 19.123 25.057 19.173C24.879 19.223 24.712 19.248 24.556 19.248ZM26.434 19.173C26.546 19.223 26.672 19.248 26.812 19.248C26.976 19.248 27.125 19.215 27.259 19.149C27.393 19.083 27.52 18.996 27.64 18.888H27.664L27.736 19.176H28.576V17.508C28.576 17.016 28.465 16.659 28.243 16.437C28.021 16.215 27.716 16.104 27.328 16.104C27.092 16.104 26.866 16.138 26.65 16.206C26.434 16.274 26.22 16.372 26.008 16.5L26.368 17.172C26.524 17.088 26.662 17.025 26.782 16.983C26.902 16.941 27.016 16.92 27.124 16.92C27.38 16.92 27.52 17.024 27.544 17.232C26.968 17.292 26.552 17.411 26.296 17.589C26.04 17.767 25.912 18.012 25.912 18.324C25.912 18.448 25.932 18.566 25.972 18.678C26.012 18.79 26.071 18.888 26.149 18.972C26.227 19.056 26.322 19.123 26.434 19.173ZM29.248 16.176H30.088L30.16 16.692H30.184C30.296 16.488 30.429 16.339 30.583 16.245C30.737 16.151 30.888 16.104 31.036 16.104C31.128 16.104 31.202 16.109 31.258 16.119C31.314 16.129 31.364 16.144 31.408 16.164L31.24 17.052C31.184 17.04 31.131 17.029 31.081 17.019C31.031 17.009 30.972 17.004 30.904 17.004C30.796 17.004 30.683 17.041 30.565 17.115C30.447 17.189 30.352 17.32 30.28 17.508V19.176H29.248V16.176ZM18.364 17.316H19.252C19.252 17.2 19.223 17.099 19.165 17.013C19.107 16.927 19 16.884 18.844 16.884C18.728 16.884 18.627 16.918 18.541 16.986C18.455 17.054 18.396 17.164 18.364 17.316ZM33.334 18.363C33.274 18.393 33.204 18.408 33.124 18.408C32.984 18.408 32.875 18.352 32.797 18.24C32.719 18.128 32.68 17.936 32.68 17.664C32.68 17.4 32.723 17.214 32.809 17.106C32.895 16.998 32.992 16.944 33.1 16.944C33.168 16.944 33.238 16.954 33.31 16.974C33.382 16.994 33.448 17.032 33.508 17.088V18.192C33.452 18.276 33.394 18.333 33.334 18.363ZM10.555 18.399C10.501 18.437 10.432 18.456 10.348 18.456C10.2339 18.456 10.1552 18.4283 10.1118 18.3729C10.0853 18.339 10.072 18.2947 10.072 18.24C10.072 18.156 10.118 18.078 10.21 18.006C10.302 17.934 10.472 17.88 10.72 17.844V18.252C10.664 18.312 10.609 18.361 10.555 18.399ZM27.379 18.399C27.325 18.437 27.256 18.456 27.172 18.456C27.0579 18.456 26.9791 18.4283 26.9358 18.3729C26.9093 18.339 26.896 18.2947 26.896 18.24C26.896 18.156 26.942 18.078 27.034 18.006C27.126 17.934 27.296 17.88 27.544 17.844V18.252C27.488 18.312 27.433 18.361 27.379 18.399Z" fill="#A9A9A9"/>
</svg>
