<svg width="10" height="16" viewBox="0 0 10 16" fill="none" xmlns="http://www.w3.org/2000/svg">
<path d="M9.11506 0.474317C8.79908 0.157989 8.42448 0 7.99183 0H1.60162C1.16883 0 0.79445 0.15812 0.478253 0.474317C0.162057 0.790339 0.00393677 1.16485 0.00393677 1.59751V14.3783C0.00393677 14.8109 0.162057 15.1854 0.478253 15.5015C0.79445 15.8177 1.16883 15.9759 1.60162 15.9759H7.99183C8.42444 15.9759 8.79908 15.8176 9.11502 15.5015C9.43126 15.1854 9.58942 14.8109 9.58942 14.3783V1.59751C9.58942 1.16485 9.43148 0.790514 9.11506 0.474317ZM3.79825 1.59751H5.79541C5.92857 1.59751 5.99497 1.66409 5.99497 1.79725C5.99497 1.93036 5.92852 1.99703 5.79541 1.99703H3.79825C3.66514 1.99703 3.59856 1.93036 3.59856 1.79725C3.59851 1.66409 3.66509 1.59751 3.79825 1.59751ZM5.50212 15.0835C5.30645 15.2789 5.07143 15.3767 4.79676 15.3767C4.52223 15.3767 4.28721 15.2789 4.09163 15.0835C3.89604 14.8878 3.79825 14.6527 3.79825 14.3783C3.79825 14.1037 3.89617 13.8686 4.09163 13.673C4.28708 13.4777 4.52227 13.3795 4.79676 13.3795C5.07148 13.3795 5.30649 13.4777 5.50212 13.673C5.69766 13.8686 5.79537 14.1037 5.79537 14.3783C5.79537 14.653 5.69753 14.8879 5.50212 15.0835ZM8.39143 12.3814C8.39143 12.4894 8.35196 12.5834 8.27279 12.6623C8.19353 12.7412 8.10015 12.7806 7.99213 12.7806H1.60162C1.49346 12.7806 1.39987 12.7411 1.32083 12.6623C1.24179 12.5834 1.20227 12.4894 1.20227 12.3814V3.59471C1.20227 3.48656 1.24175 3.39287 1.32083 3.31392C1.39991 3.23502 1.49346 3.19528 1.60162 3.19528H7.99182C8.10015 3.19528 8.19362 3.23484 8.27279 3.31392C8.35196 3.39292 8.39126 3.48656 8.39126 3.59471V12.3814H8.39143Z" fill="#D3D3D3"/>
</svg>
