<svg width="14" height="14" viewBox="0 0 14 14" fill="none" xmlns="http://www.w3.org/2000/svg">
<path fill-rule="evenodd" clip-rule="evenodd" d="M0 0.699982C0 0.313982 0.313997 0 0.699997 0H3.5C3.886 0 4.2 0.313982 4.2 0.699982C4.2 1.08698 3.886 1.39999 3.5 1.39999H1.39999V3.5C1.39999 3.887 1.086 4.19998 0.699997 4.19998C0.313997 4.19998 0 3.887 0 3.5V0.699982ZM9.8 0.699982C9.8 0.313982 10.114 0 10.5 0H13.3C13.686 0 14 0.313982 14 0.699982V3.5C14 3.887 13.686 4.19998 13.3 4.19998C12.914 4.19998 12.6 3.887 12.6 3.5V1.39999H10.5C10.114 1.39999 9.8 1.08698 9.8 0.699982ZM1.39999 10.5V12.6H3.5C3.886 12.6 4.2 12.914 4.2 13.3C4.2 13.687 3.886 14 3.5 14H0.699997C0.313997 14 0 13.687 0 13.3V10.5C0 10.114 0.313997 9.79999 0.699997 9.79999C1.086 9.79999 1.39999 10.114 1.39999 10.5ZM12.6 12.6V10.5C12.6 10.114 12.914 9.79999 13.3 9.79999C13.686 9.79999 14 10.114 14 10.5V13.3C14 13.687 13.686 14 13.3 14H10.5C10.114 14 9.8 13.687 9.8 13.3C9.8 12.914 10.114 12.6 10.5 12.6H12.6Z" fill="url(#paint0_linear_87_24)"/>
<defs>
<linearGradient id="paint0_linear_87_24" x1="7" y1="0" x2="7" y2="14" gradientUnits="userSpaceOnUse">
<stop stop-color="#FFBA10"/>
<stop offset="1" stop-color="#FC7712"/>
</linearGradient>
</defs>
</svg>
