<?xml version="1.0" encoding="utf-8"?>
<svg width="25px" height="25px" viewBox="0 0 25 25" version="1.1" xmlns:xlink="http://www.w3.org/1999/xlink" xmlns="http://www.w3.org/2000/svg">
  <path d="M23.928 11.2231C23.8917 10.8997 23.5147 10.6568 23.1887 10.6568C22.1348 10.6568 21.1996 10.038 20.8074 9.08099C20.4067 8.10079 20.6651 6.95766 21.4505 6.23719C21.6978 6.01118 21.7278 5.63285 21.5204 5.37004C20.981 4.68509 20.368 4.06637 19.6985 3.53014C19.4364 3.31979 19.0518 3.34906 18.8246 3.60075C18.139 4.35989 16.9077 4.64204 15.9563 4.24505C14.9661 3.82855 14.3418 2.82525 14.4029 1.74827C14.423 1.40998 14.1757 1.11585 13.8385 1.07658C12.9794 0.977219 12.1129 0.974136 11.2513 1.06973C10.9178 1.10653 10.6706 1.39372 10.6818 1.72773C10.7193 2.7941 10.0874 3.77985 9.10706 4.18138C8.16699 4.56536 6.94434 4.28561 6.26019 3.53323C6.03412 3.28539 5.65576 3.25493 5.39236 3.46023C4.70309 4.00098 4.07623 4.62022 3.53186 5.29953C3.31955 5.56361 3.35077 5.9464 3.60049 6.17361C4.40091 6.89845 4.65936 8.0515 4.24353 9.04299C3.84653 9.98827 2.86496 10.5975 1.74121 10.5975C1.37656 10.5858 1.11682 10.8305 1.07697 11.162C0.9758 12.026 0.974609 12.9063 1.07199 13.7774C1.10809 14.102 1.49655 14.3428 1.82611 14.3428C2.82755 14.3173 3.78903 14.9373 4.19235 15.9187C4.59442 16.8989 4.33597 18.0414 3.54932 18.7625C3.30328 18.9885 3.27206 19.3662 3.4794 19.629C4.01376 20.3096 4.62692 20.9289 5.29874 21.4696C5.56223 21.6819 5.94562 21.6519 6.17401 21.4003C6.86209 20.6392 8.09329 20.3576 9.04102 20.7554C10.0336 21.1706 10.658 22.1738 10.5969 23.2514C10.577 23.5898 10.8254 23.8845 11.1613 23.9232C11.6007 23.9744 12.0428 24 12.4861 24C12.907 24 13.3278 23.9769 13.7486 23.9301C14.0821 23.8933 14.3292 23.6061 14.318 23.2715C14.2794 22.2057 14.9124 21.22 15.8914 20.8191C16.8378 20.4326 18.0554 20.7155 18.7396 21.4671C18.9669 21.7144 19.3426 21.7443 19.6075 21.5397C20.2955 21.0002 20.9211 20.3815 21.468 19.7003C21.6802 19.4368 21.6503 19.0534 21.3993 18.8263C20.5988 18.1015 20.3391 16.9482 20.7549 15.9574C21.1459 15.0247 22.091 14.3985 23.1076 14.3985L23.2498 14.4021C23.5796 14.4289 23.8829 14.1749 23.9229 13.8384C24.0242 12.9736 24.0254 12.0941 23.928 11.2231ZM12.5182 16.3602C10.4029 16.3602 8.68225 14.6396 8.68225 12.5243C8.68225 10.4091 10.4029 8.68845 12.5182 8.68845C14.6335 8.68845 16.3541 10.4091 16.3541 12.5243C16.3541 14.6396 14.6335 16.3602 12.5182 16.3602Z" id="Shape" fill="none" stroke="#BCBCBC" stroke-width="2" />
</svg>