<svg width="14" height="16" viewBox="0 0 14 16" fill="none" xmlns="http://www.w3.org/2000/svg">
<path fill-rule="evenodd" clip-rule="evenodd" d="M6.56067 7.69225C7.61745 7.69225 8.53253 7.31323 9.28021 6.56542C10.0279 5.81774 10.4069 4.9029 10.4069 3.846C10.4069 2.78947 10.0279 1.87451 9.28009 1.12658C8.53229 0.37902 7.61732 0 6.56067 0C5.50378 0 4.58894 0.37902 3.84125 1.12671C3.09357 1.87439 2.71442 2.78935 2.71442 3.846C2.71442 4.9029 3.09357 5.81786 3.84137 6.56555C4.58918 7.31311 5.50414 7.69225 6.56067 7.69225Z" fill="#D3D3D3"/>
<path fill-rule="evenodd" clip-rule="evenodd" d="M13.2906 12.2792C13.269 11.9681 13.2254 11.6287 13.1612 11.2702C13.0964 10.9091 13.0129 10.5677 12.913 10.2557C12.8098 9.93324 12.6695 9.61477 12.496 9.30958C12.3159 8.99281 12.1044 8.71698 11.8671 8.49001C11.6189 8.25256 11.3151 8.06165 10.9637 7.92239C10.6135 7.78387 10.2255 7.71369 9.81043 7.71369C9.64742 7.71369 9.48977 7.78058 9.18531 7.9788C8.99793 8.101 8.77875 8.24232 8.53411 8.39864C8.32493 8.53192 8.04154 8.6568 7.69152 8.76986C7.35002 8.88036 7.00329 8.9364 6.66106 8.9364C6.31884 8.9364 5.97222 8.88036 5.63036 8.76986C5.2807 8.65692 4.99732 8.53204 4.78838 8.39876C4.54605 8.24391 4.32675 8.10258 4.13657 7.97868C3.83248 7.78046 3.67471 7.71357 3.5117 7.71357C3.09649 7.71357 2.70858 7.78387 2.35855 7.92251C2.00743 8.06153 1.70346 8.25244 1.45504 8.49013C1.21784 8.71723 1.00621 8.99293 0.826389 9.30958C0.653021 9.61477 0.512671 9.93311 0.409357 10.2558C0.309576 10.5679 0.226121 10.9091 0.161306 11.2702C0.0971004 11.6282 0.0534844 11.9677 0.0319201 12.2796C0.0107212 12.5852 0 12.9023 0 13.2226C0 14.0562 0.264985 14.731 0.787524 15.2287C1.30361 15.7198 1.98648 15.9689 2.81689 15.9689H10.506C11.3364 15.9689 12.019 15.7199 12.5352 15.2287C13.0579 14.7314 13.3229 14.0564 13.3229 13.2225C13.3227 12.9007 13.3119 12.5833 13.2906 12.2792Z" fill="#D3D3D3"/>
</svg>
