<svg width="28" height="24" viewBox="0 0 28 24" fill="none" xmlns="http://www.w3.org/2000/svg">
<path fill-rule="evenodd" clip-rule="evenodd" d="M2.38938 0C1.06975 0 0 1.15126 0 2.57143C0 3.9916 1.06975 5.14286 2.38938 5.14286H24V0H2.38938Z" fill="#9B9B9B"/>
<path d="M22.0286 12.8571C20.7524 12.8571 19.7143 14.0106 19.7143 15.4286C19.7143 16.8465 20.7524 18 22.0286 18H27.4286V12.8571H22.0286ZM22.8 16.2857H21.2571V14.5714H22.8V16.2857Z" fill="#9B9B9B"/>
<path fill-rule="evenodd" clip-rule="evenodd" d="M21.8036 11.4921H27.4286V6.8017C27.1884 6.8017 2.41071 6.8017 2.41071 6.8017C1.50279 6.8017 0.673607 6.49604 0 6C0 6.35679 0 19.5466 0 20.0913C0 22.2499 1.79882 24 4.01786 24H27.4286V19.3096H21.8036C19.5882 19.3096 17.7857 17.556 17.7857 15.4009C17.7857 13.2457 19.5882 11.4921 21.8036 11.4921Z" fill="#9B9B9B"/>
</svg>
